<?xml version="1.0" encoding="utf-8"?>
<svg viewBox="0 0 576 512" xmlns="http://www.w3.org/2000/svg">
  <path d="M 351.99 432 L 303.99 432 C 290.74 432 279.99 442.75 279.99 456 C 279.99 469.25 290.79 480 303.99 480 L 351.99 480 C 365.24 480 375.09 469.25 375.09 456 C 375.09 442.75 365.19 432 351.99 432 Z M 415.09 304 L 303.99 304 C 290.79 304 279.99 314.8 279.99 328 C 279.99 341.2 290.79 352 303.99 352 L 415.09 352 C 428.34 352 439.09 341.25 439.09 328 C 439.09 314.75 429.19 304 415.09 304 Z M 479.09 176 L 303.99 176 C 290.79 176 279.99 186.8 279.99 200 C 279.99 213.2 290.79 224 303.99 224 L 479.09 224 C 492.34 224 503.09 213.25 503.09 200 C 503.09 186.75 493.19 176 479.09 176 Z M 543.09 48 L 303.99 48 C 290.79 48 279.99 58.75 279.99 72 C 279.99 85.25 290.79 96 303.99 96 L 543.09 96 C 556.34 96 567.09 85.25 567.09 72 C 567.09 58.75 557.19 48 543.09 48 Z M 198.39 335.1 L 143.99 394.9 L 143.99 56.02 C 143.99 42.76 133.29 32 119.99 32 C 106.69 32 95.99 42.76 95.99 56.02 L 95.99 394.92 L 41.62 335.97 C 36.901 330.845 30.46 328.251 24 328.251 C 18.188 328.251 12.34 330.345 7.72 334.626 C -2.03 343.603 -2.62 358.806 6.376 368.566 L 101.476 472.666 C 110.538 482.486 127.666 482.486 136.726 472.666 L 231.826 368.566 C 240.826 358.808 240.232 343.606 230.482 334.626 C 222.49 325.5 207.29 326.2 198.39 335.1 Z" style="fill: rgb(44, 169, 152);"/>
</svg>