<svg xmlns="http://www.w3.org/2000/svg" xmlns:xlink="http://www.w3.org/1999/xlink" xml:space="preserve" enable-background="new 0 0 554 400" viewBox="0 0 554 400">
  <style>
    .st0{display:none}.st1{display:inline}.st2{opacity:.9}.st5{fill:none;stroke:#ce6a6a;stroke-width:.25;stroke-miterlimit:10}.st6{fill:#f3807b}.st17,.st19,.st20{fill:none;stroke:#004680;stroke-width:2;stroke-linecap:round;stroke-linejoin:round;stroke-miterlimit:10}.st19,.st20{opacity:.1;fill:#fff;stroke-width:.681}.st20{opacity:.4}.st21{fill:#dce7f2}.st22{fill:none;stroke:#004680;stroke-width:.681;stroke-linecap:round;stroke-linejoin:round;stroke-miterlimit:10}.st23,.st24{fill:#fff}.st24{stroke:#004680;stroke-width:.681;stroke-linecap:round;stroke-linejoin:round;stroke-miterlimit:10}.st25,.st26,.st27,.st28,.st29,.st30,.st31{fill:none;stroke-linecap:round;stroke-linejoin:round}.st25{stroke:#b1cee6;stroke-width:.681;stroke-dasharray:2.5037,2.5037}.st26,.st27,.st28,.st29,.st30,.st31{stroke:#004680;stroke-width:1.0702;stroke-miterlimit:10}.st27,.st28,.st29,.st30,.st31{fill:#fff}.st28,.st29,.st30,.st31{fill:#83f285;stroke-width:.681}.st29,.st30,.st31{fill:#dce7f2}.st30,.st31{fill:#bdffbf}.st31{fill:none;stroke-width:.7783}.st32{fill:#004680}.st33,.st34,.st35,.st36,.st37{fill:#9cfbd7;stroke:#004680;stroke-width:.681;stroke-linecap:round;stroke-linejoin:round;stroke-miterlimit:10}.st34,.st35,.st36,.st37{fill:#bcfbe2}.st35,.st36,.st37{fill:none;stroke-width:.6771}.st36,.st37{fill:#ff8f8f;stroke-width:.681}.st37{fill:#ffb5b5}.st38{fill:#a8c9fb}.st39{fill:#ffb5b5}.st40{fill:#e04646}.st46,.st47,.st48,.st49,.st50,.st51,.st52,.st53{fill:#dce7f2;stroke:#99b4cc;stroke-width:.4864;stroke-miterlimit:10}.st47,.st48,.st49,.st50,.st51,.st52,.st53{fill:#c1d4e6}.st48,.st49,.st50,.st51,.st52,.st53{fill:#dce7f2;stroke-linecap:round;stroke-linejoin:round}.st49,.st50,.st51,.st52,.st53{fill:none}.st50,.st51,.st52,.st53{fill:#76a5fb;stroke:#004680;stroke-width:.681}.st51,.st52,.st53{fill:#a8c9fb}.st52,.st53{stroke-width:.4864}.st53{fill:none;stroke-width:.6537}.st54{display:inline;fill:#004680}.st55,.st56,.st57{fill:#004680;stroke:#004680;stroke-width:.2432;stroke-miterlimit:10}.st56,.st57{fill:#fff;stroke-width:.4864;stroke-linecap:round;stroke-linejoin:round}.st57{fill:none;stroke-width:.7297}.st58{opacity:.5;fill:#f7971d}.st59{fill:none;stroke:#f7971d;stroke-width:.6155;stroke-linecap:round;stroke-linejoin:round;stroke-miterlimit:10}.st62{display:none;fill:#004680}.st65{fill:none;stroke:#ededed;stroke-width:1.1639;stroke-linecap:round;stroke-linejoin:round;stroke-miterlimit:10}.st75{fill:#2785c5}.st76,.st77{fill:none;stroke:#2768c5;stroke-width:.2091;stroke-linecap:round;stroke-linejoin:round;stroke-miterlimit:10}.st77{stroke:#20719e;stroke-width:.1493}.st78{fill:#cfe2f0}.st80{fill:#183d54}.st81{fill:#c4d3db}.st82,.st83,.st84,.st85{fill:#adcdff;stroke:#183d54;stroke-width:1.5;stroke-linecap:round;stroke-linejoin:round;stroke-miterlimit:10}.st83,.st84,.st85{fill:#dbe9ff}.st84,.st85{fill:none}.st85{fill:#fff}.st86{opacity:.9;fill:#86caef;stroke:#c1d2e0;stroke-width:4}.st100,.st86,.st87,.st90,.st93,.st98,.st99{stroke-linecap:round;stroke-linejoin:round;stroke-miterlimit:10}.st87{opacity:.5;fill:#86caef;stroke:#c1d2e0;stroke-width:4}.st100,.st90,.st93,.st98,.st99{fill:#f5f9ff;stroke:#183d54;stroke-width:1.5}.st100,.st93,.st98,.st99{fill:#fff;stroke:#c1d2e0}.st100,.st98,.st99{fill:#35d0ba;stroke:#183d54}.st100,.st99{fill:#35eeba}.st100{fill:none;stroke-width:1.1644}.st101,.st102,.st103,.st104{fill:#183d54;stroke:#183d54;stroke-miterlimit:10}.st102,.st103,.st104{fill:#fff;stroke-linecap:round;stroke-linejoin:round}.st103,.st104{fill:#f7d186;stroke-width:1.5}.st104{fill:#ffe8c0}.st105{clip-path:url(#SVGID_25_)}.st106{fill:#f3807b;stroke:#183d54;stroke-width:1.5;stroke-miterlimit:10}.st106,.st107,.st108{stroke-linecap:round;stroke-linejoin:round}.st107{fill:#efa0a0;stroke:#183d54;stroke-width:1.5;stroke-miterlimit:10}.st108{fill:#ffe8b6}.st108,.st109,.st110{stroke:#183d54;stroke-width:1.5;stroke-miterlimit:10}.st109{fill:#ffcd3c;stroke-linecap:round;stroke-linejoin:round}.st110{fill:#f9d093}.st110,.st111{stroke-linecap:round;stroke-linejoin:round}.st111,.st113,.st116,.st118,.st119,.st120,.st122,.st123{fill:#d8ae64;stroke:#183d54;stroke-width:1.5;stroke-miterlimit:10}.st116,.st118,.st119,.st120,.st122,.st123{fill:#dce7f2;stroke-linecap:round;stroke-linejoin:round}.st118,.st119,.st120,.st122,.st123{fill:#83f285}.st119,.st120,.st122,.st123{fill:#ff8f8f}.st120,.st122,.st123{fill:#9d92fb}.st122,.st123{fill:#ffcd3c;stroke:#004680}.st123{fill:#ffe8b6}.st125{fill:#3ce8b7}.st126{fill:#ffcd3c}.st127,.st128{display:none;fill:#3ce8b7}.st128{fill:#7890fb}.st146{fill:none;stroke:#183d54;stroke-width:2.2;stroke-linecap:round;stroke-linejoin:round;stroke-miterlimit:10}
  </style>
  <g id="Layer_4">
    <defs>
      <path id="SVGID_14_" d="M419.7 199.8V169l-62.6-36.2v30.3l.1.1h-.5l-21.2 6.8-17.8 11.8s-9 10.1-8.9 10.3c.1.2-7 6.9-5.9 7 1 .1 52.2 31.7 52.8 31.7.6 0 7.9 4.9 8.6 4.5.7-.3 57.4-32.5 57.4-32.5l6.9 5 .8-2.4-9.7-5.6z"/>
    </defs>
    <clipPath id="SVGID_15_"/>
    <path d="m420.2 168.4-70 40.4c-2.3 1.3-4.4 3.8-6 6.7-1.5 2.9-2.5 6.3-2.5 9.4 0 3.2 1 5.5 2.7 6.6-14.1-8.4-50.3-28.9-50.3-28.9-1.9-1-3-3.4-3-6.9 0-3.1.9-6.5 2.5-9.4s3.6-5.4 6-6.7l64.4-37.2c4-2.3 8.9-2.3 12.8.1l43.4 25.9z" class="st78"/>
    <linearGradient id="SVGID_16_" x1="-324.922" x2="-314.594" y1="217.707" y2="202.095" gradientTransform="translate(659.818)" gradientUnits="userSpaceOnUse">
      <stop offset="0" stop-color="#fff" stop-opacity="0"/>
      <stop offset=".427" stop-color="#fff"/>
      <stop offset="1" stop-color="#fff" stop-opacity="0"/>
    </linearGradient>
    <path fill="url(#SVGID_16_)" d="m435.9 159.3-85.7 49.2c-2.3 1.3-4.4 3.8-6 6.7-1.5 2.9-2.5 6.3-2.5 9.4 0 3.2 1 5.5 2.7 6.6-14.1-8.4-50.3-28.9-50.3-28.9-1.9-1-3-3.4-3-6.9 0-3.1.9-6.5 2.5-9.4 1.5-2.9 3.6-5.4 6-6.7l94.7-54.7 7.5 6.7 34.1 28z"/>
    <path d="M344.9 231.8c-.2-.1-.3-.2-.4-.3.1.1.3.2.4.3z" class="st80"/>
    <path d="M423.5 184.4c0 3.5-3.1 7.3-4.9 8.4L349 232.9c-4.7 2.7-8.4-.2-8.4-6.4s3.8-13.4 8.4-16.1l60-34.5c6.4-3.7 14.5 1 14.5 8.5z" class="st81"/>
    <path d="M424.8 182.7s-.2 1.5-1.9 4.6c-1.7 3.1-5.2 5.1-5.2 5.1l-67.5 38.9c-4 2.3-7.3.6-8.2-3.8-.2-.8-.2-1.6-.2-2.5 0-3.1.9-6.5 2.5-9.4 1.5-2.9 3.6-5.4 6-6.7l3.5-2 56.5-32.5c2.8-1.6 8.6-6.5 11.3-5.4 3.2 1.3 4.7 8.6 3.2 13.7z" class="st82"/>
    <path d="m421.5 172.5-4.7 10.8-7.3 10-18.2-11.6c-.2-.8-.2-1.6-.2-2.5 0-3.1 6.3-3.2 7.8-6.1 1.5-2.9 10.3-4.9 12.6-6.2l6.1 3.3 3.9 2.3z" class="st83"/>
    <path d="M415.5 173.1c-4.6 2.8-8.4 9.4-8.4 14.8s3.8 7.6 8.4 4.9c4.6-2.7 8.4-9.4 8.4-14.8.1-5.4-3.7-7.6-8.4-4.9" class="st83"/>
    <path d="M415.5 178.3c-2.2 1.3-4 4.4-4 7s1.8 3.6 4 2.3c2.2-1.3 4-4.4 4-7 0-2.5-1.8-3.6-4-2.3" class="st82"/>
    <path d="m376.3 198-4.7 10.9-7.4 9.9-3.4-2.4c-.2-.8-.2-1.6-.2-2.5 0-3.1.9-6.5 2.5-9.4 1.5-2.9 3.6-5.4 6-6.7l3.5-2 3.7 2.2z" class="st83"/>
    <path d="m399.1 185.6-4.7 10.8-7.3 10-16.1-10.3c-.2-.8.3-2.6.3-3.5 0-3.1 3.7-3.5 5.3-6.4 1.5-2.9 10.3-4.9 12.6-6.2l6.1 3.3 3.8 2.3z" class="st83"/>
    <path d="M393.1 186.3c-4.6 2.8-8.4 9.4-8.4 14.8s3.8 7.6 8.4 4.9c4.6-2.7 8.4-9.4 8.4-14.8 0-5.5-3.7-7.7-8.4-4.9" class="st83"/>
    <path d="M393.1 191.5c-2.2 1.3-4 4.4-4 7 0 2.5 1.8 3.6 4 2.3 2.2-1.3 4-4.4 4-7 0-2.6-1.8-3.6-4-2.3" class="st82"/>
    <path d="M370.4 198.6c-4.6 2.8-8.4 9.4-8.4 14.8s3.8 7.6 8.4 4.9c4.6-2.7 8.4-9.4 8.4-14.8s-3.8-7.6-8.4-4.9" class="st83"/>
    <path d="M370.4 203.8c-2.2 1.3-4 4.4-4 7 0 2.5 1.8 3.6 4 2.3 2.2-1.3 4-4.4 4-7-.1-2.5-1.9-3.6-4-2.3" class="st82"/>
    <path d="M419.8 167.6c2.4 1.4 4.2 3.1 5.1 6.3.8 2.8.5 5.8-.2 8.8" class="st84"/>
    <path d="M344.5 231.6c-14.1-8.4-50.4-29.2-50.4-29.2" class="st85"/>
    <path d="M350.2 208.5c-2.3 1.3-4.4 3.8-6 6.7-1.5 2.9-2.5 6.3-2.5 9.4 0 3.2 1.1 5.9 2.7 7M299.5 179.3l65.3-37.7c3.1-1.8 7-1.8 10.1 0l45.3 26.6-70 40.2" class="st85"/>
    <path d="m312.9 181.1 35.6 20.8M339.5 164.5l35.6 20.8" class="st86"/>
    <path d="M420.5 168c-14.1-8.4-45.6-26.3-45.6-26.3" class="st85"/>
    <path d="m133.8 165.8 70 40.4c2.3 1.3 4.4 3.8 6 6.7 1.5 2.9 2.5 6.3 2.5 9.4 0 3.2-1 5.5-2.7 6.6 14.1-8.4 50.3-28.9 50.3-28.9 1.9-1 3-3.4 3-6.9 0-3.1-.9-6.5-2.5-9.4-1.5-2.9-3.6-5.4-6-6.7L190 139.8c-4-2.3-8.9-2.3-12.8.1l-43.4 25.9z" class="st78"/>
    <linearGradient id="SVGID_17_" x1="-187.546" x2="-177.218" y1="215.125" y2="199.513" gradientTransform="matrix(-1 0 0 1 31.633 0)" gradientUnits="userSpaceOnUse">
      <stop offset="0" stop-color="#fff" stop-opacity="0"/>
      <stop offset=".427" stop-color="#fff"/>
      <stop offset="1" stop-color="#fff" stop-opacity="0"/>
    </linearGradient>
    <path fill="url(#SVGID_17_)" d="m118.1 156.7 85.7 49.2c2.3 1.3 4.4 3.8 6 6.7 1.5 2.9 2.5 6.3 2.5 9.4 0 3.2-1 5.5-2.7 6.6 14.1-8.4 50.3-28.9 50.3-28.9 1.9-1 3-3.4 3-6.9 0-3.1-.9-6.5-2.5-9.4-1.5-2.9-3.6-5.4-6-6.7L159.8 122l-7.5 6.7-34.2 28z"/>
    <path d="M209.2 229.2c.2-.1.3-.2.4-.3-.1.1-.3.2-.4.3z" class="st80"/>
    <path d="M130.6 181.8c0 3.5 3.1 7.3 4.9 8.4l69.7 40.1c4.7 2.7 8.4-.2 8.4-6.4s-3.8-13.4-8.4-16.1l-60-34.5c-6.5-3.7-14.6 1-14.6 8.5z" class="st81"/>
    <path d="M129.3 180.1s.2 1.5 1.9 4.6c1.7 3.1 5.2 5.1 5.2 5.1l67.5 38.9c4 2.3 7.3.6 8.2-3.8.2-.8.2-1.6.2-2.5 0-3.1-.9-6.5-2.5-9.4-1.5-2.9-3.6-5.4-6-6.7l-3.5-2-56.5-32.5c-2.8-1.6-8.6-6.5-11.3-5.4-3.3 1.3-4.7 8.6-3.2 13.7z" class="st82"/>
    <path d="m132.6 169.9 4.7 10.8 7.3 10 18.2-11.6c.2-.8.2-1.6.2-2.5 0-3.1-6.3-3.2-7.8-6.1-1.5-2.9-10.3-4.9-12.6-6.2l-6.1 3.3-3.9 2.3z" class="st83"/>
    <path d="M138.5 170.6c4.6 2.8 8.4 9.4 8.4 14.8s-3.8 7.6-8.4 4.9c-4.6-2.7-8.4-9.4-8.4-14.8 0-5.5 3.8-7.7 8.4-4.9" class="st83"/>
    <path d="M138.5 175.8c2.2 1.3 4 4.4 4 7 0 2.5-1.8 3.6-4 2.3-2.2-1.3-4-4.4-4-7 .1-2.6 1.9-3.7 4-2.3" class="st82"/>
    <path d="m177.8 195.4 4.7 10.9 7.4 9.9 3.4-2.4c.2-.8.2-1.6.2-2.5 0-3.1-.9-6.5-2.5-9.4-1.5-2.9-3.6-5.4-6-6.7l-3.5-2-3.7 2.2z" class="st83"/>
    <path d="m155 183.1 4.7 10.8 7.3 10 16.1-10.3c.2-.8-.3-2.6-.3-3.5 0-3.1-3.7-3.5-5.3-6.4-1.5-2.9-10.3-4.9-12.6-6.2l-6.1 3.3-3.8 2.3z" class="st83"/>
    <path d="M161 183.7c4.6 2.8 8.4 9.4 8.4 14.8s-3.8 7.6-8.4 4.9c-4.6-2.7-8.4-9.4-8.4-14.8-.1-5.4 3.7-7.6 8.4-4.9" class="st83"/>
    <path d="M161 188.9c2.2 1.3 4 4.4 4 7 0 2.5-1.8 3.6-4 2.3-2.2-1.3-4-4.4-4-7 0-2.6 1.8-3.6 4-2.3" class="st82"/>
    <path d="M183.7 196.1c4.6 2.8 8.4 9.4 8.4 14.8s-3.8 7.6-8.4 4.9c-4.6-2.7-8.4-9.4-8.4-14.8 0-5.5 3.8-7.7 8.4-4.9" class="st83"/>
    <path d="M183.7 201.3c2.2 1.3 4 4.4 4 7 0 2.5-1.8 3.6-4 2.3-2.2-1.3-4-4.4-4-7 0-2.6 1.8-3.6 4-2.3" class="st82"/>
    <path fill="none" stroke="#004680" stroke-linecap="round" stroke-linejoin="round" stroke-miterlimit="10" stroke-width="1.5" d="M134.2 165c-2.4 1.4-4.2 3.1-5.1 6.3-.8 2.8-.5 5.8.2 8.8"/>
    <path d="M209.5 229c14.1-8.4 50.4-29.2 50.4-29.2" class="st85"/>
    <path d="M203.8 205.9c2.3 1.3 4.4 3.8 6 6.7 1.5 2.9 2.5 6.3 2.5 9.4 0 3.2-1.1 5.9-2.7 7" class="st85"/>
    <path d="m254.6 176.8-65.3-37.7c-3.1-1.8-7-1.8-10.1 0l-45.3 26.6 70 40.2" class="st90"/>
    <path d="m241.2 178.5-35.6 20.8M214.6 161.9 179 182.7" class="st86"/>
    <path d="M133.6 165.4c14.1-8.4 45.6-26.3 45.6-26.3" class="st85"/>
    <g id="machinery">
      <path d="m180.2 265.5.1-25 109.4-37.1 82.8 40.6.2 24.8-94.8 53.9z" class="st83"/>
      <path d="M277.9 312.6v-17.4l88.6-51.8 6 .6.2 24.8-93.9 53.3" class="st85"/>
      <path fill="#c5dbff" d="m262.9 289-82.6-48.5 93.9-46.1 98.3 49.6-94.6 53.8-7.3-4.3"/>
      <path d="m287.3 292.4-9.4 5.4-7.3-4.3M291.4 290.1l-1.3.8M262.9 289l-82.6-48.5 93.9-46.1 98.3 49.6-69.4 39.5" class="st84"/>
      <path d="M180.3 171.2V135l109.4-44.2 82.8 47.6.2 95.1-94.8 53.8-17.6-10.3-67.7-39.6-12.4-7.2v-13.9M180.2 209.7l.1-29.7" class="st83"/>
      <path d="M277.9 287.3v-97.6l88.6-51.8 6 .5.2 95.1z" class="st85"/>
      <path d="M297.1 276.2V243l59-34v33.7M254.7 273.8v-35.2l-58.9-34v33.6" class="st82"/>
      <path d="m288.7 186.1-10.8 6.2-97.6-57.3 93.9-53.2 98.3 56.6-63.7 36.3" class="st85"/>
      <path d="m293.1 183.6-15.2 8.7-97.6-57.3 93.9-53.2 98.3 56.6-66.4 37.8M297.1 181.3l-.9.5" class="st85"/>
      <path d="m336.2 137.9-58.9 33.5-2.1-1.2-58.6-34.4 58.4-33.1.2.1z" class="st83"/>
      <path fill="#c5dbff" stroke="#183d54" stroke-linecap="round" stroke-linejoin="round" stroke-miterlimit="10" stroke-width="1.5" d="M275.2 102.8v67.4l-58.6-34.4 58.4-33.1z"/>
      <path d="M368.6 148.6c-.7.4-1.2 1.3-1.2 2.1s.5 1.1 1.2.7c.7-.4 1.2-1.3 1.2-2.1s-.5-1.1-1.2-.7zM368.6 154.9c-.7.4-1.2 1.3-1.2 2.1s.5 1.1 1.2.7c.7-.4 1.2-1.3 1.2-2.1 0-.7-.5-1.1-1.2-.7zM282.5 197.7c-.7.4-1.2 1.3-1.2 2.1s.5 1.1 1.2.7 1.2-1.3 1.2-2.1-.6-1.1-1.2-.7zM282.5 204.1c-.7.4-1.2 1.3-1.2 2.1s.5 1.1 1.2.7 1.2-1.3 1.2-2.1-.6-1.1-1.2-.7zM274.3 195.8c.7.4 1.2 1.3 1.2 2.1s-.5 1.1-1.2.7c-.7-.4-1.2-1.3-1.2-2.1s.6-1.1 1.2-.7zM274.3 202.1c.7.4 1.2 1.3 1.2 2.1s-.5 1.1-1.2.7c-.7-.4-1.2-1.3-1.2-2.1 0-.7.6-1 1.2-.7zM274.3 269.6c.7.4 1.2 1.3 1.2 2.1s-.5 1.1-1.2.7c-.7-.4-1.2-1.3-1.2-2.1s.6-1.1 1.2-.7zM274.3 276c.7.4 1.2 1.3 1.2 2.1s-.5 1.1-1.2.7c-.7-.4-1.2-1.3-1.2-2.1s.6-1.1 1.2-.7zM184 144.1c.7.4 1.2 1.3 1.2 2.1s-.5 1.1-1.2.7c-.7-.4-1.2-1.3-1.2-2.1s.6-1.1 1.2-.7zM184 150.4c.7.4 1.2 1.3 1.2 2.1s-.5 1.1-1.2.7c-.7-.4-1.2-1.3-1.2-2.1 0-.7.6-1.1 1.2-.7zM184 217.9c.7.4 1.2 1.3 1.2 2.1s-.5 1.1-1.2.7c-.7-.4-1.2-1.3-1.2-2.1s.6-1.1 1.2-.7zM184 224.3c.7.4 1.2 1.3 1.2 2.1s-.5 1.1-1.2.7c-.7-.4-1.2-1.3-1.2-2.1s.6-1.1 1.2-.7zM368.9 220.7c-.7.4-1.2 1.3-1.2 2.1s.5 1.1 1.2.7c.7-.4 1.2-1.3 1.2-2.1s-.5-1.1-1.2-.7zM368.9 227.1c-.7.4-1.2 1.3-1.2 2.1s.5 1.1 1.2.7 1.2-1.3 1.2-2.1-.5-1.1-1.2-.7zM282.7 269.9c-.7.4-1.2 1.3-1.2 2.1s.5 1.1 1.2.7c.7-.4 1.2-1.3 1.2-2.1s-.5-1.1-1.2-.7zM282.7 276.3c-.7.4-1.2 1.3-1.2 2.1s.5 1.1 1.2.7c.7-.4 1.2-1.3 1.2-2.1s-.5-1.1-1.2-.7z" class="st93"/>
      <defs>
        <path id="SVGID_18_" d="M297.6 276.8v-33.3l67.9-39.3V237l-.1.1h.5l23 7.3 19.4 12.8s9.7 11 9.7 11.2 7.6 7.5 6.5 7.6c-1.1.1-56.7 34.4-57.3 34.4-.6 0-8.5 5.3-9.3 4.9-.8-.4-62.3-35.3-62.3-35.3l-7.5 5.4-.8-2.6 10.3-6z"/>
      </defs>
      <clipPath id="SVGID_19_">
        <use xlink:href="#SVGID_18_" overflow="visible"/>
      </clipPath>
      <g clip-path="url(#SVGID_19_)">
        <path d="m268.3 239.7 86.1 49.7c2.3 1.3 4.4 3.8 6 6.7 1.5 2.9 2.5 6.3 2.5 9.4 0 3.2-1 5.5-2.7 6.6 14.1-8.4 50.3-28.9 50.3-28.9 1.9-1 3-3.4 3-6.9 0-3.1-.9-6.5-2.5-9.4s-3.6-5.4-6-6.7l-94.7-54.7-7.9 6.2-34.1 28z" class="st78"/>
        <linearGradient id="SVGID_20_" x1="-456.052" x2="-445.724" y1="298.315" y2="282.703" gradientTransform="matrix(-1 0 0 1 -86.3 0)" gradientUnits="userSpaceOnUse">
          <stop offset="0" stop-color="#fff" stop-opacity="0"/>
          <stop offset=".427" stop-color="#fff"/>
          <stop offset="1" stop-color="#fff" stop-opacity="0"/>
        </linearGradient>
        <path fill="url(#SVGID_20_)" d="m268.7 239.9 85.7 49.2c2.3 1.3 4.4 3.8 6 6.7 1.5 2.9 2.5 6.3 2.5 9.4 0 3.2-1 5.5-2.7 6.6 14.1-8.4 50.3-28.9 50.3-28.9 1.9-1 3-3.4 3-6.9 0-3.1-.9-6.5-2.5-9.4-1.5-2.9-3.6-5.4-6-6.7l-94.7-54.7-7.5 6.7-34.1 28z"/>
        <path d="M359.7 312.4c.2-.1.3-.2.4-.3-.1.1-.2.2-.4.3z" class="st80"/>
        <path d="m259.7 257.1 94.7 54.7c4.7 2.7 8.4-.2 8.4-6.4s-3.8-13.4-8.4-16.1l-94.7-54.7v22.5z" class="st81"/>
        <path d="M259.7 234.7v22.5l94.7 54.7c4 2.3 7.3.6 8.2-3.8.2-.8.2-1.6.2-2.5 0-3.1-.9-6.5-2.5-9.4-1.5-2.9-3.6-5.4-6-6.7l-3.5-2-91.1-52.8z" class="st82"/>
        <path d="m301.8 264.1 4.7 10.8 7.3 10 18.2-11.6c.2-.8.2-1.6.2-2.5 0-3.1-6.3-3.2-7.8-6.1-1.5-2.9-10.3-4.9-12.6-6.2l-6.1 3.3-3.9 2.3z" class="st83"/>
        <path d="M307.8 264.8c4.6 2.8 8.4 9.4 8.4 14.8s-3.8 7.6-8.4 4.9c-4.6-2.7-8.4-9.4-8.4-14.8-.1-5.5 3.7-7.7 8.4-4.9" class="st83"/>
        <path d="M307.8 270c2.2 1.3 4 4.4 4 7 0 2.5-1.8 3.6-4 2.3-2.2-1.3-4-4.4-4-7 0-2.6 1.8-3.6 4-2.3" class="st82"/>
        <path d="m347 289.6 4.7 10.9 7.4 9.9 3.4-2.4c.2-.8.2-1.6.2-2.5 0-3.1-.9-6.5-2.5-9.4-1.5-2.9-3.6-5.4-6-6.7l-3.5-2-3.7 2.2z" class="st83"/>
        <path d="m324.2 277.3 4.7 10.8 7.3 10 16.1-10.3c.2-.8-.3-2.6-.3-3.5 0-3.1-3.7-3.5-5.3-6.4-1.5-2.9-10.3-4.9-12.6-6.2L328 275l-3.8 2.3z" class="st83"/>
        <path d="M330.2 278c4.6 2.8 8.4 9.4 8.4 14.8s-3.8 7.6-8.4 4.9c-4.6-2.7-8.4-9.4-8.4-14.8 0-5.5 3.8-7.7 8.4-4.9" class="st83"/>
        <path d="M330.2 283.1c2.2 1.3 4 4.4 4 7s-1.8 3.6-4 2.3c-2.2-1.3-4-4.4-4-7 0-2.5 1.8-3.6 4-2.3" class="st82"/>
        <path d="M353 290.3c4.6 2.8 8.4 9.4 8.4 14.8s-3.8 7.6-8.4 4.9c-4.6-2.7-8.4-9.4-8.4-14.8-.1-5.5 3.7-7.7 8.4-4.9" class="st83"/>
        <path d="M353 295.5c2.2 1.3 4 4.4 4 7 0 2.5-1.8 3.6-4 2.3-2.2-1.3-4-4.4-4-7 0-2.6 1.8-3.6 4-2.3" class="st82"/>
        <path d="m268.7 239.9 85.7 49.2c2.3 1.3 4.4 3.8 6 6.7 1.5 2.9 2.5 6.3 2.5 9.4 0 3.2-1.1 5.9-2.7 7 14.1-8.4 50.4-29.2 50.4-29.2h0c1.9-1 3-3.4 3-6.9 0-3.1-.9-6.5-2.5-9.4-1.5-2.9-3.6-5.4-6-6.7l-94.7-54.7-7.5 6.7-34.2 27.9z" class="st85"/>
        <path d="m391.8 261.7-35.7 20.8M365.2 245.1l-35.6 20.8" class="st86"/>
      </g>
      <path d="M180.2 216.5v13.7l9.7 5.7-9.6 4.7-.1 25 97.7 57.1 1-.5h0l47.1-26.7 28.5 16.5c.3.2.5.3.8.4.1 0 .2.1.3.1.2.1.4.1.5.2.1 0 .2.1.3.1.2 0 .3.1.5.1h1.7c.2 0 .4-.1.6-.1.1 0 .1 0 .1-.1.2-.1.3-.1.5-.2.1 0 .1-.1.2-.1s.2-.1.3-.2c.1-.1.2-.1.3-.2 14.3-8.5 50-28.7 50-28.7h0c1.9-1 3-3.4 3-6.9v-.2c0-3.1-.9-6.5-2.5-9.4-1.5-2.9-3.6-5.4-6-6.7l-39.2-22.6 6.7-3.8-.1-45.9-.1-49.1h0v0l-.3-.2L274 82l-93.7 53h0v0h0v36.2M180.3 180.1l-.1 29.1" class="st84"/>
      <defs>
        <path id="SVGID_21_" d="M254.1 274.2v-33.3l-67.9-39.3v32.9l.1.1h-.5l-23 7.3-19.4 12.8s-9.7 11-9.7 11.2c.1.2-7.6 7.5-6.5 7.6 1.1.1 56.7 34.4 57.3 34.4.6 0 8.5 5.3 9.3 4.9.8-.4 62.3-35.3 62.3-35.3l7.5 5.4.8-2.6-10.3-6.1z"/>
      </defs>
      <clipPath id="SVGID_22_">
        <use xlink:href="#SVGID_21_" overflow="visible"/>
      </clipPath>
      <g clip-path="url(#SVGID_22_)">
        <path d="m283.5 237.1-86.1 49.7c-2.3 1.3-4.4 3.8-6 6.7-1.5 2.9-2.5 6.3-2.5 9.4 0 3.2 1 5.5 2.7 6.6-14.1-8.4-50.3-28.9-50.3-28.9-1.9-1-3-3.4-3-6.9 0-3.1.9-6.5 2.5-9.4 1.5-2.9 3.6-5.4 6-6.7l94.7-54.7 7.9 6.2 34.1 28z" class="st78"/>
        <linearGradient id="SVGID_23_" x1="-477.829" x2="-467.501" y1="295.716" y2="280.104" gradientTransform="translate(659.818)" gradientUnits="userSpaceOnUse">
          <stop offset="0" stop-color="#fff" stop-opacity="0"/>
          <stop offset=".427" stop-color="#fff"/>
          <stop offset="1" stop-color="#fff" stop-opacity="0"/>
        </linearGradient>
        <path fill="url(#SVGID_23_)" d="m283 237.3-85.7 49.2c-2.3 1.3-4.4 3.8-6 6.7-1.5 2.9-2.5 6.3-2.5 9.4 0 3.2 1 5.5 2.7 6.6-14.1-8.4-50.3-28.9-50.3-28.9-1.9-1-3-3.4-3-6.9 0-3.1.9-6.5 2.5-9.4 1.5-2.9 3.6-5.4 6-6.7l94.7-54.7 7.5 6.7 34.1 28z"/>
        <path d="M192 309.8c-.2-.1-.3-.2-.4-.3.1.1.3.2.4.3z" class="st80"/>
        <path d="m292.1 254.5-94.7 54.7c-4.7 2.7-8.4-.2-8.4-6.4s3.8-13.4 8.4-16.1l94.7-54.7v22.5z" class="st81"/>
        <path d="M292.1 232.1v22.5l-94.7 54.7c-4 2.3-7.3.6-8.2-3.8-.2-.8-.2-1.6-.2-2.5 0-3.1.9-6.5 2.5-9.4 1.5-2.9 3.6-5.4 6-6.7l3.5-2 91.1-52.8z" class="st82"/>
        <path d="m249.9 261.5-4.7 10.8-7.3 10-18.2-11.6c-.2-.8-.2-1.6-.2-2.5 0-3.1 6.3-3.2 7.8-6.1 1.5-2.9 10.3-4.9 12.6-6.2l6.1 3.3 3.9 2.3z" class="st83"/>
        <path d="M244 262.2c-4.6 2.8-8.4 9.4-8.4 14.8s3.8 7.6 8.4 4.9c4.6-2.7 8.4-9.4 8.4-14.8 0-5.5-3.8-7.7-8.4-4.9" class="st83"/>
        <path d="M244 267.4c-2.2 1.3-4 4.4-4 7 0 2.5 1.8 3.6 4 2.3 2.2-1.3 4-4.4 4-7-.1-2.6-1.9-3.6-4-2.3" class="st82"/>
        <path d="m204.7 287-4.7 10.9-7.4 9.9-3.4-2.4c-.2-.8-.2-1.6-.2-2.5 0-3.1.9-6.5 2.5-9.4 1.5-2.9 3.6-5.4 6-6.7l3.5-2 3.7 2.2z" class="st83"/>
        <path d="m227.5 274.7-4.7 10.8-7.3 10-16.1-10.3c-.2-.8.3-2.6.3-3.5 0-3.1 3.7-3.5 5.3-6.4 1.5-2.9 10.3-4.9 12.6-6.2l6.1 3.3 3.8 2.3z" class="st83"/>
        <path d="M221.5 275.4c-4.6 2.8-8.4 9.4-8.4 14.8s3.8 7.6 8.4 4.9c4.6-2.7 8.4-9.4 8.4-14.8.1-5.5-3.7-7.7-8.4-4.9" class="st83"/>
        <path d="M221.5 280.5c-2.2 1.3-4 4.4-4 7 0 2.5 1.8 3.6 4 2.3 2.2-1.3 4-4.4 4-7 0-2.5-1.8-3.6-4-2.3" class="st82"/>
        <path d="M198.8 287.7c-4.6 2.8-8.4 9.4-8.4 14.8s3.8 7.6 8.4 4.9c4.6-2.7 8.4-9.4 8.4-14.8 0-5.5-3.8-7.7-8.4-4.9" class="st83"/>
        <path d="M198.8 292.9c-2.2 1.3-4 4.4-4 7s1.8 3.6 4 2.3c2.2-1.3 4-4.4 4-7 0-2.6-1.8-3.6-4-2.3" class="st82"/>
        <path d="m283 237.3-85.7 49.2c-2.3 1.3-4.4 3.8-6 6.7-1.5 2.9-2.5 6.3-2.5 9.4 0 3.2 1.1 5.9 2.7 7-14.1-8.4-50.4-29.2-50.4-29.2h0c-1.9-1-3-3.4-3-6.9 0-3.1.9-6.5 2.5-9.4 1.5-2.9 3.6-5.4 6-6.7l94.7-54.7 7.5 6.7 34.2 27.9z" class="st90"/>
        <path d="m160 259.1 35.6 20.8M186.6 242.5l35.6 20.8" class="st86"/>
      </g>
    </g>
    <path d="m359.1 265.8 10.5 6c1.8 1 4.8.9 6.8-.3l11.8-6.8c1.2-.7 1.7-1.6 1.7-2.4v-5.5c.1-.7-.3-1.4-1.2-1.9l-12.9-7.5c-1.8-1-4.8-.9-6.8.3l-11.8 6.8c-1.1.6-1.7 1.5-1.7 2.2h0v5.7h0c0 .7.4 1.3 1.2 1.8l.6.4" class="st98"/>
    <path d="m376.6 265.7-.2.1c-2 1.2-5.1 1.3-6.8.3l-12.9-7.5c-1.8-1-1.5-2.8.5-3.9l11.8-6.8c2-1.2 5.1-1.3 6.8-.3l12.9 7.5c1.8 1 1.5 2.8-.5 3.9l-8.1 4.7" class="st99"/>
    <path d="M364.5 258.2c-.5-1.8.5-3.7 2.8-5.1 3.6-2.2 9-2.3 12.2-.3s2.9 5.6-.7 7.8c-3.6 2.2-9 2.3-12.2.3" class="st100"/>
    <ellipse cx="369.5" cy="259.1" class="st80" rx="1" ry=".7" transform="rotate(-5.438 369.515 259.07)"/>
    <ellipse cx="375.6" cy="258.2" class="st80" rx="1" ry=".7" transform="rotate(-5.438 375.602 258.207)"/>
    <ellipse cx="371" cy="255.2" class="st80" rx="1" ry=".7" transform="rotate(-5.438 370.988 255.21)"/>
    <ellipse cx="374.4" cy="256" class="st80" rx="1" ry=".7" transform="rotate(-5.438 374.368 256.039)"/>
    <path d="M377.8 258.4c-.4-.3-.4-.8.1-1.1s1.2-.3 1.7 0 .4.8-.1 1.1-1.3.3-1.7 0zm1.6-1c-.3-.2-.9-.2-1.3 0s-.4.6-.1.8c.3.2.9.2 1.3 0s.4-.6.1-.8zM375.8 255.2c-.4-.3-.4-.8.1-1.1.5-.3 1.2-.3 1.7 0s.4.8-.1 1.1c-.6.2-1.3.2-1.7 0zm1.5-1c-.3-.2-.9-.2-1.3 0s-.4.6-.1.8c.3.2.9.2 1.3 0s.5-.6.1-.8zM370.8 253.8c-.4-.3-.4-.8.1-1.1.5-.3 1.2-.3 1.7 0 .4.3.4.8-.1 1.1-.6.3-1.3.3-1.7 0zm1.5-1c-.3-.2-.9-.2-1.3 0s-.4.6-.1.8c.3.2.9.2 1.3 0s.5-.5.1-.8z" class="st101"/>
    <path d="m369.5 259.1 1.5-3.9M369.5 259.1l4.9-3.1M375.6 258.2l-6.3.9" class="st102"/>
    <path d="m184.8 260.6 10.5 6c1.8 1 4.8.9 6.8-.3l11.8-6.8c1.2-.7 1.7-1.6 1.7-2.4v-5.5c.1-.7-.3-1.4-1.2-1.9l-12.9-7.5c-1.8-1-4.8-.9-6.8.3l-11.8 6.8c-1.1.6-1.7 1.5-1.7 2.2h0v5.7h0c0 .7.4 1.3 1.2 1.8l.6.4" class="st103"/>
    <path d="m202.4 260.5-.2.1c-2 1.2-5.1 1.3-6.8.3l-12.9-7.5c-1.8-1-1.5-2.8.5-3.9l11.8-6.8c2-1.2 5.1-1.3 6.8-.3l12.9 7.5c1.8 1 1.5 2.8-.5 3.9l-8.1 4.7" class="st104"/>
    <path d="M206.4 252.4c-.1.6-.4 1.2-.8 1.8-2 2.9-6.9 4.1-11 2.7-4.1-1.4-5.7-4.9-3.7-7.8 2-2.9 6.9-4.1 11-2.7 2 .7 3.5 1.9 4.1 3.3" class="st84"/>
    <path d="M193.8 251.4c-1 1.2-1.6 2.6-1.3 4.4M203.2 247s-4.6.8-7.7 3" class="st84"/>
    <path d="M190.4 250s3 5.9 13.9 5.5" class="st84"/>
    <path d="M201.4 246.2s-5.1 5.7 1.1 10.4" class="st84"/>
    <defs>
      <path id="SVGID_24_" d="M374 194.4v-54.1l45.8 27.3z"/>
    </defs>
    <clipPath id="SVGID_25_">
      <use xlink:href="#SVGID_24_" overflow="visible"/>
    </clipPath>
    <g class="st105">
      <path d="m352.8 177.4 10.5 6c1.8 1 4.8.9 6.8-.3l11.8-6.8c1.2-.7 1.7-1.6 1.7-2.4v-5.5c.1-.7-.3-1.4-1.2-1.9l-12.9-7.5c-1.8-1-4.8-.9-6.8.3l-11.8 6.8c-1.1.6-1.7 1.5-1.7 2.2h0v5.7h0c0 .7.4 1.3 1.2 1.8l.6.4" class="st98"/>
      <path d="m370.3 177.3-.2.1c-2 1.2-5.1 1.3-6.8.3l-12.9-7.5c-1.8-1-1.5-2.8.5-3.9l11.8-6.8c2-1.2 5.1-1.3 6.8-.3l12.9 7.5c1.8 1 1.5 2.8-.5 3.9l-8.1 4.7" class="st99"/>
    </g>
    <g class="st105">
      <path d="M367.1 173.9c.5.1 1.1.1 1.7 0M361.3 167.2c-.4.3-.7.6-1 1-.9 1.6.8 2.5 1.6 3s.8 1.3.8 1.3 1.3 0 2.1.4c.5.3 1.2.7 2.3 1M364.1 166.1c-.4.2-.8.2-.8.2M370.7 173.3c1.4-.7 1.7-1.6 1.7-1.6s.5-1.3 2.1-1.6 1.7-.3 1.7-.3l.4-2.6s-2.5.1-3.1-2c-3.4-.2-3.3-1.9-3.3-1.9l-4 .4s0 .1-.4 1.1c-.2.6-1 1-1.6 1.2" class="st84"/>
      <path d="M366.3 167.6c1 .6 1.1 1.5.1 2.2-1 .7-2.4.7-3.4.1s-1-1.5 0-2.2l1.2.7c-.3.2-.4.5 0 .7.3.2.8.1 1.1-.1.4-.2.4-.5 0-.7l-1.4-.9v-.2l2.8-1.6 2.7 1.6-1.1.8-1.8-1.1-.6.3.4.4zM370.7 170.4c.5.5.3 1.2-.4 1.7-1 .7-2.4.7-3.5.1-1-.6-1-1.5 0-2.2l1.2.7c-.3.2-.4.5-.1.7.3.2.8.2 1.1-.1.4-.2.4-.5 0-.7l-.7-.4.3-.2 2.1-.4-1.5-.9 1.1-.8 3.2 1.9-.2.2-2.6.4z" class="st32"/>
    </g>
    <path d="m397.1 286.4 4.4 11.3c.7 1.9 3.2 3.7 5.5 4l13.5 2c1.3.2 2.3-.1 2.8-.8l3.4-4.3c.5-.5.6-1.3.2-2.2l-5.5-13.9c-.7-1.9-3.2-3.7-5.5-4l-13.5-2c-1.3-.2-2.2.1-2.7.7h0l-3.5 4.4h0c-.4.5-.5 1.2-.2 2.1l.3.7" class="st106"/>
    <path d="M410.9 297.2h-.3c-2.3-.3-4.8-2.2-5.5-4l-5.5-13.9c-.7-1.9.5-3.1 2.8-2.8l13.5 2c2.3.3 4.8 2.2 5.5 4l5.5 13.9c.7 1.9-.5 3.1-2.8 2.8l-9.2-1.4" class="st107"/>
    <path d="m417.5 289.9-1.1-3.8 3.1.2 1.1 3.8zM410.4 289.2l-1.2-3.8 3.1.3 1.2 3.8zM411.2 291.8l-.2-.5 3.1.3 1.2 3.8-1-.1M411.6 293.2l-.2-.7M412.6 295.1h-.4l-.4-1.3M414.3 295.3l-.5-.1M411.1 281.7l.6 1.9-3.1-.2-1.2-3.9 3.1.3.2.8M412.1 281.8l1.4.1 3.7 11.8-1.5-.1M416.4 287.9l-2.5-.2M284.8 106.1l4.1-11.4c.7-1.9 0-4.9-1.5-6.7l-8.8-10.5c-.9-1-1.8-1.4-2.6-1.2l-5.4.9c-.7.1-1.3.6-1.6 1.5l-5.1 14c-.7 1.9 0 4.9 1.5 6.7l8.8 10.5c.8 1 1.7 1.4 2.5 1.3h0l5.6-1h0c.7-.1 1.2-.6 1.6-1.5l.2-.7" class="st107"/>
    <path d="m281.6 88.8.2.2c1.5 1.8 2.2 4.8 1.5 6.7l-5.1 14c-.7 1.9-2.5 2-4 .2l-8.8-10.5c-1.5-1.8-2.2-4.8-1.5-6.7l5.1-14c.7-1.9 2.5-2 4-.2l6 7.2" class="st106"/>
    <path d="m313.6 60.5 7.8-9.3c1.3-1.5 1.7-4.6.9-6.8l-4.7-12.8c-.5-1.3-1.2-2-2.1-2.1l-5.4-.9c-.7-.2-1.4.1-2 .8l-9.6 11.4c-1.3 1.5-1.7 4.6-.9 6.8l4.7 12.8c.4 1.2 1.1 1.9 1.9 2h0l5.6 1h0c.7.1 1.4-.1 2-.9l.5-.5" class="st108"/>
    <path d="m316.5 43.2.1.2c.8 2.2.4 5.2-.9 6.8l-9.6 11.4c-1.3 1.5-3 1-3.8-1.2l-4.7-12.8c-.8-2.2-.4-5.2.9-6.8l9.6-11.4c1.3-1.5 3-1 3.8 1.2l3.2 8.8" class="st109"/>
    <path d="m239.7 32.6-4.3-11.3c-.7-1.9-3.2-3.7-5.5-4.1l-13.5-2.1c-1.3-.2-2.3.1-2.8.8l-3.4 4.2c-.5.5-.6 1.3-.3 2.2l5.4 13.9c.7 1.9 3.2 3.7 5.5 4.1l13.5 2.1c1.3.2 2.2-.1 2.7-.7h0l3.6-4.4h0c.4-.5.5-1.2.2-2.1l-.3-.7" class="st110"/>
    <path d="M226 21.7h.3c2.3.4 4.8 2.2 5.5 4.1l5.4 13.9c.7 1.9-.6 3.1-2.9 2.8l-13.5-2.1c-2.3-.4-4.8-2.2-5.5-4.1l-5.4-13.9c-.7-1.9.6-3.1 2.9-2.8l9.2 1.5" class="st111"/>
    <path d="m317.2 135.2-4.1-11.4c-.7-1.9-3.1-3.8-5.4-4.2l-13.5-2.4c-1.3-.2-2.3.1-2.8.7l-3.5 4.2c-.5.5-.6 1.3-.3 2.2l5.1 14c.7 1.9 3.1 3.8 5.4 4.2l13.5 2.4c1.3.2 2.2 0 2.7-.6h0l3.7-4.4h0c.5-.5.6-1.2.2-2.1l-.2-.7" class="st107"/>
    <path d="M303.7 124h.3c2.3.4 4.7 2.3 5.4 4.2l5.1 14c.7 1.9-.6 3.1-2.9 2.7l-13.5-2.4c-2.3-.4-4.7-2.3-5.4-4.2l-5.1-14c-.7-1.9.6-3.1 2.9-2.7l9.2 1.6" class="st106"/>
    <defs>
      <path id="SVGID_26_" d="M297.6 243.4v12.3l23.2 13.3 44.2-31.6-28.7-16.5z"/>
    </defs>
    <clipPath id="SVGID_27_">
      <use xlink:href="#SVGID_26_" overflow="visible"/>
    </clipPath>
    <g clip-path="url(#SVGID_27_)">
      <path d="m299.3 247.8 10.5 6c1.8 1 4.8.9 6.8-.3l11.8-6.8c1.2-.7 1.7-1.6 1.7-2.4v-5.5c.1-.7-.3-1.4-1.2-1.9l-12.9-7.5c-1.8-1-4.8-.9-6.8.3l-11.8 6.8c-1.1.6-1.7 1.5-1.7 2.2v5.7c0 .7.4 1.3 1.2 1.8l.6.4" class="st113"/>
      <path d="m316.8 247.7-.2.1c-2 1.2-5.1 1.3-6.8.3l-12.9-7.5c-1.8-1-1.5-2.8.5-3.9l11.8-6.8c2-1.2 5.1-1.3 6.8-.3l12.9 7.5c1.8 1 1.5 2.8-.5 3.9l-8.1 4.7" class="st110"/>
      <path fill="#d8ae64" d="M323.7 233.9 304.5 245l-5.1-2.9 18.9-11.1z"/>
      <path d="m316.8 247.7-.2.1c-2 1.2-5.1 1.3-6.8.3l-12.9-7.5c-1.8-1-1.5-2.8.5-3.9l11.8-6.8c2-1.2 5.1-1.3 6.8-.3l12.9 7.5c1.8 1 1.5 2.8-.5 3.9l-8.1 4.7" class="st84"/>
      <g id="Procesor_2_">
        <path d="m316.1 232.4-1.7 1.1M318.7 234l-1.7 1.2M321.2 235.6l-1.7 1.1M305.1 239.5l-1.7 1.1M307.8 241.2l-1.8 1.1M310.2 242.7l-1.7 1.1M322 239.8l-1.6-1M319.1 241.6l-1.6-.9M316.4 243.4l-1.6-1M311.9 233.5l-1.6-1M309 235.4l-1.5-1M306.4 237.1l-1.6-1M311.7 243.6l-7.1-4.5c-.4-.2-.3-.6.1-.9l7.8-5.1c.4-.3 1-.3 1.4-.1l7.1 4.5c.4.2.3.6-.1.9l-7.8 5.1c-.5.3-1.1.3-1.4.1z" class="st84"/>
        <path d="m312.2 240.8-3.2-2c-.2-.1-.2-.3 0-.4l3.5-2.3c.2-.1.5-.1.7 0l3.2 2c.2.1.2.3 0 .4l-3.5 2.3c-.2.1-.5.1-.7 0z" class="st84"/>
      </g>
    </g>
    <defs>
      <path id="SVGID_28_" d="m269.8 166.1-31.3-18.2 15.7-18 30.9 10.8 3.1 20.2z"/>
    </defs>
    <clipPath id="SVGID_29_">
      <use xlink:href="#SVGID_28_" overflow="visible"/>
    </clipPath>
    <g clip-path="url(#SVGID_29_)">
      <path d="m262.3 173 8.6-8.6c1.4-1.4 2.1-4.4 1.5-6.7l-3.5-13.2c-.4-1.3-1.1-2.1-1.9-2.2l-5.3-1.4c-.7-.2-1.4 0-2.1.7L249 152.2c-1.4 1.4-2.1 4.4-1.5 6.7l3.5 13.2c.3 1.2 1 2 1.7 2.2h0l5.5 1.5h0c.6.2 1.4 0 2-.7l.5-.5" class="st99"/>
      <path d="m266.7 156.1.1.2c.6 2.3-.1 5.2-1.5 6.7l-10.6 10.6c-1.4 1.4-3.1.8-3.7-1.5l-3.5-13.2c-.6-2.3.1-5.2 1.5-6.7l10.6-10.6c1.4-1.4 3.1-.8 3.7 1.5l2.4 9" class="st98"/>
    </g>
    <g id="app_icons_3_">
      <path d="m462.8 367-29.5 16.9c-5.3 3-14.5 2.6-20.6-.9L377 362.4c-3.5-2-5.2-4.1-5-6.5v-3.4c-.2-2.1 1-4.1 3.5-5.6l39.1-22.4c5.3-3 14.5-2.6 20.6.9l35.7 20.6c3.3 1.9 5 4.4 5 6.7h0v3.4h0c.1 2-1.1 3.9-3.6 5.4l-4.6 2.7" class="st116"/>
      <path d="m397.5 370.7 15.2 8.8c6.6 3.8 14.8 4.2 20.6.9l39.1-22.4c5.3-3 4.6-8.3-1.5-11.9l-35.7-20.6c-6.1-3.5-15.3-3.9-20.6-.9L375.5 347c-5.3 3-4.6 8.3 1.5 11.9l9.9 5.8M391.8 367.3l.6.4" class="st85"/>
      <path d="M406.8 337.1c-.1-.7.3-1.4 1.2-1.9l13.5-7.7c1.8-1 5-.9 7.1.3l12.3 7.1c1.1.7 1.7 1.5 1.7 2.3h0v5.9h0c0 .7-.4 1.4-1.2 1.9l-13.5 7.7c-1.8 1-5 .9-7.1-.3l-12.3-7.1c-1.2-.7-1.8-1.6-1.7-2.5v-5.7z" class="st106"/>
      <path d="m427.9 346.7 13.5-7.7c1.8-1 1.6-2.9-.5-4.1l-12.3-7.1c-2.1-1.2-5.3-1.3-7.1-.3l-13.5 7.7c-1.8 1-1.6 2.9.5 4.1l12.3 7.1c2.1 1.2 5.3 1.3 7.1.3z" class="st106"/>
      <path d="M406.8 331.2c-.1-.7.3-1.4 1.2-1.9l13.5-7.7c1.8-1 5-.9 7.1.3l12.3 7.1c1.1.7 1.7 1.5 1.7 2.3h0v5.9h0c0 .7-.4 1.4-1.2 1.9l-13.5 7.7c-1.8 1-5 .9-7.1-.3l-12.3-7.1c-1.2-.7-1.8-1.6-1.7-2.5v-5.7z" class="st106"/>
      <path d="m427.9 340.8 13.5-7.7c1.8-1 1.6-2.9-.5-4.1l-12.3-7.1c-2.1-1.2-5.3-1.3-7.1-.3l-13.5 7.7c-1.8 1-1.6 2.9.5 4.1l12.3 7.1c2.1 1.2 5.3 1.3 7.1.3z" class="st106"/>
      <path d="M406.8 325.4c-.1-.7.3-1.4 1.2-1.9l13.5-7.7c1.8-1 5-.9 7.1.3l12.3 7.1c1.1.7 1.7 1.5 1.7 2.3h0v5.9h0c0 .7-.4 1.4-1.2 1.9l-13.5 7.7c-1.8 1-5 .9-7.1-.3l-12.3-7.1c-1.2-.7-1.8-1.6-1.7-2.5v-5.7z" class="st106"/>
      <path d="m428 334.9 13.5-7.7c1.8-1 1.6-2.9-.5-4.1l-12.3-7.1c-2.1-1.2-5.3-1.3-7.1-.3l-13.5 7.7c-1.8 1-1.6 2.9.5 4.1l12.3 7.1c2.1 1.2 5.2 1.4 7.1.3z" class="st106"/>
      <path d="M406.8 319.4c-.1-.7.3-1.4 1.2-1.9l13.5-7.7c1.8-1 5-.9 7.1.3l12.3 7.1c1.1.7 1.7 1.5 1.7 2.3h0v5.9h0c0 .7-.4 1.4-1.2 1.9L428 335c-1.8 1-5 .9-7.1-.3l-12.3-7.1c-1.2-.7-1.8-1.6-1.7-2.5l-.1-5.7z" class="st106"/>
      <path d="m428 329 13.5-7.7c1.8-1 1.6-2.9-.5-4.1l-12.3-7.1c-2.1-1.2-5.3-1.3-7.1-.3l-13.5 7.7c-1.8 1-1.6 2.9.5 4.1l12.3 7.1c2.1 1.2 5.2 1.4 7.1.3z" class="st107"/>
      <path d="m428.6 318.4-3.4-2.1 2.5-1.8 3.4 2zM422.8 322.6l-3.4-2 2.6-1.9 3.4 2.1zM425.1 324l-.4-.2 2.5-1.9 3.4 2.1-.8.6-1.4 1-.3.2-1.2-.7zM418.4 316.6l1.7 1-2.5 1.8-3.4-2 2.5-1.9.7.5zM419.2 316l1.2-.9 10.5 6.4-1.2.9M426.5 317.7l-2 1.5" class="st107"/>
      <path d="M425.8 348.2c-.1-.7.3-1.4 1.2-1.9l13.5-7.7c1.8-1 5-.9 7.1.3l12.3 7.1c1.1.7 1.7 1.5 1.7 2.3h0v5.9h0c0 .7-.4 1.4-1.2 1.9l-13.5 7.7c-1.8 1-5 .9-7.1-.3l-12.3-7.1c-1.2-.7-1.8-1.6-1.7-2.5v-5.7z" class="st109"/>
      <path d="m447 357.8 13.5-7.7c1.8-1 1.6-2.9-.5-4.1l-12.3-7.1c-2.1-1.2-5.3-1.3-7.1-.3l-13.5 7.7c-1.8 1-1.6 2.9.5 4.1l12.3 7.1c2.1 1.2 5.2 1.3 7.1.3z" class="st109"/>
      <path d="M425.8 342.3c-.1-.7.3-1.4 1.2-1.9l13.5-7.7c1.8-1 5-.9 7.1.3l12.3 7.1c1.1.7 1.7 1.5 1.7 2.3h0v5.9h0c0 .7-.4 1.4-1.2 1.9l-13.5 7.7c-1.8 1-5 .9-7.1-.3l-12.3-7.1c-1.2-.7-1.8-1.6-1.7-2.5v-5.7z" class="st109"/>
      <path d="m447 351.9 13.5-7.7c1.8-1 1.6-2.9-.5-4.1l-12.3-7.1c-2.1-1.2-5.3-1.3-7.1-.3l-13.5 7.7c-1.8 1-1.6 2.9.5 4.1l12.3 7.1c2.1 1.2 5.2 1.3 7.1.3z" class="st109"/>
      <path d="M425.9 336.4c-.1-.7.3-1.4 1.2-1.9l13.5-7.7c1.8-1 5-.9 7.1.3l12.3 7.1c1.1.7 1.7 1.5 1.7 2.3h0v5.9h0c0 .7-.4 1.4-1.2 1.9L447 352c-1.8 1-5 .9-7.1-.3l-12.3-7.1c-1.2-.7-1.8-1.6-1.7-2.5v-5.7z" class="st109"/>
      <path d="m447 346 13.5-7.7c1.8-1 1.6-2.9-.5-4.1l-12.3-7.1c-2.1-1.2-5.3-1.3-7.1-.3l-13.5 7.7c-1.8 1-1.6 2.9.5 4.1l12.3 7.1c2.1 1.2 5.2 1.3 7.1.3z" class="st109"/>
      <path d="M425.9 330.5c-.1-.7.3-1.4 1.2-1.9l13.5-7.7c1.8-1 5-.9 7.1.3l12.3 7.1c1.1.7 1.7 1.5 1.7 2.3h0v5.9h0c0 .7-.4 1.4-1.2 1.9l-13.5 7.7c-1.8 1-5 .9-7.1-.3l-12.3-7.1c-1.2-.7-1.8-1.6-1.7-2.5v-5.7z" class="st109"/>
      <path d="m455.5 335.2 4.9-2.8c1.8-1 1.6-2.9-.5-4.1l-12.3-7.1c-2.1-1.2-5.3-1.3-7.1-.3l-13.5 7.7c-1.8 1-1.6 2.9.5 4.1l12.3 7.1c2.1 1.2 5.3 1.3 7.1.3l3.9-2.3" class="st108"/>
      <path d="m443 335.4 5.2-4.3-8.4 2.3-.8-.5 3.4-5.4-6.6 3.4-2.6-1.6 11.6-5.8 2.6 1.6-3.4 5 7.8-2.2 2.6 1.6-8.8 7.5-2.6-1.6z" class="st80"/>
      <path d="M386.9 348.6c-.1-.7.3-1.4 1.2-1.9l13.5-7.7c1.8-1 5-.9 7.1.3l12.3 7.1c1.1.7 1.7 1.5 1.7 2.3h0v5.9h0c0 .7-.4 1.4-1.2 1.9l-13.5 7.7c-1.8 1-5 .9-7.1-.3l-12.3-7.1c-1.2-.7-1.8-1.6-1.7-2.5v-5.7z" class="st98"/>
      <path d="m408 358.1 13.5-7.7c1.8-1 1.6-2.9-.5-4.1l-12.3-7.1c-2.1-1.2-5.3-1.3-7.1-.3l-13.5 7.7c-1.8 1-1.6 2.9.5 4.1l12.3 7.1c2.1 1.2 5.3 1.4 7.1.3z" class="st98"/>
      <path d="M386.9 342.6c-.1-.7.3-1.4 1.2-1.9l13.5-7.7c1.8-1 5-.9 7.1.3l12.3 7.1c1.1.7 1.7 1.5 1.7 2.3h0v5.9h0c0 .7-.4 1.4-1.2 1.9l-13.5 7.7c-1.8 1-5 .9-7.1-.3l-12.3-7.1c-1.2-.7-1.8-1.6-1.7-2.5v-5.7z" class="st98"/>
      <path d="m408 352.2 13.5-7.7c1.8-1 1.6-2.9-.5-4.1l-12.3-7.1c-2.1-1.2-5.3-1.3-7.1-.3l-13.5 7.7c-1.8 1-1.6 2.9.5 4.1l12.3 7.1c2.1 1.2 5.3 1.4 7.1.3z" class="st98"/>
      <path d="M386.9 336.8c-.1-.7.3-1.4 1.2-1.9l13.5-7.7c1.8-1 5-.9 7.1.3l12.3 7.1c1.1.7 1.7 1.5 1.7 2.3h0v5.9h0c0 .7-.4 1.4-1.2 1.9l-13.5 7.7c-1.8 1-5 .9-7.1-.3l-12.3-7.1c-1.2-.7-1.8-1.6-1.7-2.5v-5.7z" class="st98"/>
      <path d="M407.8 346.5c.1 0 .1-.1.2-.1l13.5-7.7c1.8-1 1.6-2.9-.5-4.1l-12.3-7.1c-2.1-1.2-5.3-1.3-7.1-.3l-13.5 7.7c-1.8 1-1.6 2.9.5 4.1l12.3 7.1c.6.3 1.2.6 1.9.7" class="st99"/>
      <path d="M405.1 347.1h.4M405.5 347c.2 0 .4 0 .5-.1" class="st118"/>
      <path d="M396.2 337.8c-.5-1.8.5-3.7 2.8-5.1 3.6-2.2 9-2.3 12.2-.3 3.2 2.1 2.9 5.6-.7 7.8-3.6 2.2-9 2.3-12.2.3" class="st100"/>
      <ellipse cx="401.1" cy="338.6" class="st80" rx="1" ry=".7" transform="rotate(-5.438 401.139 338.617)"/>
      <ellipse cx="407.2" cy="337.8" class="st80" rx="1" ry=".7" transform="rotate(-5.438 407.225 337.752)"/>
      <ellipse cx="402.6" cy="334.8" class="st80" rx="1" ry=".7" transform="rotate(-5.438 402.612 334.756)"/>
      <ellipse cx="406" cy="335.6" class="st80" rx="1" ry=".7" transform="rotate(-5.438 405.991 335.584)"/>
      <path d="M409.4 337.9c-.4-.3-.4-.8.1-1.1s1.2-.3 1.7 0c.4.3.4.8-.1 1.1-.5.3-1.3.3-1.7 0zm1.6-.9c-.3-.2-.9-.2-1.3 0s-.4.6-.1.8c.3.2.9.2 1.3 0 .4-.3.4-.6.1-.8zM407.4 334.7c-.4-.3-.4-.8.1-1.1s1.2-.3 1.7 0 .4.8-.1 1.1-1.3.3-1.7 0zm1.6-1c-.3-.2-.9-.2-1.3 0s-.4.6-.1.8c.3.2.9.2 1.3 0s.4-.5.1-.8zM402.4 333.4c-.4-.3-.4-.8.1-1.1.5-.3 1.2-.3 1.7 0 .4.3.4.8-.1 1.1s-1.3.2-1.7 0zm1.5-1c-.3-.2-.9-.2-1.3 0s-.4.6-.1.8c.3.2.9.2 1.3 0s.5-.6.1-.8z" class="st101"/>
      <path d="m401.1 338.6 1.5-3.8M401.1 338.6l4.9-3M407.2 337.8l-6.3.8" class="st102"/>
      <path d="M405.9 359.6c-.1-.7.3-1.4 1.2-1.9l13.5-7.7c1.8-1 5-.9 7.1.3l12.3 7.1c1.1.7 1.7 1.5 1.7 2.3v5.9c0 .7-.4 1.4-1.2 1.9l-13.5 7.7c-1.8 1-5 .9-7.1-.3l-12.3-7.1c-1.2-.7-1.8-1.6-1.7-2.5v-5.7z" class="st113"/>
      <path d="m427 369.2 13.5-7.7c1.8-1 1.6-2.9-.5-4.1l-12.3-7.1c-2.1-1.2-5.3-1.3-7.1-.3l-13.5 7.7c-1.8 1-1.6 2.9.5 4.1l12.3 7.1c2.1 1.2 5.3 1.4 7.1.3z" class="st111"/>
      <path d="M405.9 353.7c-.1-.7.3-1.4 1.2-1.9l13.5-7.7c1.8-1 5-.9 7.1.3l12.3 7.1c1.1.7 1.7 1.5 1.7 2.3v5.9c0 .7-.4 1.4-1.2 1.9l-13.5 7.7c-1.8 1-5 .9-7.1-.3l-12.3-7.1c-1.2-.7-1.8-1.6-1.7-2.5v-5.7z" class="st113"/>
      <path d="m416.5 361 3.4 2c2.1 1.2 5.3 1.3 7.1.3l13.5-7.7c1.8-1 1.6-2.9-.5-4.1l-12.3-7.1c-2.1-1.2-5.3-1.3-7.1-.3l-13.5 7.7c-1.8 1-1.6 2.9.5 4.1l6.8 3.9" class="st110"/>
      <g id="Procesor_3_">
        <path d="m427.6 346.8-1.7 1.2M430.2 348.5l-1.7 1.1M432.7 350l-1.7 1.1M416.6 354l-1.7 1.1M419.3 355.6l-1.8 1.1M421.7 357.1l-1.7 1.2M433.5 354.2l-1.6-1M430.6 356.1l-1.6-1M427.9 357.8l-1.6-.9M423.4 348l-1.6-1M420.5 349.8l-1.5-1M417.8 351.6l-1.5-1M423.2 358.1l-7.1-4.5c-.4-.2-.3-.6.1-.9l7.8-5.1c.4-.3 1-.3 1.4-.1l7.1 4.5c.4.2.3.6-.1.9l-7.8 5.1c-.5.3-1.1.3-1.4.1z" class="st84"/>
        <path d="m423.7 355.2-3.2-2c-.2-.1-.2-.3 0-.4l3.5-2.3c.2-.1.5-.1.7 0l3.2 2c.2.1.2.3 0 .4l-3.5 2.3c-.2.1-.5.1-.7 0z" class="st84"/>
      </g>
      <path d="M372 355.9V351.5c0-.2 0-.3.1-.5 0-.1.1-.2.1-.3 0-.2.1-.3.2-.5 0-.1.1-.2.1-.3.1-.2.1-.3.2-.5.1-.1.1-.2.2-.3.1-.1.2-.3.3-.4l.3-.3.3-.3c.1-.1.3-.3.5-.4.1-.1.2-.2.3-.2l.9-.6s0 0 0 0l11.3-6.5v-4.3c0-.1 0-.1.1-.2v-.1c0-.1 0-.1.1-.2 0 0 0-.1.1-.1l.1-.1.1-.1.1-.1c.1 0 .1-.1.2-.1l.1-.1c.1-.1.2-.1.3-.2l13.5-7.7c1.1-.7 2.8-.8 4.4-.6.3 0 .6.1.9.2V325s0 0 0 0V318.7c0-.1 0-.1.1-.2v-.1c0-.1 0-.1.1-.2 0 0 0-.1.1-.1l.1-.1.1-.1.1-.1s.1-.1.2-.1l.1-.1c.1-.1.2-.1.3-.2l13.5-7.7c.5-.3 1-.4 1.6-.6 1.8-.3 3.9 0 5.5.9l12.3 7.1s0 0 0 0c.1.1.3.2.4.2l.1.1c.1.1.2.1.2.2l.1.1.2.2.1.1c.1.1.1.1.1.2l.1.1c0 .1.1.1.1.2 0 0 0 .1.1.1 0 .1.1.1.1.2v.1c0 .1 0 .1.1.2v.4h0v.7c1.7-.2 3.6.1 5 .9l12.3 7.1s0 0 0 0c.1.1.3.2.4.2l.1.1c.1.1.2.1.2.2l.1.1.2.2.1.1c.1.1.1.1.1.2l.1.1c0 .1.1.1.1.2 0 0 0 .1.1.1 0 .1.1.1.1.2v.1c0 .1 0 .1.1.2v.4h0v5.9h0s0 0 0 0h0v4.2l9.2 5.3s0 0 0 0c.4.2.8.5 1.1.7.1.1.2.2.3.2.2.2.5.3.7.5l.3.3c.2.2.4.3.5.5l.3.3c.1.2.3.3.4.5.1.1.2.2.2.3.1.2.2.4.3.5.1.1.1.2.2.3.1.2.2.4.2.5 0 .1.1.2.1.3.1.2.1.4.2.6 0 .1 0 .2.1.3 0 .2 0 .4.1.6v.2h0v3.4h0c.1 2-1.1 3.9-3.6 5.4l-4.6 2.7-4.9 2.8-29.5 16.9c-5.3 3-14.5 2.6-20.6-.9L377 362.4c-3.5-2-5.2-4-5-6.5z" class="st84"/>
    </g>
    <g id="app_icons_1_">
      <path d="m89.2 367.4 29.4 17c5.3 3 14.5 2.7 20.6-.9l35.6-20.6c3.5-2 5.2-4.1 5-6.5V353c.2-2.1-1-4.1-3.5-5.6l-39-22.4c-5.3-3-14.5-2.7-20.6.9l-35.6 20.6c-3.3 1.9-5 4.4-5 6.7h0v3.4h0c-.1 2 1.1 3.9 3.6 5.4l4.6 2.7" class="st116"/>
      <path d="m154.3 371.1-15.1 8.7c-6.6 3.8-14.8 4.2-20.6.9l-38.9-22.5c-5.3-3-4.6-8.4 1.5-11.9l35.6-20.6c6.1-3.5 15.3-3.9 20.6-.9l38.9 22.5c5.3 3 4.6 8.4-1.5 11.9l-9.9 5.7M160 367.8l-.6.4" class="st85"/>
      <path d="M145 337.6c.1-.7-.3-1.4-1.2-1.9l-13.4-7.7c-1.8-1-5-.9-7.1.3l-12.3 7.1c-1.1.7-1.7 1.5-1.7 2.3h0v5.9h0c0 .7.4 1.4 1.2 1.9l13.4 7.7c1.8 1 5 .9 7.1-.3l12.3-7.1c1.2-.7 1.8-1.6 1.7-2.5v-5.7z" class="st103"/>
      <path d="m123.9 347.1-13.4-7.7c-1.8-1-1.6-2.9.5-4.1l12.3-7.1c2.1-1.2 5.3-1.3 7.1-.3l13.4 7.7c1.8 1 1.6 2.9-.5 4.1l-12.3 7.1c-2.1 1.2-5.2 1.4-7.1.3z" class="st103"/>
      <path d="M145 331.7c.1-.7-.3-1.4-1.2-1.9l-13.4-7.7c-1.8-1-5-.9-7.1.3l-12.3 7.1c-1.1.7-1.7 1.5-1.7 2.3h0v5.9h0c0 .7.4 1.4 1.2 1.9l13.4 7.7c1.8 1 5 .9 7.1-.3l12.3-7.1c1.2-.7 1.8-1.6 1.7-2.5v-5.7z" class="st103"/>
      <path d="m123.9 341.2-13.4-7.7c-1.8-1-1.6-2.9.5-4.1l12.3-7.1c2.1-1.2 5.3-1.3 7.1-.3l13.4 7.7c1.8 1 1.6 2.9-.5 4.1l-12.3 7.1c-2.1 1.2-5.2 1.4-7.1.3z" class="st103"/>
      <path d="M145 325.8c.1-.7-.3-1.4-1.2-1.9l-13.4-7.7c-1.8-1-5-.9-7.1.3l-12.3 7.1c-1.1.7-1.7 1.5-1.7 2.3h0v5.9h0c0 .7.4 1.4 1.2 1.9l13.4 7.7c1.8 1 5 .9 7.1-.3l12.3-7.1c1.2-.7 1.8-1.6 1.7-2.5v-5.7z" class="st103"/>
      <path d="m123.9 335.3-13.4-7.7c-1.8-1-1.6-2.9.5-4.1l12.3-7.1c2.1-1.2 5.3-1.3 7.1-.3l13.4 7.7c1.8 1 1.6 2.9-.5 4.1L131 335c-2.1 1.3-5.2 1.4-7.1.3z" class="st103"/>
      <path d="M145 319.9c.1-.7-.3-1.4-1.2-1.9l-13.4-7.7c-1.8-1-5-.9-7.1.3l-12.3 7.1c-1.1.7-1.7 1.5-1.7 2.3h0v5.9h0c0 .7.4 1.4 1.2 1.9l13.4 7.7c1.8 1 5 .9 7.1-.3l12.3-7.1c1.2-.7 1.8-1.6 1.7-2.5v-5.7z" class="st103"/>
      <path d="m123.9 329.4-13.4-7.7c-1.8-1-1.6-2.9.5-4.1l12.3-7.1c2.1-1.2 5.3-1.3 7.1-.3l13.4 7.7c1.8 1 1.6 2.9-.5 4.1l-12.3 7.1c-2.1 1.3-5.2 1.4-7.1.3z" class="st104"/>
      <path d="M135.3 320.6c-.1.6-.4 1.2-.8 1.8-2 2.9-6.9 4.1-11 2.7-4.1-1.4-5.7-4.9-3.7-7.8s6.9-4.1 11-2.7c2 .7 3.5 1.9 4.1 3.3" class="st84"/>
      <path d="M122.8 319.6c-1 1.2-1.6 2.6-1.3 4.4M132.2 315.1s-4.6.8-7.7 3" class="st84"/>
      <path d="M119.3 318.2s3 5.9 13.9 5.5" class="st84"/>
      <path d="M130.4 314.4s-5.1 5.7 1.1 10.4" class="st84"/>
      <path d="M126 348.6c.1-.7-.3-1.4-1.2-1.9l-13.4-7.7c-1.8-1-5-.9-7.1.3l-12.3 7c-1.1.7-1.7 1.5-1.7 2.3h0v5.9h0c0 .7.4 1.4 1.2 1.9l13.4 7.7c1.8 1 5 .9 7.1-.3l12.3-7.1c1.2-.7 1.8-1.6 1.7-2.5v-5.6z" class="st106"/>
      <path d="m105 358.2-13.4-7.7c-1.8-1-1.6-2.9.5-4.1l12.3-7.1c2.1-1.2 5.3-1.3 7.1-.3l13.4 7.7c1.8 1 1.6 2.9-.5 4.1l-12.3 7.1c-2.2 1.2-5.3 1.3-7.1.3z" class="st106"/>
      <path d="M126 342.7c.1-.7-.3-1.4-1.2-1.9l-13.4-7.7c-1.8-1-5-.9-7.1.3l-12.3 7c-1.1.7-1.7 1.5-1.7 2.3h0v5.9h0c0 .7.4 1.4 1.2 1.9l13.4 7.7c1.8 1 5 .9 7.1-.3l12.3-7.1c1.2-.7 1.8-1.6 1.7-2.5v-5.6z" class="st106"/>
      <path d="m105 352.3-13.4-7.7c-1.8-1-1.6-2.9.5-4.1l12.3-7.1c2.1-1.2 5.3-1.3 7.1-.3l13.4 7.7c1.8 1 1.6 2.9-.5 4.1L112 352c-2.1 1.2-5.2 1.3-7 .3z" class="st106"/>
      <path d="M126 336.9c.1-.7-.3-1.4-1.2-1.9l-13.4-7.7c-1.8-1-5-.9-7.1.3l-12.3 7c-1.1.7-1.7 1.5-1.7 2.3h0v5.9h0c0 .7.4 1.4 1.2 1.9l13.4 7.7c1.8 1 5 .9 7.1-.3l12.3-7.1c1.2-.7 1.8-1.6 1.7-2.5v-5.6z" class="st106"/>
      <path d="m105 346.4-13.4-7.7c-1.8-1-1.6-2.9.5-4.1l12.3-7.1c2.1-1.2 5.3-1.3 7.1-.3l13.4 7.7c1.8 1 1.6 2.9-.5 4.1l-12.3 7.1c-2.2 1.2-5.3 1.3-7.1.3z" class="st106"/>
      <path d="M126 330.9c.1-.7-.3-1.4-1.2-1.9l-13.4-7.7c-1.8-1-5-.9-7.1.3l-12.3 7c-1.1.7-1.7 1.5-1.7 2.3h0v5.9h0c0 .7.4 1.4 1.2 1.9l13.4 7.7c1.8 1 5 .9 7.1-.3l12.3-7.1c1.2-.7 1.8-1.6 1.7-2.5v-5.6z" class="st106"/>
      <path d="m96.4 335.6-4.9-2.8c-1.8-1-1.6-2.9.5-4.1l12.3-7.1c2.1-1.2 5.3-1.3 7.1-.3l13.4 7.7c1.8 1 1.6 2.9-.5 4.1l-12.3 7.1c-2.1 1.2-5.3 1.3-7.1.3l-3.9-2.3" class="st107"/>
      <path d="M112.2 325c.8.3 1.6.6 2.3 1.1 3.4 2.2 3.1 6-.7 8.3-3.8 2.4-9.7 2.5-13.1.3-3.4-2.2-3.1-6 .7-8.3 1.3-.8 2.7-1.3 4.3-1.6" class="st107"/>
      <path d="M109.5 324.5c.9.1 1.8.2 2.7.5M106.9 324.5c.4 0 .8-.1 1.2-.1" class="st106"/>
      <ellipse cx="110.8" cy="328.4" class="st80" rx="1.2" ry="3.9" transform="rotate(-59.881 110.805 328.378)"/>
      <path d="m106.6 326.9-1.3.8s0 1.4 2.3 2.8c2.3 1.5 4.2 1.3 4.2 1.3l1.3-.8s-2.3-.3-4-1.4c-1.8-1.1-2.5-2.7-2.5-2.7z" class="st80"/>
      <path d="m104.5 328.2-1.3.8s0 1.4 2.3 2.8c2.3 1.5 4.2 1.3 4.2 1.3l1.3-.8s-2.3-.3-4-1.4-2.5-2.7-2.5-2.7z" class="st80"/>
      <path d="m102.5 329.5-1.3.8s0 1.4 2.3 2.8c2.3 1.5 4.2 1.3 4.2 1.3l1.3-.8s-2.3-.3-4-1.4c-1.8-1.1-2.5-2.7-2.5-2.7z" class="st80"/>
      <path d="M164.9 349c.1-.7-.3-1.4-1.2-1.9l-13.4-7.7c-1.8-1-5-.9-7.1.3l-12.3 7.1c-1.1.7-1.7 1.5-1.7 2.3h0v5.9h0c0 .7.4 1.4 1.2 1.9l13.4 7.7c1.8 1 5 .9 7.1-.3l12.3-7.1c1.2-.7 1.8-1.6 1.7-2.5V349z" class="st106"/>
      <path d="m143.8 358.6-13.4-7.7c-1.8-1-1.6-2.9.5-4.1l12.3-7.1c2.1-1.2 5.3-1.3 7.1-.3l13.4 7.7c1.8 1 1.6 2.9-.5 4.1l-12.3 7.1c-2.1 1.2-5.2 1.3-7.1.3z" class="st106"/>
      <path d="M164.9 343.1c.1-.7-.3-1.4-1.2-1.9l-13.4-7.7c-1.8-1-5-.9-7.1.3l-12.3 7.1c-1.1.7-1.7 1.5-1.7 2.3h0v5.9h0c0 .7.4 1.4 1.2 1.9l13.4 7.7c1.8 1 5 .9 7.1-.3l12.3-7.1c1.2-.7 1.8-1.6 1.7-2.5v-5.7z" class="st106"/>
      <path d="m143.8 352.7-13.4-7.7c-1.8-1-1.6-2.9.5-4.1l12.3-7.1c2.1-1.2 5.3-1.3 7.1-.3l13.4 7.7c1.8 1 1.6 2.9-.5 4.1l-12.3 7.1c-2.1 1.2-5.2 1.3-7.1.3z" class="st106"/>
      <path d="M164.9 337.3c.1-.7-.3-1.4-1.2-1.9l-13.4-7.7c-1.8-1-5-.9-7.1.3l-12.3 7.1c-1.1.7-1.7 1.5-1.7 2.3h0v5.9h0c0 .7.4 1.4 1.2 1.9l13.4 7.7c1.8 1 5 .9 7.1-.3l12.3-7.1c1.2-.7 1.8-1.6 1.7-2.5v-5.7z" class="st106"/>
      <path d="M146.7 347.5h-.4" class="st119"/>
      <path d="M144 346.9c-.1 0-.1-.1-.2-.1l-13.4-7.7c-1.8-1-1.6-2.9.5-4.1l12.3-7.1c2.1-1.2 5.3-1.3 7.1-.3l13.4 7.7c1.8 1 1.6 2.9-.5 4.1l-12.3 7.1c-.6.3-1.2.6-1.9.7" class="st107"/>
      <path d="M146.3 347.5c-.2 0-.3 0-.5-.1" class="st119"/>
      <path d="M151.6 331.7c.8.3 1.6.6 2.3 1.1 3.4 2.2 3.1 6-.7 8.3s-9.7 2.5-13.1.3-3.1-6 .7-8.3c1.3-.8 2.7-1.3 4.3-1.6M149 331.2c.9.1 1.8.2 2.7.5M146.4 331.3c.4 0 .8-.1 1.2-.1" class="st84"/>
      <ellipse cx="150.2" cy="335.1" class="st80" rx="1.2" ry="3.9" transform="rotate(-59.881 150.239 335.096)"/>
      <path d="m146.1 333.6-1.3.8s0 1.4 2.3 2.8c2.3 1.5 4.2 1.3 4.2 1.3l1.3-.8s-2.3-.3-4-1.4-2.5-2.7-2.5-2.7z" class="st80"/>
      <path d="m144 334.9-1.3.8s0 1.4 2.3 2.8c2.3 1.5 4.2 1.3 4.2 1.3l1.3-.8s-2.3-.3-4-1.4-2.5-2.7-2.5-2.7z" class="st80"/>
      <path d="m141.9 336.2-1.3.8s0 1.4 2.3 2.8c2.3 1.5 4.2 1.3 4.2 1.3l1.3-.8s-2.3-.3-4-1.4c-1.8-1.1-2.5-2.7-2.5-2.7z" class="st80"/>
      <path d="M145.9 360.1c.1-.7-.3-1.4-1.2-1.9l-13.4-7.7c-1.8-1-5-.9-7.1.3l-12.3 7.1c-1.1.7-1.7 1.5-1.7 2.3h0v5.9h0c0 .7.4 1.4 1.2 1.9l13.4 7.7c1.8 1 5 .9 7.1-.3l12.3-7.1c1.2-.7 1.8-1.6 1.7-2.5v-5.7z" class="st111"/>
      <path d="m124.9 369.6-13.4-7.7c-1.8-1-1.6-2.9.5-4.1l12.3-7.1c2.1-1.2 5.3-1.3 7.1-.3l13.4 7.7c1.8 1 1.6 2.9-.5 4.1l-12.3 7.1c-2.2 1.3-5.3 1.4-7.1.3z" class="st120"/>
      <path d="M145.9 354.2c.1-.7-.3-1.4-1.2-1.9l-13.4-7.7c-1.8-1-5-.9-7.1.3l-12.3 7.1c-1.1.7-1.7 1.5-1.7 2.3h0v5.9h0c0 .7.4 1.4 1.2 1.9l13.4 7.7c1.8 1 5 .9 7.1-.3l12.3-7.1c1.2-.7 1.8-1.6 1.7-2.5v-5.7z" class="st111"/>
      <path d="m135.3 361.5-3.4 1.9c-2.1 1.2-5.3 1.3-7.1.3l-13.4-7.7c-1.8-1-1.6-2.9.5-4.1l12.3-7.1c2.1-1.2 5.3-1.3 7.1-.3l13.4 7.7c1.8 1 1.6 2.9-.5 4.1l-6.8 3.9" class="st110"/>
      <path d="M119.9 355c-.5-1.8.5-3.7 2.8-5.1 3.6-2.2 9-2.3 12.2-.3 3.2 2.1 2.9 5.6-.7 7.8-3.6 2.2-9 2.3-12.2.3" class="st100"/>
      <ellipse cx="124.9" cy="355.9" class="st80" rx="1" ry=".7" transform="rotate(-5.438 124.851 355.912)"/>
      <ellipse cx="130.9" cy="355" class="st80" rx="1" ry=".7" transform="rotate(-5.438 130.939 355.048)"/>
      <ellipse cx="126.3" cy="352.1" class="st80" rx="1" ry=".7" transform="rotate(-5.438 126.324 352.051)"/>
      <ellipse cx="129.7" cy="352.9" class="st80" rx="1" ry=".7" transform="rotate(-5.438 129.704 352.88)"/>
      <path d="M133.1 355.2c-.4-.3-.4-.8.1-1.1.5-.3 1.2-.3 1.7 0 .4.3.4.8-.1 1.1-.5.3-1.2.3-1.7 0zm1.6-1c-.3-.2-.9-.2-1.3 0s-.4.6-.1.8.9.2 1.3 0 .4-.5.1-.8zM131.1 352c-.4-.3-.4-.8.1-1.1.5-.3 1.2-.3 1.7 0s.4.8-.1 1.1c-.5.3-1.3.3-1.7 0zm1.6-1c-.3-.2-.9-.2-1.3 0s-.4.6-.1.8c.3.2.9.2 1.3 0s.4-.6.1-.8zM126.1 350.7c-.4-.3-.4-.8.1-1.1s1.2-.3 1.7 0c.4.3.4.8-.1 1.1-.5.2-1.3.2-1.7 0zm1.5-1c-.3-.2-.9-.2-1.3 0s-.4.6-.1.8.9.2 1.3 0c.5-.2.5-.6.1-.8z" class="st101"/>
      <path d="m124.9 355.9 1.4-3.8M124.9 355.9l4.8-3M130.9 355l-6.3.9" class="st102"/>
      <path d="M179.7 356.4V352c0-.2 0-.3-.1-.5 0-.1-.1-.2-.1-.3 0-.2-.1-.3-.2-.5 0-.1-.1-.2-.1-.3-.1-.2-.1-.3-.2-.5-.1-.1-.1-.2-.2-.3-.1-.1-.2-.3-.3-.4l-.3-.3-.3-.3c-.1-.1-.3-.3-.5-.4-.1-.1-.2-.2-.3-.2l-.9-.6s0 0 0 0l-11.3-6.5v-4.3c0-.1 0-.1-.1-.2v-.1c0-.1 0-.1-.1-.2 0 0 0-.1-.1-.1l-.1-.1-.1-.1-.1-.1c-.1 0-.1-.1-.2-.1l-.1-.1c-.1-.1-.2-.1-.3-.2l-13.4-7.7c-1.1-.7-2.8-.8-4.4-.6-.3 0-.6.1-.9.2v-1.7s0 0 0 0V319.2c0-.1 0-.1-.1-.2v-.1c0-.1 0-.1-.1-.2 0 0 0-.1-.1-.1l-.1-.1-.1-.1-.1-.1s-.1-.1-.2-.1l-.1-.1c-.1-.1-.2-.1-.3-.2l-13.4-7.7c-.5-.3-1-.5-1.6-.6-1.8-.3-3.9 0-5.5.9l-12.3 7.1s0 0 0 0c-.1.1-.3.2-.4.2l-.1.1c-.1.1-.2.1-.2.2l-.1.1-.2.2-.1.1c-.1.1-.1.1-.1.2l-.1.1c0 .1-.1.1-.1.2 0 0 0 .1-.1.1 0 .1-.1.1-.1.2v.1c0 .1 0 .1-.1.2v.4h0v.7c-1.7-.2-3.6.1-5 .9l-12.3 7s0 0 0 0c-.1.1-.3.2-.4.2l-.1.1c-.1.1-.2.1-.2.2l-.1.1-.2.2-.1.1c-.1.1-.1.1-.1.2l-.1.1c0 .1-.1.1-.1.2 0 0 0 .1-.1.1 0 .1-.1.1-.1.2v.1c0 .1 0 .1-.1.2v.4h0v5.9h0s0 0 0 0h0v4.2l-9.2 5.3s0 0 0 0c-.4.2-.8.5-1.1.7-.1.1-.2.2-.3.2-.2.2-.5.3-.7.5l-.3.3c-.2.2-.4.3-.5.5l-.3.3c-.1.2-.3.3-.4.5-.1.1-.2.2-.2.3-.1.2-.2.4-.3.5-.1.1-.1.2-.2.3-.1.2-.2.4-.2.5 0 .1-.1.2-.1.3-.1.2-.1.4-.2.6 0 .1 0 .2-.1.3 0 .2 0 .4-.1.6v.2h0v3.4h0c-.1 2 1.1 3.9 3.6 5.4l4.6 2.7 4.9 2.8 29.4 17c5.3 3 14.5 2.7 20.6-.9l35.6-20.6c3.5-1.9 5.2-3.9 4.9-6.4z" class="st84"/>
    </g>
    <defs>
      <path id="SVGID_30_" d="m373.1 139.8 45.6 26.4s7.6 3.4 7.3 10.5c-.3 7-1.3 11.3-7.1 15.7-5.3 3.4-45.8 26.5-45.8 26.5h134v-91H398.3l-25.2 11.9z"/>
    </defs>
    <clipPath id="SVGID_31_">
      <use xlink:href="#SVGID_30_" overflow="visible"/>
    </clipPath>
    <g id="app_icons_2_" clip-path="url(#SVGID_31_)">
      <path d="m401.9 189.6 25.8 14.9c4.6 2.7 12.7 2.3 18.1-.7l31.3-18.1c3.1-1.8 4.6-3.6 4.4-5.7v-3c.2-1.8-.9-3.6-3.1-4.9l-34.2-19.8c-4.6-2.7-12.7-2.3-18.1.7l-31.3 18.1c-2.9 1.7-4.4 3.8-4.4 5.9h0v3h0c-.1 1.8.9 3.5 3.1 4.7l4.1 2.4" class="st116"/>
      <path d="m459.1 192.9-13.3 7.7c-5.8 3.3-13 3.7-18.1.7l-34.2-19.8c-4.6-2.7-4.1-7.3 1.3-10.4l31.3-18.1c5.3-3.1 13.4-3.4 18.1-.7l34.2 19.8c4.6 2.7 4.1 7.3-1.3 10.4l-8.7 5M464.2 190l-.6.3" class="st85"/>
      <path d="M451 163.4c.1-.6-.3-1.2-1.1-1.7l-11.8-6.8c-1.6-.9-4.4-.8-6.2.3l-10.8 6.2c-1 .6-1.5 1.3-1.5 2h0v5.2h0c0 .6.3 1.2 1.1 1.6l11.8 6.8c1.6.9 4.4.8 6.2-.3l10.8-6.2c1.1-.6 1.6-1.4 1.5-2.2v-4.9z" class="st122"/>
      <path d="m432.4 171.8-11.8-6.8c-1.6-.9-1.4-2.5.4-3.6l10.8-6.2c1.8-1.1 4.6-1.2 6.2-.3l11.8 6.8c1.6.9 1.4 2.5-.4 3.6l-10.8 6.2c-1.8 1.1-4.6 1.2-6.2.3z" class="st122"/>
      <path d="M451 158.2c.1-.6-.3-1.2-1.1-1.7l-11.8-6.8c-1.6-.9-4.4-.8-6.2.3l-10.8 6.2c-1 .6-1.5 1.3-1.5 2h0v5.2h0c0 .6.3 1.2 1.1 1.6l11.8 6.8c1.6.9 4.4.8 6.2-.3l10.8-6.2c1.1-.6 1.6-1.4 1.5-2.2v-4.9z" class="st122"/>
      <path d="m432.4 166.6-11.8-6.8c-1.6-.9-1.4-2.5.4-3.6l10.8-6.2c1.8-1.1 4.6-1.2 6.2-.3l11.8 6.8c1.6.9 1.4 2.5-.4 3.6l-10.8 6.2c-1.8 1.1-4.6 1.2-6.2.3z" class="st122"/>
      <path d="M451 153.1c.1-.6-.3-1.2-1.1-1.7l-11.8-6.8c-1.6-.9-4.4-.8-6.2.3l-10.8 6.2c-1 .6-1.5 1.3-1.5 2h0v5.2h0c0 .6.3 1.2 1.1 1.6l11.8 6.8c1.6.9 4.4.8 6.2-.3l10.8-6.2c1.1-.6 1.6-1.4 1.5-2.2v-4.9z" class="st109"/>
      <path d="m432.4 161.5-11.8-6.8c-1.6-.9-1.4-2.5.4-3.6l10.8-6.2c1.8-1.1 4.6-1.2 6.2-.3l11.8 6.8c1.6.9 1.4 2.5-.4 3.6l-10.8 6.2c-1.8 1.1-4.6 1.2-6.2.3z" class="st122"/>
      <path d="M451 147.9c.1-.6-.3-1.2-1.1-1.7l-11.8-6.8c-1.6-.9-4.4-.8-6.2.3l-10.8 6.2c-1 .6-1.5 1.3-1.5 2h0v5.2h0c0 .6.3 1.2 1.1 1.6l11.8 6.8c1.6.9 4.4.8 6.2-.3l10.8-6.2c1.1-.6 1.6-1.4 1.5-2.2v-4.9z" class="st109"/>
      <path d="m432.4 156.3-11.8-6.8c-1.6-.9-1.4-2.5.4-3.6l10.8-6.2c1.8-1.1 4.6-1.2 6.2-.3l11.8 6.8c1.6.9 1.4 2.5-.4 3.6l-10.8 6.2c-1.8 1.1-4.6 1.2-6.2.3z" class="st123"/>
      <g id="Procesor_5_">
        <path d="m437.7 142.6-1.4.8M439.7 143.9l-1.4.8M441.5 145l-1.3.9M429.3 148l-1.3.9M431.3 149.3l-1.3.8M433.2 150.5l-1.3.8M442.1 148.2l-1.2-.7M439.9 149.7l-1.2-.8M437.9 151l-1.2-.8M434.5 143.4l-1.2-.7M432.3 144.9l-1.2-.8M430.2 146.2l-1.2-.8M434.3 151.2l-5.4-3.4c-.3-.2-.3-.5 0-.7l5.9-3.9c.3-.2.8-.2 1 0l5.4 3.4c.3.2.3.5 0 .7l-5.9 3.9c-.3.1-.7.1-1 0z" class="st84"/>
        <path d="m434.7 149-2.5-1.5c-.1-.1-.1-.2 0-.3l2.7-1.7c.1-.1.4-.1.5 0l2.5 1.5c.1.1.1.2 0 .3l-2.7 1.7c-.1.1-.4.1-.5 0z" class="st84"/>
      </g>
      <path d="M468.9 173.2c.1-.6-.3-1.2-1.1-1.7l-11.8-6.8c-1.6-.9-4.4-.8-6.2.3l-10.8 6.2c-1 .6-1.5 1.3-1.5 2h0v5.2h0c0 .6.3 1.2 1.1 1.6l11.8 6.8c1.6.9 4.4.8 6.2-.3l10.8-6.2c1.1-.6 1.6-1.4 1.5-2.2v-4.9z" class="st109"/>
      <path d="m450.4 181.6-11.8-6.8c-1.6-.9-1.4-2.5.4-3.6l10.8-6.2c1.8-1.1 4.6-1.2 6.2-.3l11.8 6.8c1.6.9 1.4 2.5-.4 3.6l-10.8 6.2c-1.9 1.1-4.6 1.2-6.2.3z" class="st109"/>
      <path d="M468.9 168c.1-.6-.3-1.2-1.1-1.7l-11.8-6.8c-1.6-.9-4.4-.8-6.2.3L439 166c-1 .6-1.5 1.3-1.5 2h0v5.2h0c0 .6.3 1.2 1.1 1.6l11.8 6.8c1.6.9 4.4.8 6.2-.3l10.8-6.2c1.1-.6 1.6-1.4 1.5-2.2V168z" class="st109"/>
      <path d="m450.4 176.4-11.8-6.8c-1.6-.9-1.4-2.5.4-3.6l10.8-6.2c1.8-1.1 4.6-1.2 6.2-.3l11.8 6.8c1.6.9 1.4 2.5-.4 3.6l-10.8 6.2c-1.9 1.1-4.6 1.2-6.2.3z" class="st109"/>
      <path d="M468.9 162.8c.1-.6-.3-1.2-1.1-1.7l-11.8-6.8c-1.6-.9-4.4-.8-6.2.3l-10.8 6.2c-1 .6-1.5 1.3-1.5 2h0v5.2h0c0 .6.3 1.2 1.1 1.6l11.8 6.8c1.6.9 4.4.8 6.2-.3l10.8-6.2c1.1-.6 1.6-1.4 1.5-2.2v-4.9z" class="st109"/>
      <path d="m450.4 171.2-11.8-6.8c-1.6-.9-1.4-2.5.4-3.6l10.8-6.2c1.8-1.1 4.6-1.2 6.2-.3l11.8 6.8c1.6.9 1.4 2.5-.4 3.6l-10.8 6.2c-1.9 1.1-4.6 1.2-6.2.3z" class="st109"/>
      <path d="M468.9 157.6c.1-.6-.3-1.2-1.1-1.7l-11.8-6.8c-1.6-.9-4.4-.8-6.2.3l-10.8 6.2c-1 .6-1.5 1.3-1.5 2h0v5.2h0c0 .6.3 1.2 1.1 1.6l11.8 6.8c1.6.9 4.4.8 6.2-.3l10.8-6.2c1.1-.6 1.6-1.4 1.5-2.2v-4.9z" class="st109"/>
      <path d="m450.4 166-11.8-6.8c-1.6-.9-1.4-2.5.4-3.6l10.8-6.2c1.8-1.1 4.6-1.2 6.2-.3l11.8 6.8c1.6.9 1.4 2.5-.4 3.6l-10.8 6.2c-1.9 1.1-4.6 1.2-6.2.3z" class="st108"/>
      <g id="Procesor_6_">
        <path d="m455.5 152.7-1.3.8M457.6 153.9l-1.4.9M459.4 155.1l-1.3.9M447.2 158.1l-1.3.9M449.2 159.4l-1.3.8M451.1 160.5l-1.3.9M460 158.3l-1.2-.7M457.8 159.8l-1.2-.8M455.8 161.1l-1.2-.8M452.4 153.5l-1.2-.7M450.2 155l-1.2-.8M448.1 156.3l-1.2-.8M452.2 161.2l-5.4-3.4c-.3-.2-.3-.5 0-.7l5.9-3.9c.3-.2.8-.2 1 0l5.4 3.4c.3.2.3.5 0 .7l-5.9 3.9c-.3.2-.8.2-1 0z" class="st84"/>
        <path d="m452.6 159.1-2.5-1.5c-.1-.1-.1-.2 0-.3l2.7-1.7c.1-.1.4-.1.5 0l2.5 1.5c.1.1.1.2 0 .3l-2.7 1.7c-.2.1-.4.1-.5 0z" class="st84"/>
      </g>
      <path d="M434.3 173.1c.1-.6-.3-1.2-1.1-1.7l-11.8-6.8c-1.6-.9-4.4-.8-6.2.3l-10.8 6.2c-1 .6-1.5 1.3-1.5 2h0v5.2h0c0 .6.3 1.2 1.1 1.6l11.8 6.8c1.6.9 4.4.8 6.2-.3l10.8-6.2c1.1-.6 1.6-1.4 1.5-2.2v-4.9z" class="st98"/>
      <path d="m415.7 181.5-11.8-6.8c-1.6-.9-1.4-2.5.4-3.6l10.8-6.2c1.8-1.1 4.6-1.2 6.2-.3l11.8 6.8c1.6.9 1.4 2.5-.4 3.6l-10.8 6.2c-1.8 1.1-4.6 1.3-6.2.3z" class="st98"/>
      <path d="M434.3 167.9c.1-.6-.3-1.2-1.1-1.7l-11.8-6.8c-1.6-.9-4.4-.8-6.2.3l-10.8 6.2c-1 .6-1.5 1.3-1.5 2h0v5.2h0c0 .6.3 1.2 1.1 1.6l11.8 6.8c1.6.9 4.4.8 6.2-.3l10.8-6.2c1.1-.6 1.6-1.4 1.5-2.2v-4.9z" class="st98"/>
      <path d="m415.7 176.3-11.8-6.8c-1.6-.9-1.4-2.5.4-3.6l10.8-6.2c1.8-1.1 4.6-1.2 6.2-.3l11.8 6.8c1.6.9 1.4 2.5-.4 3.6l-10.8 6.2c-1.8 1.1-4.6 1.3-6.2.3z" class="st98"/>
      <path d="M434.3 162.8c.1-.6-.3-1.2-1.1-1.7l-11.8-6.8c-1.6-.9-4.4-.8-6.2.3l-10.8 6.2c-1 .6-1.5 1.3-1.5 2h0v5.2h0c0 .6.3 1.2 1.1 1.6l11.8 6.8c1.6.9 4.4.8 6.2-.3l10.8-6.2c1.1-.6 1.6-1.4 1.5-2.2v-4.9z" class="st98"/>
      <path d="m415.7 171.2-11.8-6.8c-1.6-.9-1.4-2.5.4-3.6l10.8-6.2c1.8-1.1 4.6-1.2 6.2-.3l11.8 6.8c1.6.9 1.4 2.5-.4 3.6l-10.8 6.2c-1.8 1.1-4.6 1.2-6.2.3z" class="st98"/>
      <path d="M434.3 157.6c.1-.6-.3-1.2-1.1-1.7l-11.8-6.8c-1.6-.9-4.4-.8-6.2.3l-10.8 6.2c-1 .6-1.5 1.3-1.5 2h0v5.2h0c0 .6.3 1.2 1.1 1.6l11.8 6.8c1.6.9 4.4.8 6.2-.3l10.8-6.2c1.1-.6 1.6-1.4 1.5-2.2v-4.9z" class="st99"/>
      <path d="m408.3 161.7-4.3-2.5c-1.6-.9-1.4-2.5.4-3.6l10.8-6.2c1.8-1.1 4.6-1.2 6.2-.3l11.8 6.8c1.6.9 1.4 2.5-.4 3.6l-10.8 6.2c-1.8 1.1-4.6 1.2-6.2.3l-3.4-2" class="st99"/>
      <path d="m417.6 163.2-8.3-5c-.4-.2-.4-.6 0-.9l5.8-3.9c.4-.3 1-.3 1.4-.1l8.3 5c.4.2.4.6 0 .9l-5.8 3.9c-.4.2-1 .3-1.4.1z" class="st80"/>
      <path d="M416.9 158.3c-2-1.2-1.9-3.3.2-4.8 2.1-1.4 5.5-1.6 7.4-.4s1.9 3.3-.2 4.8c-2.1 1.4-5.4 1.6-7.4.4zm6.7-4.5c-1.4-.9-3.9-.7-5.4.3-1.5 1-1.6 2.6-.2 3.5 1.4.9 3.9.7 5.4-.3 1.5-1 1.6-2.6.2-3.5z" class="st80"/>
      <path d="M451.8 183.2c.1-.6-.3-1.2-1.1-1.7l-11.8-6.8c-1.6-.9-4.4-.8-6.2.3l-10.8 6.2c-1 .6-1.5 1.3-1.5 2h0v5.2h0c0 .6.3 1.2 1.1 1.6l11.8 6.8c1.6.9 4.4.8 6.2-.3l10.8-6.2c1.1-.6 1.6-1.4 1.5-2.2v-4.9z" class="st98"/>
      <path d="m433.2 191.6-11.8-6.8c-1.6-.9-1.4-2.5.4-3.6l10.8-6.2c1.8-1.1 4.6-1.2 6.2-.3l11.8 6.8c1.6.9 1.4 2.5-.4 3.6l-10.8 6.2c-1.8 1.1-4.6 1.2-6.2.3z" class="st98"/>
      <path d="M451.8 178c.1-.6-.3-1.2-1.1-1.7l-11.8-6.8c-1.6-.9-4.4-.8-6.2.3l-10.8 6.2c-1 .6-1.5 1.3-1.5 2h0v5.2h0c0 .6.3 1.2 1.1 1.6l11.8 6.8c1.6.9 4.4.8 6.2-.3l10.8-6.2c1.1-.6 1.6-1.4 1.5-2.2V178z" class="st98"/>
      <path d="m442.4 184.4-3 1.7c-1.8 1.1-4.6 1.2-6.2.3l-11.8-6.8c-1.6-.9-1.4-2.5.4-3.6l10.8-6.2c1.8-1.1 4.6-1.2 6.2-.3l11.8 6.8c1.6.9 1.4 2.5-.4 3.6l-5.9 3.4" class="st99"/>
      <path d="m435.6 183.5-8.3-5c-.4-.2-.4-.6 0-.9l5.8-3.9c.4-.3 1-.3 1.4-.1l8.3 5c.4.2.4.6 0 .9l-5.8 3.9c-.4.3-1 .3-1.4.1z" class="st80"/>
      <path d="M434.9 178.6c-2-1.2-1.9-3.3.2-4.8 2.1-1.4 5.5-1.6 7.4-.4 2 1.2 1.9 3.3-.2 4.8-2.1 1.4-5.4 1.6-7.4.4zm6.7-4.5c-1.4-.9-3.9-.7-5.4.3-1.5 1-1.6 2.6-.2 3.5s3.9.7 5.4-.3c1.5-1 1.6-2.6.2-3.5z" class="st80"/>
      <path d="M467.8 155.9s-12-7.3-13.4-7.3c-1.2 0-3.2-.1-3.5 0V147s0-.1-.1-.1c0 0 0-.1-.1-.1l-.1-.1-.1-.1-.1-.1-.1-.1-.1-.1c-.1-.1-.2-.1-.3-.2l-11.8-6.8c-.4-.2-.9-.4-1.4-.5-1.5-.3-3.5 0-4.8.8l-10.8 6.2s0 0 0 0c-.1.1-.2.1-.3.2l-.1.1-.2.2-.1.1c-.1 0-.1.1-.2.1l-.1.1c0 .1-.1.1-.1.2 0 0 0 .1-.1.1 0 .1-.1.1-.1.2 0 0 0 .1-.1.1 0 .1-.1.1-.1.2V148.1h0v.6c-1.5-.2-3.1.1-4.4.8l-10.8 6.2s0 0 0 0c-.1.1-.2.1-.3.2 0 0-.1 0-.1.1l-.2.2-.1.1c-.1 0-.1.1-.2.1l-.1.1c0 .1-.1.1-.1.2 0 0 0 .1-.1.1 0 .1-.1.1-.1.2 0 0 0 .1-.1.1 0 .1-.1.1-.1.2V158h0v5.2h0s0 0 0 0h0v3.7l-8.1 4.7s0 0 0 0c-.3.2-.7.4-1 .6-.1.1-.2.1-.3.2-.2.1-.4.3-.6.4l-.3.3c-.2.1-.3.3-.5.4-.1.1-.2.2-.2.3l-.4.4c-.1.1-.1.2-.2.3-.1.2-.2.3-.3.5-.1.1-.1.2-.1.3-.1.2-.2.3-.2.5 0 .1-.1.2-.1.3-.1.2-.1.3-.1.5 0 .1 0 .2-.1.2 0 .2 0 .4-.1.5v.2h0v3h0c-.1 1.8.9 3.5 3.1 4.7l4.1 2.4 4.3 2.5 25.8 14.9c4.6 2.7 12.7 2.3 18.1-.7l31.3-18.1c3.1-1.8 4.6-3.6 4.4-5.7V176.6c0-.2 0-.3-.1-.5 0-.1 0-.2-.1-.2 0-.1-.1-.3-.1-.4 0-.1-.1-.2-.1-.2-.1-.1-.1-.3-.2-.4-.1-.1-.1-.2-.2-.3-.1-.1-.2-.2-.3-.4l-.3-.3-.3-.3c-.1-.1-.3-.2-.4-.3-.1-.1-.2-.1-.3-.2-.2-.2-.5-.3-.8-.5 0 0 0 0 0 0l-8.9-5.5v-7.2c.2-.6.2-3.1-1.5-4z" class="st84"/>
    </g>
    <defs>
      <path id="SVGID_32_" d="m181.1 137.3-45.6 26.4s-7.6 3.4-7.3 10.5c.3 7 1.3 11.3 7.1 15.7 5.3 3.4 45.8 26.5 45.8 26.5h-134v-91h108.8l25.2 11.9z"/>
    </defs>
    <clipPath id="SVGID_33_">
      <use xlink:href="#SVGID_32_" overflow="visible"/>
    </clipPath>
    <g id="app_icons_4_" clip-path="url(#SVGID_33_)">
      <path d="m84.1 194.5 25.8 14.9c4.6 2.7 12.7 2.3 18.1-.7l31.3-18.1c3.1-1.8 4.6-3.6 4.4-5.7v-3c.2-1.8-.9-3.6-3.1-4.9l-34.2-19.8c-4.6-2.7-12.7-2.3-18.1.7L77 176.1c-2.9 1.7-4.4 3.8-4.4 5.9h0v3h0c-.1 1.8.9 3.5 3.1 4.7l4.1 2.4" class="st116"/>
      <path d="m141.3 197.8-13.3 7.7c-5.8 3.3-13 3.7-18.1.7l-34.2-19.8c-4.6-2.7-4.1-7.3 1.3-10.4l31.3-18.1c5.3-3.1 13.4-3.4 18.1-.7l34.2 19.8c4.6 2.7 4.1 7.3-1.3 10.4l-8.7 5M146.3 194.9l-.5.3" class="st85"/>
      <path d="M133.2 168.3c.1-.6-.3-1.2-1.1-1.7l-11.8-6.8c-1.6-.9-4.4-.8-6.2.3l-10.8 6.2c-1 .6-1.5 1.3-1.5 2h0v5.2h0c0 .6.3 1.2 1.1 1.6l11.8 6.8c1.6.9 4.4.8 6.2-.3l10.8-6.2c1.1-.6 1.6-1.4 1.5-2.2v-4.9z" class="st106"/>
      <path d="m114.6 176.7-11.8-6.8c-1.6-.9-1.4-2.5.4-3.6l10.8-6.2c1.8-1.1 4.6-1.2 6.2-.3l11.8 6.8c1.6.9 1.4 2.5-.4 3.6l-10.8 6.2c-1.8 1.1-4.6 1.2-6.2.3z" class="st106"/>
      <path d="M133.2 163.1c.1-.6-.3-1.2-1.1-1.7l-11.8-6.8c-1.6-.9-4.4-.8-6.2.3l-10.8 6.2c-1 .6-1.5 1.3-1.5 2h0v5.2h0c0 .6.3 1.2 1.1 1.6l11.8 6.8c1.6.9 4.4.8 6.2-.3l10.8-6.2c1.1-.6 1.6-1.4 1.5-2.2v-4.9z" class="st106"/>
      <path d="m114.6 171.5-11.8-6.8c-1.6-.9-1.4-2.5.4-3.6l10.8-6.2c1.8-1.1 4.6-1.2 6.2-.3l11.8 6.8c1.6.9 1.4 2.5-.4 3.6l-10.8 6.2c-1.8 1.1-4.6 1.2-6.2.3z" class="st106"/>
      <path d="M133.2 158c.1-.6-.3-1.2-1.1-1.7l-11.8-6.8c-1.6-.9-4.4-.8-6.2.3l-10.8 6.2c-1 .6-1.5 1.3-1.5 2h0v5.2h0c0 .6.3 1.2 1.1 1.6l11.8 6.8c1.6.9 4.4.8 6.2-.3l10.8-6.2c1.1-.6 1.6-1.4 1.5-2.2V158z" class="st106"/>
      <path d="m114.6 166.4-11.8-6.8c-1.6-.9-1.4-2.5.4-3.6l10.8-6.2c1.8-1.1 4.6-1.2 6.2-.3l11.8 6.8c1.6.9 1.4 2.5-.4 3.6l-10.8 6.2c-1.8 1.1-4.6 1.2-6.2.3z" class="st106"/>
      <path d="M133.2 152.8c.1-.6-.3-1.2-1.1-1.7l-11.8-6.8c-1.6-.9-4.4-.8-6.2.3l-10.8 6.2c-1 .6-1.5 1.3-1.5 2h0v5.2h0c0 .6.3 1.2 1.1 1.6l11.8 6.8c1.6.9 4.4.8 6.2-.3l10.8-6.2c1.1-.6 1.6-1.4 1.5-2.2v-4.9z" class="st106"/>
      <path d="m114.6 161.2-11.8-6.8c-1.6-.9-1.4-2.5.4-3.6l10.8-6.2c1.8-1.1 4.6-1.2 6.2-.3l11.8 6.8c1.6.9 1.4 2.5-.4 3.6l-10.8 6.2c-1.8 1.1-4.6 1.2-6.2.3z" class="st107"/>
      <path d="M151.1 178.1c.1-.6-.3-1.2-1.1-1.7l-11.8-6.8c-1.6-.9-4.4-.8-6.2.3l-10.8 6.2c-1 .6-1.5 1.3-1.5 2h0v5.2h0c0 .6.3 1.2 1.1 1.6l11.8 6.8c1.6.9 4.4.8 6.2-.3l10.8-6.2c1.1-.6 1.6-1.4 1.5-2.2v-4.9z" class="st109"/>
      <path d="m132.6 186.5-11.8-6.8c-1.6-.9-1.4-2.5.4-3.6l10.8-6.2c1.8-1.1 4.6-1.2 6.2-.3l11.8 6.8c1.6.9 1.4 2.5-.4 3.6l-10.8 6.2c-1.9 1.1-4.6 1.2-6.2.3z" class="st109"/>
      <path d="M151.1 172.9c.1-.6-.3-1.2-1.1-1.7l-11.8-6.8c-1.6-.9-4.4-.8-6.2.3l-10.8 6.2c-1 .6-1.5 1.3-1.5 2h0v5.2h0c0 .6.3 1.2 1.1 1.6l11.8 6.8c1.6.9 4.4.8 6.2-.3l10.8-6.2c1.1-.6 1.6-1.4 1.5-2.2v-4.9z" class="st109"/>
      <path d="m132.6 181.3-11.8-6.8c-1.6-.9-1.4-2.5.4-3.6l10.8-6.2c1.8-1.1 4.6-1.2 6.2-.3l11.8 6.8c1.6.9 1.4 2.5-.4 3.6l-10.8 6.2c-1.9 1.1-4.6 1.2-6.2.3z" class="st109"/>
      <path d="M151.1 167.7c.1-.6-.3-1.2-1.1-1.7l-11.8-6.8c-1.6-.9-4.4-.8-6.2.3l-10.8 6.2c-1 .6-1.5 1.3-1.5 2h0v5.2h0c0 .6.3 1.2 1.1 1.6l11.8 6.8c1.6.9 4.4.8 6.2-.3l10.8-6.2c1.1-.6 1.6-1.4 1.5-2.2v-4.9z" class="st109"/>
      <path d="m132.6 176.1-11.8-6.8c-1.6-.9-1.4-2.5.4-3.6l10.8-6.2c1.8-1.1 4.6-1.2 6.2-.3L150 166c1.6.9 1.4 2.5-.4 3.6l-10.8 6.2c-1.9 1.1-4.6 1.2-6.2.3z" class="st109"/>
      <path d="M151.1 162.5c.1-.6-.3-1.2-1.1-1.7l-11.8-6.8c-1.6-.9-4.4-.8-6.2.3l-10.8 6.2c-1 .6-1.5 1.3-1.5 2h0v5.2h0c0 .6.3 1.2 1.1 1.6l11.8 6.8c1.6.9 4.4.8 6.2-.3l10.8-6.2c1.1-.6 1.6-1.4 1.5-2.2v-4.9z" class="st122"/>
      <path d="m132.6 170.9-11.8-6.8c-1.6-.9-1.4-2.5.4-3.6l10.8-6.2c1.8-1.1 4.6-1.2 6.2-.3l11.8 6.8c1.6.9 1.4 2.5-.4 3.6l-10.8 6.2c-1.9 1.1-4.6 1.2-6.2.3z" class="st123"/>
      <g id="Procesor_7_">
        <path d="m137.7 157.6-1.3.8M139.7 158.9l-1.3.8M141.6 160l-1.3.9M129.4 163l-1.3.9M131.4 164.3l-1.3.8M133.3 165.5l-1.4.8M142.2 163.2l-1.2-.7M140 164.7l-1.2-.8M138 166l-1.2-.8M134.6 158.4l-1.3-.7M132.4 159.9l-1.3-.8M130.3 161.2l-1.2-.8M134.4 166.2l-5.4-3.4c-.3-.2-.3-.5 0-.7l5.9-3.9c.3-.2.8-.2 1 0l5.4 3.4c.3.2.3.5 0 .7l-5.9 3.9c-.3.1-.8.1-1 0z" class="st84"/>
        <path d="m134.8 164-2.5-1.5c-.1-.1-.1-.2 0-.3l2.7-1.7c.1-.1.4-.1.5 0l2.5 1.5c.1.1.1.2 0 .3l-2.7 1.7c-.2.1-.4.1-.5 0z" class="st84"/>
      </g>
      <path d="M116.5 178c.1-.6-.3-1.2-1.1-1.7l-11.8-6.8c-1.6-.9-4.4-.8-6.2.3L86.6 176c-1 .6-1.5 1.3-1.5 2h0v5.2h0c0 .6.3 1.2 1.1 1.6l11.8 6.8c1.6.9 4.4.8 6.2-.3l10.8-6.2c1.1-.6 1.6-1.4 1.5-2.2V178z" class="st111"/>
      <path d="m97.9 186.4-11.8-6.8c-1.6-.9-1.4-2.5.4-3.6l10.8-6.2c1.8-1.1 4.6-1.2 6.2-.3l11.8 6.8c1.6.9 1.4 2.5-.4 3.6l-10.8 6.2c-1.8 1.1-4.6 1.3-6.2.3z" class="st111"/>
      <path d="M116.5 172.8c.1-.6-.3-1.2-1.1-1.7l-11.8-6.8c-1.6-.9-4.4-.8-6.2.3l-10.8 6.2c-1 .6-1.5 1.3-1.5 2h0v5.2h0c0 .6.3 1.2 1.1 1.6l11.8 6.8c1.6.9 4.4.8 6.2-.3L115 180c1.1-.6 1.6-1.4 1.5-2.2v-5z" class="st111"/>
      <path d="m97.9 181.2-11.8-6.8c-1.6-.9-1.4-2.5.4-3.6l10.8-6.2c1.8-1.1 4.6-1.2 6.2-.3l11.8 6.8c1.6.9 1.4 2.5-.4 3.6l-10.8 6.2c-1.8 1.1-4.6 1.3-6.2.3z" class="st111"/>
      <path d="M116.5 167.7c.1-.6-.3-1.2-1.1-1.7l-11.8-6.8c-1.6-.9-4.4-.8-6.2.3l-10.8 6.2c-1 .6-1.5 1.3-1.5 2h0v5.2h0c0 .6.3 1.2 1.1 1.6l11.8 6.8c1.6.9 4.4.8 6.2-.3l10.8-6.2c1.1-.6 1.6-1.4 1.5-2.2v-4.9z" class="st111"/>
      <path d="m97.9 176.1-11.8-6.8c-1.6-.9-1.4-2.5.4-3.6l10.8-6.2c1.8-1.1 4.6-1.2 6.2-.3l11.8 6.8c1.6.9 1.4 2.5-.4 3.6l-10.8 6.2c-1.8 1.1-4.6 1.2-6.2.3z" class="st111"/>
      <path d="M116.5 162.5c.1-.6-.3-1.2-1.1-1.7l-11.8-6.8c-1.6-.9-4.4-.8-6.2.3l-10.8 6.2c-1 .6-1.5 1.3-1.5 2h0v5.2h0c0 .6.3 1.2 1.1 1.6l11.8 6.8c1.6.9 4.4.8 6.2-.3l10.8-6.2c1.1-.6 1.6-1.4 1.5-2.2v-4.9z" class="st111"/>
      <path d="m90.5 166.6-4.3-2.5c-1.6-.9-1.4-2.5.4-3.6l10.8-6.2c1.8-1.1 4.6-1.2 6.2-.3l11.8 6.8c1.6.9 1.4 2.5-.4 3.6l-10.8 6.2c-1.8 1.1-4.6 1.2-6.2.3l-3.4-2" class="st110"/>
      <path d="m100.1 167.9-8.3-5c-.4-.2-.4-.6 0-.9l5.8-3.9c.4-.3 1-.3 1.4-.1l8.3 5c.4.2.4.6 0 .9l-5.8 3.9c-.4.2-1 .3-1.4.1z" class="st80"/>
      <path d="M99.4 163c-2-1.2-1.9-3.3.2-4.8 2.1-1.4 5.5-1.6 7.4-.4 2 1.2 1.9 3.3-.2 4.8-2 1.4-5.4 1.6-7.4.4zm6.7-4.5c-1.4-.9-3.9-.7-5.4.3-1.5 1-1.6 2.6-.2 3.5 1.4.9 3.9.7 5.4-.3 1.6-1 1.6-2.6.2-3.5z" class="st80"/>
      <path d="M133.8 188.8c.1-.6-.3-1.2-1.1-1.7l-11.8-6.8c-1.6-.9-4.4-.8-6.2.3l-10.8 6.2c-1 .6-1.5 1.3-1.5 2h0v5.2h0c0 .6.3 1.2 1.1 1.6l11.8 6.8c1.6.9 4.4.8 6.2-.3l10.8-6.2c1.1-.6 1.6-1.4 1.5-2.2v-4.9z" class="st98"/>
      <path d="m115.3 197.1-11.8-6.8c-1.6-.9-1.4-2.5.4-3.6l10.8-6.2c1.8-1.1 4.6-1.2 6.2-.3l11.8 6.8c1.6.9 1.4 2.5-.4 3.6l-10.8 6.2c-1.8 1.2-4.6 1.3-6.2.3z" class="st98"/>
      <path d="M133.8 183.6c.1-.6-.3-1.2-1.1-1.7l-11.8-6.8c-1.6-.9-4.4-.8-6.2.3l-10.8 6.2c-1 .6-1.5 1.3-1.5 2h0v5.2h0c0 .6.3 1.2 1.1 1.6l11.8 6.8c1.6.9 4.4.8 6.2-.3l10.8-6.2c1.1-.6 1.6-1.4 1.5-2.2v-4.9z" class="st98"/>
      <path d="m115.3 191.9-11.8-6.8c-1.6-.9-1.4-2.5.4-3.6l10.8-6.2c1.8-1.1 4.6-1.2 6.2-.3l11.8 6.8c1.6.9 1.4 2.5-.4 3.6l-10.8 6.2c-1.8 1.2-4.6 1.3-6.2.3z" class="st98"/>
      <path d="M133.8 178.4c.1-.6-.3-1.2-1.1-1.7l-11.8-6.8c-1.6-.9-4.4-.8-6.2.3l-10.8 6.2c-1 .6-1.5 1.3-1.5 2h0v5.2h0c0 .6.3 1.2 1.1 1.6l11.8 6.8c1.6.9 4.4.8 6.2-.3l10.8-6.2c1.1-.6 1.6-1.4 1.5-2.2v-4.9z" class="st98"/>
      <path d="m115.3 186.8-11.8-6.8c-1.6-.9-1.4-2.5.4-3.6l10.8-6.2c1.8-1.1 4.6-1.2 6.2-.3l11.8 6.8c1.6.9 1.4 2.5-.4 3.6l-10.8 6.2c-1.8 1.1-4.6 1.2-6.2.3z" class="st98"/>
      <path d="M133.8 173.2c.1-.6-.3-1.2-1.1-1.7l-11.8-6.8c-1.6-.9-4.4-.8-6.2.3l-10.8 6.2c-1 .6-1.5 1.3-1.5 2h0v5.2h0c0 .6.3 1.2 1.1 1.6l11.8 6.8c1.6.9 4.4.8 6.2-.3l10.8-6.2c1.1-.6 1.6-1.4 1.5-2.2v-4.9z" class="st98"/>
      <path d="m107.8 177.3-4.3-2.5c-1.6-.9-1.4-2.5.4-3.6l10.8-6.2c1.8-1.1 4.6-1.2 6.2-.3l11.8 6.8c1.6.9 1.4 2.5-.4 3.6l-10.8 6.2c-1.8 1.1-4.6 1.2-6.2.3l-3.4-2" class="st99"/>
      <path d="M150 160.8s-12-7.3-13.4-7.3c-1.2 0-3.2-.1-3.5 0V151.9s0-.1-.1-.1c0 0 0-.1-.1-.1l-.1-.1-.1-.1-.1-.1-.1-.1-.1-.1c-.1-.1-.2-.1-.3-.2l-11.8-6.8c-.4-.2-.9-.4-1.4-.5-1.5-.3-3.5 0-4.8.8l-10.8 6.2s0 0 0 0c-.1.1-.2.1-.3.2l-.1.1-.2.2-.1.1c-.1 0-.1.1-.2.1l-.1.1c0 .1-.1.1-.1.2 0 0 0 .1-.1.1 0 .1-.1.1-.1.2 0 0 0 .1-.1.1 0 .1-.1.1-.1.2V153h0v.6c-1.5-.2-3.1.1-4.4.8l-10.8 6.2s0 0 0 0c-.1.1-.2.1-.3.2 0 0-.1 0-.1.1l-.2.2-.1.1c-.1 0-.1.1-.2.1l-.1.1c0 .1-.1.1-.1.2 0 0 0 .1-.1.1 0 .1-.1.1-.1.2 0 0 0 .1-.1.1 0 .1-.1.1-.1.2V162.9h0v5.2h0s0 0 0 0h0v3.7l-8.1 4.7s0 0 0 0c-.3.2-.7.4-1 .6-.1.1-.2.1-.3.2-.2.1-.4.3-.6.4l-.3.3c-.2.1-.3.3-.5.4-.1.1-.2.2-.2.3l-.4.4c-.1.1-.1.2-.2.3-.1.2-.2.3-.3.5-.1.1-.1.2-.1.3-.1.2-.2.3-.2.5 0 .1-.1.2-.1.3-.1.2-.1.3-.1.5 0 .1 0 .2-.1.2 0 .2 0 .4-.1.5v.2h0v3h0c-.1 1.8.9 3.5 3.1 4.7l4.1 2.4L84 195l25.8 14.9c4.6 2.7 12.7 2.3 18.1-.7l31.3-18.1c3.1-1.8 4.6-3.6 4.4-5.7V181.5c0-.2 0-.3-.1-.5 0-.1 0-.2-.1-.2 0-.1-.1-.3-.1-.4 0-.1-.1-.2-.1-.2-.1-.1-.1-.3-.2-.4-.1-.1-.1-.2-.2-.3-.1-.1-.2-.2-.3-.4l-.3-.3-.3-.3c-.1-.1-.3-.2-.4-.3-.1-.1-.2-.1-.3-.2-.2-.2-.5-.3-.8-.5 0 0 0 0 0 0l-8.9-5.5v-7.2c.2-.6.2-3.1-1.5-4z" class="st84"/>
    </g>
    <path d="m117.1 177.5 4.5-3.7-7.3 2-.7-.4 3-4.7-5.8 2.9-2.3-1.4 10.2-5 2.3 1.4-2.9 4.4 6.8-1.9 2.3 1.4-7.7 6.6-2.4-1.6z" class="st80"/>
    <path d="M109.3 153.9c-.5-1.8.5-3.7 2.8-5.1 3.6-2.2 9-2.3 12.2-.3 3.2 2.1 2.9 5.6-.7 7.8-3.6 2.2-9 2.3-12.2.3" class="st100"/>
    <ellipse cx="114.3" cy="154.7" class="st80" rx="1" ry=".7" transform="rotate(-5.438 114.26 154.716)"/>
    <ellipse cx="120.3" cy="153.9" class="st80" rx="1" ry=".7" transform="rotate(-5.438 120.346 153.853)"/>
    <ellipse cx="115.7" cy="150.9" class="st80" rx="1" ry=".7" transform="rotate(-5.438 115.733 150.856)"/>
    <ellipse cx="119.1" cy="151.7" class="st80" rx="1" ry=".7" transform="rotate(-5.438 119.112 151.685)"/>
    <path d="M122.5 154c-.4-.3-.4-.8.1-1.1.5-.3 1.2-.3 1.7 0s.4.8-.1 1.1c-.5.3-1.2.3-1.7 0zm1.6-.9c-.3-.2-.9-.2-1.3 0s-.4.6-.1.8.9.2 1.3 0c.4-.3.4-.6.1-.8zM120.5 150.8c-.4-.3-.4-.8.1-1.1.5-.3 1.2-.3 1.7 0s.4.8-.1 1.1c-.5.3-1.3.3-1.7 0zm1.6-1c-.3-.2-.9-.2-1.3 0s-.4.6-.1.8.9.2 1.3 0 .4-.5.1-.8zM115.5 149.5c-.4-.3-.4-.8.1-1.1.5-.3 1.2-.3 1.7 0 .4.3.4.8-.1 1.1-.5.2-1.3.2-1.7 0zm1.6-1c-.3-.2-.9-.2-1.3 0s-.4.6-.1.8c.3.2.9.2 1.3 0s.4-.6.1-.8z" class="st101"/>
    <path d="m114.3 154.7 1.4-3.8M114.3 154.7l4.8-3M120.3 153.9l-6.2.8" class="st102"/>
    <path d="M251.4 193c0-1.5-.8-2.8-2.1-3.6-9-5.2-44.7-25.9-44.2-25.6-.9-.5-2 .1-2 1.2v33.1c0 1.5.8 2.9 2.1 3.6 9.1 5.2 44.7 25.4 44.3 25.1.9.5 1.9-.1 1.9-1.1V193z" class="st85"/>
    <path d="M206.4 178c0 2.9 1.7 6.2 3.9 7.4 2.1 1.2 3.9-.1 3.9-2.9 0-2.9-1.7-6.2-3.9-7.4-2.2-1.3-3.9 0-3.9 2.9zm1.4.8c0-1.8 1.1-2.7 2.5-1.9 1.4.8 2.5 2.9 2.5 4.7 0 1.8-1.1 2.7-2.5 1.9-1.4-.7-2.5-2.9-2.5-4.7z" class="st125"/>
    <path d="M206.4 190.7c0 2.9 1.7 6.2 3.9 7.4 2.1 1.2 3.9-.1 3.9-2.9 0-2.9-1.7-6.2-3.9-7.4-2.2-1.3-3.9 0-3.9 2.9zm1.4.8c0-1.8 1.1-2.7 2.5-1.9 1.4.8 2.5 2.9 2.5 4.7s-1.1 2.7-2.5 1.9c-1.4-.7-2.5-2.9-2.5-4.7z" class="st126"/>
    <path d="M206.4 190.7c0 2.9 1.8 6.2 3.9 7.4 2.1 1.2 3.9-.1 3.9-2.9s-1.7-6.2-3.9-7.4v1.9c1.4.8 2.4 2.9 2.4 4.7 0 1.8-1.1 2.7-2.5 1.9-1.4-.8-2.5-2.9-2.5-4.7l-1.3-.9z" class="st125"/>
    <path d="M212.8 181.7c0 1.8-1.1 2.7-2.5 1.9h-.1v1.9h.1c2.1 1.2 3.9-.1 3.9-2.9 0-2.9-1.7-6.2-3.9-7.4h-.1v1.9h.1c1.4.6 2.5 2.8 2.5 4.6z" class="st126"/>
    <path d="m242.4 213.8-2.7-16.2c-.4-2.6-3-4.1-3.4-2-.7 3.3-4 2.8-6.2-.9l-1.9-3.3c-.6-1.1-1.6-1.4-2-.7l-6.2 10.1 22.4 13z" class="st125"/>
    <path d="m218.1 199.9 28 16.1-2.2-7.8c-.7-2.5-2.9-4-3.8-2.4l-.6 1.1c-.5.9-1.9.1-2.4-1.5l-3.9-12.6c-.8-2.5-3-3.8-3.8-2.2l-2.7 5.4c-.5 1-1.8.3-2.3-1.2-.9-2.4-3.1-3.4-3.7-1.7l-2.6 6.8z" class="st126"/>
    <path d="M301.1 194.2c0-1.5.8-2.8 2.1-3.6 9-5.2 44.7-25.9 44.2-25.6.9-.5 2 .1 2 1.2v33.1c0 1.5-.8 2.9-2.1 3.6-9.1 5.2-44.7 25.4-44.3 25.1-.9.5-1.9-.1-1.9-1.1v-32.7z" class="st85"/>
    <defs>
      <path id="SVGID_34_" d="M341.1 186.6c-.6.4-1.1 1.2-1.1 1.9V199c0 .6.5.8 1.1.4.6-.4 1.1-1.2 1.1-1.9V187c0-.6-.5-.8-1.1-.4"/>
    </defs>
    <clipPath id="SVGID_35_">
      <use xlink:href="#SVGID_34_" overflow="visible"/>
    </clipPath>
    <path fill="#f7d186" d="m339.2 201.4 3.8-2.5v-14.3l-3.8 2.5z" clip-path="url(#SVGID_35_)"/>
    <defs>
      <path id="SVGID_36_" d="M345.6 182.3v-.4c-.1-2.3-2.1-2.9-4.4-1.3s-4.3 4.7-4.4 7.2v7.8c0 1.4 1.1 1.8 2.5.9l3.8-2.5c1.4-.9 2.5-2.8 2.5-4.2v-7.5"/>
    </defs>
    <clipPath id="SVGID_37_">
      <use xlink:href="#SVGID_36_" overflow="visible"/>
    </clipPath>
    <path fill="#ff9234" d="m335.9 199.4 10.5-6.9v-16.2l-10.5 7z" clip-path="url(#SVGID_37_)"/>
    <defs>
      <path id="SVGID_38_" d="M336.7 187.7v7.8c0 1.4 1.1 1.8 2.5.9l3.8-2.5c1.4-.9 2.5-2.8 2.5-4.2v-7.8c-.1-2.3-2.1-2.9-4.4-1.3-2.3 1.5-4.3 4.7-4.4 7.1z"/>
    </defs>
    <clipPath id="SVGID_39_">
      <use xlink:href="#SVGID_38_" overflow="visible"/>
    </clipPath>
    <g clip-path="url(#SVGID_39_)">
      <defs>
        <path id="SVGID_40_" d="m333.8 200.8 14.5-9.5v-14.5l-14.5 9.6z"/>
      </defs>
      <clipPath id="SVGID_41_">
        <use xlink:href="#SVGID_40_" overflow="visible"/>
      </clipPath>
      <g clip-path="url(#SVGID_41_)">
        <defs>
          <path id="SVGID_42_" d="m348.3 180.2-11 18.4-3.3-1.2 11-18.3z"/>
        </defs>
        <clipPath id="SVGID_43_">
          <use xlink:href="#SVGID_42_" overflow="visible"/>
        </clipPath>
        <g clip-path="url(#SVGID_43_)">
          <defs>
            <path id="SVGID_44_" d="m336.7 198.2 9.1-6.1v-14.7l-9.1 6z"/>
          </defs>
          <clipPath id="SVGID_45_">
            <use xlink:href="#SVGID_44_" overflow="visible"/>
          </clipPath>
          <path fill="#ffcd3c" d="m333.2 202 15.9-10.5v-15.8l-15.9 10.5z" clip-path="url(#SVGID_45_)"/>
        </g>
      </g>
    </g>
    <defs>
      <path id="SVGID_46_" d="M336.7 187.7v7.8c0 1.4 1.1 1.8 2.5.9l3.8-2.5c1.4-.9 2.5-2.8 2.5-4.2v-7.8c-.1-2.3-2.1-2.9-4.4-1.3-2.3 1.5-4.3 4.7-4.4 7.1z"/>
    </defs>
    <clipPath id="SVGID_47_">
      <use xlink:href="#SVGID_46_" overflow="visible"/>
    </clipPath>
    <g clip-path="url(#SVGID_47_)">
      <defs>
        <path id="SVGID_48_" d="m329.9 200.3 15.2-10.1V175l-15.2 10z"/>
      </defs>
      <clipPath id="SVGID_49_">
        <use xlink:href="#SVGID_48_" overflow="visible"/>
      </clipPath>
      <g clip-path="url(#SVGID_49_)">
        <defs>
          <path id="SVGID_50_" d="m345 179.1-11 18.3-4.1-1.3 11-18.3z"/>
        </defs>
        <clipPath id="SVGID_51_">
          <use xlink:href="#SVGID_50_" overflow="visible"/>
        </clipPath>
        <g clip-path="url(#SVGID_51_)">
          <defs>
            <path id="SVGID_52_" d="m336.7 198.2 9.1-6.1v-14.7l-9.1 6z"/>
          </defs>
          <clipPath id="SVGID_53_">
            <use xlink:href="#SVGID_52_" overflow="visible"/>
          </clipPath>
          <path fill="#f3807b" d="m329.1 201.4 16.7-11v-16.6l-16.7 11z" clip-path="url(#SVGID_53_)"/>
        </g>
      </g>
    </g>
    <defs>
      <path id="SVGID_54_" d="M336.7 187.7v7.8c0 1.4 1.1 1.8 2.5.9l3.8-2.5c1.4-.9 2.5-2.8 2.5-4.2v-7.8c-.1-2.3-2.1-2.9-4.4-1.3-2.3 1.5-4.3 4.7-4.4 7.1z"/>
    </defs>
    <clipPath id="SVGID_55_">
      <use xlink:href="#SVGID_54_" overflow="visible"/>
    </clipPath>
    <g clip-path="url(#SVGID_55_)">
      <defs>
        <path id="SVGID_56_" d="m337.1 201.9 14.5-9.5V178l-14.5 9.5z"/>
      </defs>
      <clipPath id="SVGID_57_">
        <use xlink:href="#SVGID_56_" overflow="visible"/>
      </clipPath>
      <g clip-path="url(#SVGID_57_)">
        <defs>
          <path id="SVGID_58_" d="m351.6 181.4-11.1 18.3-3.2-1.1 11-18.3z"/>
        </defs>
        <clipPath id="SVGID_59_">
          <use xlink:href="#SVGID_58_" overflow="visible"/>
        </clipPath>
        <g clip-path="url(#SVGID_59_)">
          <defs>
            <path id="SVGID_60_" d="m336.7 198.2 9.1-6.1v-14.7l-9.1 6z"/>
          </defs>
          <clipPath id="SVGID_61_">
            <use xlink:href="#SVGID_60_" overflow="visible"/>
          </clipPath>
          <path fill="#35d0ba" d="m336.5 203.1 15.8-10.4v-15.9l-15.8 10.5z" clip-path="url(#SVGID_61_)"/>
        </g>
      </g>
    </g>
    <defs>
      <path id="SVGID_62_" d="m340.3 195.8 1.9.7v-1.9c0-.1-1.9 1.2-1.9 1.2"/>
    </defs>
    <clipPath id="SVGID_63_">
      <use xlink:href="#SVGID_62_" overflow="visible"/>
    </clipPath>
    <path fill="#d8ae64" d="m339.5 199 3.5-2.3v-3.5l-3.5 2.3z" clip-path="url(#SVGID_63_)"/>
    <path fill="#ff9234" d="M306.9 208.7c.7-.3 1.3-.6 1.8-1 .2-.2.5-.4.6-.6.2-.2.3-.4.4-.6.2-.3.3-.6.4-.9.1-.4.2-.7.3-1.1.1-.3.3-.7.5-1.1.1-.2.2-.3.3-.4.1-.1.1-.1.2-.1 0 0 .1 0 .1-.1.1 0 .2-.1.4 0 .3.1.6.2.9.5.3.2.6.5.8.7.1.1.2.1.3.1h.6l.6-.3c.3-.2.5-.5.7-.7.3-.4.6-.9.9-1.4.4-.8.8-1.7 1.2-2.5.4-.9.7-1.8.9-2.6.2-.7.5-1.6.9-2.4.2-.4.5-.8.7-1.1.2-.3.5-.6.7-.7.2-.2.4-.3.7-.3.4-.1 1-.1 1.7.2.7.3 1.5.8 2.3 1.8.9.9 1.5 1.5 2.1 1.8.3.2.5.2.9.3.2 0 .3 0 .5-.1l.6-.3c.2-.2.4-.3.5-.5.3-.3.4-.6.5-.9.2-.5.3-.9.3-1.4.1-.8.2-1.6.3-2.3.1-.4.1-.7.2-1 .1-.3.2-.5.3-.6.3-.5.6-.8.8-1 .4-.4.6-.9.5-1.2-.2-.3-.6-.2-1.1.1-.5.4-1 1-1.5 1.7-.2.3-.4.7-.5 1-.2.6-.3 1.2-.4 1.7-.1.9-.2 1.7-.4 2.4-.1.3-.1.6-.2.8v.1h.2l-.1-.1v.1h.2l-.1-.1.2.2-.1-.3c-.1 0-.1.1-.1.1l.2.2-.1-.3.1.3.1-.4s-.1 0-.2.1l.1.3.1-.4v.1l.1-.2v.1l.1-.2s-.2 0-.3-.1c-.2-.1-.5-.3-.9-.6s-.8-.7-1.3-1.2c-1.2-1.3-2.3-2-3.4-2.2-.5-.1-1.1-.1-1.6.1-.5.1-1.1.4-1.6.8-.6.4-1 .9-1.4 1.4-.6.8-1 1.6-1.4 2.4-.3.8-.6 1.5-.7 2.1-.3 1.1-.8 2.4-1.4 3.6-.3.6-.6 1.1-.8 1.5-.1.2-.2.3-.3.4l-.1.1v.1-.1.1-.1l.1.2v-.3s-.1 0-.1.1l.1.2v-.3.4l.2-.4c-.1 0-.1 0-.2.1v.4l.2-.4-.2.3.2-.3h-.1l-.2.3.2-.3-.1.1.1-.1-.1.1.1-.1c-.2-.1-.4-.3-.6-.5-.4-.3-.8-.6-1.3-.7-.3-.1-.6-.1-.9 0-.2 0-.4.1-.6.2-.2.1-.4.2-.6.4-.2.2-.5.4-.7.6-.2.2-.4.5-.6.8-.3.5-.6 1-.7 1.4-.1.3-.2.6-.3.8-.1.4-.2.6-.3.7 0 .1-.1.1-.1.1l-.1.1c-.2.1-.5.3-1.1.6-.5.2-.9.7-1 1.1.1.5.4.7.9.6z"/>
    <path fill="#35d0ba" d="M322.4 195.6c-.6.4-1 1-1.4 1.5-.6.8-1.1 1.7-1.5 2.6-.4.9-.7 1.7-.9 2.3-.4 1.2-1 2.7-1.6 4-.3.6-.6 1.2-.9 1.6-.1.1-.1.2-.2.3-.1-.1-.2-.3-.4-.5-.3-.4-.7-.8-1.1-1-.2-.1-.5-.2-.9-.2-.2 0-.4.1-.6.1-.2.1-.4.2-.6.4-.2.2-.5.4-.7.7-.2.3-.4.5-.6.8-.4.6-.6 1.1-.8 1.6-.1.3-.2.7-.3.9-.1.4-.2.7-.3.8 0 .1-.1.1-.1.1l-.1.1c-.2.1-.5.3-1.1.5-.1 0-.2.1-.4.2-.3.2-.6.6-.6 1-.1.5.2.8.6.7.7-.2 1.3-.5 1.8-.9l.6-.6c.2-.2.3-.4.4-.6.2-.4.3-.7.5-1 .2-.4.3-.8.4-1.2.1-.4.3-.8.6-1.2.1-.2.2-.3.3-.4l.1-.1s.1 0 .1-.1h.4c.3.1.5.3.8.6.3.3.5.6.7.9l.2.2c.1.1.3.1.5 0l.6-.3c.3-.2.5-.5.7-.7.4-.4.7-.9 1-1.5.5-.8.9-1.8 1.3-2.8.4-1 .8-2 1.1-2.9.2-.8.6-1.8 1.1-2.7.2-.5.5-.9.7-1.2.2-.3.5-.6.7-.8.2-.1.4-.3.6-.3.4-.1.9 0 1.5.4s1.3 1.2 2 2.4 1.3 2 1.8 2.4c.3.2.5.4.8.4h.5c.2 0 .4-.1.6-.3l.5-.5c.3-.4.4-.7.5-1 .2-.5.3-1.1.4-1.6.2-.9.3-1.8.5-2.6.1-.4.2-.8.3-1.1.1-.3.2-.6.3-.7.4-.6.6-.9.8-1 .4-.4.7-1 .6-1.3-.1-.3-.5-.4-.9 0l-.1.1c-.5.4-1 1-1.5 1.8-.2.4-.4.8-.6 1.1-.2.7-.4 1.3-.6 2-.2 1-.4 2-.5 2.8 0 .2-.1.4-.1.5-.2-.1-.4-.4-.7-.7-.3-.4-.7-.9-1.1-1.6-1-1.7-1.9-2.6-2.9-3-.5-.2-1-.2-1.5-.1-.3.1-.8.4-1.3.7"/>
    <path d="m186.9 234.1-39.3 23.5c-5.4 3.2-8.7 9-8.7 15.3v1.5c0 2.9 1.5 5.6 4 7.2l48.7 28.1h0c1.8 1 3.9 1 5.6 0l28.4-16.6M180.3 138.2l-46.7 28c-3.1 1.8-5 5.1-5 8.7v1.5c0 5.8 3.1 11.1 8.2 13.9l43 24.4M373.1 139.8l45.2 27.1 1.1.7c3.7 2.3 6 6.4 6 10.8v0c0 5.5-2.7 10.7-7.2 13.8l-45.1 26.6" class="st146"/>
  </g>
</svg>