<svg xmlns="http://www.w3.org/2000/svg" xml:space="preserve" id="Layer_1" x="0" y="0" version="1.1" viewBox="0 0 640 640">
  <style>
    .st0,.st2,.st3,.st4,.st9{fill:#fff;stroke:#183d54;stroke-width:1.9601;stroke-linecap:round;stroke-linejoin:round;stroke-miterlimit:10}.st2,.st3,.st4,.st9{fill:none;stroke-width:1.1816}.st3,.st4,.st9{stroke-width:1.9601}.st4,.st9{fill:#dce7f2}.st9{fill:none;stroke-width:1.8101}.st10{fill:#183d54}.st17{fill:#35d0ba}.st18{fill:#ffcd3c}.st19{fill:#f3807b}.st20,.st21,.st22,.st23{fill:#dce7f2;stroke:#183d54;stroke-width:2.1878;stroke-linecap:round;stroke-linejoin:round;stroke-miterlimit:10}.st21,.st22,.st23{fill:none}.st22,.st23{fill:#fff}.st23{fill:none;stroke:#fff}.st24{display:none}.st25{display:inline}.st31{opacity:.75;fill:#35d0ba}.st32{opacity:.5;fill:#ffcd3c}.st33{fill:#ffb5b5}.st34{opacity:.5;fill:#f7d186}
  </style>
  <g id="cloud_2_">
    <path d="M110.7 569.2c-26.9-38.4-17.5-91.3 20.9-118.2 2.1-1.5 4.3-2.8 6.5-4.1 4.6-29.8 20.8-57.8 47.5-76.4 39.5-27.6 90.4-26.8 128.4-1.8.9-.7 1.9-1.4 2.8-2.1 39.7-27.7 94.3-18 122 21.6 3.4 4.8 6.2 9.9 8.5 15.1 17.6-6.3 37.8-.4 49 15.7 2.1 3 3.8 6.2 5 9.5 23.8-9.7 52-2.1 67.3 19.9 17.8 25.5 11.6 60.6-13.9 78.4-17 11.9-38.3 13.1-55.9 5-2.6 3.5-5.8 6.6-9.6 9.3-10.3 7.2-22.6 9.2-33.9 6.6-6.2 11-15 20.8-26 28.5-18.3 12.8-39.8 17.6-60.3 15.2-7 9.2-15.6 17.6-25.6 24.6-45.9 32.1-107.2 25.8-145.7-12.2-32.1 6.7-66.9-5.8-87-34.6z" class="st0"/>
    <path fill="#99b4cc" d="M119.5 563.1c18.7 26.7 51 38.3 81.8 32.4 1.4-.3 2.9.1 4 1.1 36.9 34.4 95.1 39.1 139.3 8.2 9.1-6.4 17-13.8 23.6-22 .9-1.2 2.4-1.8 3.9-1.7 19.2 1.4 39.1-3.6 56.2-15.6 9.9-6.9 17.9-15.5 24-25.1 1-1.5 2.7-2.4 4.5-2.1 10.1 1.4 20.9-.9 30-7.2 2.8-2 5.3-4.2 7.4-6.6 1.2-1.4 3.2-1.9 4.9-1.3 16.4 6.2 35.6 4.3 51.3-6.6 14.6-10.2 22.9-26.1 23.8-42.3.2-3.5-3.5-6-6.6-4.4-14.3 7.3-30.6 8-44.7 2.7-1.7-.7-3.7-.1-4.9 1.3-2.2 2.4-4.6 4.6-7.4 6.6-9.1 6.4-19.9 8.7-30 7.2-1.8-.3-3.5.6-4.5 2.1-6 9.6-14.1 18.1-24 25.1-17.2 12-37.1 17-56.2 15.6-1.5-.1-3 .5-3.9 1.7-6.6 8.2-14.5 15.6-23.6 22-44.2 30.9-102.3 26.3-139.3-8.2-1.1-1-2.5-1.4-4-1.1-30.7 5.9-63.1-5.7-81.8-32.4-8.7-12.4-13.3-26.5-14.1-40.7-.2-4.3-5.7-5.7-8.2-2.2-19.8 27.4-21.5 64.9-1.5 93.5z" opacity=".25"/>
    <path d="M499.3 423.6c.8 1.6 1.6 3.2 2.2 4.8 23.8-9.7 52-2.1 67.3 19.9 17.8 25.5 11.6 60.6-13.9 78.4-17 11.9-38.3 13.1-55.9 5-2.6 3.5-5.8 6.6-9.6 9.3-10.3 7.2-22.6 9.2-33.9 6.6-6.2 11-15 20.8-26 28.5-18.3 12.8-39.8 17.6-60.3 15.2-7 9.2-15.6 17.6-25.6 24.6-45.9 32.1-107.2 25.8-145.7-12.2-32.3 6.9-67.1-5.6-87.2-34.4-26.9-38.4-17.5-91.3 20.9-118.2 2.1-1.5 4.3-2.8 6.5-4.1 4.6-29.8 20.8-57.8 47.5-76.4 39.5-27.6 90.4-26.8 128.4-1.8.9-.7 1.9-1.4 2.8-2.1 8.5-5.9 17.7-10.2 27.2-12.7M355.8 351.5c.8-.1 1.6-.2 2.3-.3" class="st2"/>
  </g>
  <g id="crane_7_">
    <path d="m302.2 400.7-18.5 10.7-3.8-2v-4l22.3-12.9z" class="st0"/>
    <path d="m310 400.7 18.5 10.7 3.8-2v-4L310 392.5z" class="st0"/>
    <path d="M332.3 409.4 310 396.5" class="st3"/>
    <path d="M283.7 382.2v.3l-3.8-2v-4.3l22.3-12.7v8l-14 8.3" class="st0"/>
    <path d="m310 371.5 18.5 11 3.8-2v-4.3L310 363.5z" class="st0"/>
    <path d="m302.2 342.5-18.5 10.8-3.8-2.1v-4l22.3-12.9z" class="st0"/>
    <path d="m310 342.5 18.5 10.8 3.8-2.1v-4L310 334.3z" class="st0"/>
    <path d="M332.3 351.2 310 338.3" class="st3"/>
    <path d="M302.2 313.3 283.7 324l-3.8-2v-4l22.3-12.7z" class="st0"/>
    <path d="m310 313.3 18.5 10.7 3.8-2v-4L310 305.3z" class="st0"/>
    <path d="M332.3 322 310 309.1" class="st3"/>
    <path d="m302.2 286.4-18.5 10.7-3.8-2V291l22.3-12.9z" class="st0"/>
    <path d="m310 286.4 18.5 10.7 3.8-2V291L310 278.1z" class="st0"/>
    <path d="m302.2 257.2-18.5 10.7-3.8-2v-4.1l22.3-12.7z" class="st0"/>
    <path d="m310 257.2 18.5 10.7 3.8-2v-4.1L310 249.1z" class="st0"/>
    <path d="m302.2 228-18.5 10.9-3.8-2v-4.3l22.3-12.7z" class="st0"/>
    <path d="m318 224.4-8-4.5v8.1l18.5 10.9 3.8-2v-4.3l-9.6-5.5" class="st0"/>
    <path d="m302.2 199.4-18.5 10.7-3.8-1.8v-4.2l22.3-12.7z" class="st0"/>
    <path d="m310 199.4 18.5 10.7 3.8-1.8v-4.2L310 191.4z" class="st4"/>
    <path d="M332.3 208.1 310 195.2" class="st3"/>
    <path d="m306.2 195.4 3.8-2.2v258.1l-3.8 2.5zM306.2 195.4l-4-2.2v258.1l4 2.5zM336.3 411v26.5l-4 1.4V184.5l4-2.2v221.6" class="st0"/>
    <path d="M328.5 311.3v128.1l3.8-.5V180.2l-3.8-2.4v126.8" class="st4"/>
    <path fill="#dce7f2" stroke="#183d54" stroke-linecap="round" stroke-linejoin="round" stroke-miterlimit="10" stroke-width="2.229" d="m279.9 179.8 3.8-2.2v258.6l-3.8 2.4z"/>
    <path fill="#fff" stroke="#183d54" stroke-linecap="round" stroke-linejoin="round" stroke-miterlimit="10" stroke-width="2.229" d="M276.1 346.6v89.6l3.8 2.4V184.5l-3.8-2.5v151.4"/>
    <path d="M276.1 338.1v.7" class="st3"/>
    <path d="m310 422.1 18.5-10.7 3.8 1.8v4.3L310 430.2zM302.2 422.1l-18.5-10.7-3.8 1.8v4.3l22.3 12.7z" class="st0"/>
    <path d="m279.9 413.4 22.3 13M332.3 413.4l-22.3 13" class="st3"/>
    <path d="m302.2 392.9-18.5-10.7-3.8 2v4.1l22.3 12.9z" class="st0"/>
    <path d="m310 392.9 18.5-10.7 3.8 2v4.1L310 401.2z" class="st0"/>
    <path d="m302.2 364-18.5-11-3.8 2v4.3l22.3 12.7z" class="st0"/>
    <path d="m310 364 18.5-11 3.8 2v4.3L310 372z" class="st0"/>
    <path d="M332.3 355 310 368" class="st3"/>
    <path d="M302.2 334.7 283.7 324l-3.8 2.1v4l22.3 12.9z" class="st0"/>
    <path d="m320.9 328.5 7.6-4.5 3.8 2.1v4L310 343v-8.3l7.6-4.4" class="st0"/>
    <path d="M332.3 326.1 310 339" class="st3"/>
    <path d="m302.2 307.8-18.5-11-3.8 2.1v4.2l22.3 12.7z" class="st0"/>
    <path d="M328.5 297.1v-.3l3.8 2.1v4.2L310 315.8v-8l9.6-5.6" class="st0"/>
    <path d="m323.4 300 .4-.3M332.3 298.9 310 311.8" class="st3"/>
    <path d="m302.2 278.6-18.5-10.7-3.8 2v4l22.3 12.9z" class="st0"/>
    <path d="m310 278.6 18.5-10.7 3.8 2v4L310 286.8z" class="st0"/>
    <path d="M332.3 269.9 310 282.8" class="st3"/>
    <path d="m302.2 249.4-18.5-10.7-3.8 2v4l22.3 12.9z" class="st0"/>
    <path d="m316.2 245.8 12.3-7.1 3.8 2v4L310 257.6v-8.2l1.8-1.2" class="st0"/>
    <path d="M332.3 240.7 310 253.6" class="st3"/>
    <path d="m302.2 220.8-18.5-10.7-3.8 2v4l22.3 13z" class="st0"/>
    <path d="m310 220.8 18.5-10.7 3.8 2v4l-22.3 13z" class="st0"/>
    <path d="m332.3 212.1-22.3 13M279.9 180.7l22.3-12.9M332.3 180.7 310 167.8" class="st3"/>
    <path d="m302.2 193.2-18.5-10.7-3.8 2v4.2l22.3 12.7z" class="st0"/>
    <path d="m310 193.2 18.5-10.7 3.8 2v4.2L310 201.4z" class="st0"/>
    <path d="M332.3 184.5 310 197.4" class="st3"/>
    <path d="M390.1 203.1v5.3l-37.5 21.7-37.7-21.9v-5.1l37.7-21.9z" class="st4"/>
    <path d="m314.9 203.1 37.7 21.6 37.5-21.6-37.5-21.9z" class="st4"/>
    <path fill="#f3807b" stroke="#173d54" stroke-linecap="round" stroke-linejoin="round" stroke-miterlimit="10" stroke-width="1.81" d="m468.6 395-.9-.6c-1.4-.8-2-1.9-2-2.9h0v-9.3h0c0-1.4.9-2.6 2.8-3.7l19.5-11.3c3.4-1.9 8.3-2.2 11.3-.5l21.3 12.2c1.4.8 2 2 1.9 3.1v9c0 1.2-.9 2.8-2.8 3.9l-19.5 11.3c-3.4 1.9-8.3 2.2-11.3.5l-16.4-9.4"/>
    <path fill="#ffa4a4" stroke="#183d54" stroke-linecap="round" stroke-linejoin="round" stroke-miterlimit="10" stroke-width="1.81" d="m508.9 391.6 10.7-6.2c3.2-1.9 3.7-4.8.8-6.5L499 366.7c-2.9-1.7-8-1.4-11.3.5l-19.5 11.3c-3.2 1.9-3.7 4.8-.8 6.5l21.3 12.2c2.9 1.7 8 1.4 11.3-.5l1.1-.6"/>
    <path d="M493.9 347.4c-.2 1.3-.7 2.5-1.6 2.9l-1.6.9c-3.3 2-8.9-4-8.9-9.4 0-2 .9-3.1 2-3.6 1.3-.4 2-1.6 2-3.3V330l1.6.9v-1.8l2.5 1.3v5.6c0 2-.9 3.3-1.8 3.8l-1.3.9h-.2c-.2 0-.4.2-.7.2 0 .2-.2.7-.2 1.3 0 2.7 2.7 5.8 4.7 6 0-.4.2-.7.2-1.1 0-.2 0-.4.2-.4l1.8-.9c.2-.2.4-.2.7 0 .4.3.8 1.1.6 1.6z" class="st10"/>
    <path d="M492.3 348.3c-.2 1.3-.7 2.5-1.6 2.9-3.3 2-8.9-4-8.9-9.4 0-2 .9-3.1 2-3.6 1.3-.4 2-1.6 2-3.3V330l2.5 1.3v5.4c0 2.5-.9 3.8-2.7 4-.9 0-1.6.9-1.6 2.2 0 3.6 3.6 7.1 5.6 6 .4-.2.9-.9.9-1.8 0-.4.4-.7.9-.4.7.2 1.2 1.1.9 1.6z" class="st10"/>
    <path d="M495.5 322.2c-.4-.7-1.1-1.3-2.2-2-3.3-1.8-8.5-1.8-11.8 0-.9.7-1.6 1.3-2 2 0 .2-.2.7-.2.9v4c0 4.5 3.8 8.2 8.2 8.2 4.5 0 8.2-3.6 8.2-8.2v-3.8c-.2-.4-.2-.7-.2-1.1z" class="st4"/>
    <path d="M494.3 323.8c.2-.4.4-.7.4-.9.2-.2.2-.4.2-.7v-.7c0-.2 0-.7-.2-.9-.2-.7-.9-1.3-2-2-3.1-1.8-8.2-1.8-11.4 0-.9.4-1.6 1.1-2 1.8 0 .4-.2.7-.2.9v1.3c.2.2.2.2.2.4.4.7 1.1 1.6 2.2 2.2 1.6.9 3.8 1.3 5.8 1.3" class="st0"/>
    <path d="M489 270v49.7c0 .9-.7 1.6-1.6 1.6h0c-.9 0-1.6-.7-1.6-1.6V270c0-.9.7-1.6 1.6-1.6h0c.9.1 1.6.7 1.6 1.6z" class="st4"/>
    <path d="M490.3 326.4h0" class="st0"/>
    <path d="m488.1 347.8-14 41.3M493.7 349.8l18.1 23" class="st3"/>
    <path fill="#ffcd3c" stroke="#173d54" stroke-linecap="round" stroke-linejoin="round" stroke-miterlimit="10" stroke-width="1.81" d="m192.1 365.4-16.4 9.4c-2.9 1.7-7.9 1.4-11.3-.5L144.9 363c-1.9-1.1-2.8-2.6-2.8-3.9v-9c-.2-1.1.5-2.3 1.9-3.1l21.3-12.2c2.9-1.7 7.9-1.4 11.3.5l19.5 11.3c1.9 1.1 2.8 2.3 2.8 3.7h0v9.3h0c0 1.1-.6 2.2-2 2.9l-.9.6"/>
    <path fill="#ffdc85" stroke="#183d54" stroke-linecap="round" stroke-linejoin="round" stroke-miterlimit="10" stroke-width="1.81" d="m163.3 364.3 1.1.6c3.2 1.9 8.3 2.2 11.3.5l21.3-12.2c2.9-1.7 2.5-4.6-.8-6.5l-19.5-11.3c-3.2-1.9-8.3-2.2-11.3-.5l-21.3 12.2c-2.9 1.7-2.5 4.6.8 6.5l10.7 6.2"/>
    <path d="M171.3 314.1c.2-.2.4-.2.7 0l1.8.9c.2 0 .2.2.2.4 0 .4.2.7.2 1.1 2-.2 4.7-3.3 4.7-6 0-.7-.2-1.1-.2-1.3-.2 0-.4-.2-.7-.2h-.2l-1.3-.9c-.9-.4-1.8-1.8-1.8-3.8v-5.6l2.5-1.3v1.8l1.6-.9v4.9c0 1.8.7 2.9 2 3.3 1.1.4 2 1.6 2 3.6 0 5.4-5.6 11.4-8.9 9.4l-1.6-.9c-.9-.4-1.3-1.6-1.6-2.9-.3-.5.1-1.4.6-1.6z" class="st10"/>
    <path d="M173.1 315c.4-.2.9 0 .9.4 0 .9.4 1.6.9 1.8 2 1.1 5.6-2.5 5.6-6 0-1.3-.7-2.2-1.6-2.2-1.8-.2-2.7-1.6-2.7-4v-5.4l2.5-1.3v4.9c0 1.8.7 2.9 2 3.3 1.1.4 2 1.6 2 3.6 0 5.4-5.6 11.4-8.9 9.4-.9-.4-1.3-1.6-1.6-2.9-.2-.5.2-1.4.9-1.6z" class="st10"/>
    <path d="M168.8 291.5v3.8c0 4.7 3.8 8.2 8.2 8.2s8.2-3.8 8.2-8.2v-4c0-.2-.2-.7-.2-.9-.4-.7-1.1-1.3-2-2-3.3-1.8-8.5-1.8-11.8 0-1.1.7-1.8 1.3-2.2 2 .1.5.1.7-.2 1.1z" class="st4"/>
    <path d="M177.1 294.9c2 0 4.2-.4 5.8-1.3 1.1-.7 1.8-1.6 2.2-2.2 0-.2 0-.2.2-.4v-1.3c0-.2-.2-.4-.2-.9-.4-.7-1.1-1.3-2-1.8-3.1-1.8-8.2-1.8-11.4 0-1.1.7-1.8 1.3-2 2-.2.2-.2.7-.2.9v.7c0 .3 0 .4.2.7 0 .2.2.4.4.9" class="st0"/>
    <path d="M177.1 236.7h0c.9 0 1.6.7 1.6 1.6V288c0 .9-.7 1.6-1.6 1.6h0c-.9 0-1.6-.7-1.6-1.6v-49.7c0-.9.7-1.6 1.6-1.6z" class="st4"/>
    <path d="M174.2 294.7h0" class="st0"/>
    <path d="m190.4 357.4-14-41.3M152.7 341l18.1-22.9" class="st3"/>
    <path fill="#35d0ba" stroke="#173d54" stroke-linecap="round" stroke-linejoin="round" stroke-miterlimit="10" stroke-width="1.81" d="m433.1 194.1-.9-.6c-1.4-.8-2-1.9-2-2.9h0v-9.3h0c0-1.4.9-2.6 2.8-3.7l19.5-11.3c3.4-1.9 8.3-2.2 11.3-.5l21.3 12.2c1.4.8 2 2 1.9 3.1v9c0 1.2-.9 2.8-2.8 3.9l-19.5 11.3c-3.4 1.9-8.3 2.2-11.3.5l-16.4-9.4"/>
    <path fill="#63fce2" stroke="#183d54" stroke-linecap="round" stroke-linejoin="round" stroke-miterlimit="10" stroke-width="1.81" d="m468.4 193.6.5-.3 4.6-2.6 10.7-6.2c3.2-1.9 3.7-4.8.8-6.5l-21.3-12.2c-2.9-1.7-8-1.4-11.3.5l-19.5 11.3c-3.2 1.9-3.7 4.8-.8 6.5l21.3 12.2c2.9 1.7 8 1.4 11.3-.5l1.1-.6"/>
    <path d="M458.4 146.5c-.2 1.3-.7 2.5-1.6 2.9l-1.6.9c-3.3 2-8.9-4-8.9-9.4 0-2 .9-3.1 2-3.6 1.3-.4 2-1.6 2-3.3v-4.9l1.6.9v-1.8l2.5 1.3v5.6c0 2-.9 3.3-1.8 3.8l-1.3.9h-.2c-.2 0-.4.2-.7.2 0 .2-.2.7-.2 1.3 0 2.7 2.7 5.8 4.7 6 0-.4.2-.7.2-1.1 0-.2 0-.4.2-.4l1.8-.9c.2-.2.4-.2.7 0 .4.2.9 1.1.6 1.6z" class="st10"/>
    <path d="M456.9 147.3c-.2 1.3-.7 2.5-1.6 2.9-3.3 2-8.9-4-8.9-9.4 0-2 .9-3.1 2-3.6 1.3-.4 2-1.6 2-3.3V129l2.5 1.3v5.4c0 2.5-.9 3.8-2.7 4-.9 0-1.6.9-1.6 2.2 0 3.6 3.6 7.1 5.6 6 .4-.2.9-.9.9-1.8 0-.4.4-.7.9-.4.7.3 1.1 1.2.9 1.6z" class="st10"/>
    <path d="M460 121.3c-.4-.7-1.1-1.3-2.2-2-3.3-1.8-8.5-1.8-11.8 0-.9.7-1.6 1.3-2 2 0 .2-.2.7-.2.9v4c0 4.5 3.8 8.2 8.2 8.2 4.5 0 8.2-3.6 8.2-8.2v-3.8c-.2-.5-.2-.7-.2-1.1z" class="st4"/>
    <path d="M458.9 122.8c.2-.4.4-.7.4-.9.2-.2.2-.4.2-.7v-.7c0-.2 0-.7-.2-.9-.2-.7-.9-1.3-2-2-3.1-1.8-8.2-1.8-11.4 0-.9.4-1.6 1.1-2 1.8 0 .4-.2.7-.2.9v1.3c.2.2.2.2.2.4.4.7 1.1 1.6 2.2 2.2 1.6.9 3.8 1.3 5.8 1.3" class="st0"/>
    <path d="M453.5 69.1v49.7c0 .9-.7 1.6-1.6 1.6h0c-.9 0-1.6-.7-1.6-1.6V69.1c0-.9.7-1.6 1.6-1.6h0c1 0 1.6.7 1.6 1.6z" class="st4"/>
    <path d="M454.9 125.5h0" class="st0"/>
    <path d="m452.7 146.9-14 41.3M458.2 148.9l18.2 23" class="st3"/>
    <path fill="#d8ae64" stroke="#173d54" stroke-linecap="round" stroke-linejoin="round" stroke-miterlimit="10" stroke-width="1.81" d="m109.4 180-.9-.6c-1.4-.8-2-1.9-2-2.9h0v-9.3h0c0-1.4.9-2.6 2.8-3.7l19.5-11.3c3.4-1.9 8.3-2.2 11.3-.5l21.3 12.2c1.4.8 2 2 1.9 3.1v9c0 1.2-.9 2.8-2.8 3.9L141 191.1c-3.4 1.9-8.3 2.2-11.3.5l-16.4-9.4"/>
    <path fill="#f9cd87" stroke="#173d54" stroke-linecap="round" stroke-linejoin="round" stroke-miterlimit="10" stroke-width="1.81" d="m144.7 179.5.5-.3 4.6-2.6 10.7-6.2c3.2-1.9 3.7-4.8.8-6.5L140 151.7c-2.9-1.7-8-1.4-11.3.5l-19.5 11.3c-3.2 1.9-3.7 4.8-.8 6.5l21.3 12.2c2.9 1.7 8 1.4 11.3-.5l1.1-.6"/>
    <path d="M134.8 132.4c-.2 1.3-.7 2.5-1.6 2.9l-1.6.9c-3.3 2-8.9-4-8.9-9.4 0-2 .9-3.1 2-3.6 1.3-.4 2-1.6 2-3.3V115l1.6.9v-1.8l2.5 1.3v5.6c0 2-.9 3.3-1.8 3.8l-1.3.9h-.2c-.2 0-.4.2-.7.2 0 .2-.2.7-.2 1.3 0 2.7 2.7 5.8 4.7 6 0-.4.2-.7.2-1.1 0-.2 0-.4.2-.4l1.8-.9c.2-.2.4-.2.7 0 .3.3.8 1.1.6 1.6z" class="st10"/>
    <path d="M133.2 133.3c-.2 1.3-.7 2.5-1.6 2.9-3.3 2-8.9-4-8.9-9.4 0-2 .9-3.1 2-3.6 1.3-.4 2-1.6 2-3.3V115l2.5 1.3v5.4c0 2.5-.9 3.8-2.7 4-.9 0-1.6.9-1.6 2.2 0 3.6 3.6 7.1 5.6 6 .4-.2.9-.9.9-1.8 0-.4.4-.7.9-.4.7.2 1.1 1.1.9 1.6z" class="st10"/>
    <path d="M136.3 107.2c-.4-.7-1.1-1.3-2.2-2-3.3-1.8-8.5-1.8-11.8 0-.9.7-1.6 1.3-2 2 0 .2-.2.7-.2.9v4c0 4.5 3.8 8.2 8.2 8.2s8.2-3.6 8.2-8.2v-3.8c-.2-.4-.2-.7-.2-1.1z" class="st4"/>
    <path d="M135.2 108.8c.2-.4.4-.7.4-.9.2-.2.2-.4.2-.7v-.7c0-.2 0-.7-.2-.9-.2-.7-.9-1.3-2-2-3.1-1.8-8.2-1.8-11.4 0-.9.4-1.6 1.1-2 1.8 0 .4-.2.7-.2.9v1.3c.2.2.2.2.2.4.4.7 1.1 1.6 2.2 2.2 1.6.9 3.8 1.3 5.8 1.3" class="st0"/>
    <path d="M129.9 55v49.7c0 .9-.7 1.6-1.6 1.6h0c-.9 0-1.6-.7-1.6-1.6V55c0-.9.7-1.6 1.6-1.6h0c.9.1 1.6.7 1.6 1.6z" class="st4"/>
    <path d="M131.2 111.4h0" class="st0"/>
    <path d="m129 132.8-14 41.3M134.5 134.8l18.2 23" class="st3"/>
    <path d="m310.6 186.3-45.4-25.4v-8l35.6-12.9 45.6 17.6v8z" class="st0"/>
    <path d="m310.6 178.3-45.4-25.4 35.5-20.9 45.7 25.6z" class="st4"/>
    <path d="M310.6 178.3v8" class="st3"/>
    <path d="m310.6 175.2-45.4-25.6-.1-8.1 35.6-12.9 45.6 17.6v8z" class="st0"/>
    <path d="m310.5 167.1-45.4-25.6 35.6-20.9 45.6 25.6z" class="st4"/>
    <path d="m310.5 163.8-45.4-25.4v-8l35.6-12.9 45.5 17.5.1 8.1z" class="st0"/>
    <path d="m310.5 155.8-45.4-25.4 35.5-20.9 45.6 25.5z" class="st4"/>
    <path d="M310.5 155.8v8" class="st3"/>
    <path d="m316.2 149.3-5.8 3.3L265 127v-8l35.6-12.7 45.6 17.4v8l-25.5 14.9" class="st0"/>
    <path d="M310.4 144.6 265 119l35.5-20.7 45.7 25.4z" class="st4"/>
    <path d="M310.4 144.6v8" class="st3"/>
    <path d="M310.4 141.5 265 115.9l-.1-8L300.5 95l45.6 17.5.1 8.1z" class="st0"/>
    <path d="m332.6 120.4-22.3 13.1-45.4-25.6 35.6-21 45.6 25.6-10 5.9" class="st4"/>
    <path d="m310.3 130.1-45.4-25.3v-8.1l35.5-20.9 45.6 25.4.1 8z" class="st0"/>
    <path d="m324.7 89.9 21.2 11.5-21.8 12.2z" class="st17"/>
    <path d="m301.6 75.9 24.1 13.4-.8 25-14 7.6-9.7-5.4-.2-40.4z" class="st18"/>
    <path d="m266.5 97.1 34.6-20.9.2 40.4z" class="st19"/>
    <path d="m310.3 122.1-45.4-25.4 35.5-20.9 45.6 25.4M316 118.7l-.6.5" class="st3"/>
    <path d="m346 101.2-35.7 20.9v8" class="st3"/>
    <path d="M120.5 31.9v10.5l-5.3 3.1-5.2-4.8V25.8z" class="st20"/>
    <path d="M115.2 28.9v14.8" class="st21"/>
    <path d="M148.7 49.9v8.7l-5.2 3.1-5.3-3.1V43.7z" class="st0"/>
    <path d="M143.5 46.8v14.9" class="st3"/>
    <path d="M182.2 70.2V79l-5.3 3.2-5.2-3V64.1z" class="st20"/>
    <path d="M176.9 65.4v14.9" class="st21"/>
    <path d="M212.8 86v10.5l-5.2 1.3-5.3-3.1V79.8z" class="st4"/>
    <path d="M207.6 82.9v14.9" class="st3"/>
    <path d="M243.9 105v8.7l-5.5 3.1-5-2.8V98.9z" class="st4"/>
    <path d="M238.4 101.9v14.9" class="st3"/>
    <path d="M274.7 122.9v8.8l-5.4 3-5.3-2.8v-15.1z" class="st4"/>
    <path d="M269.3 119.9v14.8" class="st3"/>
    <path d="m95.8 28 212.6 122.3v5.7L95.8 33.7z" class="st0"/>
    <path d="M308.4 156 95.8 33.7l-5.5 3L303 159z" class="st0"/>
    <path d="M308.4 150.3 95.8 28l-5.5 3.3L303 153.6z" class="st4"/>
    <path d="M300.3 137.8v9l-4.3 2.4-4.2-2.4v-12.3z" class="st4"/>
    <path d="M296 137.2v12" class="st3"/>
    <path d="M90.3 31.3 303 153.6v5.4L90.3 36.7z" class="st0"/>
    <path d="m133.8 73.1 9-5.5V63l-4.1-2.6-13.2 8.1z" class="st4"/>
    <path d="m104.3 56.2 9.2-5.5v-4.6l-4.4-2.6-12.9 8.1z" class="st22"/>
    <path d="m164.3 90.3 8.9-5.4v-4.6l-4.4-2.7-12.9 8.1z" class="st4"/>
    <path d="m194.7 107.6 8.9-5.4v-4.6l-4.3-2.7-13 8.1z" class="st4"/>
    <path d="m224.9 124.9 9.1-5.5v-4.6l-4.3-2.6-12.9 8.1z" class="st4"/>
    <path d="m255.3 142.2 8.9-5.5v-4.6l-4.1-2.6-13.1 8.1z" class="st4"/>
    <path d="m287 159.5 9-5.5v-4.6l-4.4-2.6-12.9 8.1z" class="st4"/>
    <path d="m282.6 157.1 13.4-7.7M165.3 89.2l12.1-6.7" class="st3"/>
    <path d="m201.9 110.7 87.9 50.5v5.5L77.2 44.6v-5.7l119 68.3" class="st0"/>
    <path d="M289.8 166.7 77.2 44.4l-5.3 3.3 212.7 122.1z" class="st0"/>
    <path d="M196.4 107.4 77.2 38.9 71.9 42l212.7 122.3 5.2-3.1-88.6-51" class="st4"/>
    <path d="m71.9 42 212.7 122.3v5.7L71.9 47.7z" class="st0"/>
    <path d="M307.8 136.5 95.1 14.2l-5.2 3.1 212.6 122.3z" class="st0"/>
    <path d="M177.8 56.2 95.1 8.5l-5.2 3.1 212.6 122.3 5.3-3.1-125-71.7" class="st0"/>
    <path d="m89.9 11.6 212.6 122.3v5.7L89.9 17.3z" class="st4"/>
    <path d="m168 72.6 9.2-5.5v-5.2l-4.4-2.6-12.9 8.1z" class="st4"/>
    <path d="m198.8 90.1 9-5.5v-5l-4.2-2.6-13.1 8.1z" class="st4"/>
    <path d="m229.7 108.1 9.2-5.5v-5.3l-4.4-2.4-12.9 7.9z" class="st4"/>
    <path d="m260.5 125.8 9-5.5v-5.2l-4.4-2.7-12.9 8.1z" class="st4"/>
    <path d="m289.4 145 11.2-6.8V133l-4.4-2.6-12.9 7.8z" class="st0"/>
    <path d="m134.5 53.6 9-5.5v-5.7l-4.4-2.4-12.9 7.9z" class="st4"/>
    <path d="m106.3 37.4 8.9-5.5v-5.7l-4.1-2.4L98 31.7z" class="st20"/>
    <path d="m77.2 18.1 212.6 122.3v5.7L77.2 23.8z" class="st0"/>
    <path d="M289.8 146.1 77.2 23.8l-5.3-2.4v5.5l212.7 122.3z" class="st0"/>
    <path d="m196.6 93 88 50.7 5.2-3.3L77.2 18.1l-5.3 3.3 79 45.3" class="st0"/>
    <path d="m284.6 149.2 5.2-3.1v-5.7l-5.2 3.3zM302.5 139.6l5.3-3.1v-5.7l-5.3 3.1zM303.2 159l5.2-3v-5.7l-5.2 3.3zM284.6 170l5.2-3.1v-5.7l-5.2 3.1z" class="st0"/>
    <path d="M101.7 44.2v8.7L96.2 56 91 52.9V38z" class="st20"/>
    <path d="M96.2 41.1V56" class="st21"/>
    <path d="M131 61v8.8l-5.5 3-5-2.8V54.9z" class="st0"/>
    <path d="M125.5 58v14.8" class="st3"/>
    <path d="M161.2 78.5v8.8l-5.3 3-5.2-3V72.4z" class="st4"/>
    <path d="M155.9 75.5v14.8" class="st3"/>
    <path d="M191.4 95.8v8.8l-5.3 3-5.2-2.8V89.7z" class="st22"/>
    <path d="M186.1 92.7v14.9" class="st21"/>
    <path d="M221.6 113.1v8.7l-5.3 3.3-5.2-3V107z" class="st0"/>
    <path d="M216.3 110v15.1" class="st3"/>
    <path d="M252 130.6v8.7l-5.5 3.1-5-2.8v-15.1z" class="st0"/>
    <path d="M246.5 127.5v14.9" class="st3"/>
    <path d="M282.6 148.3v8.8l-5.2 3-5.3-2.8v-15.1z" class="st0"/>
    <path d="M277.4 145.2v14.9" class="st3"/>
    <path d="M243.4 226.9 198 201.5v-8l35.6-12.9 45.6 17.6v8z" class="st0"/>
    <path d="M243.4 218.9 198 193.5l35.5-20.9 45.7 25.6z" class="st4"/>
    <path d="M243.4 218.9v8" class="st3"/>
    <path d="M243.4 215.8 198 190.2l-.1-8.1 35.6-12.9 45.6 17.6v8z" class="st0"/>
    <path d="m243.3 207.7-45.4-25.6 35.6-20.9 45.6 25.6z" class="st4"/>
    <path d="M243.3 204.4 197.9 179l-.1-8 35.6-12.9 45.6 17.6.1 8z" class="st0"/>
    <path d="M243.2 196.4 197.8 171l35.6-20.9 45.6 25.6z" class="st4"/>
    <path d="m249 189.9-5.8 3.4-45.4-25.6v-8.1l35.6-12.7 45.6 17.4v8l-25.6 14.9" class="st0"/>
    <path d="m243.2 185.2-45.4-25.6 35.5-20.7 45.7 25.4z" class="st4"/>
    <path d="M243.2 185.2v8.1" class="st3"/>
    <path d="m243.2 182.1-45.4-25.6-.1-8 35.6-12.9 45.6 17.5v8.1z" class="st0"/>
    <path d="m265.3 161-22.2 13.1-45.4-25.6 35.6-21 45.6 25.6-10 5.9" class="st4"/>
    <path d="m243.1 170.7-45.4-25.3-.1-8.1 35.6-20.9 45.6 25.4.1 8z" class="st0"/>
    <path d="m257.5 130.3 21.2 11.6-21.8 12.1z" class="st17"/>
    <path d="m234.4 116.4 24 13.4-.7 25-14 7.6-9.7-5.4-.2-40.4z" class="st18"/>
    <path d="m199.3 137.5 34.6-20.8.2 40.4z" class="st19"/>
    <path d="m243 162.7-45.4-25.4 35.6-20.9 45.6 25.4M248.8 159.3l-.6.5M278.8 141.8 243 162.7l.1 8" class="st3"/>
    <path d="M437.5 64.1v15.2l-5.3 4.9-5.4-3.1V70.4z" class="st4"/>
    <path d="M432.2 82.4V67.2" class="st3"/>
    <path d="M408.8 82.4v15.2l-5.4 3.1-5.3-3.1v-9z" class="st0"/>
    <path d="M403.4 100.7V85.5" class="st3"/>
    <path d="M374.7 103.1v15.4l-5.4 3.1-5.3-3.3v-8.9z" class="st4"/>
    <path d="M369.3 119.6v-15.1" class="st3"/>
    <path d="M343.4 119.2v15.1l-5.3 3.2-5.4-1.4v-10.7z" class="st4"/>
    <path d="M338.1 137.5v-15.2" class="st3"/>
    <path d="M311.8 138.6V154l-5.1 2.9-5.6-3.2v-8.9z" class="st4"/>
    <path d="M306.7 156.9v-15.2" class="st3"/>
    <path d="M280.6 156.9v15.3l-5.4 2.9-5.5-3.1v-8.9z" class="st4"/>
    <path d="M275.2 175.1V160" class="st3"/>
    <path d="M452 72.1 131.2 255.8V250L452 66.3z" class="st0"/>
    <path d="M136.8 259 457.6 75.3l-5.6-3.2-320.8 183.7z" class="st0"/>
    <path d="M136.8 253.4 457.6 69.7l-5.6-3.4L131.2 250z" class="st4"/>
    <path d="M252.3 174.9v12.5l-4.3 2.5-4.4-2.5v-9.1z" class="st4"/>
    <path d="M248 189.9v-12.3" class="st3"/>
    <path d="M457.6 75.3 136.8 259v-5.6L457.6 69.7zM136.5 253.4l-5.3-3.4v5.8l5.3 3.2z" class="st0"/>
    <path d="m421.7 107.6-13.4-8.3-4.2 2.7v4.7l9.1 5.6z" class="st4"/>
    <path d="m451.6 90.4-13.2-8.2-4.4 2.7v4.6l9.3 5.6z" class="st0"/>
    <path d="m390.7 125.2-13.1-8.2-4.5 2.6v4.7l9.1 5.6z" class="st4"/>
    <path d="m359.7 142.8-13.1-8.2-4.5 2.6v4.7l9.2 5.6z" class="st4"/>
    <path d="m328.7 160.4-13.1-8.2-4.5 2.7v4.6l9.4 5.6z" class="st4"/>
    <path d="m298 178-13.4-8.2-4.2 2.7v4.6l9.1 5.6z" class="st4"/>
    <path d="m265.6 195.7-13.1-8.3-4.5 2.7v4.7l9.2 5.5z" class="st4"/>
    <path d="m239.4 210.1-13.1-8.2-4.5 2.7v4.7l9.2 5.5z" class="st4"/>
    <path d="m215.1 224.6-13.1-8.2-4.5 2.7v4.6l9.2 5.6z" class="st4"/>
    <path d="m192.3 237.3-13.2-8.2-4.4 2.7v4.7l9.1 5.5z" class="st4"/>
    <path d="m169.4 250.3-13.1-8.3-4.5 2.7v4.7l9.2 5.6z" class="st4"/>
    <path d="m151.8 244.7 13.6 7.8M368.9 121.9l12.2 6.9" class="st3"/>
    <path d="M349.7 147.1 471 77.5v5.8L147.5 268.9v-5.6l196.4-112.7" class="st0"/>
    <path d="M152.8 272 476.3 86.4l-5.3-3.3-323.5 185.8z" class="st0"/>
    <path d="M344.6 150.2 147.5 263.3l5.3 3.1L476.3 80.6l-5.3-3.1-121.5 69.8" class="st4"/>
    <path d="M476.3 86.4 152.8 272.2v-5.8L476.3 80.6zM152.8 266.4l-5.3-3.1v5.8l5.3 3.1z" class="st0"/>
    <path d="M133 241.7 458 55.4l-5.3-3.1-325 186.3z" class="st0"/>
    <path d="M363.3 98 127.7 232.8l5.3 3.2L458 49.6l-5.3-3.1-84.3 48.6" class="st0"/>
    <path d="M458 55.4 133 241.7V236L458 49.6z" class="st4"/>
    <path d="m133 236-5.3-3.2v5.8l5.3 3.1z" class="st0"/>
    <path d="m386.7 106.5-13.2-8.3-4.4 2.7v5.4l9.4 5.5z" class="st4"/>
    <path d="m355.5 124.5-13.4-8.2-4.2 2.7v5.1l9.1 5.6z" class="st4"/>
    <path d="m323.8 142.6-13.1-8-4.5 2.4v5.4l9.4 5.5z" class="st4"/>
    <path d="m292.6 160.7-13.1-8.3-4.5 2.7v5.3l9.1 5.6z" class="st4"/>
    <path d="m261 178.7-13.2-8-4.5 2.7v5.3l11.4 6.9z" class="st0"/>
    <path d="m421 86.6-13.1-8-4.5 2.5v5.8l9.2 5.5z" class="st4"/>
    <path d="m449.8 70.1-13.4-8-4.2 2.5v5.8l9.1 5.5z" class="st4"/>
    <path d="m210.5 207.7-13.2-8-4.5 2.6v5.4l11.4 6.9z" class="st0"/>
    <path d="m187.6 220.4-13.2-8-4.4 2.6v5.4l11.4 6.9z" class="st0"/>
    <path d="m164.7 233.3-13.1-8-4.5 2.7v5.3l11.4 6.9z" class="st0"/>
    <path d="m234.8 193.2-13.2-8-4.5 2.7v5.3l11.4 6.9z" class="st0"/>
    <path d="M246.1 197.2v15.4l-5.3 2.9-5.4-3.1v-8.9z" class="st0"/>
    <path d="M240.8 215.5v-15.2" class="st3"/>
    <path d="M221.8 211.7v15.4l-5.3 2.9-5.4-3.1v-9z" class="st0"/>
    <path d="M216.5 230v-15.2" class="st3"/>
    <path d="M199 224.4v15.4l-5.4 2.9-5.3-3.1v-8.9z" class="st0"/>
    <path d="M193.6 242.7v-15.2" class="st3"/>
    <path d="M176.1 237.3v15.4l-5.3 2.9-5.4-3.1v-8.9z" class="st0"/>
    <path d="M170.8 255.6v-15.1" class="st3"/>
    <path d="M471 62.1 142.4 251.2v-5.8L471 56.3z" class="st0"/>
    <path d="M147.7 254.3 476.3 65.2v-5.5l-5.3 2.4-328.6 189.1z" class="st0"/>
    <path d="m395.8 105.8 80.5-46.1-5.3-3.4-328.6 189.1 5.3 3.3 201.5-116.1" class="st0"/>
    <path d="m362.6 125 33.5-19.2M354.4 129.7l.4-.3" class="st3"/>
    <path d="m147.7 248.7-5.3-3.3v5.8l5.3 3.1z" class="st0"/>
    <path d="M456.9 76.6v15.2l-5.3 3.1-5.6-3.1v-9z" class="st4"/>
    <path d="M451.6 94.9V79.7" class="st3"/>
    <path d="M426.8 93.8v15.4l-5.1 2.8-5.6-3.1V100z" class="st0"/>
    <path d="M421.7 112V96.9" class="st3"/>
    <path d="M396.1 111.6v15.2l-5.4 3.1-5.3-3.1v-9z" class="st4"/>
    <path d="M390.7 129.9v-15.2" class="st3"/>
    <path d="M365.3 129.2v15.4l-5.4 2.9-5.3-3.1v-8.9z" class="st0"/>
    <path d="M359.9 147.5v-15.2" class="st3"/>
    <path d="M334.5 146.8v15.4l-5.3 3.1-5.4-3.3v-8.9z" class="st0"/>
    <path d="M329.2 165.3v-15.4" class="st3"/>
    <path d="M303.5 164.7V180l-5.1 2.9-5.6-3.1v-8.9z" class="st0"/>
    <path d="M298.4 182.9v-15.1" class="st3"/>
    <path d="M272.3 182.7v15.4L267 201l-5.4-3.1V189z" class="st0"/>
    <path d="M267 201v-15.2" class="st3"/>
    <path d="m386.4 231.7-45.5-25.4v-8l35.6-12.9 45.6 17.5v8.1z" class="st0"/>
    <path d="m386.3 223.6-45.4-25.3 35.5-21 45.7 25.6z" class="st4"/>
    <path d="m386.3 220.5-45.4-25.6-.1-8 35.6-12.9 45.6 17.6.1 8z" class="st0"/>
    <path d="m386.2 212.5-45.4-25.6 35.6-20.9 45.6 25.6z" class="st4"/>
    <path d="m386.2 209.2-45.4-25.4v-8l35.6-13 45.5 17.6.1 8z" class="st0"/>
    <path d="m386.2 201.1-45.4-25.3 35.5-21 45.6 25.6z" class="st4"/>
    <path d="M386.2 201.1v8.1" class="st3"/>
    <path d="m391.9 194.6-5.7 3.4-45.5-25.6v-8l35.6-12.7 45.6 17.3v8.1l-25.5 14.8" class="st0"/>
    <path d="m386.1 190-45.4-25.6 35.6-20.7 45.6 25.3z" class="st4"/>
    <path d="m386.1 186.9-45.4-25.6-.1-8.1 35.6-12.9 45.6 17.6.1 8z" class="st0"/>
    <path d="m408.3 165.8-22.3 13-45.4-25.6 35.6-20.9 45.6 25.6-10 5.8" class="st4"/>
    <path d="m386 175.5-45.4-25.4v-8l35.5-20.9 45.6 25.3.1 8z" class="st0"/>
    <path d="m400.5 135 21.2 11.5-21.7 12.1z" class="st17"/>
    <path d="m376.7 121.5 24 13.3-.8 25.1-13.9 7.6-9.7-5.5-.2-40.4z" class="st18"/>
    <path d="m341.5 142 34.6-20.8.2 40.4z" class="st19"/>
    <path d="m386 167.5-45.4-25.4 35.5-20.9 45.6 25.3M391.8 164.1l-.7.4" class="st3"/>
    <path d="m421.7 146.5-35.7 21v8" class="st3"/>
    <path d="M357 167.1v10.5l-5.3 3.1-5.2-4.8V161z" class="st20"/>
    <path d="M351.7 164.1V179" class="st21"/>
    <path d="M385.2 185.1v8.7l-5.2 3.1-5.3-3.1V179z" class="st0"/>
    <path d="M380 182v14.9" class="st3"/>
    <path d="M418.7 205.4v8.8l-5.3 3.3-5.2-3.1v-15.1z" class="st20"/>
    <path d="M413.4 200.6v14.9" class="st21"/>
    <path d="M449.3 221.2v10.5l-5.2 1.3-5.3-3.1v-14.8z" class="st4"/>
    <path d="M444.1 218.1V233" class="st3"/>
    <path d="M480.4 240.2v8.8l-5.5 3-5-2.8v-15.1z" class="st4"/>
    <path d="M474.9 237.1V252" class="st3"/>
    <path d="M511.2 258.2v8.7l-5.4 3.1-5.3-2.9V252z" class="st4"/>
    <path d="M505.8 255.1V270" class="st3"/>
    <path d="m332.3 163.2 212.6 122.3v5.7L332.3 168.9z" class="st0"/>
    <path d="M544.9 291.2 332.3 168.9l-5.5 3.1 212.7 122.2z" class="st0"/>
    <path d="M544.9 285.5 332.3 163.2l-5.5 3.3 212.7 122.3z" class="st4"/>
    <path d="M536.8 273v9l-4.3 2.4-4.2-2.4v-12.3z" class="st4"/>
    <path d="M532.5 272.4v12" class="st3"/>
    <path d="m326.8 166.5 212.7 122.3v5.4L326.8 172z" class="st0"/>
    <path d="m370.3 208.3 9-5.5v-4.6l-4.1-2.6-13.2 8.1z" class="st4"/>
    <path d="m340.8 191.4 9.2-5.4v-4.6l-4.4-2.7-12.9 8.1z" class="st22"/>
    <path d="m400.8 225.6 8.9-5.5v-4.6l-4.4-2.6-12.9 8.1z" class="st4"/>
    <path d="m431.2 242.8 8.9-5.4v-4.6l-4.3-2.7-13 8.1z" class="st4"/>
    <path d="m461.4 260.1 9.1-5.4v-4.6l-4.3-2.7-12.9 8.1z" class="st4"/>
    <path d="m491.8 277.4 8.9-5.5v-4.6l-4.1-2.6-13.2 8.1z" class="st4"/>
    <path d="m523.5 294.7 9-5.5v-4.6l-4.4-2.6-12.9 8.1z" class="st4"/>
    <path d="m519.1 292.3 13.4-7.7M401.8 224.5l12.1-6.8" class="st3"/>
    <path d="m438.4 245.9 87.9 50.5v5.5L313.7 179.8v-5.7l119 68.3" class="st0"/>
    <path d="M526.3 301.9 313.7 179.6l-5.3 3.3L521.1 305z" class="st0"/>
    <path d="m432.9 242.6-119.2-68.5-5.3 3.1 212.7 122.3 5.2-3.1-88.6-50.9" class="st4"/>
    <path d="m308.4 177.2 212.7 122.3v5.7L308.4 182.9z" class="st0"/>
    <path d="M544.3 271.7 331.6 149.4l-5.2 3.1L539 274.8z" class="st0"/>
    <path d="m414.3 191.4-82.7-47.7-5.2 3.1L539 269.1l5.3-3.1-125-71.7" class="st0"/>
    <path d="M326.4 146.8 539 269.1v5.7L326.4 152.5z" class="st4"/>
    <path d="m404.5 207.8 9.2-5.4v-5.3l-4.4-2.6-12.9 8.1z" class="st4"/>
    <path d="m435.3 225.3 9-5.4v-5.1l-4.2-2.6-13.1 8.1z" class="st4"/>
    <path d="m466.2 243.3 9.2-5.5v-5.2l-4.4-2.5-12.9 7.9z" class="st4"/>
    <path d="m497 261 9-5.5v-5.2l-4.4-2.7-12.9 8.1z" class="st4"/>
    <path d="m525.9 280.2 11.1-6.7v-5.3l-4.3-2.6-12.9 7.9z" class="st0"/>
    <path d="m371 188.8 9-5.5v-5.7l-4.4-2.4-12.9 7.9z" class="st4"/>
    <path d="m342.8 172.6 8.9-5.5v-5.6l-4.1-2.5-13.1 7.9z" class="st20"/>
    <path d="m313.7 153.4 212.6 122.3v5.6L313.7 159z" class="st0"/>
    <path d="M526.3 281.3 313.7 159l-5.3-2.4v5.5l212.7 122.3z" class="st0"/>
    <path d="m433.1 228.2 88 50.7 5.2-3.2-212.6-122.3-5.3 3.2 79 45.3" class="st0"/>
    <path d="m521.1 284.4 5.2-3.1v-5.6l-5.2 3.2zM539 274.8l5.3-3.1V266l-5.3 3.1zM539.7 294.2l5.2-3v-5.7l-5.2 3.3zM521.1 305.2l5.2-3.1v-5.7l-5.2 3.1z" class="st0"/>
    <path d="M338.2 179.4v8.7l-5.5 3.1-5.2-3.1v-14.8z" class="st20"/>
    <path d="M332.7 176.3v14.9" class="st21"/>
    <path d="M367.5 196.2v8.8l-5.5 3.1-5-2.9v-15.1z" class="st0"/>
    <path d="M362 193.2v14.9" class="st3"/>
    <path d="M397.7 213.7v8.8l-5.3 3.1-5.2-3.1v-14.9z" class="st4"/>
    <path d="M392.4 210.7v14.9" class="st3"/>
    <path d="M427.9 231v8.8l-5.3 3-5.2-2.8v-15.1z" class="st22"/>
    <path d="M422.6 228v14.8" class="st21"/>
    <path d="M458.1 248.3v8.8l-5.3 3.2-5.2-3v-15.1z" class="st0"/>
    <path d="M452.8 245.2v15.1" class="st3"/>
    <path d="M488.5 265.8v8.8l-5.5 3-5-2.8v-15.1z" class="st0"/>
    <path d="M483 262.7v14.9" class="st3"/>
    <path d="M519.1 283.5v8.8l-5.2 3-5.3-2.8v-15.1z" class="st0"/>
    <path d="M513.9 280.5v14.8" class="st3"/>
    <path d="m294.3 226.4-2-1.1c-2.7-1.3-4.7-4.9-4.7-7.8v-39c0-1.3.4-2.5 1.3-2.9h0l23.6-13.4h0c.9-.4 2-.2 3.1.4l9.1 5.4c3.8 2.2 7.4 6 10 10.5L348 201c2.9 4.9 4.5 10 4.5 14.5v12.9c0 1.3-.4 2.5-1.1 2.9h0l-.2.2h0l-23.6 13.4h0c-.7.4-1.8.2-3.1-.4l-19.6-11.4" class="st0"/>
    <path d="m303.9 232.9 20.3 11.8c2.7 1.3 4.7.2 4.7-2.7v-12.9c0-4.5-1.6-9.8-4.5-14.5l-13.2-22.5c-2.7-4.5-6.2-8.2-10-10.5l-9.1-5.4c-2.7-1.3-4.7-.2-4.7 2.7v39c0 2.9 2.2 6.2 4.7 7.8l3.8 2.2" class="st0"/>
    <path d="M295.7 198.1v15.4c0 1.6 1.1 3.1 2.2 3.8l24.7 14.3c1.3.9 2.2.2 2.2-1.1v-2.2c0-3.3-1.1-7.4-3.3-10.9l-10-17.2c-2.2-3.6-4.9-6.5-7.8-8l-5.6-3.3c-1.3-.9-2.2-.2-2.2 1.1v1.3M342.7 196.5l3.6 6.5c2.5 4.2 3.6 8.9 3.8 13.8l.2 4-19 10.5-.2-4c0-4.9-1.6-9.8-4-14l-14.7-25 19.6-11.1 5.8 10.3" class="st4"/>
  </g>
  <path fill="#fff" d="M354.5 473.8c2.1-19.4-12-36.8-31.4-38.9-8.1-.9-15.9 1.1-22.4 5.1-7.6-7.9-17.8-13.3-29.6-14.5-26.4-2.8-50 16.3-52.8 42.7s16.3 50 42.7 52.8c13 1.4 25.3-2.5 34.8-10 1.5.6 3.1.9 4.8 1.1 6.7.7 12.9-2 17-6.7 18.6 1 34.9-12.8 36.9-31.6z"/>
  <path d="M338.3 440.2c-7.3-5.2-15.2-5.3-15.2-5.3-8.1-.9-15.9 1.1-22.4 5.1 0 0-13.4-15.5-35.8-14.8M399.9 159.2l.6-24.4M375.9 121.9l.4 24.2M376.3 152.5v9.1M325 113.1l.6-23.4M300.4 75.8l.8 24.9M301.2 107v9.5M258.5 153.6l.6-23.7M233.2 118.2l.3 22.7M233.5 147.3l.2 9.5" class="st3"/>
  <circle cx="71.9" cy="242.3" r="9.5" class="st31"/>
  <circle cx="556.1" cy="386.7" r="9.5" class="st32"/>
  <circle cx="386.7" cy="473.3" r="9.5" class="st33"/>
  <circle cx="519.1" cy="141.9" r="9.5" class="st33"/>
  <circle cx="387.3" cy="171.4" r="4.4" class="st34"/>
  <circle cx="328.5" cy="521.3" r="6.6" class="st32"/>
  <circle cx="234.8" cy="463.9" r="3.7" class="st33"/>
  <circle cx="390.1" cy="318.9" r="5.1" class="st31"/>
  <circle cx="231" cy="272" r="4.4" class="st34"/>
  <circle cx="245.6" cy="305.2" r="4.4" class="st32"/>
  <circle cx="274.7" cy="6.4" r="4.4" class="st33"/>
  <circle cx="199.1" cy="311.1" r="5.9" class="st31"/>
  <circle cx="91" cy="136.9" r="5.9" class="st33"/>
</svg>