<?xml version="1.0" encoding="utf-8"?>
<!-- Generator: Adobe Illustrator 23.0.1, SVG Export Plug-In . SVG Version: 6.00 Build 0)  -->
<svg version="1.1" id="Layer_1" xmlns="http://www.w3.org/2000/svg" xmlns:xlink="http://www.w3.org/1999/xlink" x="0px" y="0px"
	 viewBox="0 0 900 900" style="enable-background:new 0 0 900 900;" xml:space="preserve">
<style type="text/css">
	.st0{clip-path:url(#SVGID_2_);fill:#F7D186;}
	.st1{clip-path:url(#SVGID_4_);enable-background:new    ;}
	.st2{clip-path:url(#SVGID_6_);}
	.st3{clip-path:url(#SVGID_8_);}
	.st4{clip-path:url(#SVGID_10_);fill:#FFCD3C;}
	.st5{clip-path:url(#SVGID_12_);enable-background:new    ;}
	.st6{clip-path:url(#SVGID_14_);}
	.st7{clip-path:url(#SVGID_16_);}
	.st8{clip-path:url(#SVGID_18_);fill:#F3807B;}
	.st9{clip-path:url(#SVGID_20_);enable-background:new    ;}
	.st10{clip-path:url(#SVGID_22_);}
	.st11{clip-path:url(#SVGID_24_);}
	.st12{clip-path:url(#SVGID_26_);fill:#35D0BA;}
	.st13{clip-path:url(#SVGID_28_);fill:#D8AE64;}
</style>
<g>
	<g>
		<defs>
			<path id="SVGID_1_" d="M447.73,309.78c-25.83,0-46.76,20.94-46.76,46.76v440.04c0,25.83,20.94,46.76,46.76,46.76
				s46.76-20.93,46.76-46.76V356.55C494.5,330.72,473.56,309.78,447.73,309.78"/>
		</defs>
		<clipPath id="SVGID_2_">
			<use xlink:href="#SVGID_1_"  style="overflow:visible;"/>
		</clipPath>
		<rect x="368.03" y="276.84" class="st0" width="159.41" height="599.44"/>
	</g>
	<g>
		<defs>
			<path id="SVGID_3_" d="M263.62,234.54c-0.13,2.87-0.2,5.76-0.2,8.68c0,3.19,0.07,6.35,0.24,9.5c-0.07,1.55-0.24,3.08-0.24,4.66
				v306.18c0,58.55,47.91,106.46,106.46,106.46h160.22c58.56,0,106.46-47.91,106.46-106.46V257.37c0-1.78-0.18-3.51-0.28-5.26
				c0.14-2.95,0.22-5.92,0.22-8.89c0-2.92-0.07-5.8-0.2-8.68C631.8,135.53,550.1,56.66,449.98,56.66
				C349.85,56.66,268.14,135.53,263.62,234.54z"/>
		</defs>
		<clipPath id="SVGID_4_">
			<use xlink:href="#SVGID_3_"  style="overflow:visible;"/>
		</clipPath>
		<g class="st1">
			<g>
				<defs>
					<rect id="SVGID_5_" x="142.32" y="97.05" width="606.11" height="606.11"/>
				</defs>
				<clipPath id="SVGID_6_">
					<use xlink:href="#SVGID_5_"  style="overflow:visible;"/>
				</clipPath>
				<g class="st2">
					<defs>
						
							<rect id="SVGID_7_" x="121.45" y="305.69" transform="matrix(0.7071 -0.7071 0.7071 0.7071 -153.8743 435.4041)" width="654.38" height="195.52"/>
					</defs>
					<clipPath id="SVGID_8_">
						<use xlink:href="#SVGID_7_"  style="overflow:visible;"/>
					</clipPath>
					<g class="st3">
						<defs>
							<rect id="SVGID_9_" x="260.91" y="50.93" width="382.11" height="619.29"/>
						</defs>
						<clipPath id="SVGID_10_">
							<use xlink:href="#SVGID_9_"  style="overflow:visible;"/>
						</clipPath>
						<rect x="115.65" y="70.37" class="st4" width="665.66" height="665.66"/>
					</g>
				</g>
			</g>
		</g>
	</g>
	<g>
		<defs>
			<path id="SVGID_11_" d="M263.62,234.54c-0.13,2.87-0.2,5.76-0.2,8.68c0,3.19,0.07,6.35,0.24,9.5c-0.07,1.55-0.24,3.08-0.24,4.66
				v306.18c0,58.55,47.91,106.46,106.46,106.46h160.22c58.56,0,106.46-47.91,106.46-106.46V257.37c0-1.78-0.18-3.51-0.28-5.26
				c0.14-2.95,0.22-5.92,0.22-8.89c0-2.92-0.07-5.8-0.2-8.68C631.8,135.53,550.1,56.66,449.98,56.66
				C349.85,56.66,268.14,135.53,263.62,234.54z"/>
		</defs>
		<clipPath id="SVGID_12_">
			<use xlink:href="#SVGID_11_"  style="overflow:visible;"/>
		</clipPath>
		<g class="st5">
			<g>
				<defs>
					<rect id="SVGID_13_" x="-22.38" y="-67.66" width="639.05" height="639.05"/>
				</defs>
				<clipPath id="SVGID_14_">
					<use xlink:href="#SVGID_13_"  style="overflow:visible;"/>
				</clipPath>
				<g class="st6">
					<defs>
						
							<rect id="SVGID_15_" x="-32.95" y="128.38" transform="matrix(0.7071 -0.7071 0.7071 0.7071 -89.8659 280.9871)" width="654.39" height="241.18"/>
					</defs>
					<clipPath id="SVGID_16_">
						<use xlink:href="#SVGID_15_"  style="overflow:visible;"/>
					</clipPath>
					<g class="st7">
						<defs>
							<rect id="SVGID_17_" x="260.91" y="50.93" width="382.11" height="619.29"/>
						</defs>
						<clipPath id="SVGID_18_">
							<use xlink:href="#SVGID_17_"  style="overflow:visible;"/>
						</clipPath>
						<rect x="-55.33" y="-100.6" class="st8" width="699.14" height="699.14"/>
					</g>
				</g>
			</g>
		</g>
	</g>
	<g>
		<defs>
			<path id="SVGID_19_" d="M263.62,234.54c-0.13,2.87-0.2,5.76-0.2,8.68c0,3.19,0.07,6.35,0.24,9.5c-0.07,1.55-0.24,3.08-0.24,4.66
				v306.18c0,58.55,47.91,106.46,106.46,106.46h160.22c58.56,0,106.46-47.91,106.46-106.46V257.37c0-1.78-0.18-3.51-0.28-5.26
				c0.14-2.95,0.22-5.92,0.22-8.89c0-2.92-0.07-5.8-0.2-8.68C631.8,135.53,550.1,56.66,449.98,56.66
				C349.85,56.66,268.14,135.53,263.62,234.54z"/>
		</defs>
		<clipPath id="SVGID_20_">
			<use xlink:href="#SVGID_19_"  style="overflow:visible;"/>
		</clipPath>
		<g class="st9">
			<g>
				<defs>
					<rect id="SVGID_21_" x="280.67" y="235.4" width="606.11" height="606.11"/>
				</defs>
				<clipPath id="SVGID_22_">
					<use xlink:href="#SVGID_21_"  style="overflow:visible;"/>
				</clipPath>
				<g class="st10">
					<defs>
						<polygon id="SVGID_23_" points="885.86,377.86 423.14,840.59 286.09,703.54 748.81,240.81 						"/>
					</defs>
					<clipPath id="SVGID_24_">
						<use xlink:href="#SVGID_23_"  style="overflow:visible;"/>
					</clipPath>
					<g class="st11">
						<defs>
							<rect id="SVGID_25_" x="260.91" y="50.93" width="382.11" height="619.29"/>
						</defs>
						<clipPath id="SVGID_26_">
							<use xlink:href="#SVGID_25_"  style="overflow:visible;"/>
						</clipPath>
						<rect x="253.14" y="207.87" class="st12" width="665.66" height="665.66"/>
					</g>
				</g>
			</g>
		</g>
	</g>
	<g>
		<defs>
			<polygon id="SVGID_27_" points="412.96,670.01 494.5,752.9 494.5,670.01 			"/>
		</defs>
		<clipPath id="SVGID_28_">
			<use xlink:href="#SVGID_27_"  style="overflow:visible;"/>
		</clipPath>
		<rect x="380.69" y="636.91" class="st13" width="147.03" height="147.67"/>
	</g>
</g>
</svg>
