<svg xmlns="http://www.w3.org/2000/svg" xml:space="preserve" id="Layer_1" x="0" y="0" version="1.1" viewBox="0 0 900 900">
  <style>
    .st0{fill:#fff}.st1,.st2{fill:none;stroke:#183d54;stroke-width:5.1019;stroke-linecap:round;stroke-linejoin:round;stroke-miterlimit:10}.st2{stroke-width:5}.st3,.st4{fill:#dce7f2}.st4{fill-rule:evenodd;clip-rule:evenodd;stroke-width:5}.st4,.st5,.st6{stroke:#183d54;stroke-linecap:round;stroke-linejoin:round;stroke-miterlimit:10}.st5{fill-rule:evenodd;clip-rule:evenodd;fill:#fff;stroke-width:5}.st6{fill:none;stroke-width:1.6683}.st7{fill:#183d54}.st10,.st12,.st8,.st9{fill:#fff;stroke:#183d54;stroke-width:5;stroke-linecap:round;stroke-linejoin:round;stroke-miterlimit:10}.st10,.st12,.st9{fill:#dce7f2}.st10,.st12{fill-rule:evenodd;clip-rule:evenodd;fill:none}.st12{fill:#dce7f2;stroke-width:5.4241}.st23{display:inline}
  </style>
  <path d="M276.4 569c.9-11.4-7.5-21.4-18.9-22.3-4.8-.4-9.3.9-13 3.3-4.5-4.5-10.6-7.5-17.5-8.1-15.5-1.3-29.1 10.2-30.4 25.7-1.3 15.5 10.2 29.1 25.7 30.4 7.6.6 14.8-1.9 20.3-6.4.9.3 1.8.5 2.8.6 3.9.3 7.5-1.4 9.8-4.2 10.9.3 20.3-8 21.2-19" class="st0"/>
  <path d="M253.2 546.7c-3.2.4-6.2 1.5-8.8 3.2-4.5-4.5-10.6-7.5-17.5-8.1-13.9-1.1-26.3 8-29.6 21.1" class="st1"/>
  <path d="M196.6 567.6c-1.3 15.5 10.2 29.1 25.7 30.4 7.6.6 14.8-1.9 20.3-6.4.9.3 1.8.5 2.8.6 3.9.3 7.5-1.4 9.8-4.2 10.9.3 20.3-8 21.2-19" class="st2"/>
  <path d="M225.8 469.2c3.1-6.1 8.5-10.5 14.7-12.6" class="st0"/>
  <path d="M225.8 469.2c3.1-6.1 8.5-10.5 14.7-12.6" class="st1"/>
  <path d="M273.9 535.6c.8.1 1.6.3 2.4.6 2.2.7 4.1 1.9 5.6 3.4" class="st0"/>
  <path d="M273.9 535.6c.8.1 1.6.3 2.4.6 2.2.7 4.1 1.9 5.6 3.4" class="st1"/>
  <path d="M238.9 519.8c-.3-2.7-1.3-5.3-3.1-7.5-5-6.2-14.2-7.1-20.5-2-1.4 1.2-2.6 2.5-3.5 4 .8-2.6 2.4-5 4.6-6.8 6-4.8 14.8-4 19.5 1.9 2.5 3.1 3.5 6.8 3 10.4z" class="st3"/>
  <path d="M242.8 591.3c-1.5-.7-2.8-1.8-3.8-3.1" class="st1"/>
  <circle cx="93.9" cy="542.8" r="7" class="st0"/>
  <path d="M101.6 543.8c-1.2 3.7-5.2 5.6-8.9 4.4-3.7-1.2-5.6-5.2-4.4-8.9.2-.6.5-1.2.9-1.7-.5 3.3 1.5 6.5 4.7 7.6 3 1 6.3-.1 8-2.7-.1.4-.2.8-.3 1.3z" class="st3"/>
  <circle cx="93.9" cy="542.8" r="7" class="st2"/>
  <path d="M150.1 405.6c-5.8 8.2-14.4 16.9-24.2 14.8-4.3-9.8-15.5-16-26.1-14.6-10.6 1.5-19.7 10.5-21.1 21.1-13-.1-25.5 9.6-28.7 22.3-1.4 5.8-.9 11.9 1.3 17.4-.2-.1-.3-.1-.5-.2-.4-.1-.8-.3-1.2-.4-4.1-1-8.3-.4-11.9 1.7-3.6 2.2-6.2 5.6-7.2 9.7-2 7.9 2.5 16.2 10.2 18.8.4.1.8.3 1.2.4 2.5.6 5.1.6 7.4.1 2.8 4.5 7.1 8.1 12.5 10 3.8 1.3 7.7 1.6 11.5 1 1.6 1.5 3.3 2.8 5.2 3.9 9.9 5.7 23.4 4.3 32-3.2 5.7 8.2 16.5 12.5 26.2 10.4.7 10.1 10.3 18.8 20.4 18.6-3.2 13.5 5.9 28.7 19.4 32.3 13.4 3.5 28.9-5.3 32.7-18.6 2.3 1.8 4.9 3.1 7.6 4.1.2 10.9 7.1 21.1 18 24.8 13.4 4.6 28-2.2 33.3-15.2 3.8.9 7.7.3 11-1.6" class="st0"/>
  <path d="M285.9 554c1.6-6.4-1.3-13-6.7-16.2 1.3-1.4 2.6-2.9 3.6-4.6 6.3-10 6.2-23.5-.1-33.5-3.6-5.6-3.5-5.3-2.8-12 .8-8.8-2.6-17.7-8.7-24" class="st1"/>
  <path d="M62.3 504.4c-4.9-1.7-9-4.9-11.7-9.1l-.7-1.1-1.3.3c-2.2.5-4.4.4-6.7-.1-.3-.1-.7-.2-1.1-.3-6.9-2.4-11-9.5-9.3-16.4.9-3.5 3.1-6.5 6.3-8.3 2.2-1.3 4.8-1.9 7.4-1.8-.5.9-.8 1.9-1.1 3-2 8 2.7 16.5 10.9 19.2.5.2.9.3 1.3.4 2.1.5 4.3.7 6.5.4 3 4.1 7.2 7.3 12.1 8.9 3.5 1.2 7.1 1.6 10.7 1.2 1.4 1.2 3 2.3 4.6 3.2 1.4.8 3 1.5 4.5 2 4.6 1.6 9.6 1.9 14.3 1.2-6.8 5.6-16.8 7.3-25.7 4.3-1.5-.5-2.9-1.1-4.2-1.9-1.8-1-3.4-2.2-4.8-3.6l-.7-.6-.9.1c-3.3.5-7 .2-10.4-1zM176.1 566.8c-11.8-4-19.4-17.1-16.7-28.6l.5-2.1h-2.3c-1.9 0-3.8-.3-5.7-.9-7-2.4-12.3-8.8-12.9-15.5l-.2-2-2 .4c-4 .8-8.2.5-12.3-.9-4.9-1.7-9.1-4.7-11.9-8.6l-.5-.7c3.3-.8 6.4-2.2 9.2-4.2 3 3.5 7 6.2 11.6 7.8 3.8 1.3 7.7 1.7 11.4 1.3 1.4 6.9 6.9 13.1 14.1 15.5 1.4.5 2.9.8 4.3 1-1.6 11.8 6.3 24.5 18.2 28.5.5.2 1.1.4 1.6.5 8.7 2.3 18-.3 24.5-6-4 11.1-17.7 18.1-29.5 15-.5-.1-.9-.3-1.4-.5z" class="st3"/>
  <path d="M279.2 563c-3.3 2-7.3 2.6-11 1.6-5.3 13-19.9 19.8-33.3 15.2-10.9-3.7-17.9-13.9-18-24.8-2.7-.9-5.3-2.3-7.6-4.1-3.8 13.4-19.3 22.1-32.7 18.6-13.4-3.5-22.6-18.7-19.4-32.3-10.2.2-19.7-8.5-20.4-18.6-9.7 2.1-20.5-2.2-26.2-10.4-8.6 7.5-22.1 8.9-32 3.2-1.9-1.1-3.6-2.4-5.2-3.9-3.7.6-7.6.4-11.5-1-5.4-1.8-9.7-5.5-12.5-10-2.4.6-4.9.6-7.4-.1-.1 0-.1 0-.2-.1-7.4-2-12.4-9.1-11.6-16.7.5-5.1 3.3-9.5 7.6-12 3.6-2.2 7.9-2.8 11.9-1.7.4.1.8.2 1.2.4.2.1.3.1.5.2-2.1-5.5-2.7-11.7-1.3-17.4 3.2-12.7 15.6-22.3 28.7-22.3 1.5-10.6 10.6-19.6 21.1-21.1 10.6-1.5 21.8 4.8 26.1 14.6 6.9-4.8 16.4-1.7 19.2 6.1l1.9 6.6c1.9 6.5 5.6 12.3 10.8 16.6 8.7-5.4 20.1-1 22.9 8.9" class="st2"/>
  <path d="M81.7 442.9c-3.4-6-4.3-13.3-1.9-20.3.1-.4.3-.8.4-1.1" class="st1"/>
  <path d="M275.8 560c-2.9 1.6-6.2 2.1-9.4 1.3l-1.5-.4-.5 1.3c-4.7 11.5-17.9 17.2-30.1 13.1-9.7-3.3-16.4-12.2-16.7-22.1V552l-1.2-.4c-2.6-.9-4.9-2.1-6.9-3.7l-.6-.5c1.7-1.9 3.1-4.1 4-6.5 1.3.8 2.8 1.6 4.3 2.2.8 10.1 7.8 19 17.8 22.4 12.6 4.3 26.2-1.3 31.6-12.7 3.4.5 6.8-.1 9.8-1.8 2-1.2 3.7-2.7 4.9-4.6" class="st3"/>
  <path d="m208.5 457.4-.3-.9c-1.5-4.5-5-7.7-9.3-9.1.2-2-.1-4.1-.7-6.1-1.9-5.8-6.8-9.7-12.7-11 .5-4.2.2-8.5-1.2-12.8-5.1-15.6-22.1-23.9-38-18.8-15.9 5.2-24.7 22-19.7 37.6.8 2.5 1.9 4.8 3.3 6.9" class="st1"/>
  <path d="M120 501.3c5-4 9-9.5 11.3-16 6.2-18.3-3.5-38.1-21.8-44.3-4.2-1.4-8.4-2-12.5-1.8 6.2-1.8 13.1-1.7 19.7.5 17.4 5.9 26.7 24.8 20.8 42.2-3.1 8.9-9.6 15.7-17.5 19.4zM211.1 530.1c-.4-4.5-2.2-9-5.2-12.7-8.5-10.5-24.1-12.1-34.8-3.4-2.4 2-4.4 4.3-5.9 6.8 1.4-4.4 4-8.5 7.9-11.6 10.2-8.2 25-6.8 33.1 3.3 4.2 5.1 5.8 11.5 4.9 17.6z" class="st3"/>
  <path d="M191.7 472.1c11.1-6.8 14.5-21.3 7.7-32.4-2.9-4.6-7.1-7.9-11.8-9.7 1.1-7.2-.3-14.8-4.4-21.5-9.3-15-29-19.7-44-10.4-15 9.3-19.7 29-10.4 44 4.6 7.4 11.7 12.3 19.5 14.2.3 1 .8 2 1.4 3 2.3 3.8 6.3 6 10.5 6.2 6.9 10.2 20.8 13.2 31.5 6.6z" class="st0"/>
  <path d="M161.4 465.2c-.1-.2-.4-.3-.6-.3-3.4-.3-6.6-2.1-8.6-5.2-.4-.7-.8-1.4-1-2.1-.1-.3-.3-.5-.6-.5-6.5-1.7-12.4-5.9-16.2-12-2.8-4.6-4.1-9.7-4.1-14.7 0-1 1.4-1.2 1.7-.3.7 2.1 1.6 4.2 2.8 6.1 3.8 6.2 9.7 10.3 16.2 12 .3.1.5.3.6.5.3.7.6 1.4 1 2.1 1.9 3.1 5.1 5 8.6 5.2.2 0 .5.1.6.3 6.1 8.5 17.8 10.9 26.8 5.3 3.4-2.1 5.9-5 7.5-8.3.4-.8 1.6-.5 1.6.4-.1 6.6-3.5 13-9.6 16.8-8.9 5.6-20.6 3.1-26.7-5.3z" class="st3"/>
  <path d="M201.8 445c3.2 10-.7 21.3-10.1 27.1-10.7 6.6-24.6 3.6-31.7-6.6-4.2-.2-8.1-2.4-10.5-6.2-.6-.9-1-1.9-1.4-3-7.8-1.9-14.9-6.8-19.5-14.2-9.3-15-4.6-34.7 10.4-44 0 0 15.6-10.6 31 1.1" class="st2"/>
  <path d="M332.1 568.3c0-31.5-22.2-69.8-49.7-85.7-13.9-8-26.5-8.7-35.5-3.3h0l-29.1 16h0c-9.2 5-14.9 16.1-14.9 32.1 0 31.5 22.2 69.8 49.7 85.7 13.9 8 26.5 8.7 35.5 3.3l29.4-16.2s.1 0 .1-.1l.2-.1h0c8.8-5.1 14.3-16.1 14.3-31.7z" class="st4"/>
  <ellipse cx="252.6" cy="556.1" class="st4" rx="40.4" ry="70" transform="rotate(-30.322 252.562 556.03)"/>
  <ellipse cx="252.6" cy="556.1" class="st4" rx="28.2" ry="48.9" transform="rotate(-30.322 252.562 556.03)"/>
  <ellipse cx="257.6" cy="552.8" class="st4" rx="21.4" ry="40.9" transform="rotate(-28.955 257.586 552.81)"/>
  <path d="M268.1 558.1c.4-5.6-3.3-13.3-8.3-17.2-2.9-2.3-5.6-2.7-7.4-1.6h0l-6.6 4.3h0c-1.2.8-2.1 2.3-2.2 4.6-.4 5.6 3.3 13.3 8.3 17.2 3 2.4 5.7 2.8 7.6 1.5h0l6.6-4.3v-.1c1.1-.8 1.8-2.3 2-4.4z" class="st5"/>
  <ellipse cx="252.6" cy="555.2" class="st5" rx="7.1" ry="13.6" transform="rotate(-28.955 252.613 555.298)"/>
  <path d="M461.7 671.8c5.6-1.1 11.8 1.9 14.3 7 2.6 5.1 1.3 11.8-2.9 15.7 4 5.7 3.5 14.1-1.1 19.4-2.1 2.4-5 4-8.1 4.7.1 0 .2.1.2.2.2.1.4.3.5.4 1.7 1.5 2.7 3.5 2.9 5.8.2 2.2-.6 4.4-2.1 6.1-2.9 3.3-7.9 3.8-11.4 1.2-.2-.1-.3-.3-.5-.4-1.1-.9-1.8-2-2.3-3.3-2.8.2-5.7-.6-8.2-2.5-1.7-1.3-3-2.9-3.9-4.7-1.1-.2-2.2-.6-3.3-1.1-5.5-2.6-9-9-8.3-15-5.3 0-10.5-3.5-12.5-8.4-4.7 2.8-11.4 1.2-14.4-3.3-5 5.5-14.4 6.1-20.1 1.3-5.6-4.8-6.5-14.3-1.7-20-1.5-.5-2.9-1.2-4.1-2.1-4.9 3.2-11.4 3.3-16.4-.4-6.1-4.5-7.5-13-3.4-19.2-1.6-1.4-2.5-3.3-2.6-5.4-.1-2.1.5-4.1 1.9-5.7 2.3-2.7 6.1-3.4 9.2-2 .2-1 .5-2 .9-3 2.5-5.8 8.5-9.9 14.7-10.1 3.6-.1 3.4-.1 6.1-2.4 4.5-3.8 11.2-4.8 16.7-2.4 5.4 2.4 9.3 7.9 9.6 13.8" class="st0"/>
  <path d="M461.7 671.8c5.6-1.1 11.8 1.9 14.3 7 2.6 5.1 1.3 11.8-2.9 15.7 4 5.7 3.5 14.1-1.1 19.4-2.1 2.4-5 4-8.1 4.7.1 0 .2.1.2.2.2.1.4.3.5.4 1.7 1.5 2.7 3.5 2.9 5.8.2 2.2-.6 4.4-2.1 6.1-2.9 3.3-7.9 3.8-11.4 1.2-.2-.1-.3-.3-.5-.4-1.1-.9-1.8-2-2.3-3.3-2.8.2-5.7-.6-8.2-2.5-1.7-1.3-3-2.9-3.9-4.7-1.1-.2-2.2-.6-3.3-1.1-5.5-2.6-9-9-8.3-15-5.3 0-10.5-3.5-12.5-8.4-4.7 2.8-11.4 1.2-14.4-3.3-5 5.5-14.4 6.1-20.1 1.3-5.6-4.8-6.5-14.3-1.7-20-1.5-.5-2.9-1.2-4.1-2.1-4.9 3.2-11.4 3.3-16.4-.4-6.1-4.5-7.5-13-3.4-19.2-1.6-1.4-2.5-3.3-2.6-5.4-.1-2.1.5-4.1 1.9-5.7 2.3-2.7 6.1-3.4 9.2-2 .2-1 .5-2 .9-3 2.5-5.8 8.5-9.9 14.7-10.1 3.6-.1 3.4-.1 6.1-2.4 3.6-3 8.6-4.2 13.2-3.4" class="st6"/>
  <path d="m439.9 719.9-.2-.4-.5-.1c-1-.2-2-.6-3-1-.7-.3-1.4-.8-2-1.2-3.9-2.9-6.1-7.7-5.7-12.2 1.1 2.2 2.7 4.2 4.7 5.7.7.5 1.4 1 2.2 1.3.9.4 1.8.8 2.7 1 .9 1.6 2.1 3.1 3.7 4.2 2.1 1.6 4.7 2.5 7.4 2.5.5 1 1.2 1.9 2.1 2.7.2.2.4.3.6.5 3.6 2.7 8.6 2.2 11.4-1 .4-.4.7-.9 1-1.3.8 1.1 1.3 2.4 1.4 3.7.2 1.9-.4 3.7-1.7 5.1-2.4 2.7-6.7 3.1-9.7.9-.2-.1-.3-.2-.5-.4-.9-.8-1.6-1.7-2-2.8l-.3-.6h-.7c-2.6.1-5.2-.7-7.4-2.3-1.5-1.2-2.7-2.7-3.5-4.3zM357.3 654l.4-.6-.6-.5c-1.3-1.2-2.2-2.8-2.3-4.5-.2-1.8.4-3.4 1.5-4.8.7-.8 1.6-1.4 2.7-1.8-.4 1.1-.6 2.3-.5 3.5.2 1.8.9 3.5 2.2 4.9-3.4 5.9-1.7 13.5 4 17.8 4.5 3.4 10.6 3.7 15.3 1 .7.5 1.5.9 2.3 1.2-.8 1.2-1.3 2.4-1.6 3.8l-.4-.1c-1.3-.4-2.5-1.1-3.7-1.9l-.5-.4-.5.3c-4.4 2.9-10.4 2.6-14.8-.6-5.6-4.2-7.1-11.7-3.5-17.3zm25.3 39.2c-4.9-4.2-5.9-12.3-2.3-17.3-.5 4.5 1.2 9.3 4.8 12.4.2.2.5.4.7.6 5.3 3.9 13.2 3.6 17.8-.7.5.6 1.1 1.1 1.7 1.6 3.2 2.4 7.6 2.9 11 1.5.9 1.7 2.3 3.3 4 4.6 2.1 1.5 4.4 2.5 6.9 2.7 0 1.8.3 3.5.9 5.2h-.4c-2.5 0-5.1-1-7.3-2.6-1.8-1.4-3.2-3.1-4.1-5.1l-.4-1-.9.5c-3.1 1.8-7.5 1.4-10.6-.9-.8-.6-1.5-1.4-2.1-2.2l-.7-1-.8.9c-4.2 4.6-12.2 5.2-17.4 1.3-.4-.2-.6-.4-.8-.5zM387.6 667.7c2.1-1.2 4.6-1.8 7.2-1.6 7.2.5 12.6 6.9 12.1 14.2-.1 1.7-.5 3.2-1.2 4.7 1.5-1.9 2.5-4.3 2.7-7 .5-7-4.6-13.1-11.5-13.6-3.5-.2-6.9 1-9.3 3.3z" class="st3"/>
  <circle cx="417.7" cy="723" r="3.7" class="st0"/>
  <path d="M421.4 723c0 2.1-1.7 3.7-3.7 3.7-2.1 0-3.7-1.7-3.7-3.7 0-2.1 1.7-3.7 3.7-3.7s3.7 1.7 3.7 3.7z" class="st6"/>
  <path d="M398.6 621.1c-4.6-.8-9.6.4-13.2 3.4-2.8 2.3-2.6 2.3-6.1 2.4-6.3.2-12.3 4.4-14.7 10.1-.4 1-.7 2-.9 3-3.1-1.4-6.9-.7-9.2 2-1.4 1.6-2.1 3.6-1.9 5.7.1 2.1 1.1 4 2.6 5.4-4.1 6.3-2.7 14.7 3.4 19.2 5 3.7 11.5 3.6 16.4.4 1.2.9 2.6 1.6 4.1 2.1-4.7 5.7-3.9 15.2 1.7 20 5.6 4.8 15.1 4.2 20.1-1.3 3 4.5 9.7 6.1 14.4 3.3 2 4.9 7.2 8.4 12.5 8.4-.7 6.1 2.8 12.4 8.3 15 1 .5 2.1.9 3.3 1.1.9 1.8 2.2 3.5 3.9 4.7 2.5 1.8 5.4 2.6 8.2 2.5.5 1.2 1.2 2.3 2.3 3.3l.1.1c3.1 2.6 7.7 2.7 10.8.1 2.1-1.8 3.2-4.4 3-7.1-.2-2.2-1.2-4.3-2.9-5.8-.2-.2-.3-.3-.5-.4-.1-.1-.2-.1-.2-.2 3.1-.8 6-2.4 8.1-4.7 4.6-5.2 5.1-13.7 1.1-19.4 4.2-3.9 5.4-10.6 2.9-15.7-2.6-5.1-8.7-8.1-14.3-7v-.5c3-28.3-29.5-46.2-51.8-28.6 1.7-3.2 2-6.9 1.1-10.3" class="st0"/>
  <path d="m439.3 721.9-.2-.4-.5-.1c-1-.2-2.1-.6-3.1-1-.7-.4-1.4-.8-2.1-1.3-4-3-6.3-7.9-5.9-12.6 1.1 2.3 2.8 4.4 4.9 5.9.7.5 1.5 1 2.3 1.4.9.4 1.8.8 2.8 1 .9 1.7 2.2 3.2 3.8 4.4 2.2 1.6 4.9 2.6 7.6 2.6.5 1 1.3 2 2.1 2.7.2.2.4.3.6.5 3.7 2.7 8.9 2.3 11.8-1.1.4-.4.7-.9 1-1.4.8 1.1 1.3 2.4 1.4 3.8.2 2-.4 3.8-1.7 5.3-2.5 2.8-6.9 3.2-10 .9-.2-.1-.3-.3-.5-.4-.9-.8-1.6-1.8-2.1-2.9l-.3-.6h-.7c-2.7.1-5.4-.7-7.6-2.4-1.5-1-2.8-2.6-3.6-4.3zM354 654l.4-.7-.6-.6c-1.4-1.2-2.2-2.9-2.4-4.7-.2-1.8.4-3.6 1.6-4.9.7-.8 1.7-1.5 2.8-1.8-.5 1.1-.6 2.4-.5 3.7.2 1.9 1 3.6 2.3 5-3.5 6.1-1.7 14 4.2 18.3 4.7 3.5 10.9 3.8 15.8 1 .8.5 1.5.9 2.3 1.3-.8 1.2-1.4 2.5-1.7 3.9l-.4-.1c-1.3-.4-2.6-1.1-3.8-2l-.5-.4-.6.4c-4.6 3-10.7 2.7-15.3-.6-5.8-4.3-7.3-12.1-3.6-17.8zm26.2 40.4c-5.1-4.3-6.1-12.7-2.4-17.9-.5 4.7 1.2 9.6 4.9 12.8.2.2.5.4.7.6 5.5 4.1 13.6 3.7 18.4-.7.5.6 1.1 1.1 1.8 1.6 3.3 2.5 7.8 3 11.3 1.5 1 1.8 2.4 3.4 4.1 4.7 2.1 1.6 4.6 2.5 7.1 2.8 0 1.8.3 3.7 1 5.4h-.4c-2.6 0-5.3-1-7.5-2.7-1.9-1.4-3.4-3.2-4.2-5.2l-.4-1-.9.5c-3.2 1.8-7.7 1.4-11-1-.9-.6-1.6-1.4-2.2-2.2l-.7-1-.8.9c-4.3 4.8-12.6 5.4-18 1.4-.4-.2-.6-.3-.8-.5z" class="st3"/>
  <path d="M398.6 621.1c-4.6-.8-9.6.4-13.2 3.4-2.8 2.3-2.6 2.3-6.1 2.4-6.3.2-12.3 4.4-14.7 10.1-.4 1-.7 2-.9 3-3.1-1.4-6.9-.7-9.2 2-1.4 1.6-2.1 3.6-1.9 5.7.1 2.1 1.1 4 2.6 5.4-4.1 6.3-2.7 14.7 3.4 19.2 5 3.7 11.5 3.6 16.4.4 1.2.9 2.6 1.6 4.1 2.1-4.7 5.7-3.9 15.2 1.7 20 5.6 4.8 15.1 4.2 20.1-1.3 3 4.5 9.7 6.1 14.4 3.3 2 4.9 7.2 8.4 12.5 8.4-.7 6.1 2.8 12.4 8.3 15 1 .5 2.1.9 3.3 1.1.9 1.8 2.2 3.5 3.9 4.7 2.5 1.8 5.4 2.6 8.2 2.5.5 1.2 1.2 2.3 2.3 3.3l.1.1c3.1 2.6 7.7 2.7 10.8.1 2.1-1.8 3.2-4.4 3-7.1-.2-2.2-1.2-4.3-2.9-5.8-.2-.2-.3-.3-.5-.4-.1-.1-.2-.1-.2-.2 3.1-.8 6-2.4 8.1-4.7 4.6-5.2 5.1-13.7 1.1-19.4 4.2-3.9 5.4-10.6 2.9-15.7s-8.7-8.1-14.3-7v-.5c3-28.3-29.5-46.2-51.8-28.6 1.7-3.2 2-6.9 1.1-10.3" class="st2"/>
  <path d="M387.6 667.7c2.1-1.2 4.6-1.8 7.2-1.6 7.2.5 12.6 6.9 12.1 14.2-.1 1.7-.5 3.2-1.2 4.7 1.5-1.9 2.5-4.3 2.7-7 .5-7-4.6-13.1-11.5-13.6-3.5-.2-6.9 1-9.3 3.3z" class="st3"/>
  <circle cx="417.7" cy="723" r="3.7" class="st0"/>
  <path d="M417.7 719.3c2.1 0 3.7 1.7 3.7 3.7 0 2.1-1.7 3.7-3.7 3.7-2.1 0-3.7-1.7-3.7-3.7-.1-2 1.6-3.7 3.7-3.7m0-5c-4.8 0-8.7 3.9-8.7 8.7s3.9 8.7 8.7 8.7c4.8 0 8.7-3.9 8.7-8.7s-3.9-8.7-8.7-8.7z" class="st7"/>
  <path d="M550 692.8c0-31.5-22.2-69.8-49.7-85.7-13.9-8-26.5-8.7-35.5-3.3h0l-29.1 16h0c-9.2 5-14.9 16.1-14.9 32.1 0 31.5 22.2 69.8 49.7 85.7 13.9 8 26.5 8.7 35.5 3.3l29.4-16.2s.1 0 .1-.1l.2-.1h0c8.8-5.2 14.3-16.1 14.3-31.7z" class="st4"/>
  <ellipse cx="470.5" cy="680.5" class="st4" rx="40.4" ry="70" transform="rotate(-30.322 470.46 680.501)"/>
  <ellipse cx="470.5" cy="680.5" class="st4" rx="28.2" ry="48.9" transform="rotate(-30.322 470.46 680.501)"/>
  <ellipse cx="475.5" cy="677.2" class="st4" rx="21.4" ry="40.9" transform="rotate(-28.955 475.516 677.305)"/>
  <path d="M486 682.6c.4-5.6-3.3-13.3-8.3-17.2-2.9-2.3-5.6-2.7-7.4-1.6h0l-6.6 4.3h0c-1.2.8-2.1 2.3-2.2 4.6-.4 5.6 3.3 13.3 8.3 17.2 3 2.4 5.7 2.8 7.6 1.5h0l6.6-4.3v-.1c1.1-.8 1.8-2.3 2-4.4z" class="st5"/>
  <ellipse cx="470.5" cy="679.7" class="st5" rx="7.1" ry="13.6" transform="rotate(-28.955 470.543 679.792)"/>
  <path d="m731.4 537-42-23.9-130.9 116.1 16.9 118.7 175.5-96.2.8-81.2c-.6-13.9-8.2-26.6-20.3-33.5z" class="st5"/>
  <path d="M320.8 550.7c11.1-6.8 14.5-21.3 7.7-32.4-2.9-4.6-7.1-7.9-11.8-9.7 1.1-7.2-.3-14.8-4.4-21.5-9.3-15-29-19.7-44-10.4-15 9.3-19.7 29-10.4 44 4.6 7.4 11.7 12.3 19.5 14.2.3 1 .8 2 1.4 3 2.3 3.8 6.3 6 10.5 6.2 6.9 10.2 20.8 13.2 31.5 6.6z" class="st0"/>
  <path d="M290.5 543.8c-.1-.2-.4-.3-.6-.3-3.4-.3-6.6-2.1-8.6-5.2-.4-.7-.8-1.4-1-2.1-.1-.3-.3-.5-.6-.5-6.5-1.7-12.4-5.9-16.2-12-2.8-4.6-4.1-9.7-4.1-14.7 0-1 1.4-1.2 1.7-.3.7 2.1 1.6 4.2 2.8 6.1 3.8 6.2 9.7 10.3 16.2 12 .3.1.5.3.6.5.3.7.6 1.4 1 2.1 1.9 3.1 5.1 5 8.6 5.2.2 0 .5.1.6.3 6.1 8.5 17.8 10.9 26.8 5.3 3.4-2.1 5.9-5 7.5-8.3.4-.8 1.6-.5 1.6.4-.1 6.6-3.5 13-9.6 16.8-8.9 5.5-20.6 3.1-26.7-5.3z" class="st3"/>
  <path d="M268.2 476.7c-15 9.3-19.7 29-10.4 44 4.6 7.4 11.7 12.3 19.5 14.2.3 1 .8 2 1.4 3 2.3 3.8 6.3 6 10.5 6.2 7.1 10.2 21 13.2 31.7 6.6 9.4-5.8 13.3-17.1 10.1-27.1" class="st2"/>
  <circle cx="209" cy="492.3" r="29.1" class="st0"/>
  <path d="M180 491.1c-2.2-15.9 14.2-28.5 30.3-27.8 16 .7 28.5 14.2 27.8 30.3-.7 16-14.2 28.5-30.3 27.8 0 0-23.5 1.6-27.8-30.3z" class="st2"/>
  <path d="M194.1 517.3c-1.9-1.1-3.6-2.5-5.2-4" class="st1"/>
  <path d="m526.2 427.2 5.4 16.4 26.8 185.5c9.2 10.4 16.9 24.8 16.9 38.7v80l-44.5-25.7c.4-3 .6-6.3.6-9.7 0-37.6-26.6-83.5-59.4-102.4-32.8-18.9-59.4-3.8-59.4 33.9 0 3.4.2 6.8.6 10.3l-53.9-31.1-46.8-27.9c.2-2.3.3-4.6.3-7.1 0-37.1-26.2-82.3-58.5-100.9-32.3-18.7-58.5-3.7-58.5 33.4 0 2.4.1 4.9.4 7.5l-23.9-12.7V249.7" class="st5"/>
  <path d="m730.5 535.5-19.2-158.8c-2-16.2-12.1-30.3-26.9-37.4L370.9 167.7c-4.9-2.3-10.6-2.3-15.4.1l-183.1 81.9L504 435.6c18 10.2 30 28.2 32.5 48.7l21.9 144.9 172.1-93.7z" class="st5"/>
  <path d="m714.1 494.9-11-99.8c-.9-7.1-8.7-11-14.8-7.4L554 459.9c-3.4 2-5.4 5.8-4.9 9.8l17.3 99.1c.9 7.1 8.7 11 14.8 7.4l128-71.5c3.5-2 5.4-5.8 4.9-9.8zM468.6 525.5l55 31.8c3.3 1.9 7.3-.7 6.9-4.5l-4.5-53.5c-2.3-21-14.4-39.6-32.7-50.2l-75-43.4c-5.8-3.4-13.1.8-13.1 7.5v75.5l40.8 23.6M300.1 429l60.1 34.8c3.6 2.1 8-.8 7.5-4.9l1.1-62.3c0-5.5 2.1-15.8-11.9-24.1L245 310.8c-6.3-3.7-14.3 4.5-14.3 11.8v66.3l44.6 25.8" class="st4"/>
  <path d="M617.2 363.8 338.6 214.5c-9.8-5.4-28.3-23.5-28.3-23.5l-48.6 21.7 32.1 14.9s-9.4 28.3 13.1 44.7l231.6 127.9c23.8 12.3 95.5 8.7 79.2-35.1l-.5-1.3z" class="st3"/>
  <path d="m830.5 727.4-88.7-50.6c-4-2.3-7.2-7.8-7.2-12.4V425.9c0-5.9-4.1-13-9.2-15.9v0c-2.2-1.2-4.1-1.5-5.7-1h0l-.1.1c-.4.1-.8.4-1.2.6l-14 7.6c-2.1.8-3.4 2.9-3.4 6.3v243.3c0 8.8 6.2 19.5 13.9 23.9l110.2 63.1 15.2-8.2-9.8-18.3z" class="st8"/>
  <path d="M815.4 735.6 726.7 685c-4-2.3-7.2-7.8-7.2-12.4V434.1c0-5.9-4.1-13-9.2-15.9v0c-5.1-2.9-9.2-.6-9.2 5.3v243.3c0 8.8 6.2 19.5 13.9 23.9l110.2 63.1-9.8-18.2z" class="st9"/>
  <path d="M702.3 647.1 670.9 629c-1.5-.8-.9-2.9 1.2-4.6l1.3-1.1c2.1-1.7 5-2.4 6.5-1.6l31.4 18.1-9 7.3zM653.7 621.1l-7.1-39.9 54.4-29.6 18.5 13.7v18.6z" class="st9"/>
  <path d="M653.6 684.1v-16.6l.2-14.3 47.7-22.3 13.4 2.7v18.5z" class="st9"/>
  <path d="m656 661.6 57.9-27.8M755.6 775.5 666.9 725c-4-2.3-7.2-7.8-7.2-12.4V474c0-5.9-4.1-13-9.2-15.9v0c-2.2-1.2-4.1-1.5-5.7-1h0l-.1.1c-.4.1-.8.4-1.2.6l-14 7.6c-2.1.8-3.4 2.9-3.4 6.3V715c0 8.8 6.2 19.5 13.9 23.9L750.2 802l15.2-8.2-9.8-18.3z" class="st8"/>
  <path d="m644.6 672.3-.1-190.2c0-5.9-4.1-13-9.2-15.9h0c-5.1-2.9-9.2-.6-9.2 5.3v243.3c0 8.8 6.2 19.5 13.9 23.9l110.2 63.1-9.7-18.1-88.7-50.6c-4-2.3-7.2-7.8-7.2-12.4v-51.2M644.6 638.8v-3M740.4 783.7l15.2-8.2" class="st8"/>
  <path d="m304.2 502.5-111-67c-5.4-3.1-4.7-8.6 1.5-12.2l28.6-16.5L354 485.1l-28.6 16.5c-6.2 3.6-15.7 4-21.2.9zM214.2 425.9l100.1 60.4" class="st5"/>
  <ellipse cx="603.3" cy="696.5" class="st5" rx="20.2" ry="11.9" transform="scale(.99995) rotate(-85.747 603.344 696.57)"/>
  <path d="m215.8 323.4 33.1 19.5 43.8-25.1-34.8-20.2zM278.9 359.8l33.1 19.5 44-24.6-34.4-20.3z" class="st3"/>
  <path d="m312.3 379.6 33.1 19.4 44-24.6-34.5-20.3zM247.4 341.2l33.1 19.4 44-24.6-34.5-20.3z" class="st0"/>
  <path d="m184.5 306.4 43.4-25.8 163.5 91.5-48.9 27.7" class="st10"/>
  <path fill="#fff" fill-rule="evenodd" d="m189.8 329.5 149.5 89.8.5 11-14.5-2.7-42.9-25-83.2-50.3z" clip-rule="evenodd"/>
  <path d="M184.5 331.1v-24.7l158.1 92v26.2" class="st5"/>
  <path d="M206.9 357.2c-2.3 2.1-5.1 3.4-8 3.4-7.9 0-14.4-8.8-14.4-19.7v-19.7M229.6 370.3c-2.3 2.1-5.1 3.4-8 3.4-7.9 0-14.4-8.8-14.4-19.7" class="st5"/>
  <path d="M251.3 382.3c-2.3 2.1-5.1 3.4-8 3.4-7.9 0-14.4-8.8-14.4-19.7M273.9 394.3c-2.3 2.1-5.1 3.4-8 3.4-7.9 0-14.4-8.8-14.4-19.7M296.3 408.8c-2.3 2.1-5.1 3.4-8 3.4-7.9 0-14.4-8.8-14.4-19.7M318.8 422c-2.3 2.1-5.1 3.4-8 3.4-7.9 0-14.4-8.8-14.4-19.7" class="st5"/>
  <path d="M342.6 420.2c.6 10.2-2.7 13.5-2.7 13.5-2.3 2.1-5 3.3-7.9 3.3-7.9 0-14.4-8.8-14.4-19.7" class="st5"/>
  <path d="m544.3 437.8 134.4-71.6M215.3 322.6l43.1-24.1M247 342.8l45.3-25.4" class="st4"/>
  <path d="m279.3 359.3 43.1-24.1M313.2 378.2l43.1-24.1" class="st12"/>
  <path fill="#f9d093" fill-rule="evenodd" stroke="#183d54" stroke-linecap="round" stroke-linejoin="round" stroke-miterlimit="10" stroke-width="5" d="M351.2 202.1 269 155.7c-2-1.1-3.6-1.8-3.6-5.1v-33.9c0-3.3 1.8-4.4 3.8-5.3l4.9-1.9s1.4-.5 2.3-.1c.9.5 77.5 42.1 77.5 42.1" clip-rule="evenodd"/>
  <path d="M544.6 375.3c44 21.2 85.9-11 89.2-66.8 5.3-88.2-34.8-113.4-77.4-136.8 0 0-193.7-110.9-197.5-112.8-3.8-1.9-9.4.3-9.4.3L329 67.3c-8.3 3.7-15.9 8.3-15.9 22.1v140.5c0 14.1 6.7 16.6 14.9 21.4l216.6 124z" class="st4"/>
  <path fill="#35d0ba" d="M327.9 251.3 493 138.1 355.2 58.8l-1.9 1.5-42.2 16.2 2 161.1c0 .1.7 11.8 14.8 13.7z"/>
  <path fill="#ffcd3c" d="M328.9 252.3 451.7 164c2.1-1.5 4.1-3.1 6-4.8 1.5-1.3 32.2-22.6 32.2-22.6l94.7 48.7 28.3 25.7s-58.5 30-67.6 38.1c-21.3 19-96 72.4-96 72.4l-120.4-69.2z"/>
  <path fill="#f3807b" d="m448 320 95 55s46.5 23.5 76.3-25.3S635 236 603 203L448 320z"/>
  <path d="M544.6 375.3c44 21.2 85.9-11 89.2-66.8 5.3-88.2-34.8-113.4-77.4-136.8 0 0-193.7-110.9-197.5-112.8-3.8-1.9-9.4.3-9.4.3L329 67.3c-8.3 3.7-15.9 8.3-15.9 22.1v140.5c0 14.1 6.7 16.6 14.9 21.4l216.6 124z" class="st10"/>
  <path d="M516.4 582.4h0c-10.1 2.5-18.2-4.5-18.1-15.5l.3-33.4c.1-11.1 8.4-22.2 18.5-24.7v0c10.1-2.5 18.2 4.5 18.1 15.5l-.3 33.4c-.1 11.1-8.4 22.2-18.5 24.7z" class="st4"/>
  <path d="M521.1 565.3h0c-4.6 1.1-8.3-2.1-8.2-7.2l.3-15.2c.1-5 3.9-10 8.5-11.1h0c4.6-1.1 8.3 2.1 8.2 7.2l-.3 15.2c0 5-3.9 10-8.5 11.1z" class="st4"/>
  <path d="M602.8 335c0 25.4-18.2 46.1-40.6 46.1" class="st10"/>
  <path d="M212 322.6v14.1M247.4 344.4v10.7M278.9 360.9v10.6" class="st5"/>
  <path fill="#fff" fill-rule="evenodd" stroke="#183d54" stroke-linecap="round" stroke-linejoin="round" stroke-miterlimit="10" stroke-width="5.424" d="M311.4 381.1v10.6" clip-rule="evenodd"/>
  <path d="M432.8 693.1c-3.8 0-7.4-1.7-9.8-4.5-2.2-.4-4.2-1.8-5.4-3.7-.1-.2-.2-.4-.3-.5-3.7-1.2-6.8-3.6-8.9-6.9-2.3-3.7-3.1-8.2-2.1-12.5 1-4.3 3.6-8 7.3-10.3 2.6-1.7 5.7-2.5 8.8-2.5 5.7 0 11 2.9 14 7.7 1.7 2.8 2.6 6 2.5 9.2 1.9 1 3.5 2.5 4.7 4.4 1.8 2.9 2.4 6.3 1.6 9.7-.8 3.3-2.8 6.2-5.7 8-1.9 1.2-4.3 1.9-6.7 1.9z" class="st0"/>
  <path d="M422.5 654.7c4.7 0 9.2 2.3 11.9 6.6 1.8 2.9 2.4 6.2 2 9.4 2.1.8 3.9 2.2 5.2 4.2 3 4.8 1.6 11.2-3.3 14.2-1.7 1.1-3.6 1.6-5.5 1.6-3.3 0-6.4-1.5-8.4-4.4-1.8-.1-3.6-1-4.6-2.7-.3-.4-.5-.9-.6-1.3-3.4-.8-6.6-2.9-8.6-6.2-4.1-6.6-2.1-15.2 4.4-19.3 2.4-1.4 4.9-2.1 7.5-2.1m0-5c-3.6 0-7.1 1-10.1 2.9-4.3 2.7-7.3 6.9-8.4 11.9-1.1 4.9-.3 10 2.4 14.3 2.2 3.5 5.5 6.2 9.3 7.6 1.4 2.2 3.6 3.7 6.1 4.4 2.9 3 6.9 4.8 11.1 4.8 2.9 0 5.7-.8 8.1-2.3 3.5-2.2 5.9-5.6 6.8-9.5.9-4 .2-8.1-1.9-11.6-1.1-1.8-2.6-3.3-4.3-4.5-.2-3.2-1.1-6.3-2.9-9.1-3.6-5.6-9.6-8.9-16.2-8.9z" class="st7"/>
  <path d="M424.8 685c-.1-.1-.2-.1-.3-.2-1.5-.1-2.9-.9-3.8-2.3-.2-.3-.3-.6-.5-.9 0-.1-.1-.2-.3-.2-2.9-.7-5.4-2.5-7.1-5.2-1.3-2-1.8-4.2-1.8-6.4 0-.4.6-.5.7-.1.3.9.7 1.8 1.3 2.7 1.7 2.7 4.3 4.5 7.1 5.2.1 0 .2.1.3.2.1.3.3.6.5.9.9 1.4 2.3 2.2 3.8 2.3.1 0 .2.1.3.2 2.7 3.7 7.8 4.7 11.8 2.2 1.5-.9 2.6-2.2 3.3-3.7.2-.4.7-.2.7.2 0 2.9-1.5 5.7-4.1 7.4-4.1 2.4-9.2 1.4-11.9-2.3z" class="st3"/>
  <path d="m417.6 187.7 19.7-13.9M382.1 212.9l21.9-15.5M327.9 251.3l54.2-38.4M448.3 320.3l96-72.4" class="st2"/>
  <path d="m560.2 212.9 3 2c16.4 11 27.7 28 31.5 47.4h0" class="st10"/>
  <path fill="#35d0ba" stroke="#183d54" stroke-linecap="round" stroke-linejoin="round" stroke-miterlimit="10" stroke-width="5" d="M644.6 693.5c-.3-3.7 1.7-7.2 6.2-9.8l68.3-39.4c9.2-5.3 25.4-4.7 36.1 1.5l62.5 36.1c5.8 3.4 8.8 7.7 8.8 11.7h0v30h0c.2 3.5-1.9 6.9-6.2 9.4L752 772.5c-9.2 5.3-25.4 4.7-36.1-1.5l-62.5-36.1c-6.2-3.6-9.2-8.2-8.8-12.5v-28.9z"/>
  <path d="m697.2 729.8 18.7 10.8c10.7 6.2 26.8 6.8 36.1 1.5l68.3-39.4c9.2-5.3 8.1-14.7-2.6-20.8l-62.5-36.1c-10.7-6.2-26.8-6.8-36.1-1.5l-68.3 39.4c-9.2 5.3-8.1 14.7 2.6 20.8l31.1 18" class="st8"/>
  <path fill="#ffcd3c" stroke="#183d54" stroke-linecap="round" stroke-linejoin="round" stroke-miterlimit="10" stroke-width="5" d="M644.6 663.9c-.3-3.7 1.7-7.2 6.2-9.8l68.3-39.4c9.2-5.3 25.4-4.7 36.1 1.5l62.5 36.1c5.8 3.4 8.8 7.7 8.8 11.7h0v30h0c.2 3.5-1.9 6.9-6.2 9.4L752 742.8c-9.2 5.3-25.4 4.7-36.1-1.5l-62.5-36.1c-6.2-3.6-9.2-8.2-8.8-12.5v-28.8z"/>
  <path d="m697.2 700.2 18.7 10.8c10.7 6.2 26.8 6.8 36.1 1.5l68.3-39.4c9.2-5.3 8.1-14.7-2.6-20.8l-62.5-36.1c-10.7-6.2-26.8-6.8-36.1-1.5l-68.3 39.4c-9.2 5.3-8.1 14.7 2.6 20.8l31.1 18" class="st8"/>
  <path fill="#f3807b" stroke="#183d54" stroke-linecap="round" stroke-linejoin="round" stroke-miterlimit="10" stroke-width="5" d="M644.6 633.4c-.3-3.7 1.7-7.2 6.2-9.8l68.3-39.4c9.2-5.3 25.4-4.7 36.1 1.5l62.5 36.1c5.8 3.4 8.8 7.7 8.8 11.7h0v30h0c.2 3.5-1.9 6.9-6.2 9.4L752 712.3c-9.2 5.3-25.4 4.7-36.1-1.5l-62.5-36.1c-6.2-3.6-9.2-8.2-8.8-12.5v-28.8z"/>
  <path fill="#efa0a0" stroke="#183d54" stroke-linecap="round" stroke-linejoin="round" stroke-miterlimit="10" stroke-width="5" d="m697.2 669.6 18.7 10.8c10.7 6.2 26.8 6.8 36.1 1.5l68.3-39.4c9.2-5.3 8.1-14.7-2.6-20.8l-62.5-36.1c-10.7-6.2-26.8-6.8-36.1-1.5l-68.3 39.4c-9.2 5.3-8.1 14.7 2.6 20.8l31.1 18"/>
</svg>