<svg xmlns="http://www.w3.org/2000/svg" xmlns:xlink="http://www.w3.org/1999/xlink" width="67" height="41" viewBox="0 0 67 41">
    <defs>
        <path id="a" d="M0 .065h66.927v15.093H0z"/>
    </defs>
    <g fill="none" fill-rule="evenodd">
        <path fill="#252F3E" d="M56.193 21c-1.15 0-2.3-.134-3.407-.402-1.105-.268-1.968-.559-2.543-.894-.354-.2-.597-.424-.686-.625a1.59 1.59 0 0 1-.133-.626v-1.14c0-.468.178-.692.51-.692.132 0 .264.023.397.067.133.045.332.134.553.224.752.335 1.57.603 2.433.782.885.178 1.747.268 2.632.268 1.394 0 2.477-.246 3.23-.737.751-.492 1.15-1.207 1.15-2.123 0-.625-.2-1.14-.598-1.564-.398-.424-1.15-.804-2.234-1.161L54.29 11.37c-1.614-.513-2.808-1.273-3.539-2.279-.73-.983-1.105-2.077-1.105-3.239 0-.938.199-1.765.597-2.48a5.725 5.725 0 0 1 1.592-1.832c.664-.513 1.416-.893 2.3-1.161C55.02.112 55.95 0 56.923 0c.487 0 .996.022 1.482.09.509.066.973.156 1.438.245.442.112.862.224 1.26.358.399.133.708.267.93.401.31.18.53.358.663.559.133.179.2.424.2.737v1.05c0 .47-.178.715-.51.715-.177 0-.464-.09-.84-.268-1.26-.58-2.676-.871-4.247-.871-1.26 0-2.256.2-2.941.625-.686.425-1.04 1.073-1.04 1.989 0 .625.221 1.161.664 1.586.442.424 1.26.849 2.433 1.229l3.14 1.005c1.593.514 2.743 1.229 3.429 2.145.685.916 1.017 1.966 1.017 3.127 0 .96-.2 1.832-.575 2.592a5.995 5.995 0 0 1-1.615 1.966c-.685.558-1.504.96-2.455 1.25-.995.314-2.034.47-3.162.47zm-28.421-.603c-.399 0-.664-.067-.84-.224-.178-.134-.333-.446-.465-.87l-5.198-17.27c-.133-.447-.199-.737-.199-.894 0-.357.177-.558.53-.558h2.168c.42 0 .708.067.863.223.177.134.31.447.442.872l3.716 14.789 3.45-14.79c.11-.446.244-.737.42-.87.177-.135.487-.224.885-.224h1.77c.42 0 .707.067.884.223.177.134.332.447.42.872l3.495 14.968L43.94 1.676c.133-.447.288-.738.443-.872.177-.134.464-.223.862-.223h2.057c.354 0 .553.178.553.558 0 .112-.022.224-.044.358a3.184 3.184 0 0 1-.155.558l-5.33 17.27c-.133.446-.288.737-.465.87-.177.135-.464.224-.84.224h-1.902c-.42 0-.708-.067-.885-.223-.177-.157-.332-.447-.42-.894l-3.429-14.41L30.98 19.28c-.111.447-.244.737-.42.893-.178.157-.487.224-.885.224h-1.902zm-17.76-2.413c.73 0 1.481-.134 2.277-.402.797-.268 1.504-.76 2.102-1.43.353-.424.619-.894.751-1.43a8.096 8.096 0 0 0 .222-1.943v-.939a18.305 18.305 0 0 0-2.035-.38 16.502 16.502 0 0 0-2.08-.134c-1.481 0-2.565.29-3.295.894-.73.603-1.083 1.452-1.083 2.57 0 1.05.265 1.831.818 2.367.53.559 1.305.827 2.322.827zm8.979-3.396c0 .827.088 1.497.243 1.989.177.491.398 1.027.708 1.608.11.179.155.358.155.514 0 .223-.133.447-.42.67l-1.394.938c-.199.134-.398.202-.575.202-.221 0-.442-.112-.663-.313a6.904 6.904 0 0 1-.797-1.05c-.22-.38-.442-.804-.685-1.318-1.725 2.055-3.893 3.083-6.503 3.083-1.858 0-3.34-.537-4.423-1.609C3.553 18.23 3 16.8 3 15.012c0-1.898.664-3.44 2.013-4.601 1.349-1.162 3.14-1.743 5.418-1.743.752 0 1.527.067 2.345.179.818.112 1.659.29 2.543.491v-1.63c0-1.699-.353-2.882-1.04-3.575-.707-.693-1.901-1.028-3.604-1.028-.774 0-1.57.09-2.389.29-.818.202-1.614.447-2.389.76-.353.157-.619.246-.774.29a1.335 1.335 0 0 1-.354.068c-.31 0-.464-.224-.464-.693V2.725c0-.357.044-.625.155-.782.11-.156.31-.312.619-.469C5.853 1.072 6.782.737 7.866.47 8.95.18 10.1.044 11.316.044c2.632 0 4.556.604 5.795 1.81 1.216 1.206 1.836 3.038 1.836 5.496v7.238h.044z"/>
        <g transform="translate(0 25)">
            <mask id="b" fill="#fff">
                <use xlink:href="#a"/>
            </mask>
            <path fill="#F90" d="M63.557 3.388c-.935-1.203-6.188-.58-8.57-.29-.712.09-.823-.534-.178-1.003C58.994-.847 65.872 0 66.673.981c.802 1.003-.222 7.891-4.14 11.19-.601.513-1.18.245-.913-.424.89-2.206 2.872-7.177 1.937-8.359m-3.05 3.478c-7.323 5.416-17.962 8.292-27.111 8.292-12.821 0-24.374-4.748-33.1-12.639-.69-.624-.066-1.471.757-.981 9.438 5.484 21.08 8.805 33.122 8.805 8.124 0 17.05-1.694 25.264-5.172 1.224-.557 2.27.803 1.068 1.695" mask="url(#b)"/>
        </g>
    </g>
</svg>
