<svg xmlns="http://www.w3.org/2000/svg" xmlns:xlink="http://www.w3.org/1999/xlink" width="165" height="52" viewBox="0 0 165 52">
    <defs>
        <path id="a" d="M0 50.916h164.177V0H0z"/>
    </defs>
    <g fill="none" fill-rule="evenodd" transform="translate(0 .745)">
        <path fill="#000" d="M48.652 9.22c0-1.094-.839-1.876-2.03-1.876h-2.68v3.751h2.68c1.191 0 2.03-.781 2.03-1.875zm-6.01 6.877V6.25h4.114c2.058 0 3.195 1.354 3.195 2.97 0 1.615-1.19 2.97-3.195 2.97h-2.842v3.907h-1.273z"/>
        <mask id="b" fill="#fff">
            <use xlink:href="#a"/>
        </mask>
        <path fill="#000" d="M51.387 16.096h1.137V8.958h-1.137v7.138zm-.217-8.882c0-.418.352-.757.758-.757.433 0 .785.34.785.757 0 .416-.352.73-.785.73-.406 0-.758-.314-.758-.73zM56.585 16.097L53.499 8.96h1.245l2.464 5.835L59.67 8.96h1.246l-3.086 7.138zM67.577 12.528c0-1.433-.867-2.735-2.464-2.735s-2.464 1.302-2.464 2.735c0 1.46.894 2.762 2.464 2.762 1.57 0 2.464-1.303 2.464-2.762m-6.119 0c0-2.058 1.408-3.726 3.655-3.726s3.655 1.668 3.655 3.726c0 2.059-1.408 3.751-3.655 3.751s-3.655-1.692-3.655-3.75M70.637 14.613V9.949h-1.22v-.964h1.22V7.031h1.137v1.954h1.489v.964h-1.49v4.429c0 .521.245.912.759.912.325 0 .623-.13.785-.287l.325.834c-.298.26-.704.47-1.381.47-1.056-.028-1.624-.652-1.624-1.694M79.327 14.586v-1.355c-.434-.598-1.219-.885-2.03-.885-1.083 0-1.815.652-1.815 1.563 0 .912.758 1.538 1.815 1.538.811.026 1.596-.261 2.03-.86zm0 1.511v-.807c-.623.651-1.462.99-2.464.99-1.245 0-2.598-.807-2.598-2.371 0-1.589 1.326-2.345 2.598-2.345 1.002 0 1.868.314 2.464.964v-1.277c0-.963-.785-1.51-1.868-1.51-.894 0-1.598.312-2.275.99l-.54-.756c.785-.807 1.76-1.172 2.951-1.172 1.57 0 2.87.677 2.87 2.396v4.898h-1.138zM82.549 16.097h1.138V6.25h-1.138zM41.992 25.112c0-3.022 2.382-5.08 5.442-5.08 2.247 0 3.546 1.171 4.277 2.396l-1.868.887a2.772 2.772 0 0 0-2.409-1.433c-1.868 0-3.195 1.38-3.195 3.23s1.354 3.23 3.195 3.23a2.772 2.772 0 0 0 2.41-1.433l1.867.86c-.73 1.224-2.03 2.423-4.277 2.423-3.087 0-5.442-2.058-5.442-5.08M58.074 26.44c0-1.094-.677-2.058-1.896-2.058-1.218 0-1.895.964-1.895 2.058 0 1.12.677 2.084 1.895 2.084 1.22 0 1.896-.963 1.896-2.084m-5.82 0c0-2.031 1.461-3.725 3.898-3.725 2.464 0 3.925 1.72 3.925 3.725 0 2.032-1.46 3.752-3.925 3.752-2.437 0-3.899-1.72-3.899-3.752M66.305 30.01v-4.3c0-.989-.542-1.329-1.354-1.329-.758 0-1.354.418-1.678.835v4.794h-1.95v-7.14h1.95v.939c.487-.548 1.38-1.094 2.598-1.094 1.625 0 2.41.886 2.41 2.266v5.029h-1.976zM70.339 28.237v-3.724h-1.22V22.87h1.22v-1.953h1.949v1.953h1.489v1.642h-1.49v3.204c0 .443.244.781.678.781.298 0 .568-.104.677-.208l.406 1.407c-.298.26-.813.469-1.625.469-1.354.026-2.084-.652-2.084-1.929M79.355 28.316v-.886c-.326-.416-.949-.624-1.57-.624-.76 0-1.41.39-1.41 1.067 0 .651.624 1.042 1.41 1.042.621 0 1.245-.209 1.57-.599zm0 1.694v-.73c-.516.573-1.382.912-2.356.912-1.191 0-2.572-.755-2.572-2.371 0-1.668 1.407-2.292 2.572-2.292.975 0 1.869.313 2.356.86v-.965c0-.73-.65-1.198-1.626-1.198-.784 0-1.543.287-2.165.833l-.73-1.25c.892-.756 2.056-1.12 3.22-1.12 1.68 0 3.222.65 3.222 2.709v4.612h-1.921zM82.982 30.01h1.949v-7.14h-1.949v7.14zm-.189-9.015c0-.625.541-1.094 1.164-1.094.649 0 1.164.495 1.164 1.094 0 .6-.515 1.12-1.164 1.12-.623 0-1.164-.494-1.164-1.12zM91.645 30.01v-4.3c0-.989-.54-1.329-1.353-1.329-.758 0-1.353.418-1.678.835v4.794h-1.95v-7.14h1.95v.939c.486-.548 1.38-1.094 2.599-1.094 1.624 0 2.41.886 2.41 2.266v5.029h-1.978zM98.658 24.2c-1.219 0-1.732.86-1.814 1.588h3.655c-.08-.676-.569-1.588-1.84-1.588m-3.846 2.24c0-2.059 1.571-3.725 3.845-3.725 2.22 0 3.71 1.589 3.71 3.934v.417H96.87c.136.911.866 1.64 2.14 1.64.622 0 1.488-.26 1.975-.703l.866 1.198c-.73.652-1.894.992-3.058.992-2.275 0-3.98-1.46-3.98-3.753M103.531 30.01v-7.14h1.95v.965c.514-.625 1.435-1.146 2.355-1.146v1.823a2.891 2.891 0 0 0-.54-.053c-.652 0-1.49.366-1.816.809v4.716h-1.949v.026zM111.87 28.628l1.191-1.588a4.567 4.567 0 0 0 3.25 1.328c1.191 0 1.787-.52 1.787-1.093 0-1.747-5.875-.549-5.875-4.247 0-1.642 1.461-2.997 3.871-2.997 1.624 0 2.978.47 3.98 1.381l-1.219 1.537c-.839-.73-1.922-1.068-2.978-1.068-.947 0-1.462.392-1.462.99 0 1.564 5.875.522 5.875 4.195 0 1.797-1.326 3.151-4.088 3.151-1.977-.025-3.385-.65-4.332-1.589M124.839 24.2c-1.22 0-1.732.86-1.814 1.588h3.655c-.054-.676-.541-1.588-1.841-1.588m-3.817 2.24c0-2.059 1.57-3.725 3.844-3.725 2.22 0 3.709 1.589 3.709 3.934v.417h-5.496c.135.911.866 1.64 2.139 1.64.623 0 1.489-.26 1.976-.703l.867 1.198c-.732.652-1.896.992-3.06.992-2.274 0-3.98-1.46-3.98-3.753M129.74 30.01v-7.14h1.948v.965c.515-.625 1.435-1.146 2.356-1.146v1.823a2.91 2.91 0 0 0-.54-.053c-.652 0-1.49.366-1.816.809v4.716h-1.949v.026z" mask="url(#b)"/>
        <path fill="#000" d="M136.94 30.01l-2.978-7.14h2.085l1.922 4.952 1.922-4.951h2.112l-2.978 7.139zM142.653 30.01h1.949v-7.14h-1.949v7.14zm-.189-9.015c0-.625.542-1.094 1.164-1.094.65 0 1.164.495 1.164 1.094 0 .6-.514 1.12-1.164 1.12-.622 0-1.164-.494-1.164-1.12zM145.849 26.44c0-2.187 1.65-3.725 3.926-3.725 1.515 0 2.436.624 2.924 1.276l-1.273 1.146c-.352-.495-.893-.755-1.57-.755-1.192 0-2.004.834-2.004 2.058 0 1.25.84 2.084 2.004 2.084.677 0 1.218-.287 1.57-.755l1.273 1.146c-.488.651-1.41 1.303-2.924 1.303-2.302-.026-3.926-1.563-3.926-3.778M157.084 24.2c-1.219 0-1.732.86-1.813 1.588h3.654c-.054-.676-.541-1.588-1.841-1.588m-3.817 2.24c0-2.059 1.57-3.725 3.844-3.725 2.22 0 3.709 1.589 3.709 3.934v.417h-5.496c.136.911.866 1.64 2.139 1.64.623 0 1.489-.26 1.976-.703l.867 1.198c-.731.652-1.895.992-3.06.992-2.301 0-3.979-1.46-3.979-3.753" mask="url(#b)"/>
        <path fill="#008674" d="M22.255 14.821c-.216-.104-.406-.417-.406-.652V.335c0-.26-.19-.338-.406-.208l-3.141 1.928c-.216.13-.406.443-.406.703v13.835c0 .26.19.546.406.651l12.048 6.017c.217.105.596.105.812-.026l3.14-1.927c.218-.131.218-.339-.026-.443l-12.021-6.044z" mask="url(#b)"/>
        <path fill="#008674" d="M34.303 6.093L22.255.075c-.216-.104-.596-.104-.812.026l-3.14 1.928c-.217.13-.407.443-.407.703v.157c0-.208.163-.365.379-.365.082 0 .19.052.19.052l11.885 5.94c.217.104.407.417.407.652v13.677c0 .208-.163.365-.38.365a.504.504 0 0 1-.19-.053l.137.078c.216.105.595.105.812-.025l3.14-1.928c.217-.131.406-.443.406-.703V6.745c.027-.235-.162-.522-.38-.652M13.32 20.292c-.216-.104-.406-.417-.406-.651V5.806c0-.26-.189-.338-.406-.208l-3.14 1.928c-.217.13-.407.443-.407.703v13.835c0 .26.19.546.406.651l12.048 6.017c.217.105.596.105.813-.026l3.14-1.927c.217-.131.217-.339-.027-.443l-12.02-6.044z" mask="url(#b)"/>
        <path fill="#00B5A3" d="M25.369 11.564L13.32 5.546c-.217-.104-.596-.104-.812.026L9.368 7.5c-.217.13-.406.443-.406.703v.157c0-.208.162-.365.379-.365.08 0 .19.052.19.052l11.885 5.94c.217.104.406.417.406.652v13.677c0 .208-.162.365-.38.365a.494.494 0 0 1-.188-.053l.135.078c.216.105.596.105.812-.025l3.14-1.928c.217-.13.407-.443.407-.703V12.216c.027-.234-.163-.548-.38-.652" mask="url(#b)"/>
        <path fill="#0066AB" d="M4.359 25.763c-.216-.104-.406-.417-.406-.651V11.277c0-.26-.19-.337-.406-.208L.406 12.997C.19 13.127 0 13.44 0 13.7v13.835c0 .26.19.546.406.651l12.048 6.017c.217.105.596.105.812-.026l3.14-1.927c.218-.131.218-.339-.026-.443L4.359 25.763z" mask="url(#b)"/>
        <path fill="#009FDF" d="M16.407 17.035L4.359 11.017c-.216-.104-.596-.104-.812.026l-3.14 1.928c-.217.13-.407.443-.407.704v.156c0-.209.163-.365.379-.365.082 0 .19.052.19.052l11.885 5.94c.217.104.407.417.407.652v13.677c0 .208-.163.365-.38.365a.504.504 0 0 1-.19-.053l.137.078c.216.105.595.105.812-.025l3.14-1.928c.217-.13.406-.443.406-.703V17.687c.055-.234-.135-.521-.38-.652" mask="url(#b)"/>
        <path fill="#000" d="M164.015 24.46v-1.276l-.541 1.276h-.055l-.541-1.276v1.276h-.217v-1.537h.298l.46 1.12.46-1.12h.299v1.537h-.163zm-2.058-1.354v1.354h-.19v-1.354h-.46v-.183h1.11v.183h-.46z" mask="url(#b)"/>
        <path fill="#F3807B" d="M76.376 42.45h3.019v-2.905h-3.019zM82.414 42.45h3.019v-2.905h-3.019zM76.376 48.26h3.019v-2.906h-3.019zM94.861 41.984a1.857 1.857 0 0 0-.687-.503 2.349 2.349 0 0 0-.942-.176c-.355 0-.685.067-.989.2a2.362 2.362 0 0 0-.79.555c-.223.237-.397.52-.523.847a2.936 2.936 0 0 0-.188 1.064c0 .39.062.747.188 1.07.126.323.298.604.517.842.218.237.476.423.77.556.296.132.615.198.955.198.388 0 .733-.078 1.034-.234.3-.156.545-.374.74-.655l1.58 1.134a3.269 3.269 0 0 1-1.386 1.089 4.44 4.44 0 0 1-1.724.35 5.504 5.504 0 0 1-1.86-.304 4.269 4.269 0 0 1-1.47-.872 3.925 3.925 0 0 1-.966-1.373c-.23-.538-.346-1.138-.346-1.801 0-.662.115-1.263.346-1.8.23-.539.553-.997.966-1.374a4.314 4.314 0 0 1 1.47-.872 5.48 5.48 0 0 1 2.618-.24c.263.044.523.112.778.206.255.094.5.218.735.374s.445.346.632.573l-1.458 1.146zM98.93 45.269c0 .429.129.775.384 1.041.255.264.614.396 1.076.396.462 0 .819-.132 1.074-.396.256-.266.383-.612.383-1.041 0-.427-.127-.776-.383-1.041-.255-.264-.612-.397-1.074-.397-.462 0-.821.133-1.076.397-.255.265-.383.614-.383 1.04m-1.822 0c0-.451.085-.86.256-1.226.17-.367.403-.68.698-.941a3.108 3.108 0 0 1 1.045-.603c.4-.14.828-.21 1.282-.21.454 0 .88.07 1.28.21.403.141.75.341 1.046.603.296.26.529.574.699.941.17.366.255.775.255 1.227 0 .452-.085.861-.255 1.227-.17.366-.403.68-.7.942-.294.26-.642.462-1.044.602-.4.14-.827.21-1.281.21-.454 0-.881-.07-1.282-.21a3.124 3.124 0 0 1-1.045-.602 2.844 2.844 0 0 1-.698-.942 2.861 2.861 0 0 1-.256-1.227M104.74 42.428h1.75v.772h.022c.058-.11.14-.219.244-.327.105-.11.231-.207.377-.293a2.174 2.174 0 0 1 1.105-.292c.413 0 .78.081 1.1.245.32.164.56.421.722.772.211-.367.466-.628.767-.784.3-.155.667-.233 1.105-.233.397 0 .731.064 1.003.192.271.128.486.304.644.526.158.223.27.484.34.785.068.3.102.621.102.963v3.356H112.2v-3.309c0-.265-.058-.493-.176-.683-.117-.192-.326-.287-.626-.287-.21 0-.387.034-.527.1a.863.863 0 0 0-.342.274 1.126 1.126 0 0 0-.182.41c-.037.156-.054.319-.054.49v3.005h-1.823v-3.005c0-.1-.004-.226-.012-.373a1.396 1.396 0 0 0-.085-.422.801.801 0 0 0-.237-.338c-.109-.094-.269-.141-.48-.141-.234 0-.426.041-.57.123a.84.84 0 0 0-.335.327c-.077.136-.127.291-.153.461a4.055 4.055 0 0 0-.036.538v2.83h-1.822v-5.682zM115.334 48.11h1.822v-5.682h-1.822v5.682zm-.147-7.471c0-.28.105-.52.311-.719.207-.199.456-.298.747-.298s.54.099.747.298a.96.96 0 0 1 .31.719c0 .281-.103.52-.31.72a1.041 1.041 0 0 1-.747.297c-.291 0-.54-.099-.747-.297a.967.967 0 0 1-.311-.72zM118.469 42.428h1.75v.772h.023c.058-.11.139-.219.244-.327.105-.11.23-.207.377-.293a2.185 2.185 0 0 1 1.105-.292c.462 0 .835.068 1.118.205.283.135.505.325.662.566.158.242.266.527.323.854.055.328.085.682.085 1.063v3.134h-1.823v-2.783c0-.163-.006-.333-.018-.509a1.584 1.584 0 0 0-.11-.485.837.837 0 0 0-.28-.361c-.125-.094-.305-.141-.54-.141-.234 0-.426.041-.57.123a.84.84 0 0 0-.335.327c-.077.136-.127.291-.153.461a4.055 4.055 0 0 0-.036.538v2.83h-1.822v-5.682zM127.046 45.234c0 .187.037.364.11.532.074.169.176.316.31.445.133.127.287.232.462.31.174.078.366.116.577.116.202 0 .393-.038.57-.116.178-.078.334-.183.468-.31.135-.13.237-.276.31-.445.074-.168.109-.345.109-.532a1.318 1.318 0 0 0-.42-.977 1.603 1.603 0 0 0-.467-.31 1.418 1.418 0 0 0-.57-.116c-.211 0-.403.04-.577.116a1.6 1.6 0 0 0-.462.31 1.377 1.377 0 0 0-.31.445 1.32 1.32 0 0 0-.11.532zm4.594 2.396c0 1.076-.282 1.893-.845 2.45-.562.557-1.42.835-2.57.835a7.137 7.137 0 0 1-1.555-.168 3.578 3.578 0 0 1-1.41-.66l1.01-1.451c.283.226.58.406.892.538.312.131.654.199 1.027.199.559 0 .969-.131 1.234-.392.263-.26.394-.595.394-1v-.55h-.025c-.21.273-.472.468-.783.58-.313.113-.606.17-.881.17-.436 0-.834-.073-1.19-.217a2.636 2.636 0 0 1-1.507-1.538 3.26 3.26 0 0 1-.207-1.18c0-.375.062-.741.189-1.1.124-.357.304-.673.534-.946.23-.273.512-.494.844-.661a2.477 2.477 0 0 1 1.13-.251 2.875 2.875 0 0 1 1.289.292c.17.086.315.181.437.287.122.104.218.208.292.309h.023v-.748h1.678v5.202zM141.178 41.855a1.35 1.35 0 0 0-.626-.415 2.359 2.359 0 0 0-.747-.135 1.928 1.928 0 0 0-.84.194.88.88 0 0 0-.314.262.646.646 0 0 0-.121.397c0 .251.096.44.292.574.193.133.438.246.734.34.296.092.614.186.954.28.34.092.657.225.953.398.296.17.54.4.736.69.194.287.29.673.29 1.156 0 .461-.088.861-.266 1.205-.18.342-.42.627-.724.853a3.077 3.077 0 0 1-1.056.503c-.401.11-.825.163-1.27.163a4.782 4.782 0 0 1-1.556-.245 3.946 3.946 0 0 1-1.336-.794l1.348-1.428c.195.25.44.443.736.58a2.125 2.125 0 0 0 1.385.151c.157-.034.3-.088.426-.157a.915.915 0 0 0 .304-.269.656.656 0 0 0 .115-.387c0-.249-.1-.445-.298-.59a2.759 2.759 0 0 0-.747-.368c-.3-.101-.624-.203-.973-.304a4.427 4.427 0 0 1-.971-.41 2.302 2.302 0 0 1-.747-.677c-.2-.28-.298-.651-.298-1.111 0-.445.09-.834.273-1.17.183-.335.426-.615.73-.84a3.202 3.202 0 0 1 1.05-.51 4.463 4.463 0 0 1 1.227-.169c.486 0 .956.067 1.409.199.454.131.864.355 1.228.665l-1.3 1.369zM145.272 45.269c0 .429.127.775.383 1.041.255.264.613.396 1.076.396.462 0 .819-.132 1.073-.396.256-.266.383-.612.383-1.041 0-.427-.127-.776-.383-1.041-.255-.264-.612-.397-1.073-.397-.463 0-.821.133-1.076.397-.256.265-.383.614-.383 1.04m-1.822 0c0-.451.085-.86.255-1.226.17-.367.403-.68.698-.941a3.103 3.103 0 0 1 1.044-.603c.403-.14.83-.21 1.284-.21.453 0 .88.07 1.28.21.403.141.75.341 1.046.603.296.26.529.574.699.941.17.366.255.775.255 1.227 0 .452-.085.861-.255 1.227-.17.366-.404.68-.7.942-.296.26-.643.462-1.044.602-.4.14-.828.21-1.281.21-.454 0-.881-.07-1.284-.21a3.12 3.12 0 0 1-1.043-.602 2.86 2.86 0 0 1-.7-.942 2.876 2.876 0 0 1-.255-1.227M152.683 45.269c0 .429.128.775.383 1.041.255.264.614.396 1.076.396.46 0 .819-.132 1.074-.396.255-.266.383-.612.383-1.041 0-.427-.128-.776-.383-1.041-.255-.264-.613-.397-1.074-.397-.462 0-.821.133-1.076.397-.255.265-.383.614-.383 1.04m-1.822 0c0-.451.085-.86.255-1.226.17-.367.403-.68.699-.941a3.103 3.103 0 0 1 1.044-.603c.4-.14.829-.21 1.283-.21.453 0 .88.07 1.28.21.403.141.75.341 1.046.603.296.26.529.574.699.941.17.366.255.775.255 1.227 0 .452-.085.861-.255 1.227-.17.366-.403.68-.7.942-.295.26-.642.462-1.044.602-.4.14-.828.21-1.281.21-.454 0-.882-.07-1.283-.21a3.12 3.12 0 0 1-1.044-.602 2.833 2.833 0 0 1-.7-.942 2.876 2.876 0 0 1-.254-1.227M158.491 42.428h1.75v.772h.023c.058-.11.14-.219.244-.327.105-.11.231-.207.377-.293a2.185 2.185 0 0 1 1.105-.292c.462 0 .835.068 1.118.205.283.135.505.325.662.566.158.242.266.527.323.854.055.328.085.682.085 1.063v3.134h-1.823v-2.783c0-.163-.006-.333-.019-.509a1.555 1.555 0 0 0-.109-.485.831.831 0 0 0-.28-.361c-.125-.094-.305-.141-.54-.141-.234 0-.426.041-.57.123a.843.843 0 0 0-.335.327c-.077.136-.127.291-.153.461a4.055 4.055 0 0 0-.036.538v2.83h-1.822v-5.682z" mask="url(#b)"/>
    </g>
</svg>
