<svg xmlns="http://www.w3.org/2000/svg" xmlns:xlink="http://www.w3.org/1999/xlink" width="197" height="40" viewBox="0 0 197 40">
    <defs>
        <path id="a" d="M0 .266h33.195V33.67H0z"/>
        <path id="c" d="M0 33.734h197V.33H0z"/>
    </defs>
    <g fill="none" fill-rule="evenodd" transform="translate(0 5)">
        <g transform="translate(0 .064)">
            <mask id="b" fill="#fff">
                <use xlink:href="#a"/>
            </mask>
            <path fill="#0080FF" d="M16.614 33.67V27.2c6.83 0 12.083-6.8 9.488-13.996-.985-2.674-3.086-4.82-5.745-5.777-7.158-2.607-13.922 2.674-13.922 9.54H0C0 6.04 10.507-2.476 21.9 1.089c4.99 1.552 8.93 5.546 10.474 10.53 3.546 11.488-4.892 22.05-15.76 22.05" mask="url(#b)"/>
        </g>
        <mask id="d" fill="#fff">
            <use xlink:href="#c"/>
        </mask>
        <path fill="#0080FF" d="M10.211 27.264h6.403v-6.437H10.21zM5.286 32.215h4.925v-4.951H5.286zM1.15 27.264h4.136v-4.126H1.15zM49.578 11.254h1.905c2.101 0 3.841.43 5.155 1.222 1.444.891 2.2 2.574 2.2 4.984 0 2.509-.756 4.258-2.2 5.216-1.248.825-2.988 1.254-5.122 1.254H49.61V11.254h-.033zM59.1 10c-1.904-1.32-4.268-2.014-7.026-2.014h-6.009v19.179h6.009c2.758 0 5.122-.693 7.026-2.113 1.05-.726 1.871-1.782 2.43-3.07.558-1.287.853-2.805.853-4.522 0-1.683-.295-3.202-.853-4.49-.559-1.254-1.38-2.277-2.43-2.97zM66.586 7.755c-.591 0-1.084.198-1.478.594-.394.397-.623.892-.623 1.453 0 .594.197 1.09.623 1.485.394.396.887.627 1.478.627.59 0 1.083-.198 1.477-.627.394-.396.624-.924.624-1.485 0-.594-.197-1.09-.624-1.453a2.052 2.052 0 0 0-1.477-.594M64.846 27.198h3.382V13.664h-3.382zM79.654 22.775c-.591.66-1.347.99-2.332.99-.985 0-1.74-.33-2.298-.99-.59-.66-.886-1.552-.886-2.64 0-1.09.295-2.015.886-2.675.591-.66 1.346-1.023 2.298-1.023.985 0 1.74.33 2.332 1.023.59.66.886 1.585.886 2.674 0 1.09-.328 1.98-.886 2.64zm.886-7.988c-1.017-.925-2.167-1.453-3.382-1.453-1.871 0-3.414.66-4.629 1.915-1.215 1.254-1.806 2.904-1.806 4.852 0 1.914.591 3.532 1.806 4.852 1.215 1.255 2.758 1.915 4.63 1.915 1.313 0 2.43-.363 3.349-1.09v.33c0 1.123-.296 1.981-.887 2.609-.591.594-1.412.89-2.43.89-1.576 0-2.528-.626-3.743-2.244l-2.298 2.212.066.099c.492.693 1.247 1.386 2.265 2.046 1.018.66 2.266.99 3.776.99 2.003 0 3.645-.627 4.826-1.848 1.215-1.221 1.806-2.872 1.806-4.918v-12.28h-3.316v1.123h-.033zM86.746 27.198h3.382V13.664h-3.382zM88.486 7.755c-.591 0-1.084.198-1.478.594-.394.397-.623.892-.623 1.453 0 .594.197 1.09.623 1.485.394.396.887.627 1.478.627.59 0 1.083-.198 1.477-.627.394-.396.624-.924.624-1.485 0-.594-.197-1.09-.624-1.453a2.052 2.052 0 0 0-1.477-.594M97.548 10.033h-3.316v3.664h-1.938V16.8h1.938v5.612c0 1.75.36 3.004 1.05 3.73.69.726 1.905 1.09 3.645 1.09.558 0 1.116-.034 1.641-.067h.165v-3.103l-1.15.066c-.82 0-1.345-.132-1.608-.43-.263-.296-.394-.89-.394-1.782v-5.15h3.152v-3.102H97.58v-3.631h-.033zM116.558 27.165h3.382V7.986h-3.382zM154.12 22.345c-.592.694-1.215 1.288-1.708 1.585-.46.297-1.05.462-1.74.462-.985 0-1.806-.363-2.462-1.122-.657-.76-.985-1.716-.985-2.872 0-1.155.328-2.113.952-2.839.656-.76 1.445-1.122 2.43-1.122 1.083 0 2.232.693 3.217 1.848l2.233-2.145c-1.445-1.915-3.316-2.806-5.549-2.806-1.871 0-3.48.693-4.794 2.013-1.313 1.32-1.97 3.037-1.97 5.05 0 2.015.657 3.698 1.97 5.051 1.313 1.354 2.923 2.014 4.794 2.014 2.463 0 4.433-1.056 5.746-3.004l-2.134-2.113zM160.62 18.748c.165-.66.46-1.189.887-1.618.46-.462 1.05-.693 1.773-.693.821 0 1.445.231 1.872.693.394.43.624.957.689 1.585h-5.22v.033zm7.388-3.202a5.486 5.486 0 0 0-1.937-1.618c-.82-.396-1.74-.594-2.79-.594-1.905 0-3.448.693-4.597 2.08-1.117 1.386-1.708 3.07-1.708 5.083 0 2.047.624 3.73 1.872 5.05 1.215 1.288 2.889 1.948 4.892 1.948 2.265 0 4.17-.924 5.548-2.773l.066-.099-2.2-2.145c-.196.264-.492.528-.755.792-.328.33-.656.56-.985.726-.492.264-1.083.363-1.707.363-.952 0-1.707-.264-2.299-.825-.557-.495-.886-1.189-.951-2.047h8.963l.033-1.254c0-.891-.131-1.716-.361-2.509a7.506 7.506 0 0 0-1.084-2.178zM175.002 22.015c.394-.264.919-.395 1.609-.395.82 0 1.674.165 2.56.495v1.32c-.722.693-1.707 1.023-2.922 1.023-.59 0-1.05-.132-1.346-.396-.295-.264-.46-.561-.46-.99 0-.43.198-.792.559-1.057m6.008-7.328c-1.018-.89-2.43-1.32-4.202-1.32a7.11 7.11 0 0 0-3.12.726c-.886.462-1.74 1.189-2.298 2.179l.033.033 2.167 2.08c.886-1.42 1.871-1.915 3.185-1.915.722 0 1.28.198 1.74.56.46.364.657.86.657 1.453v.66a8.366 8.366 0 0 0-2.496-.395c-1.674 0-3.053.396-4.071 1.188-1.018.792-1.543 1.948-1.543 3.367 0 1.254.427 2.31 1.313 3.07.887.726 1.97 1.122 3.25 1.122 1.281 0 2.496-.528 3.58-1.42v1.123h3.316v-8.715c.065-1.617-.46-2.904-1.51-3.796M195.588 14.952c-.952-1.057-2.265-1.585-3.94-1.585-1.346 0-2.43.396-3.25 1.155v-.825h-3.316v13.534h3.381v-7.493c0-1.023.23-1.849.723-2.41.492-.594 1.116-.858 2.003-.858.754 0 1.346.264 1.773.76.426.527.656 1.22.656 2.112v7.823H197v-7.823c0-1.849-.46-3.334-1.412-4.39M106.314 22.015c.394-.264.92-.395 1.61-.395.82 0 1.674.165 2.56.495v1.32c-.722.693-1.707 1.023-2.922 1.023-.591 0-1.05-.132-1.346-.396-.296-.264-.46-.561-.46-.99 0-.43.164-.792.558-1.057m6.009-7.328c-1.018-.89-2.43-1.32-4.203-1.32a7.111 7.111 0 0 0-3.12.726c-.886.462-1.74 1.189-2.297 2.179l.033.033 2.166 2.08c.887-1.42 1.872-1.915 3.185-1.915.723 0 1.28.198 1.74.56.46.364.657.86.657 1.453v.66a8.363 8.363 0 0 0-2.495-.395c-1.675 0-3.054.396-4.072 1.188-1.017.792-1.543 1.948-1.543 3.367 0 1.254.427 2.31 1.314 3.07.886.726 1.97 1.122 3.25 1.122s2.495-.528 3.579-1.42v1.123h3.316v-8.715c.033-1.617-.492-2.904-1.51-3.796M132.22 11.188c-3.513 0-6.37 2.872-6.37 6.404s2.857 6.404 6.37 6.404 6.37-2.872 6.37-6.404-2.857-6.404-6.37-6.404m0 16.274c-5.418 0-9.85-4.423-9.85-9.903s4.4-9.903 9.85-9.903c5.417 0 9.85 4.424 9.85 9.903 0 5.48-4.433 9.903-9.85 9.903" mask="url(#d)"/>
    </g>
</svg>
