<svg xmlns="http://www.w3.org/2000/svg" xmlns:xlink="http://www.w3.org/1999/xlink" width="20" height="20" viewBox="0 0 20 20">
    <defs>
        <path id="a" d="M0 0h20v20H0z"/>
    </defs>
    <g fill="none" fill-rule="evenodd">
        <mask id="b" fill="#fff">
            <use xlink:href="#a"/>
        </mask>
        <path fill="#3BBDC4" d="M10 0C4.477 0 0 4.59 0 10.254c0 4.53 2.865 8.372 6.84 9.728.5.094.682-.222.682-.494 0-.243-.009-.888-.014-1.744-2.781.62-3.368-1.374-3.368-1.374-.455-1.185-1.11-1.5-1.11-1.5-.908-.636.068-.624.068-.624 1.004.073 1.532 1.057 1.532 1.057.892 1.567 2.34 1.114 2.91.853.091-.663.349-1.115.635-1.371-2.22-.26-4.555-1.139-4.555-5.068 0-1.119.39-2.034 1.03-2.751-.104-.26-.447-1.302.097-2.714 0 0 .84-.275 2.75 1.052a9.356 9.356 0 0 1 2.504-.346 9.37 9.37 0 0 1 2.503.346c1.91-1.327 2.747-1.052 2.747-1.052.546 1.412.203 2.455.1 2.714.64.717 1.028 1.632 1.028 2.751 0 3.94-2.338 4.806-4.566 5.06.359.316.679.942.679 1.898 0 1.37-.013 2.477-.013 2.813 0 .274.18.593.688.493C17.137 18.622 20 14.782 20 10.254 20 4.59 15.522 0 10 0" mask="url(#b)"/>
    </g>
</svg>
