<svg xmlns="http://www.w3.org/2000/svg" xmlns:xlink="http://www.w3.org/1999/xlink" width="40" height="40" viewBox="0 0 40 40">
    <defs>
        <path id="a" d="M0 0h40v40H0z"/>
    </defs>
    <g fill="none" fill-rule="evenodd">
        <mask id="b" fill="#fff">
            <use xlink:href="#a"/>
        </mask>
        <path fill="#505A72" d="M19.999 0C8.955 0 0 9.18 0 20.508c0 9.059 5.73 16.744 13.678 19.457 1 .187 1.366-.446 1.366-.99 0-.485-.018-1.776-.027-3.487-5.563 1.24-6.737-2.749-6.737-2.749-.91-2.37-2.221-2.999-2.221-2.999-1.816-1.272.137-1.247.137-1.247 2.008.146 3.064 2.114 3.064 2.114 1.784 3.133 4.68 2.228 5.82 1.704.182-1.326.698-2.23 1.27-2.742-4.44-.517-9.11-2.277-9.11-10.135 0-2.238.78-4.068 2.059-5.502-.206-.519-.893-2.604.195-5.427 0 0 1.68-.552 5.5 2.102a18.712 18.712 0 0 1 5.007-.691 18.74 18.74 0 0 1 5.007.691c3.818-2.654 5.494-2.102 5.494-2.102 1.092 2.823.405 4.908.199 5.427 1.282 1.434 2.057 3.264 2.057 5.502 0 7.878-4.677 9.612-9.132 10.119.718.633 1.357 1.884 1.357 3.798 0 2.74-.024 4.952-.024 5.624 0 .55.36 1.188 1.375.987C34.274 37.245 40 29.564 40 20.508 40 9.181 31.045 0 19.999 0" mask="url(#b)"/>
    </g>
</svg>
