<svg xmlns="http://www.w3.org/2000/svg" width="406" height="372" viewBox="0 0 406 372">
    <g fill="none" fill-rule="evenodd">
        <g transform="translate(0 169.5)">
            <path fill="#FFF" fill-rule="nonzero" d="M123.352 86c.45-5.7-3.755-10.7-9.462-11.15-2.403-.2-4.655.45-6.508 1.65-2.253-2.25-5.306-3.75-8.76-4.05-7.76-.65-14.568 5.1-15.22 12.85-.65 7.75 5.107 14.55 12.867 15.2 3.804.3 7.409-.95 10.162-3.2.45.15.901.25 1.402.3 1.952.15 3.754-.7 4.906-2.1 5.457.15 10.162-4 10.613-9.5"/>
            <path stroke="#183D54" stroke-linecap="round" stroke-linejoin="round" stroke-width="2.551" d="M111.738 74.85c-1.602.2-3.104.75-4.406 1.6-2.253-2.25-5.306-3.75-8.76-4.05-6.96-.55-13.167 4-14.819 10.55"/>
            <path stroke="#183D54" stroke-linecap="round" stroke-linejoin="round" stroke-width="2.5" d="M83.403 85.3c-.651 7.75 5.106 14.55 12.866 15.2 3.804.3 7.409-.95 10.162-3.2.45.15.901.25 1.402.3 1.952.15 3.754-.7 4.906-2.1 5.457.15 10.162-4 10.613-9.5"/>
            <path fill="#FFF" fill-rule="nonzero" d="M98.02 36.1c1.553-3.05 4.256-5.25 7.36-6.3"/>
            <path stroke="#183D54" stroke-linecap="round" stroke-linejoin="round" stroke-width="2.551" d="M98.02 36.1c1.553-3.05 4.256-5.25 7.36-6.3"/>
            <path fill="#FFF" fill-rule="nonzero" d="M122.1 69.3c.4.05.801.15 1.202.3 1.101.35 2.052.95 2.803 1.7"/>
            <path stroke="#183D54" stroke-linecap="round" stroke-linejoin="round" stroke-width="2.551" d="M122.1 69.3c.4.05.801.15 1.202.3 1.101.35 2.052.95 2.803 1.7"/>
            <path fill="#DCE7F2" fill-rule="nonzero" d="M104.579 61.4c-.15-1.35-.651-2.65-1.552-3.75-2.503-3.1-7.109-3.55-10.263-1-.7.6-1.301 1.25-1.752 2 .4-1.3 1.202-2.5 2.303-3.4 3.004-2.4 7.409-2 9.762.95 1.251 1.55 1.752 3.4 1.502 5.2z"/>
            <path stroke="#183D54" stroke-linecap="round" stroke-linejoin="round" stroke-width="2.551" d="M106.531 97.15c-.75-.35-1.402-.9-1.902-1.55"/>
            <ellipse cx="31.989" cy="72.9" fill="#FFF" fill-rule="nonzero" rx="3.504" ry="3.5"/>
            <path fill="#DCE7F2" fill-rule="nonzero" d="M35.844 73.4c-.6 1.85-2.603 2.8-4.455 2.2-1.853-.6-2.804-2.6-2.203-4.45.1-.3.25-.6.45-.85-.25 1.65.751 3.25 2.353 3.8 1.502.5 3.154-.05 4.005-1.35-.05.2-.1.4-.15.65z"/>
            <ellipse cx="31.989" cy="72.9" stroke="#183D54" stroke-linecap="round" stroke-linejoin="round" stroke-width="2.5" rx="3.504" ry="3.5"/>
            <path fill="#FFF" fill-rule="nonzero" d="M60.124 4.3c-2.904 4.1-7.209 8.45-12.115 7.4-2.153-4.9-7.76-8-13.066-7.3-5.307.75-9.862 5.25-10.563 10.55-6.508-.05-12.766 4.8-14.368 11.15-.7 2.9-.45 5.95.651 8.7-.1-.05-.15-.05-.25-.1-.2-.05-.4-.15-.6-.2-2.053-.5-4.156-.2-5.958.85C2.053 36.45.75 38.15.25 40.2c-1 3.95 1.252 8.1 5.107 9.4.2.05.4.15.6.2 1.252.3 2.553.3 3.705.05 1.402 2.25 3.554 4.05 6.258 5 1.902.65 3.854.8 5.757.5.8.75 1.652 1.4 2.603 1.95 4.956 2.85 11.714 2.15 16.02-1.6 2.853 4.1 8.26 6.25 13.116 5.2.35 5.05 5.156 9.4 10.212 9.3-1.602 6.75 2.954 14.35 9.712 16.15 6.709 1.75 14.468-2.65 16.37-9.3 1.152.9 2.454 1.55 3.805 2.05.1 5.45 3.555 10.55 9.011 12.4 6.709 2.3 14.018-1.1 16.67-7.6 1.903.45 3.856.15 5.508-.8"/>
            <path stroke="#183D54" stroke-linecap="round" stroke-linejoin="round" stroke-width="2.551" d="M128.108 78.5c.8-3.2-.651-6.5-3.354-8.1.65-.7 1.301-1.45 1.802-2.3 3.154-5 3.104-11.75-.05-16.75-1.802-2.8-1.752-2.65-1.402-6 .4-4.4-1.302-8.85-4.355-12"/>
            <path fill="#DCE7F2" fill-rule="nonzero" d="M16.17 53.7c-2.453-.85-4.506-2.45-5.857-4.55l-.35-.55-.652.15c-1.1.25-2.202.2-3.354-.05-.15-.05-.35-.1-.55-.15C1.952 47.35-.1 43.8.75 40.35c.45-1.75 1.552-3.25 3.154-4.15 1.101-.65 2.403-.95 3.704-.9-.25.45-.4.95-.55 1.5-1.002 4 1.351 8.25 5.456 9.6.25.1.451.15.651.2 1.052.25 2.153.35 3.254.2 1.502 2.05 3.605 3.65 6.058 4.45 1.752.6 3.554.8 5.356.6.701.6 1.502 1.15 2.303 1.6.701.4 1.502.75 2.253 1 2.303.8 4.806.95 7.159.6-3.404 2.8-8.41 3.65-12.866 2.15-.751-.25-1.452-.55-2.103-.95-.9-.5-1.702-1.1-2.403-1.8l-.35-.3-.45.05c-1.653.25-3.505.1-5.207-.5zM73.14 84.9c-5.907-2-9.712-8.55-8.36-14.3l.25-1.05H63.88c-.952 0-1.903-.15-2.854-.45-3.504-1.2-6.157-4.4-6.458-7.75l-.1-1-1.001.2c-2.003.4-4.105.25-6.158-.45-2.453-.85-4.555-2.35-5.957-4.3l-.25-.35c1.652-.4 3.204-1.1 4.605-2.1 1.502 1.75 3.505 3.1 5.807 3.9 1.903.65 3.855.85 5.707.65.701 3.45 3.455 6.55 7.06 7.75.7.25 1.45.4 2.152.5-.801 5.9 3.154 12.25 9.111 14.25.25.1.55.2.801.25 4.355 1.15 9.011-.15 12.265-3-2.002 5.55-8.86 9.05-14.768 7.5-.25-.05-.45-.15-.7-.25z"/>
            <path stroke="#183D54" stroke-linecap="round" stroke-linejoin="round" stroke-width="2.5" d="M124.754 83c-1.652 1-3.655 1.3-5.507.8-2.653 6.5-9.962 9.9-16.67 7.6-5.457-1.85-8.962-6.95-9.012-12.4-1.351-.45-2.653-1.15-3.804-2.05-1.903 6.7-9.662 11.05-16.37 9.3-6.709-1.75-11.315-9.35-9.713-16.15-5.106.1-9.862-4.25-10.212-9.3-4.856 1.05-10.263-1.1-13.116-5.2-4.306 3.75-11.064 4.45-16.02 1.6-.951-.55-1.802-1.2-2.603-1.95-1.853.3-3.805.2-5.757-.5-2.704-.9-4.856-2.75-6.258-5-1.202.3-2.453.3-3.705-.05-.05 0-.05 0-.1-.05C2.203 48.65-.3 45.1.1 41.3c.25-2.55 1.652-4.75 3.805-6 1.802-1.1 3.955-1.4 5.957-.85.2.05.4.1.6.2.101.05.151.05.251.1-1.051-2.75-1.351-5.85-.65-8.7C11.663 19.7 17.871 14.9 24.43 14.9c.751-5.3 5.307-9.8 10.563-10.55 5.307-.75 10.914 2.4 13.066 7.3 3.454-2.4 8.21-.85 9.612 3.05l.951 3.3c.951 3.25 2.804 6.15 5.407 8.3 4.355-2.7 10.062-.5 11.464 4.45"/>
            <path stroke="#183D54" stroke-linecap="round" stroke-linejoin="round" stroke-width="2.551" d="M25.882 22.95c-1.702-3-2.153-6.65-.951-10.15.05-.2.15-.4.2-.55"/>
            <path fill="#FFF" fill-rule="nonzero" d="M29.236 26.8l-.901-.75"/>
            <path stroke="#183D54" stroke-linecap="round" stroke-linejoin="round" stroke-width="2.551" d="M29.236 26.8l-.901-.75"/>
            <path fill="#DCE7F2" fill-rule="nonzero" d="M123.052 81.5c-1.452.8-3.104 1.05-4.706.65l-.751-.2-.25.65c-2.353 5.75-8.962 8.6-15.069 6.55-4.856-1.65-8.21-6.1-8.36-11.05v-.6l-.601-.2c-1.302-.45-2.453-1.05-3.454-1.85l-.3-.25c.85-.95 1.551-2.05 2.002-3.25.65.4 1.401.8 2.152 1.1.4 5.05 3.905 9.5 8.911 11.2 6.308 2.15 13.117-.65 15.82-6.35 1.702.25 3.404-.05 4.906-.9 1.001-.6 1.852-1.35 2.453-2.3"/>
            <path stroke="#183D54" stroke-linecap="round" stroke-linejoin="round" stroke-width="2.551" d="M89.36 30.2l-.15-.45c-.751-2.25-2.503-3.85-4.656-4.55.1-1-.05-2.05-.35-3.05-.951-2.9-3.404-4.85-6.358-5.5.25-2.1.1-4.25-.6-6.4C74.691 2.45 66.181-1.7 58.221.85c-7.96 2.6-12.366 11-9.862 18.8.4 1.25.95 2.4 1.652 3.45"/>
            <path fill="#DCE7F2" fill-rule="nonzero" d="M45.055 52.15c2.504-2 4.506-4.75 5.657-8C53.816 35 48.96 25.1 39.8 22c-2.103-.7-4.205-1-6.258-.9 3.104-.9 6.558-.85 9.862.25 8.711 2.95 13.367 12.4 10.413 21.1-1.552 4.45-4.806 7.85-8.76 9.7zM90.662 66.55c-.2-2.25-1.102-4.5-2.604-6.35-4.255-5.25-12.064-6.05-17.421-1.7-1.201 1-2.203 2.15-2.954 3.4.701-2.2 2.003-4.25 3.955-5.8 5.107-4.1 12.516-3.4 16.57 1.65 2.103 2.55 2.904 5.75 2.454 8.8z"/>
        </g>
        <g>
            <path fill="#FFF" fill-rule="nonzero" d="M34.392 39.55c5.557-3.4 7.26-10.65 3.855-16.2-1.452-2.3-3.554-3.95-5.907-4.85.55-3.6-.15-7.4-2.203-10.75C25.481.25 15.62-2.1 8.11 2.55c-7.51 4.65-9.862 14.5-5.206 22 2.302 3.7 5.857 6.15 9.762 7.1.15.5.4 1 .7 1.5 1.152 1.9 3.154 3 5.257 3.1 3.454 5.1 10.413 6.6 15.77 3.3z" transform="translate(46.557 167.5)"/>
            <path fill="#DCE7F2" fill-rule="nonzero" d="M19.224 36.1c-.05-.1-.2-.15-.3-.15-1.703-.15-3.305-1.05-4.306-2.6-.2-.35-.4-.7-.5-1.05-.05-.15-.15-.25-.301-.25-3.254-.85-6.208-2.95-8.11-6-1.402-2.3-2.052-4.85-2.052-7.35 0-.5.7-.6.85-.15.351 1.05.802 2.1 1.402 3.05 1.903 3.1 4.856 5.15 8.11 6 .15.05.25.15.3.25.15.35.301.7.501 1.05.951 1.55 2.553 2.5 4.306 2.6.1 0 .25.05.3.15 3.054 4.25 8.91 5.45 13.416 2.65 1.703-1.05 2.954-2.5 3.755-4.15.2-.4.801-.25.801.2-.05 3.3-1.752 6.5-4.806 8.4-4.455 2.8-10.313 1.55-13.366-2.65z" transform="translate(46.557 167.5)"/>
            <path stroke="#183D54" stroke-linecap="round" stroke-linejoin="round" stroke-width="2.5" d="M39.449 26c1.602 5-.35 10.65-5.057 13.55-5.356 3.3-12.315 1.8-15.87-3.3-2.102-.1-4.054-1.2-5.256-3.1-.3-.45-.5-.95-.7-1.5-3.905-.95-7.46-3.4-9.763-7.1-4.655-7.5-2.302-17.35 5.207-22 0 0 7.81-5.3 15.519.55" transform="translate(46.557 167.5)"/>
        </g>
        <g stroke="#183D54" stroke-linecap="round" stroke-linejoin="round" stroke-width="2.5" transform="translate(76.094 208.5)">
            <path fill="#DCE7F2" d="M75.143 46.65c0-15.75-11.114-34.9-24.881-42.85-6.959-4-13.266-4.35-17.772-1.65h0l-14.568 8h0c-4.606 2.5-7.46 8.05-7.46 16.05 0 15.75 11.115 34.9 24.882 42.85 6.958 4 13.266 4.35 17.771 1.65l14.719-8.1s.05 0 .05-.05l.1-.05h0c4.405-2.55 7.159-8.05 7.159-15.85z"/>
            <ellipse cx="35.358" cy="40.536" fill="#DCE7F2" rx="20.219" ry="35.012" transform="rotate(-30.324 35.359 40.536)"/>
            <ellipse cx="35.358" cy="40.536" fill="#DCE7F2" rx="14.113" ry="24.458" transform="rotate(-30.324 35.359 40.536)"/>
            <ellipse cx="37.843" cy="38.897" fill="#DCE7F2" rx="10.71" ry="20.456" transform="rotate(-28.954 37.843 38.897)"/>
            <path fill="#FFF" d="M43.103 41.55c.2-2.8-1.652-6.65-4.155-8.6-1.452-1.15-2.803-1.35-3.705-.8h0L31.94 34.3h0c-.6.4-1.051 1.15-1.101 2.3-.2 2.8 1.652 6.65 4.155 8.6 1.502 1.2 2.854 1.4 3.805.75h0l3.304-2.15v-.05c.55-.4.901-1.15 1.001-2.2z"/>
            <ellipse cx="35.321" cy="40.109" fill="#FFF" rx="3.553" ry="6.802" transform="rotate(-28.954 35.32 40.11)"/>
        </g>
        <g transform="translate(160.698 281)">
            <path fill="#FFF" fill-rule="nonzero" d="M55.418 25.9c2.804-.55 5.908.95 7.16 3.5 1.3 2.55.65 5.9-1.453 7.85 2.003 2.85 1.752 7.05-.55 9.7-1.052 1.2-2.503 2-4.055 2.35.05 0 .1.05.1.1.1.05.2.15.25.2.851.75 1.352 1.75 1.452 2.9.1 1.1-.3 2.2-1.051 3.05-1.452 1.65-3.955 1.9-5.707.6-.1-.05-.15-.15-.25-.2-.551-.45-.902-1-1.152-1.65-1.402.1-2.854-.3-4.105-1.25-.851-.65-1.502-1.45-1.953-2.35-.55-.1-1.101-.3-1.652-.55-2.753-1.3-4.505-4.5-4.155-7.5-2.653 0-5.256-1.75-6.258-4.2-2.352 1.4-5.707.6-7.208-1.65-2.504 2.75-7.21 3.05-10.063.65-2.803-2.4-3.254-7.15-.85-10-.752-.25-1.453-.6-2.053-1.05-2.453 1.6-5.707 1.65-8.21-.2C.6 23.95-.1 19.7 1.952 16.6c-.8-.7-1.251-1.65-1.301-2.7-.05-1.05.25-2.05.951-2.85 1.151-1.35 3.054-1.7 4.606-1 .1-.5.25-1 .45-1.5 1.252-2.9 4.255-4.95 7.36-5.05 1.801-.05 1.701-.05 3.053-1.2 2.253-1.9 5.607-2.4 8.36-1.2 2.704 1.2 4.656 3.95 4.806 6.9"/>
            <path stroke="#183D54" stroke-linecap="round" stroke-linejoin="round" stroke-width=".834" d="M55.418 25.9c2.804-.55 5.908.95 7.16 3.5 1.3 2.55.65 5.9-1.453 7.85 2.003 2.85 1.752 7.05-.55 9.7-1.052 1.2-2.503 2-4.055 2.35.05 0 .1.05.1.1.1.05.2.15.25.2.851.75 1.352 1.75 1.452 2.9.1 1.1-.3 2.2-1.051 3.05-1.452 1.65-3.955 1.9-5.707.6-.1-.05-.15-.15-.25-.2-.551-.45-.902-1-1.152-1.65-1.402.1-2.854-.3-4.105-1.25-.851-.65-1.502-1.45-1.953-2.35-.55-.1-1.101-.3-1.652-.55-2.753-1.3-4.505-4.5-4.155-7.5-2.653 0-5.256-1.75-6.258-4.2-2.352 1.4-5.707.6-7.208-1.65-2.504 2.75-7.21 3.05-10.063.65-2.803-2.4-3.254-7.15-.85-10-.752-.25-1.453-.6-2.053-1.05-2.453 1.6-5.707 1.65-8.21-.2C.6 23.95-.1 19.7 1.952 16.6c-.8-.7-1.251-1.65-1.301-2.7-.05-1.05.25-2.05.951-2.85 1.151-1.35 3.054-1.7 4.606-1 .1-.5.25-1 .45-1.5 1.252-2.9 4.255-4.95 7.36-5.05 1.801-.05 1.701-.05 3.053-1.2C18.873.8 21.376.2 23.679.6"/>
            <path fill="#DCE7F2" fill-rule="nonzero" d="M44.505 49.95l-.1-.2-.25-.05c-.501-.1-1.002-.3-1.502-.5-.35-.15-.701-.4-1.002-.6-1.952-1.45-3.053-3.85-2.853-6.1.55 1.1 1.351 2.1 2.353 2.85.35.25.7.5 1.101.65.45.2.901.4 1.352.5.45.8 1.051 1.55 1.852 2.1 1.051.8 2.353 1.25 3.705 1.25.25.5.6.95 1.05 1.35.101.1.201.15.301.25 1.802 1.35 4.306 1.1 5.707-.5.2-.2.35-.45.5-.65.401.55.652 1.2.702 1.85.1.95-.2 1.85-.851 2.55-1.202 1.35-3.354 1.55-4.856.45-.1-.05-.15-.1-.25-.2-.451-.4-.802-.85-1.002-1.4l-.15-.3h-.35c-1.302.05-2.604-.35-3.705-1.15-.751-.6-1.352-1.35-1.752-2.15zM3.154 17l.2-.3-.3-.25c-.651-.6-1.102-1.4-1.152-2.25-.1-.9.2-1.7.751-2.4.35-.4.801-.7 1.352-.9-.2.55-.3 1.15-.25 1.75.1.9.45 1.75 1.101 2.45-1.702 2.95-.851 6.75 2.002 8.9 2.253 1.7 5.307 1.85 7.66.5.35.25.75.45 1.151.6-.4.6-.65 1.2-.8 1.9l-.2-.05c-.652-.2-1.252-.55-1.853-.95l-.25-.2-.25.15c-2.204 1.45-5.207 1.3-7.41-.3-2.803-2.1-3.554-5.85-1.752-8.65zm12.665 19.6c-2.453-2.1-2.953-6.15-1.15-8.65-.251 2.25.6 4.65 2.402 6.2.1.1.25.2.35.3 2.654 1.95 6.609 1.8 8.911-.35.25.3.551.55.851.8 1.602 1.2 3.805 1.45 5.507.75.45.85 1.152 1.65 2.003 2.3 1.051.75 2.202 1.25 3.454 1.35 0 .9.15 1.75.45 2.6h-.2c-1.251 0-2.553-.5-3.654-1.3-.901-.7-1.602-1.55-2.053-2.55l-.2-.5-.45.25c-1.552.9-3.755.7-5.307-.45-.4-.3-.751-.7-1.051-1.1l-.35-.5-.401.45c-2.103 2.3-6.108 2.6-8.711.65-.2-.1-.3-.2-.4-.25zM18.323 23.85c1.05-.6 2.302-.9 3.604-.8 3.604.25 6.308 3.45 6.057 7.1-.05.85-.25 1.6-.6 2.35.75-.95 1.251-2.15 1.351-3.5.25-3.5-2.302-6.55-5.757-6.8-1.752-.1-3.454.5-4.655 1.65z"/>
            <ellipse cx="33.391" cy="51.5" fill="#FFF" fill-rule="nonzero" rx="1.852" ry="1.85"/>
            <path stroke="#183D54" stroke-linecap="round" stroke-linejoin="round" stroke-width=".834" d="M35.243 51.5c0 1.05-.85 1.85-1.852 1.85-1.051 0-1.852-.85-1.852-1.85 0-1.05.85-1.85 1.852-1.85 1.001 0 1.852.85 1.852 1.85z"/>
            <path fill="#FFF" fill-rule="nonzero" d="M23.83.55c-2.303-.4-4.807.2-6.609 1.7-1.402 1.15-1.301 1.15-3.054 1.2-3.153.1-6.157 2.2-7.359 5.05-.2.5-.35 1-.45 1.5-1.552-.7-3.454-.35-4.606 1-.7.8-1.051 1.8-.951 2.85.05 1.05.55 2 1.302 2.7C.05 19.7.75 23.9 3.805 26.15c2.503 1.85 5.757 1.8 8.21.2.6.45 1.301.8 2.052 1.05-2.353 2.85-1.952 7.6.851 10 2.804 2.4 7.56 2.1 10.063-.65 1.502 2.25 4.856 3.05 7.209 1.65 1 2.45 3.604 4.2 6.257 4.2-.35 3.05 1.402 6.2 4.155 7.5.501.25 1.052.45 1.653.55.45.9 1.1 1.75 1.952 2.35 1.251.9 2.703 1.3 4.105 1.25.25.6.6 1.15 1.151 1.65l.05.05c1.552 1.3 3.855 1.35 5.407.05 1.051-.9 1.602-2.2 1.502-3.55-.1-1.1-.6-2.15-1.452-2.9-.1-.1-.15-.15-.25-.2-.05-.05-.1-.05-.1-.1 1.552-.4 3.003-1.2 4.055-2.35 2.303-2.6 2.553-6.85.55-9.7 2.103-1.95 2.704-5.3 1.452-7.85-1.301-2.55-4.355-4.05-7.159-3.5v-.25C57.02 11.45 40.75 2.5 29.586 11.3c.851-1.6 1.002-3.45.551-5.15"/>
            <path fill="#DCE7F2" fill-rule="nonzero" d="M44.204 50.95l-.1-.2-.25-.05c-.5-.1-1.051-.3-1.552-.5-.35-.2-.7-.4-1.051-.65-2.003-1.5-3.154-3.95-2.954-6.3.55 1.15 1.402 2.2 2.453 2.95.35.25.751.5 1.152.7.45.2.9.4 1.401.5.45.85 1.102 1.6 1.903 2.2 1.101.8 2.453 1.3 3.804 1.3.25.5.651 1 1.052 1.35.1.1.2.15.3.25 1.852 1.35 4.456 1.15 5.907-.55.2-.2.35-.45.5-.7.401.55.652 1.2.702 1.9.1 1-.2 1.9-.851 2.65-1.252 1.4-3.455 1.6-5.006.45-.1-.05-.15-.15-.25-.2-.451-.4-.802-.9-1.052-1.45l-.15-.3h-.35c-1.352.05-2.704-.35-3.805-1.2-.751-.5-1.402-1.3-1.803-2.15zM1.502 17l.2-.35-.3-.3C.7 15.75.3 14.9.2 14c-.1-.9.2-1.8.801-2.45.35-.4.851-.75 1.402-.9-.25.55-.3 1.2-.25 1.85.1.95.5 1.8 1.151 2.5-1.752 3.05-.851 7 2.103 9.15 2.353 1.75 5.456 1.9 7.91.5.4.25.75.45 1.15.65-.4.6-.7 1.25-.85 1.95l-.2-.05c-.651-.2-1.302-.55-1.903-1l-.25-.2-.3.2c-2.303 1.5-5.357 1.35-7.66-.3C.4 23.75-.35 19.85 1.502 17zm13.116 20.2c-2.553-2.15-3.054-6.35-1.201-8.95-.25 2.35.6 4.8 2.453 6.4.1.1.25.2.35.3 2.753 2.05 6.808 1.85 9.211-.35.25.3.551.55.901.8 1.652 1.25 3.905 1.5 5.657.75.501.9 1.202 1.7 2.053 2.35 1.051.8 2.303 1.25 3.554 1.4 0 .9.15 1.85.5 2.7h-.2c-1.3 0-2.653-.5-3.754-1.35-.951-.7-1.702-1.6-2.103-2.6l-.2-.5-.45.25c-1.602.9-3.855.7-5.507-.5-.45-.3-.801-.7-1.101-1.1l-.35-.5-.401.45c-2.153 2.4-6.308 2.7-9.012.7-.2-.1-.3-.15-.4-.25z"/>
            <path stroke="#183D54" stroke-linecap="round" stroke-linejoin="round" stroke-width="2.5" d="M23.83.55c-2.303-.4-4.807.2-6.609 1.7-1.402 1.15-1.301 1.15-3.054 1.2-3.153.1-6.157 2.2-7.359 5.05-.2.5-.35 1-.45 1.5-1.552-.7-3.454-.35-4.606 1-.7.8-1.051 1.8-.951 2.85.05 1.05.55 2 1.302 2.7C.05 19.7.75 23.9 3.805 26.15c2.503 1.85 5.757 1.8 8.21.2.6.45 1.301.8 2.052 1.05-2.353 2.85-1.952 7.6.851 10 2.804 2.4 7.56 2.1 10.063-.65 1.502 2.25 4.856 3.05 7.209 1.65 1 2.45 3.604 4.2 6.257 4.2-.35 3.05 1.402 6.2 4.155 7.5.501.25 1.052.45 1.653.55.45.9 1.1 1.75 1.952 2.35 1.251.9 2.703 1.3 4.105 1.25.25.6.6 1.15 1.151 1.65l.05.05c1.552 1.3 3.855 1.35 5.407.05 1.051-.9 1.602-2.2 1.502-3.55-.1-1.1-.6-2.15-1.452-2.9-.1-.1-.15-.15-.25-.2-.05-.05-.1-.05-.1-.1 1.552-.4 3.003-1.2 4.055-2.35 2.303-2.6 2.553-6.85.55-9.7 2.103-1.95 2.704-5.3 1.452-7.85-1.251-2.55-4.355-4.05-7.159-3.5v-.25C57.02 11.45 40.75 2.5 29.586 11.3c.851-1.6 1.002-3.45.551-5.15"/>
            <path fill="#DCE7F2" fill-rule="nonzero" d="M18.323 23.85c1.05-.6 2.302-.9 3.604-.8 3.604.25 6.308 3.45 6.057 7.1-.05.85-.25 1.6-.6 2.35.75-.95 1.251-2.15 1.351-3.5.25-3.5-2.302-6.55-5.757-6.8-1.752-.1-3.454.5-4.655 1.65z"/>
            <ellipse cx="33.391" cy="51.5" fill="#FFF" fill-rule="nonzero" rx="1.852" ry="1.85"/>
            <path fill="#183D54" fill-rule="nonzero" d="M33.391 49.65c1.051 0 1.852.85 1.852 1.85 0 1.05-.85 1.85-1.852 1.85-1.051 0-1.852-.85-1.852-1.85-.05-1 .8-1.85 1.852-1.85m0-2.5c-2.403 0-4.355 1.95-4.355 4.35 0 2.4 1.952 4.35 4.355 4.35 2.403 0 4.355-1.95 4.355-4.35 0-2.4-1.952-4.35-4.355-4.35z"/>
        </g>
        <g stroke="#183D54" stroke-linecap="round" stroke-linejoin="round" stroke-width="2.5" transform="translate(185.228 270.5)">
            <path fill="#DCE7F2" d="M75.092 46.9c0-15.75-11.113-34.9-24.88-42.85C43.253.05 36.945-.3 32.44 2.4h0l-14.568 8h0c-4.606 2.5-7.46 8.05-7.46 16.05 0 15.75 11.115 34.9 24.881 42.85 6.959 4 13.267 4.35 17.772 1.65l14.718-8.1s.05 0 .05-.05l.1-.05h0c4.406-2.6 7.16-8.05 7.16-15.85z"/>
            <ellipse cx="35.29" cy="40.74" fill="#DCE7F2" rx="20.219" ry="35.012" transform="rotate(-30.324 35.29 40.74)"/>
            <ellipse cx="35.29" cy="40.74" fill="#DCE7F2" rx="14.113" ry="24.458" transform="rotate(-30.324 35.29 40.74)"/>
            <ellipse cx="37.772" cy="39.11" fill="#DCE7F2" rx="10.71" ry="20.456" transform="rotate(-28.954 37.772 39.11)"/>
            <path fill="#FFF" d="M43.053 41.8c.2-2.8-1.652-6.65-4.155-8.6-1.452-1.15-2.804-1.35-3.705-.8h0l-3.304 2.15h0c-.6.4-1.051 1.15-1.101 2.3-.2 2.8 1.652 6.65 4.155 8.6 1.502 1.2 2.854 1.4 3.805.75h0l3.304-2.15V44c.55-.4.9-1.15 1.001-2.2z"/>
            <ellipse cx="35.274" cy="40.366" fill="#FFF" rx="3.553" ry="6.802" transform="rotate(-28.954 35.274 40.366)"/>
        </g>
        <path fill="#FFF" stroke="#183D54" stroke-linecap="round" stroke-linejoin="round" stroke-width="2.5" d="M351.132 239.5l-21.025-11.95-65.531 58.05 8.46 59.35 87.858-48.1.4-40.6c-.3-6.95-4.104-13.3-10.162-16.75z"/>
        <g>
            <path fill="#FFF" fill-rule="nonzero" d="M33.942 39.85c5.557-3.4 7.259-10.65 3.855-16.2-1.452-2.3-3.555-3.95-5.908-4.85.551-3.6-.15-7.4-2.202-10.75C25.03.55 15.169-1.8 7.659 2.85c-7.509 4.65-9.862 14.5-5.206 22 2.303 3.7 5.857 6.15 9.762 7.1.15.5.4 1 .7 1.5 1.152 1.9 3.155 3 5.257 3.1 3.455 5.1 10.413 6.6 15.77 3.3z" transform="translate(111.637 206.5)"/>
            <path fill="#DCE7F2" fill-rule="nonzero" d="M18.773 36.4c-.05-.1-.2-.15-.3-.15-1.702-.15-3.304-1.05-4.306-2.6-.2-.35-.4-.7-.5-1.05-.05-.15-.15-.25-.3-.25-3.255-.85-6.208-2.95-8.11-6-1.402-2.3-2.053-4.85-2.053-7.35 0-.5.7-.6.851-.15.35 1.05.801 2.1 1.402 3.05 1.902 3.1 4.856 5.15 8.11 6 .15.05.25.15.3.25.15.35.3.7.5 1.05.952 1.55 2.554 2.5 4.306 2.6.1 0 .25.05.3.15 3.054 4.25 8.911 5.45 13.417 2.65 1.702-1.05 2.954-2.5 3.755-4.15.2-.4.8-.25.8.2-.05 3.3-1.752 6.5-4.805 8.4-4.456 2.75-10.313 1.55-13.367-2.65z" transform="translate(111.637 206.5)"/>
            <path stroke="#183D54" stroke-linecap="round" stroke-linejoin="round" stroke-width="2.5" d="M7.61 2.85c-7.51 4.65-9.863 14.5-5.207 22 2.303 3.7 5.857 6.15 9.762 7.1.15.5.4 1 .7 1.5 1.152 1.9 3.155 3 5.257 3.1 3.555 5.1 10.513 6.6 15.87 3.3 4.706-2.9 6.658-8.55 5.056-13.55" transform="translate(111.637 206.5)"/>
        </g>
        <g transform="translate(74.592 202.5)">
            <ellipse cx="15.018" cy="14.65" fill="#FFF" fill-rule="nonzero" rx="14.568" ry="14.55"/>
            <path stroke="#183D54" stroke-linecap="round" stroke-linejoin="round" stroke-width="2.5" d="M.5 14.05C-.6 6.1 7.61-.2 15.67.15c8.01.35 14.267 7.1 13.916 15.15-.35 8-7.108 14.25-15.168 13.9 0 0-11.765.8-13.917-15.15z"/>
            <path stroke="#183D54" stroke-linecap="round" stroke-linejoin="round" stroke-width="2.551" d="M7.56 27.15c-.952-.55-1.803-1.25-2.604-2"/>
        </g>
        <path fill="#FFF" stroke="#183D54" stroke-linecap="round" stroke-linejoin="round" stroke-width="2.5" d="M248.406 184.6l2.703 8.2 13.417 92.75c4.605 5.2 8.46 12.4 8.46 19.35v40l-22.277-12.85c.2-1.5.3-3.15.3-4.85 0-18.8-13.316-41.75-29.736-51.2-16.42-9.45-29.737-1.9-29.737 16.95 0 1.7.1 3.4.3 5.15l-26.983-15.55-23.429-13.95c.1-1.15.15-2.3.15-3.55 0-18.55-13.116-41.15-29.286-50.45-16.17-9.35-29.286-1.85-29.286 16.7 0 1.2.05 2.45.2 3.75l-11.964-6.35V95.85"/>
        <path fill="#FFF" stroke="#183D54" stroke-linecap="round" stroke-linejoin="round" stroke-width="2.5" d="M350.682 238.75l-9.612-79.4c-1.001-8.1-6.057-15.15-13.467-18.7L170.66 54.85c-2.453-1.15-5.306-1.15-7.71.05L71.289 95.85l166.004 92.95c9.011 5.1 15.019 14.1 16.27 24.35l10.964 72.45 86.156-46.85z"/>
        <path fill="#DCE7F2" stroke="#183D54" stroke-linecap="round" stroke-linejoin="round" stroke-width="2.5" d="M342.472 218.45l-5.507-49.9c-.45-3.55-4.355-5.5-7.41-3.7l-67.232 36.1c-1.702 1-2.703 2.9-2.453 4.9l8.66 49.55c.451 3.55 4.356 5.5 7.41 3.7l64.079-35.75c1.752-1 2.703-2.9 2.453-4.9zM219.57 233.75l27.534 15.9c1.652.95 3.655-.35 3.455-2.25l-2.253-26.75c-1.152-10.5-7.21-19.8-16.37-25.1l-37.547-21.7c-2.903-1.7-6.558.4-6.558 3.75v37.75l20.425 11.8M135.217 185.5l30.087 17.4c1.802 1.05 4.005-.4 3.754-2.45l.55-31.15c0-2.75 1.052-7.9-5.956-12.05l-56.02-30.85c-3.153-1.85-7.158 2.25-7.158 5.9v33.15l22.327 12.9"/>
        <path fill="#FFF" stroke="#183D54" stroke-linecap="round" stroke-linejoin="round" stroke-width="2.5" d="M186.68 224.9L201.048 232.65"/>
        <path fill="#DCE7F2" fill-rule="nonzero" d="M293.962 152.9L154.49 78.25c-4.906-2.7-14.167-11.75-14.167-11.75l-24.33 10.85 16.07 7.45s-4.706 14.15 6.558 22.35l115.943 63.95c11.914 6.15 47.808 4.35 39.648-17.55l-.25-.65z"/>
        <g fill-rule="nonzero" stroke="#183D54" stroke-linecap="round" stroke-linejoin="round" stroke-width="2.5">
            <g>
                <path fill="#FFF" d="M64.83 159.7l-44.405-25.3c-2.002-1.15-3.604-3.9-3.604-6.2V8.95c0-2.95-2.053-6.5-4.606-7.95h0C11.114.4 10.163.25 9.362.5h0l-.05.05c-.2.05-.401.2-.601.3l-7.009 3.8C.651 5.05 0 6.1 0 7.8v121.65c0 4.4 3.104 9.75 6.959 11.95l55.168 31.55 7.609-4.1-4.906-9.15z" transform="translate(298.367 175) translate(37.546)"/>
                <path fill="#DCE7F2" d="M57.27 163.8l-44.404-25.3c-2.003-1.15-3.605-3.9-3.605-6.2V13.05c0-2.95-2.052-6.5-4.605-7.95h0C2.103 3.65.05 4.8.05 7.75V129.4c0 4.4 3.104 9.75 6.959 11.95l55.168 31.55-4.906-9.1z" transform="translate(298.367 175) translate(37.546)"/>
                <path fill="#FFF" d="M57.271 163.8L64.83 159.7" transform="translate(298.367 175) translate(37.546)"/>
            </g>
            <path fill="#DCE7F2" d="M38.197 119.55l-15.72-9.05c-.75-.4-.45-1.45.601-2.3l.651-.55c1.052-.85 2.503-1.2 3.254-.8l15.72 9.05-4.506 3.65zM13.867 106.55L10.313 86.6 37.546 71.8 46.808 78.65 46.808 87.95z" transform="translate(298.367 175)"/>
            <path fill="#FFF" d="M15.669 96.1L46.808 78.65" transform="translate(298.367 175)"/>
            <path fill="#DCE7F2" d="M13.817 138.05L13.817 129.75 13.917 122.6 37.797 111.45 44.505 112.8 44.505 122.05z" transform="translate(298.367 175)"/>
            <path fill="#FFF" d="M15.018 126.8L44.004 112.9" transform="translate(298.367 175)"/>
            <g fill="#FFF">
                <path d="M64.88 159.75L20.475 134.5c-2.002-1.15-3.604-3.9-3.604-6.2V9c0-2.95-2.053-6.5-4.606-7.95h0C11.164.45 10.213.3 9.412.55h0l-.05.05c-.2.05-.401.2-.601.3L1.752 4.7C.701 5.1.05 6.15.05 7.85V129.5c0 4.4 3.104 9.75 6.959 11.95L62.177 173l7.609-4.1-4.906-9.15z" transform="translate(298.367 175) translate(0 24)"/>
                <path d="M9.311 108.15l-.05-95.1c0-2.95-2.052-6.5-4.605-7.95h0C2.103 3.65.05 4.8.05 7.75V129.4c0 4.4 3.104 9.75 6.959 11.95l55.168 31.55-4.856-9.05-44.405-25.3c-2.003-1.15-3.605-3.9-3.605-6.2v-25.6M9.311 91.4L9.311 89.9M57.271 163.85L64.88 159.75" transform="translate(298.367 175) translate(0 24)"/>
            </g>
        </g>
        <path fill="#FFF" stroke="#183D54" stroke-linecap="round" stroke-linejoin="round" stroke-width="2.5" d="M137.27 222.25l-55.57-33.5c-2.703-1.55-2.352-4.3.752-6.1l14.317-8.25 65.43 39.15-14.317 8.25c-3.104 1.8-7.86 2-10.613.45zM92.214 183.95L142.325 214.15"/>
        <ellipse cx="286.975" cy="319.288" fill="#FFF" stroke="#183D54" stroke-linecap="round" stroke-linejoin="round" stroke-width="2.5" rx="10.1" ry="5.957" transform="rotate(-85.747 286.975 319.288)"/>
        <path fill="#DCE7F2" fill-rule="nonzero" d="M93.015 132.7L109.585 142.45 131.512 129.9 114.091 119.8zM124.603 150.9L141.174 160.65 163.201 148.35 145.98 138.2z"/>
        <path fill="#FFF" fill-rule="nonzero" d="M141.324 160.8L157.894 170.5 179.922 158.2 162.65 148.05zM108.834 141.6L125.404 151.3 147.432 139 130.16 128.85z"/>
        <path stroke="#183D54" stroke-linecap="round" stroke-linejoin="round" stroke-width="2.5" d="M77.345 124.2L99.072 111.3 180.923 157.05 156.443 170.9"/>
        <g fill="#FFF">
            <path d="M2.904 11.75L77.746 56.65 77.996 62.15 70.737 60.8 49.261 48.3 7.609 23.15z" transform="translate(77.095 124)"/>
            <path stroke="#183D54" stroke-linecap="round" stroke-linejoin="round" stroke-width="2.5" d="M0.25 12.55L0.25 0.2 79.398 46.2 79.398 59.3" transform="translate(77.095 124)"/>
            <path stroke="#183D54" stroke-linecap="round" stroke-linejoin="round" stroke-width="2.5" d="M11.464 25.6c-1.151 1.05-2.553 1.7-4.005 1.7C3.504 27.3.25 22.9.25 17.45V7.6M22.828 32.15c-1.151 1.05-2.553 1.7-4.005 1.7-3.955 0-7.209-4.4-7.209-9.85" transform="translate(77.095 124)"/>
            <path stroke="#183D54" stroke-linecap="round" stroke-linejoin="round" stroke-width="2.5" d="M33.691 38.15c-1.15 1.05-2.553 1.7-4.004 1.7-3.955 0-7.21-4.4-7.21-9.85M45.005 44.15c-1.151 1.05-2.553 1.7-4.005 1.7-3.954 0-7.208-4.4-7.208-9.85" transform="translate(77.095 124)"/>
            <path stroke="#183D54" stroke-linecap="round" stroke-linejoin="round" stroke-width="2.5" d="M56.22 51.4c-1.152 1.05-2.554 1.7-4.006 1.7-3.955 0-7.209-4.4-7.209-9.85M67.483 58c-1.151 1.05-2.553 1.7-4.005 1.7-3.955 0-7.209-4.4-7.209-9.85" transform="translate(77.095 124)"/>
            <path stroke="#183D54" stroke-linecap="round" stroke-linejoin="round" stroke-width="2.5" d="M79.398 57.1c.3 5.1-1.352 6.75-1.352 6.75-1.151 1.05-2.503 1.65-3.955 1.65-3.955 0-7.209-4.4-7.209-9.85" transform="translate(77.095 124)"/>
        </g>
        <path fill="#DCE7F2" stroke="#183D54" stroke-linecap="round" stroke-linejoin="round" stroke-width="2.5" d="M257.467 189.9L324.75 154.1M92.764 132.3L114.341 120.25M108.634 142.4L131.312 129.7"/>
        <path fill="#DCE7F2" stroke="#183D54" stroke-linecap="round" stroke-linejoin="round" stroke-width="2.712" d="M124.804 150.65L146.38 138.6M141.775 160.1L163.351 148.05"/>
        <g>
            <path fill="#F9D093" stroke="#183D54" stroke-linecap="round" stroke-linejoin="round" stroke-width="2.5" d="M43.153 72.05l-41.15-23.2C1 48.3.2 47.95.2 46.3V29.35c0-1.65.901-2.2 1.903-2.65l2.453-.95s.7-.25 1.151-.05c.45.25 38.798 21.05 38.798 21.05" transform="translate(117.645)"/>
            <path fill="#DCE7F2" stroke="#183D54" stroke-linecap="round" stroke-linejoin="round" stroke-width="2.5" d="M139.972 158.65c22.028 10.6 43.003-5.5 44.655-33.4 2.654-44.1-17.421-56.7-38.747-68.4 0 0-96.97-55.45-98.872-56.4-1.902-.95-4.706.15-4.706.15L32.04 4.65C27.884 6.5 24.08 8.8 24.08 15.7v70.25c0 7.05 3.355 8.3 7.46 10.7l108.433 62z" transform="translate(117.645)"/>
            <path fill="#35D0BA" fill-rule="nonzero" d="M31.489 96.65l82.652-56.6L45.156.4l-.952.75-21.126 8.1L24.08 89.8c0 .05.35 5.9 7.409 6.85z" transform="translate(117.645)"/>
            <path fill="#FFCD3C" fill-rule="nonzero" d="M31.99 97.15L93.464 53c1.051-.75 2.053-1.55 3.004-2.4.75-.65 16.12-11.3 16.12-11.3l47.408 24.35 14.167 12.85s-29.286 15-33.841 19.05c-10.663 9.5-48.06 36.2-48.06 36.2L31.99 97.15z" transform="translate(117.645)"/>
            <path fill="#F3807B" fill-rule="nonzero" d="M91.613 131l47.558 27.5s23.28 11.75 38.197-12.65c14.919-24.4 7.86-56.85-8.16-73.35L91.613 131z" transform="translate(117.645)"/>
            <path stroke="#183D54" stroke-linecap="round" stroke-linejoin="round" stroke-width="2.5" d="M31.238 13.5L118.045 63.25" transform="translate(117.645)"/>
            <path fill="#DCE7F2" stroke="#183D54" stroke-linecap="round" stroke-linejoin="round" stroke-width="2.5" d="M0.851 28.35L14.818 35.9" transform="translate(117.645)"/>
            <path stroke="#183D54" stroke-linecap="round" stroke-linejoin="round" stroke-width="2.5" d="M139.972 158.65c22.028 10.6 43.003-5.5 44.655-33.4 2.654-44.1-17.421-56.7-38.747-68.4 0 0-96.97-55.45-98.872-56.4-1.902-.95-4.706.15-4.706.15L32.04 4.65C27.884 6.5 24.08 8.8 24.08 15.7v70.25c0 7.05 3.355 8.3 7.46 10.7l108.433 62z" transform="translate(117.645)"/>
        </g>
        <path fill="#DCE7F2" stroke="#183D54" stroke-linecap="round" stroke-linejoin="round" stroke-width="2.5" d="M243.5 262.2h0c-5.056 1.25-9.111-2.25-9.061-7.75l.15-16.7c.05-5.55 4.205-11.1 9.261-12.35h0c5.057-1.25 9.112 2.25 9.061 7.75l-.15 16.7c-.05 5.55-4.205 11.1-9.261 12.35z"/>
        <path fill="#DCE7F2" stroke="#183D54" stroke-linecap="round" stroke-linejoin="round" stroke-width="2.5" d="M245.853 253.65h0c-2.303.55-4.155-1.05-4.105-3.6l.15-7.6c.05-2.5 1.952-5 4.255-5.55h0c2.303-.55 4.155 1.05 4.105 3.6l-.15 7.6c0 2.5-1.952 5-4.255 5.55z"/>
        <path stroke="#183D54" stroke-linecap="round" stroke-linejoin="round" stroke-width="2.5" d="M286.753 138.5c0 12.7-9.111 23.05-20.325 23.05"/>
        <path fill="#FFF" stroke="#183D54" stroke-linecap="round" stroke-linejoin="round" stroke-width="2.5" d="M91.112 132.3L91.112 139.35M108.834 143.2L108.834 148.55M124.603 151.45L124.603 156.75"/>
        <path fill="#FFF" stroke="#183D54" stroke-linecap="round" stroke-linejoin="round" stroke-width="2.712" d="M140.873 161.55L140.873 166.85"/>
        <g fill-rule="nonzero">
            <path fill="#FFF" d="M14.918 22.05c-1.902 0-3.704-.85-4.906-2.25-1.101-.2-2.102-.9-2.703-1.85-.05-.1-.1-.2-.15-.25-1.852-.6-3.404-1.8-4.456-3.45C1.552 12.4 1.151 10.15 1.652 8c.5-2.15 1.802-4 3.655-5.15C6.608 2 8.16 1.6 9.712 1.6c2.853 0 5.507 1.45 7.009 3.85.85 1.4 1.301 3 1.251 4.6.951.5 1.752 1.25 2.353 2.2.901 1.45 1.202 3.15.801 4.85-.4 1.65-1.402 3.1-2.853 4-.952.6-2.153.95-3.355.95z" transform="translate(186.73 295.5)"/>
            <path fill="#183D54" d="M9.762 2.85c2.353 0 4.606 1.15 5.957 3.3.901 1.45 1.202 3.1 1.002 4.7 1.05.4 1.952 1.1 2.603 2.1 1.502 2.4.8 5.6-1.652 7.1-.851.55-1.802.8-2.754.8-1.652 0-3.204-.75-4.205-2.2-.9-.05-1.802-.5-2.303-1.35-.15-.2-.25-.45-.3-.65-1.702-.4-3.304-1.45-4.305-3.1-2.053-3.3-1.052-7.6 2.202-9.65C7.21 3.2 8.46 2.85 9.762 2.85m0-2.5C7.96.35 6.208.85 4.706 1.8 2.553 3.15 1.05 5.25.5 7.75c-.551 2.45-.15 5 1.201 7.15 1.101 1.75 2.753 3.1 4.656 3.8.7 1.1 1.802 1.85 3.054 2.2 1.451 1.5 3.454 2.4 5.556 2.4 1.452 0 2.854-.4 4.055-1.15 1.753-1.1 2.954-2.8 3.405-4.75.45-2 .1-4.05-.952-5.8-.55-.9-1.301-1.65-2.152-2.25-.1-1.6-.55-3.15-1.452-4.55C16.07 2 13.066.35 9.762.35z" transform="translate(186.73 295.5)"/>
            <path fill="#DCE7F2" d="M10.913 18c-.05-.05-.1-.05-.15-.1-.75-.05-1.452-.45-1.902-1.15-.1-.15-.15-.3-.25-.45 0-.05-.05-.1-.15-.1-1.452-.35-2.704-1.25-3.555-2.6-.65-1-.901-2.1-.901-3.2 0-.2.3-.25.35-.05.15.45.35.9.651 1.35.851 1.35 2.153 2.25 3.555 2.6.05 0 .1.05.15.1.05.15.15.3.25.45.45.7 1.151 1.1 1.902 1.15.05 0 .1.05.15.1 1.352 1.85 3.905 2.35 5.908 1.1.75-.45 1.301-1.1 1.652-1.85.1-.2.35-.1.35.1 0 1.45-.75 2.85-2.052 3.7-2.053 1.2-4.606.7-5.958-1.15z" transform="translate(186.73 295.5)"/>
        </g>
        <path stroke="#183D54" stroke-linecap="round" stroke-linejoin="round" stroke-width="2.5" d="M194.039 64.85L203.901 57.9M176.267 77.45L187.231 69.7M149.134 96.65L176.267 77.45M209.408 131.15L257.467 94.95M265.427 77.45l1.502 1c8.21 5.5 13.867 14 15.77 23.7h0"/>
        <g fill-rule="nonzero" stroke="#183D54" stroke-linecap="round" stroke-linejoin="round" stroke-width="2.5">
            <path fill="#35D0BA" d="M.3 26.75c-.15-1.85.851-3.6 3.104-4.9l34.192-19.7C42.202-.5 50.312-.2 55.67 2.9l31.288 18.05c2.904 1.7 4.406 3.85 4.406 5.85h0v15h0c.1 1.75-.952 3.45-3.104 4.7L54.067 66.25C49.46 68.9 41.35 68.6 35.994 65.5L4.706 47.45C1.602 45.65.1 43.35.3 41.2V26.75z" transform="translate(307.379 291)"/>
            <path fill="#FFF" d="M26.633 44.9l9.361 5.4c5.357 3.1 13.417 3.4 18.073.75l34.192-19.7c4.605-2.65 4.055-7.35-1.302-10.4L55.67 2.9C50.312-.2 42.252-.5 37.596 2.15L3.404 21.85C-1.2 24.5-.65 29.2 4.706 32.25l15.569 9" transform="translate(307.379 291)"/>
        </g>
        <g fill-rule="nonzero" stroke="#183D54" stroke-linecap="round" stroke-linejoin="round" stroke-width="2.5">
            <path fill="#FFCD3C" d="M.3 26.45c-.15-1.85.851-3.6 3.104-4.9l34.192-19.7C42.202-.8 50.312-.5 55.67 2.6l31.288 18.05c2.904 1.7 4.406 3.85 4.406 5.85h0v15h0c.1 1.75-.952 3.45-3.104 4.7L54.067 65.9c-4.606 2.65-12.716 2.35-18.073-.75L4.706 47.1C1.602 45.3.1 43 .3 40.85v-14.4z" transform="translate(307.379 276.5)"/>
            <path fill="#FFF" d="M26.633 44.6l9.361 5.4c5.357 3.1 13.417 3.4 18.073.75l34.192-19.7c4.605-2.65 4.055-7.35-1.302-10.4L55.67 2.6C50.312-.5 42.252-.8 37.596 1.85L3.404 21.55C-1.2 24.2-.65 28.9 4.706 31.95l15.569 9" transform="translate(307.379 276.5)"/>
        </g>
        <g fill-rule="nonzero" stroke="#183D54" stroke-linecap="round" stroke-linejoin="round" stroke-width="2.5">
            <path fill="#F3807B" d="M.3 26.7c-.15-1.85.851-3.6 3.104-4.9L37.596 2.1c4.606-2.65 12.716-2.35 18.073.75L86.957 20.9c2.904 1.7 4.406 3.85 4.406 5.85h0v15h0c.1 1.75-.952 3.45-3.104 4.7l-34.192 19.7C49.46 68.8 41.35 68.5 35.994 65.4L4.706 47.35C1.602 45.55.1 43.25.3 41.1V26.7z" transform="translate(307.379 261)"/>
            <path fill="#EFA0A0" d="M26.633 44.8l9.361 5.4c5.357 3.1 13.417 3.4 18.073.75l34.192-19.7c4.605-2.65 4.055-7.35-1.302-10.4L55.67 2.8C50.312-.3 42.252-.6 37.596 2.05L3.404 21.75C-1.2 24.4-.65 29.1 4.706 32.15l15.569 9" transform="translate(307.379 261)"/>
        </g>
    </g>
</svg>
