<?xml version="1.0" encoding="UTF-8"?>
<svg width="555px" height="320px" viewBox="0 0 555 320" version="1.1" xmlns="http://www.w3.org/2000/svg" xmlns:xlink="http://www.w3.org/1999/xlink">
    <title>Group 20</title>
    <defs>
        <polygon id="path-1" points="0 0.0714972189 70.9223953 0.0714972189 70.9223953 16.6367137 0 16.6367137"></polygon>
        <polygon id="path-3" points="0.684680894 0.501047269 13.823326 0.501047269 13.823326 15.2647973 0.684680894 15.2647973"></polygon>
        <polygon id="path-5" points="0 33.2142857 233.634112 33.2142857 233.634112 0.360472689 0 0.360472689"></polygon>
        <polygon id="path-7" points="0 0.000503612458 207.497268 0.000503612458 207.497268 30.3669455 0 30.3669455"></polygon>
    </defs>
    <g id="Visual-Design" stroke="none" stroke-width="1" fill="none" fill-rule="evenodd">
        <g id="Homepage" transform="translate(-633.000000, -2083.000000)">
            <g id="Group-20" transform="translate(633.000000, 2083.000000)">
                <rect id="Rectangle" fill="#FFFFFF" x="0" y="0" width="555" height="320"></rect>
                <g id="Group" transform="translate(305.000000, 138.000000)" fill-rule="nonzero">
                    <g id="cloud-logo" transform="translate(-0.000000, 0.000000)">
                        <path d="M24.5016949,8.73321429 L25.6768362,8.73321429 L29.0259887,5.37428571 L29.1905085,3.94821429 C25.2898851,0.495336182 19.8880163,-0.692764041 14.9046162,0.80614024 C9.92121604,2.30504452 6.06279791,6.27844865 4.70056497,11.3142857 C5.07367556,11.1609082 5.48698648,11.1360372 5.87570621,11.2435714 L12.5740113,10.1357143 C12.5740113,10.1357143 12.9148023,9.57 13.0910734,9.60535714 C16.0706474,6.32346788 21.0850115,5.94099506 24.5251977,8.73321429 L24.5016949,8.73321429 Z" id="Shape" fill="#EA4335"></path>
                        <path d="M33.7970621,11.3142857 C33.0272429,8.47113892 31.4466726,5.91518343 29.2492655,3.96 L24.5487006,8.67428571 C26.5335901,10.3008616 27.6642106,12.751173 27.6158192,15.3214286 L27.6158192,16.1582143 C29.926304,16.1582143 31.799322,18.0366996 31.799322,20.3539286 C31.799322,22.6711576 29.926304,24.5496429 27.6158192,24.5496429 L19.2488136,24.5496429 L18.4144633,25.3982143 L18.4144633,30.4307143 L19.2488136,31.2675 L27.6158192,31.2675 C32.4131451,31.3049586 36.6689286,28.1871414 38.0923422,23.5923248 C39.5157559,18.9975083 37.770923,14.0099112 33.7970621,11.3142857 Z" id="Shape" fill="#4285F4"></path>
                        <path d="M10.8700565,31.2203571 L19.2370621,31.2203571 L19.2370621,24.5025 L10.8700565,24.5025 C10.2739452,24.5023679 9.68482435,24.3737495 9.14259887,24.1253571 L7.96745763,24.4907143 L4.59480226,27.8496429 L4.30101695,29.0282143 C6.19232669,30.4605404 8.50012395,31.2306714 10.8700565,31.2203571 L10.8700565,31.2203571 Z" id="Shape" fill="#34A853"></path>
                        <path d="M10.8700565,9.42850197 C6.22247042,9.45641521 2.10552659,12.4415224 0.622279215,16.8590138 C-0.860968157,21.2765051 0.616928583,26.1511575 4.30101695,28.9928571 L9.15435028,24.1253571 C7.45865925,23.3570128 6.47276543,21.5577841 6.7350862,19.7102676 C6.99740698,17.8627511 8.44488659,16.4110464 10.287026,16.1479599 C12.1291653,15.8848734 13.9231575,16.873645 14.6892655,18.5742857 L19.5425989,13.7067857 C17.4776257,10.9993389 14.2688253,9.41641944 10.8700565,9.42850197 Z" id="Shape" fill="#FBBC05"></path>
                        <path d="M60.860565,26.5296429 C57.9498024,26.5668347 55.1494451,25.4136347 53.1046328,23.3357143 C50.9941289,21.3447411 49.8132555,18.5570991 49.8494915,15.6514286 C49.814705,12.7460447 50.9953409,9.95896332 53.1046328,7.96714286 C55.1395423,5.86757538 57.9411559,4.69257173 60.860565,4.71428571 C63.6412576,4.67711794 66.3207105,5.75966914 68.299209,7.71964286 L66.2074576,9.85285714 C64.7749806,8.46444486 62.8524469,7.70166201 60.860565,7.73142857 C58.7714053,7.70569427 56.7674702,8.56092176 55.3374011,10.0885714 C53.8520079,11.5664935 53.0327675,13.5886442 53.0693785,15.6867857 C53.051956,17.7604963 53.8697179,19.7535006 55.3374011,21.2142857 C58.3634446,24.2387196 63.240645,24.2962044 66.3367232,21.3439286 C67.2585015,20.3315284 67.8240144,19.0440258 67.9466667,17.6785714 L60.8958192,17.6785714 L60.8958192,14.6614286 L70.8727684,14.6614286 C70.9708051,15.2690692 71.0101588,15.8847787 70.9902825,16.5 C71.1156669,19.0731384 70.1857634,21.5856703 68.4167232,23.4535714 C66.448192,25.5090863 63.7006636,26.6275904 60.860565,26.5296429 Z M84.0578531,24.5260714 C81.2758818,27.2005627 76.8863781,27.2005627 74.1044068,24.5260714 C72.7569841,23.2158035 72.0194681,21.3986982 72.0714124,19.5171429 C72.0209207,17.6358521 72.758208,15.8193103 74.1044068,14.5082143 C76.8887946,11.8397603 81.2734653,11.8397603 84.0578531,14.5082143 C85.4040519,15.8193103 86.1413392,17.6358521 86.0908475,19.5171429 C86.1397315,21.4004751 85.397844,23.2178459 84.0461017,24.5260714 L84.0578531,24.5260714 Z M76.3019209,22.5578571 C77.0217913,23.3288661 78.0279381,23.7663851 79.0811299,23.7663851 C80.1343217,23.7663851 81.1404686,23.3288661 81.860339,22.5578571 C82.6448495,21.7446717 83.0686134,20.6481695 83.0354802,19.5171429 C83.0704669,18.3823024 82.646664,17.281449 81.860339,16.4646429 C81.1311548,15.701763 80.1230922,15.2704254 79.0693785,15.2704254 C78.0156648,15.2704254 77.0076022,15.701763 76.2784181,16.4646429 C75.492093,17.281449 75.0682902,18.3823024 75.1032768,19.5171429 C75.0732723,20.6498691 75.5013661,21.7466076 76.2901695,22.5578571 L76.3019209,22.5578571 Z M99.3581921,24.5260714 C96.5762208,27.2005627 92.1867171,27.2005627 89.4047458,24.5260714 C88.0573231,23.2158035 87.3198071,21.3986982 87.3717514,19.5171429 C87.3212597,17.6358521 88.0585469,15.8193103 89.4047458,14.5082143 C92.1867171,11.8337231 96.5762208,11.8337231 99.3581921,14.5082143 C100.704391,15.8193103 101.441678,17.6358521 101.391186,19.5171429 C101.443131,21.3986982 100.705615,23.2158035 99.3581921,24.5260714 L99.3581921,24.5260714 Z M91.6022599,22.5578571 C92.3221303,23.3288661 93.3282771,23.7663851 94.3814689,23.7663851 C95.4346607,23.7663851 96.4408076,23.3288661 97.160678,22.5578571 C97.9451885,21.7446717 98.3689524,20.6481695 98.3358192,19.5171429 C98.3708059,18.3823024 97.947003,17.281449 97.160678,16.4646429 C96.4314938,15.701763 95.4234312,15.2704254 94.3697175,15.2704254 C93.3160038,15.2704254 92.3079412,15.701763 91.5787571,16.4646429 C90.792432,17.281449 90.3686291,18.3823024 90.4036158,19.5171429 C90.3736113,20.6498691 90.8017051,21.7466076 91.5905085,22.5578571 L91.6022599,22.5578571 Z M109.417401,32.8232143 C108.008887,32.8681401 106.627623,32.427175 105.504181,31.5739286 C104.506685,30.8218601 103.721104,29.8228029 103.224407,28.6746429 L105.903729,27.555 C106.195316,28.2411587 106.651478,28.8444028 107.231638,29.3110714 C107.852616,29.8131137 108.63186,30.0764061 109.429153,30.0535714 C110.452193,30.1159868 111.451671,29.7287954 112.167232,28.9928571 C112.87522,28.1363547 113.224807,27.0380654 113.142599,25.9285714 L113.142599,24.915 L113.036836,24.915 C112.128891,25.9965236 110.766089,26.5860294 109.358644,26.5060714 C107.574863,26.5114782 105.870259,25.7678111 104.658079,24.4553571 C103.343375,23.1539599 102.617227,21.3694921 102.648588,19.5171429 C102.6158,17.6541336 103.341428,15.8581742 104.658079,14.5435714 C105.867332,13.2255553 107.572769,12.4772487 109.358644,12.4810569 C110.106163,12.4797588 110.844661,12.6447958 111.520904,12.9642857 C112.105909,13.2205042 112.627485,13.6027686 113.048588,14.0839286 L113.15435,14.0839286 L113.15435,12.9642857 L116.068701,12.9642857 L116.068701,25.5160714 C116.223748,27.5228153 115.547931,29.5050289 114.200226,30.9964286 C112.917021,32.2276311 111.192137,32.8864455 109.417401,32.8232143 L109.417401,32.8232143 Z M109.628927,23.7717857 C110.644826,23.7941778 111.618037,23.3622967 112.284746,22.5932143 C113.009805,21.7598962 113.39206,20.6814021 113.354124,19.5760714 C113.397652,18.4520865 113.015628,17.353192 112.284746,16.5 C111.619038,15.7295585 110.645156,15.2973793 109.628927,15.3214286 C108.586079,15.2999509 107.584381,15.7292763 106.879096,16.5 C106.10176,17.3225322 105.679462,18.4194779 105.703955,19.5525 C105.679814,20.6749636 106.102731,21.7607895 106.879096,22.5696429 C107.58104,23.3478113 108.582715,23.7857133 109.628927,23.7717857 L109.628927,23.7717857 Z M121.251073,5.50392857 L121.251073,26.1053571 L118.183955,26.1053571 L118.183955,5.50392857 L121.251073,5.50392857 Z M129.665085,26.5296429 C127.808202,26.5775158 126.015412,25.8472023 124.71774,24.5142857 C123.401404,23.1915788 122.683552,21.3853209 122.731751,19.5171429 C122.661537,17.6447344 123.352901,15.8240739 124.647232,14.4728571 C125.867895,13.1823026 127.574519,12.4677071 129.347797,12.5046429 C130.154227,12.4961013 130.953931,12.6524989 131.698079,12.9642857 C132.368387,13.2356258 132.979209,13.636021 133.496045,14.1428571 C133.939832,14.5725225 134.334024,15.0508866 134.671186,15.5689286 C134.943894,16.0063187 135.17598,16.4678994 135.36452,16.9478571 L135.681808,17.7492857 L126.280678,21.6267857 C126.86269,22.9679393 128.208023,23.8112266 129.665085,23.7482143 C131.073847,23.7520636 132.381148,23.0137211 133.108249,21.8035714 L135.458531,23.3946429 C134.858743,24.255251 134.091189,24.9849522 133.20226,25.5396429 C132.14512,26.2094944 130.91531,26.5536989 129.665085,26.5296429 L129.665085,26.5296429 Z M125.740113,19.305 L131.991864,16.7003571 C131.799242,16.2410983 131.454812,15.8623683 131.016497,15.6278571 C130.525703,15.3498933 129.970143,15.2075477 129.406554,15.2153571 C128.450189,15.2402003 127.542238,15.6425588 126.88,16.335 C126.077596,17.1050882 125.65964,18.1940819 125.740113,19.305 L125.740113,19.305 Z" id="Shape" fill="#5F6368"></path>
                        <path d="M151.745989,26.5296429 C149.110281,26.5752737 146.569947,25.5412199 144.711495,23.6662222 C142.853043,21.7912245 141.837129,19.2373688 141.898305,16.5942857 C141.837129,13.9512027 142.853043,11.3973469 144.711495,9.52234923 C146.569947,7.64735157 149.110281,6.61329769 151.745989,6.65892857 C154.420598,6.5750598 156.98694,7.72091485 158.714576,9.77035714 L157.022373,11.4203571 C155.752526,9.81850553 153.796515,8.92084356 151.75774,9.00428571 C149.80248,8.96010621 147.913859,9.71775979 146.528362,11.1021429 C145.087186,12.5555759 144.316221,14.5462852 144.401356,16.5942857 C144.316221,18.6422862 145.087186,20.6329955 146.528362,22.0864286 C147.913859,23.4708116 149.80248,24.2284652 151.75774,24.1842857 C154.032761,24.2098544 156.195514,23.1947316 157.633446,21.4264286 L159.32565,23.1235714 C158.439631,24.1861539 157.327291,25.0359331 156.070508,25.6103571 C154.715804,26.2376269 153.237939,26.5517843 151.745989,26.5296429 L151.745989,26.5296429 Z" id="Shape" fill="#5F6368"></path>
                        <polygon id="Shape" fill="#5F6368" points="163.873446 26.1053571 161.440904 26.1053571 161.440904 7.07142857 163.873446 7.07142857"></polygon>
                        <path d="M167.845424,14.6496429 C170.498729,12.0068894 174.781271,12.0068894 177.434576,14.6496429 C178.693514,15.9827272 179.370261,17.7643742 179.314802,19.5996429 C179.370261,21.4349115 178.693514,23.2165585 177.434576,24.5496429 C174.781271,27.1923963 170.498729,27.1923963 167.845424,24.5496429 C166.586486,23.2165585 165.909739,21.4349115 165.965198,19.5996429 C165.909739,17.7643742 166.586486,15.9827272 167.845424,14.6496429 L167.845424,14.6496429 Z M169.655141,23.0175 C170.429755,23.8385105 171.507108,24.3036472 172.634124,24.3036472 C173.761141,24.3036472 174.838494,23.8385105 175.613107,23.0175 C176.471965,22.0932247 176.924965,20.8618834 176.870508,19.5996429 C176.924965,18.3374023 176.471965,17.106061 175.613107,16.1817857 C174.838494,15.3607752 173.761141,14.8956386 172.634124,14.8956386 C171.507108,14.8956386 170.429755,15.3607752 169.655141,16.1817857 C168.796283,17.106061 168.343283,18.3374023 168.39774,19.5996429 C168.349628,20.8595298 168.806721,22.0862462 169.666893,23.0057143 L169.655141,23.0175 Z" id="Shape" fill="#5F6368"></path>
                        <path d="M192.793672,26.1053571 L190.44339,26.1053571 L190.44339,24.3021429 L190.372881,24.3021429 C189.95458,24.9870172 189.362521,25.5482686 188.657175,25.9285714 C187.925244,26.354009 187.094107,26.5776481 186.248136,26.5767857 C184.85668,26.6722503 183.497892,26.1254127 182.558192,25.0917857 C181.667973,23.9625353 181.2207,22.5455303 181.300791,21.1082143 L181.300791,13.0939286 L183.733333,13.0939286 L183.733333,20.6603571 C183.733333,23.0882143 184.802712,24.3021429 186.941469,24.3021429 C187.905629,24.3322932 188.82488,23.8932767 189.409266,23.1235714 C190.039767,22.3221847 190.375897,21.3275003 190.36113,20.3067857 L190.36113,13.0939286 L192.793672,13.0939286 L192.793672,26.1053571 Z" id="Shape" fill="#5F6368"></path>
                        <path d="M201.054915,26.5296429 C199.38492,26.535203 197.796166,25.8074104 196.706893,24.5378571 C195.488556,23.188306 194.836127,21.4194963 194.885424,19.5996429 C194.836127,17.7797895 195.488556,16.0109797 196.706893,14.6614286 C197.796166,13.3918753 199.38492,12.6640827 201.054915,12.6696429 C201.979402,12.6550051 202.892705,12.8738648 203.710734,13.3060714 C204.429562,13.6688518 205.038263,14.2182821 205.473446,14.8971429 L205.579209,14.8971429 L205.473446,13.0939286 L205.473446,7.07142857 L207.905989,7.07142857 L207.905989,26.1053571 L205.555706,26.1053571 L205.555706,24.3021429 L205.449944,24.3021429 C205.01476,24.9810036 204.406059,25.5304339 203.687232,25.8932143 C202.876214,26.3215893 201.971471,26.5403335 201.054915,26.5296429 L201.054915,26.5296429 Z M201.454463,24.3021429 C202.566712,24.3183846 203.632363,23.8548254 204.380565,23.0292857 C205.206908,22.0856403 205.629129,20.8533886 205.555706,19.5996429 C205.629129,18.3458971 205.206908,17.1136454 204.380565,16.17 C203.627832,15.3403085 202.56119,14.8673612 201.442712,14.8673612 C200.324234,14.8673612 199.257591,15.3403085 198.504859,16.17 C197.675818,17.107388 197.252973,18.3372177 197.329718,19.5878571 C197.252973,20.8384966 197.675818,22.0683263 198.504859,23.0057143 C199.254211,23.846221 200.330371,24.3192217 201.454463,24.3021429 Z" id="Shape" fill="#5F6368"></path>
                    </g>
                </g>
                <g id="Group-6" transform="translate(378.000000, 53.000000)">
                    <path d="M59.5473088,23.0487805 C58.3285368,23.0487805 57.1097648,22.901659 55.9378687,22.6074162 C54.7659725,22.3131733 53.8518935,21.9944102 53.2425075,21.6266066 C52.8675008,21.4059244 52.6094493,21.160722 52.5159319,20.9400398 C52.4221803,20.7193577 52.37507,20.4741553 52.37507,20.2537183 L52.37507,19.0029409 C52.37507,18.4880158 52.5628078,18.2428134 52.9143766,18.2428134 C53.0550042,18.2428134 53.1953973,18.2673337 53.3362592,18.3163741 C53.4768868,18.3654146 53.6878281,18.4634956 53.9222073,18.5615766 C54.7188623,18.9293802 55.5862998,19.223623 56.5003788,19.419785 C57.4378957,19.6159469 58.3517403,19.7140278 59.2892572,19.7140278 C60.7660808,19.7140278 61.914539,19.4443052 62.7114284,18.9051051 C63.5080834,18.3654146 63.9302003,17.5807669 63.9302003,16.5756823 C63.9302003,15.8888704 63.719259,15.3249049 63.2973764,14.8592655 C62.8754938,14.3931357 62.0786044,13.9762917 60.9299118,13.5839678 L57.531413,12.480557 C55.8206791,11.9168367 54.5550312,11.0829033 53.7813454,9.97949252 C53.0081283,8.90060195 52.6094493,7.69911019 52.6094493,6.4240577 C52.6094493,5.39445282 52.8206249,4.48695874 53.2425075,3.70255625 C53.6641558,2.91766337 54.2269003,2.23134185 54.930038,1.69165136 C55.6331757,1.12793104 56.430065,0.71084176 57.367582,0.416598879 C58.3050989,0.1226012 59.2892572,0 60.3207602,0 C60.8363945,0 61.3754668,0.0245202401 61.8911011,0.097835758 C62.4301733,0.171396478 62.9221353,0.269722641 63.414566,0.367803601 C63.8833245,0.490404802 64.3284106,0.613006002 64.7505276,0.760127443 C65.1724102,0.907003681 65.5005412,1.05412512 65.7349204,1.20124656 C66.0630513,1.39740848 66.2974305,1.59381561 66.4380581,1.81425256 C66.5786856,2.01041449 66.6489994,2.28013713 66.6489994,2.62342049 L66.6489994,3.77587177 C66.6489994,4.29104202 66.461496,4.56076466 66.1099272,4.56076466 C65.9224238,4.56076466 65.6177308,4.4624385 65.2192861,4.26627657 C63.8833245,3.62875033 62.3832974,3.31023241 60.7192049,3.31023241 C59.3832433,3.31023241 58.3285368,3.53066937 57.6019612,3.99655393 C56.8753856,4.4624385 56.5003788,5.17377066 56.5003788,6.1788553 C56.5003788,6.86566723 56.734758,7.45390779 57.2035165,7.91979235 C57.672275,8.38567691 58.5394781,8.85180667 59.781688,9.26840555 L63.109873,10.3718164 C64.7974035,10.9360271 66.0161755,11.7204296 66.7427511,12.7257594 C67.4693267,13.7310893 67.8208955,14.8835405 67.8208955,16.158593 C67.8208955,17.2129633 67.6099542,18.1694979 67.2115095,19.0029409 C66.7896269,19.836629 66.2271168,20.5722362 65.5005412,21.160722 C64.7739656,21.773728 63.9067624,22.2153375 62.8989317,22.5338554 C61.8442252,22.877384 60.7426428,23.0487805 59.5473088,23.0487805 L59.5473088,23.0487805 Z M29.429578,22.3869792 C29.0076954,22.3869792 28.7264403,22.3131733 28.5389369,22.1415316 C28.3514336,21.9944102 28.1873681,21.6511268 28.0467406,21.1852422 L22.5388287,2.23134185 C22.3982012,1.74093705 22.3278874,1.42192872 22.3278874,1.25053224 C22.3278874,0.858208403 22.5153908,0.637526242 22.8903975,0.637526242 L25.187314,0.637526242 C25.6326345,0.637526242 25.9373275,0.71084176 26.101393,0.882728643 C26.2888963,1.02960488 26.4295239,1.37313345 26.5701514,1.83901801 L30.5077224,18.0711717 L34.1640384,1.83901801 C34.281228,1.34861321 34.4218556,1.02960488 34.6093589,0.882728643 C34.7968623,0.735607203 35.1249932,0.637526242 35.5468758,0.637526242 L37.4219097,0.637526242 C37.8672302,0.637526242 38.1719232,0.71084176 38.3594266,0.882728643 C38.5466956,1.02960488 38.7109954,1.37313345 38.8047471,1.83901801 L42.5079389,18.2673337 L46.5626996,1.83901801 C46.7033271,1.34861321 46.8671582,1.02960488 47.031458,0.882728643 C47.218727,0.735607203 47.5236544,0.637526242 47.945537,0.637526242 L50.1252638,0.637526242 C50.5000362,0.637526242 50.7112119,0.833442961 50.7112119,1.25053224 C50.7112119,1.37313345 50.687774,1.49573465 50.664336,1.64261088 C50.6408981,1.78973232 50.5940223,1.98613945 50.5000362,2.25561689 L44.8517312,21.2097625 C44.7111037,21.7001673 44.5470382,22.0189304 44.3595348,22.1660518 C44.1717971,22.3131733 43.8673384,22.4112542 43.4686594,22.4112542 L41.4532324,22.4112542 C41.0076775,22.4112542 40.7032189,22.3379387 40.5157155,22.1660518 C40.3282121,21.9944102 40.1641466,21.675647 40.0701606,21.1852422 L36.4372825,5.36968738 L32.8280768,21.160722 C32.7108872,21.6511268 32.5702597,21.9701351 32.3827563,22.1415316 C32.1952529,22.3131733 31.867122,22.3869792 31.4452394,22.3869792 L29.429578,22.3869792 Z M10.608926,19.7385481 C11.3823775,19.7385481 12.1792668,19.5914266 13.023032,19.2971838 C13.8667973,19.0029409 14.6168108,18.4634956 15.2496347,17.7278884 C15.6246415,17.2620038 15.9058966,16.7470788 16.0465241,16.158593 C16.1871516,15.5701073 16.2809033,14.8592655 16.2809033,14.0253321 L16.2809033,12.995482 C15.6012036,12.8238404 14.8746279,12.6767189 14.1246144,12.578638 C13.3746009,12.480557 12.6480253,12.4315165 11.9214497,12.4315165 C10.3511089,12.4315165 9.20265063,12.7502796 8.42919918,13.4123261 C7.65574773,14.0743726 7.28074097,15.0061417 7.28074097,16.2321537 C7.28074097,17.384605 7.56199604,18.2428134 8.14794411,18.8312992 C8.71045426,19.4443052 9.53078155,19.7385481 10.608926,19.7385481 L10.608926,19.7385481 Z M20.1247227,16.0114716 C20.1247227,16.9187205 20.2184743,17.6543277 20.3825398,18.1937729 C20.5700432,18.7332182 20.8044224,19.321704 21.1325533,19.9592302 C21.2497429,20.1553922 21.2966188,20.3515541 21.2966188,20.5231958 C21.2966188,20.7683982 21.1559913,21.0136006 20.8512983,21.258803 L19.3747091,22.288653 C19.1637678,22.4357745 18.9528265,22.5095804 18.7653231,22.5095804 C18.5309439,22.5095804 18.2965647,22.3869792 18.0621854,22.1660518 C17.7340545,21.7982482 17.4527995,21.4059244 17.2184202,21.0136006 C16.984041,20.5967565 16.7496618,20.1311171 16.4918446,19.5669064 C14.6636866,21.8227685 12.3667702,22.9509447 9.60109532,22.9509447 C7.63230981,22.9509447 6.06196898,22.3622138 4.91351076,21.1852422 C3.76505255,20.0085159 3.17910448,18.4389753 3.17910448,16.4773561 C3.17910448,14.3931357 3.88224216,12.7012392 5.31195545,11.4264319 C6.74166874,10.1511342 8.64014049,9.51360795 11.0542465,9.51360795 C11.8511359,9.51360795 12.6714632,9.58741388 13.5386663,9.71001508 C14.4058695,9.83261628 15.2965106,10.028533 16.2340275,10.2492152 L16.2340275,8.45948283 C16.2340275,6.59569938 15.8590207,5.29637186 15.1324451,4.53624442 C14.3824316,3.77587177 13.1167837,3.40806817 11.3120637,3.40806817 C10.4917364,3.40806817 9.64797117,3.50614913 8.78076802,3.72683129 C7.91356488,3.94775866 7.06979966,4.21723609 6.24947236,4.56076466 C5.8744656,4.73216114 5.59321052,4.8302421 5.42914507,4.87928258 C5.26507961,4.92856826 5.14788999,4.9528433 5.0541383,4.9528433 C4.72600738,4.9528433 4.56194192,4.7076409 4.56194192,4.19296106 L4.56194192,2.99122409 C4.56194192,2.59914545 4.60881777,2.30465737 4.72600738,2.13301569 C4.843197,1.96161921 5.0541383,1.78973232 5.38226922,1.61833585 C6.20259652,1.17672632 7.18698927,0.808922721 8.33544749,0.514925042 C9.48390571,0.195916718 10.7026777,0.0487952778 11.9917634,0.0487952778 C14.7808763,0.0487952778 16.8199755,0.71084176 18.1324992,2.03493473 C19.421585,3.35902769 20.0778468,5.36968738 20.0778468,8.06691379 L20.0778468,16.0114716 L20.1247227,16.0114716 Z" id="Fill-1" fill="#252F3E"></path>
                    <g id="Group-5" transform="translate(0.000000, 27.439024)">
                        <mask id="mask-2" fill="white">
                            <use xlink:href="#path-1"></use>
                        </mask>
                        <g id="Clip-4"></g>
                        <path d="M67.3513548,3.71869697 C66.3606571,2.39779083 60.7938797,3.08258733 58.2699595,3.40064215 C57.5151422,3.49874983 57.397202,2.81370868 58.0812551,2.29968315 C62.5158066,-0.929796572 69.804511,0.000146794533 70.6536804,1.07639538 C71.5030857,2.17735438 70.4178,9.73751748 66.266305,13.3582046 C65.6294279,13.920917 65.0163748,13.6273279 65.2991953,12.8933553 C66.2427169,10.4714901 68.3420525,5.01562667 67.3513548,3.71869697 M64.1197934,7.53559949 C56.3593282,13.4805334 45.0844811,16.6368605 35.3895608,16.6368605 C21.8028498,16.6368605 9.56065714,11.42541 0.314145515,2.76477717 C-0.417083721,2.07973601 0.243381395,1.14979265 1.11613887,1.68803927 C11.1174678,7.70685977 23.4540126,11.3520127 36.2151422,11.3520127 C44.8247767,11.3520127 54.2838166,9.49285993 62.9875674,5.67595741 C64.2849096,5.06431352 65.3935475,6.55696927 64.1197934,7.53559949" id="Fill-3" fill="#FF9900" mask="url(#mask-2)"></path>
                    </g>
                </g>
                <g id="Group" transform="translate(82.000000, 217.000000)">
                    <g id="Group-18" transform="translate(2.404040, 7.142857)">
                        <path d="M174.01416,8.03571429 L181.745455,27.3214286 L177.821807,27.3214286 L176.005492,22.5344046 L167.915005,22.5344046 L166.167883,27.3214286 L162.272727,27.3214286 L170.004022,8.03571429 L174.01416,8.03571429 Z M171.895635,11.6137973 L168.859285,19.7361603 L175.015423,19.7361603 L171.997389,11.6137973 L171.895635,11.6137973 Z" id="Fill-1" fill="#737373"></path>
                        <polygon id="Fill-2" fill="#737373" points="183.352085 13.3928571 194.685092 13.3928571 194.685092 14.7071458 187.245507 24.7207738 194.727273 24.7207738 194.727273 27.3214286 182.827273 27.3214286 182.827273 25.7625763 190.15699 15.9944747 183.352085 15.9944747"></polygon>
                        <g id="Group-17" transform="translate(0.000000, 0.535714)">
                            <path d="M209.327792,12.5121145 L209.327792,26.6438162 L205.925675,26.6438162 L205.925675,24.7887006 L205.872208,24.7887006 C205.425655,25.4305179 204.827611,25.9326397 204.081047,26.2931124 C203.332502,26.6555389 202.495835,26.8372405 201.565104,26.8372405 C199.901671,26.8372405 198.637264,26.3712637 197.768913,25.4412637 C196.900561,24.5112637 196.46589,23.0654653 196.46589,21.1038687 L196.46589,12.5121145 L199.880879,12.5121145 L199.880879,20.7052973 C199.880879,21.897104 200.118512,22.7919359 200.598729,23.3927237 C201.075976,23.9925347 201.797787,24.293417 202.764162,24.293417 C203.721626,24.293417 204.487004,23.9612742 205.063264,23.2969884 C205.639525,22.6327027 205.925675,21.76327 205.925675,20.6925977 L205.925675,12.5121145 L209.327792,12.5121145 Z" id="Fill-3" fill="#737373"></path>
                            <path d="M219.016497,12.2784422 C219.284824,12.2784422 219.527408,12.2970032 219.741278,12.3331481 C219.954158,12.37027 220.136343,12.4161838 220.284864,12.4708897 L220.284864,15.839209 C220.107629,15.7112363 219.852174,15.589125 219.511566,15.4748288 C219.172938,15.3605326 218.761041,15.302896 218.279833,15.302896 C217.452077,15.302896 216.752049,15.6467616 216.18173,16.3335158 C215.61141,17.0222237 215.324269,18.0801964 215.324269,19.5093876 L215.324269,26.6445977 L211.951857,26.6445977 L211.951857,12.5119191 L215.324269,12.5119191 L215.324269,14.73923 L215.380707,14.73923 C215.68666,13.9694401 216.152025,13.3666985 216.772842,12.9310053 C217.39564,12.4972658 218.144184,12.2784422 219.016497,12.2784422" id="Fill-5" fill="#737373"></path>
                            <g id="Group-9" transform="translate(219.810786, 11.722689)">
                                <mask id="mask-4" fill="white">
                                    <use xlink:href="#path-3"></use>
                                </mask>
                                <g id="Clip-8"></g>
                                <path d="M12.6673391,11.3611418 L12.6673391,14.0974128 C12.1108812,14.4451859 11.381149,14.7265305 10.4801228,14.9414464 C9.57909661,15.1573393 8.61767196,15.2647973 7.59485871,15.2647973 C5.41160293,15.2647973 3.71549538,14.6278645 2.5025755,13.3539989 C1.29064576,12.0801334 0.684680894,10.3080536 0.684680894,8.03482878 C0.684680894,5.8456166 1.33322173,4.04032248 2.62832311,2.62480777 C3.92441464,1.20831618 5.56606456,0.501047269 7.55228274,0.501047269 C9.53256009,0.501047269 11.0722257,1.09890441 12.1742501,2.2946187 C13.2723139,3.49033298 13.8238211,5.14323214 13.8238211,7.2503855 L13.8238211,8.85834769 L4.0155074,8.85834769 C4.1640282,10.2797237 4.62642296,11.270291 5.40170154,11.8349338 C6.17499985,12.3985998 7.17900046,12.6809212 8.40281186,12.6809212 C9.21175516,12.6809212 9.98307319,12.5588099 10.7157758,12.316541 C11.4504587,12.0732952 12.1009798,11.7548288 12.6673391,11.3611418 L12.6673391,11.3611418 Z M10.5068565,6.42491282 C10.5068565,5.32591071 10.2504106,4.48773845 9.73355824,3.91039601 C9.21967627,3.33305357 8.49192435,3.04389391 7.55228274,3.04389391 C6.74630986,3.04389391 6.02053821,3.33109979 5.38090863,3.90355777 C4.73830863,4.47699265 4.31155886,5.3171187 4.09867904,6.42491282 L10.5068565,6.42491282 Z" id="Fill-7" fill="#737373" mask="url(#mask-4)"></path>
                            </g>
                            <path d="M64.9139866,6.93123529 L64.9139866,26.6439139 L61.4445407,26.6439139 L61.4445407,11.1924328 L61.3881028,11.1924328 L55.1888445,26.6439139 L52.8897425,26.6439139 L46.5350325,11.1924328 L46.4934467,11.1924328 L46.4934467,26.6439139 L43.2893579,26.6439139 L43.2893579,6.93123529 L48.2638146,6.93123529 L54.0036485,21.5435672 L54.0868202,21.5435672 L60.1484492,6.93123529 L64.9139866,6.93123529 Z M67.8150929,8.42978571 C67.8150929,7.87979622 68.0170812,7.41968067 68.4210578,7.04846218 C68.8250344,6.67626681 69.3062418,6.49163445 69.8636898,6.49163445 C70.457773,6.49163445 70.9508621,6.68212815 71.3399866,7.06116176 C71.7310914,7.44117227 71.9261487,7.89835714 71.9261487,8.42978571 C71.9261487,8.9700063 71.7251505,9.4242605 71.3261247,9.78961765 C70.9270988,10.1569286 70.4399505,10.340584 69.8636898,10.340584 C69.2874291,10.340584 68.8022612,10.1549748 68.408186,9.7837563 C68.0121305,9.41253782 67.8150929,8.96121429 67.8150929,8.42978571 L67.8150929,8.42978571 Z M68.1636217,26.6439139 L71.5350439,26.6439139 L71.5350439,12.5122122 L68.1636217,12.5122122 L68.1636217,26.6439139 Z M81.7621863,24.2241555 C82.2631965,24.2241555 82.816684,24.1098592 83.4196784,23.8812668 C84.023663,23.6516975 84.5811111,23.3498382 85.0920227,22.9737353 L85.0920227,26.0655945 C84.5533872,26.3684307 83.9424716,26.5970231 83.2602661,26.7543025 C82.5780606,26.9096282 81.8275354,26.9877794 81.0096809,26.9877794 C78.9006855,26.9877794 77.1877456,26.3303319 75.8688809,25.015437 C74.549026,23.7015189 73.8895937,22.0212668 73.8895937,19.9776113 C73.8895937,17.7043866 74.5638781,15.8326639 75.9104667,14.3604895 C77.2570553,12.8902689 79.1660427,12.1556471 81.6374288,12.1556471 C82.2691373,12.1556471 82.9067866,12.2357521 83.5533471,12.3959622 C84.1989176,12.5551954 84.7118094,12.7408046 85.0920227,12.9527899 L85.0920227,16.1413613 C84.5721998,15.7652584 84.0395052,15.4751218 83.4969092,15.268021 C82.9533231,15.0618971 82.3978553,14.9593235 81.831496,14.9593235 C80.50372,14.9593235 79.4313998,15.3852479 78.6125552,16.2380735 C77.7956908,17.0899223 77.3877536,18.2406996 77.3877536,19.6884517 C77.3877536,21.1176429 77.7798485,22.2322752 78.5650285,23.0284412 C79.3492183,23.825584 80.4155977,24.2241555 81.7621863,24.2241555 L81.7621863,24.2241555 Z M94.6924072,12.2787353 C94.961725,12.2787353 95.2033188,12.2972962 95.4161986,12.3334412 C95.6300686,12.370563 95.8112639,12.4155 95.9597847,12.4711828 L95.9597847,15.8395021 C95.7835401,15.7105525 95.526104,15.5894181 95.1874766,15.4751218 C94.8468689,15.3598487 94.4359613,15.3031891 93.9537638,15.3031891 C93.126998,15.3031891 92.4279601,15.6460777 91.8566501,16.3338088 C91.2863302,17.0215399 91.0001801,18.0804895 91.0001801,19.5087038 L91.0001801,26.6439139 L87.6277678,26.6439139 L87.6277678,12.5122122 L91.0001801,12.5122122 L91.0001801,14.7395231 L91.0556279,14.7395231 C91.3615807,13.9697332 91.8269459,13.3669916 92.4497431,12.9312983 C93.0705601,12.4965819 93.8191049,12.2787353 94.6924072,12.2787353 L94.6924072,12.2787353 Z M96.1429604,19.784187 C96.1429604,17.4474643 96.811304,15.5962563 98.1489814,14.230563 C99.4866587,12.8648697 101.344159,12.183 103.722472,12.183 C105.961176,12.183 107.70976,12.8404475 108.968227,14.1553424 C110.226693,15.4712143 110.856421,17.2462248 110.856421,19.4823277 C110.856421,21.7741134 110.187087,23.5969916 108.8504,24.952916 C107.512723,26.3098172 105.691858,26.9877794 103.387805,26.9877794 C101.167914,26.9877794 99.4044772,26.3449853 98.1004646,25.0564664 C96.7954618,23.7689244 96.1429604,22.0124748 96.1429604,19.784187 L96.1429604,19.784187 Z M99.6539921,19.6737983 C99.6539921,21.1498803 99.9926196,22.2772122 100.670865,23.0557941 C101.34911,23.8353529 102.319445,24.2241555 103.582862,24.2241555 C104.809644,24.2241555 105.743345,23.8353529 106.382975,23.0557941 C107.024584,22.2772122 107.345389,21.1225273 107.345389,19.5907626 C107.345389,18.0707206 107.012703,16.9228739 106.34832,16.1491765 C105.684927,15.3745021 104.753206,14.9866765 103.555139,14.9866765 C102.319445,14.9866765 101.360991,15.3920861 100.677796,16.2038824 C99.9945998,17.0147017 99.6539921,18.1713403 99.6539921,19.6737983 L99.6539921,19.6737983 Z M115.871473,16.2243971 C115.871473,16.7001429 116.024945,17.0733151 116.331888,17.3448908 C116.637841,17.6145126 117.316086,17.9564244 118.366623,18.3686723 C119.712221,18.9001008 120.657804,19.4989349 121.20139,20.1632206 C121.744976,20.8265294 122.015284,21.6314874 122.015284,22.5751639 C122.015284,23.9047122 121.499422,24.9724538 120.462747,25.7774118 C119.428052,26.5853004 118.026015,26.9877794 116.261588,26.9877794 C115.667505,26.9877794 115.010053,26.9164664 114.290222,26.7748172 C113.570391,26.6321912 112.959476,26.4514664 112.458465,26.2306891 L112.458465,22.9610357 C113.071361,23.3810987 113.731784,23.7161723 114.436763,23.9643025 C115.142731,24.2114559 115.783351,24.3345441 116.359612,24.3345441 C117.121029,24.3345441 117.683427,24.2300168 118.045818,24.0180315 C118.407219,23.808 118.588414,23.4553424 118.588414,22.9610357 C118.588414,22.5018971 118.401278,22.1140714 118.024035,21.7985357 C117.648772,21.4820231 116.935873,21.1176429 115.885335,20.705395 C114.641721,20.1925273 113.758518,19.6151849 113.238695,18.9733676 C112.718872,18.3315504 112.458465,17.5168235 112.458465,16.5262563 C112.458465,15.2523908 112.971357,14.2051639 113.997141,13.3845756 C115.023915,12.5649643 116.354661,12.1556471 117.98938,12.1556471 C118.49039,12.1556471 119.052789,12.2093761 119.675586,12.3197647 C120.298384,12.4301534 120.818206,12.5718025 121.236045,12.7456891 L121.236045,15.9078845 C120.791473,15.6148172 120.269669,15.3627794 119.675586,15.151771 C119.082493,14.9407626 118.49039,14.8352584 117.906208,14.8352584 C117.265589,14.8352584 116.765569,14.9593235 116.408129,15.2064769 C116.050689,15.4546071 115.871473,15.7935882 115.871473,16.2243971 L115.871473,16.2243971 Z M123.465837,19.784187 C123.465837,17.4474643 124.133191,15.5962563 125.471858,14.230563 C126.809535,12.8648697 128.666045,12.183 131.045349,12.183 C133.284052,12.183 135.032637,12.8404475 136.291103,14.1553424 C137.55056,15.4712143 138.179298,17.2462248 138.179298,19.4823277 C138.179298,21.7741134 137.509964,23.5969916 136.173277,24.952916 C134.8356,26.3098172 133.013744,26.9877794 130.710682,26.9877794 C128.489801,26.9877794 126.728344,26.3449853 125.423341,25.0564664 C124.117348,23.7689244 123.465837,22.0124748 123.465837,19.784187 L123.465837,19.784187 Z M126.975879,19.6737983 C126.975879,21.1498803 127.316486,22.2772122 127.993741,23.0557941 C128.671986,23.8353529 129.643312,24.2241555 130.905739,24.2241555 C132.131531,24.2241555 133.066222,23.8353529 133.705851,23.0557941 C134.346471,22.2772122 134.667276,21.1225273 134.667276,19.5907626 C134.667276,18.0707206 134.33657,16.9228739 133.671196,16.1491765 C133.007804,15.3745021 132.076083,14.9866765 130.879005,14.9866765 C129.643312,14.9866765 128.683868,15.3920861 128.000672,16.2038824 C127.318467,17.0147017 126.975879,18.1713403 126.975879,19.6737983 L126.975879,19.6737983 Z M149.364894,15.2348067 L144.341921,15.2348067 L144.341921,26.6439139 L140.930893,26.6439139 L140.930893,15.2348067 L138.532777,15.2348067 L138.532777,12.5122122 L140.930893,12.5122122 L140.930893,10.546708 C140.930893,9.06183403 141.418041,7.84560504 142.400259,6.89704412 C143.379506,5.9475063 144.635992,5.47371429 146.169717,5.47371429 C146.577654,5.47371429 146.939055,5.49422899 147.254909,5.53623529 C147.571753,5.57726471 147.849982,5.63880882 148.091576,5.72086765 L148.091576,8.59488025 C147.97969,8.53040546 147.784633,8.45323109 147.506404,8.36042647 C147.227185,8.26957563 146.90638,8.22366176 146.54498,8.22366176 C145.839011,8.22366176 145.295424,8.44053151 144.914221,8.87622479 C144.534008,9.31191807 144.341921,9.95568908 144.341921,10.8075378 L144.341921,12.5122122 L149.364894,12.5122122 L149.364894,9.33634034 L152.750179,8.31939706 L152.750179,12.5122122 L156.164177,12.5122122 L156.164177,15.2348067 L152.750179,15.2348067 L152.750179,21.8464034 C152.750179,22.7177899 152.911571,23.3312773 153.232376,23.6878424 C153.551201,24.0463613 154.056171,24.2241555 154.744318,24.2241555 C154.937395,24.2241555 155.174038,24.1792185 155.448306,24.0864139 C155.720595,23.995563 155.959218,23.8861513 156.164177,23.7572017 L156.164177,26.5071492 C155.951297,26.6273067 155.594847,26.7357416 155.098788,26.8363613 C154.601738,26.9369811 154.111619,26.9877794 153.628432,26.9877794 C152.207583,26.9877794 151.141203,26.6146071 150.430284,25.8663088 C149.720354,25.1209412 149.364894,23.995563 149.364894,22.4921282 L149.364894,15.2348067 Z" id="Fill-10" fill="#737373"></path>
                            <mask id="mask-6" fill="white">
                                <use xlink:href="#path-5"></use>
                            </mask>
                            <g id="Clip-13"></g>
                            <polygon id="Fill-12" fill="#F25022" mask="url(#mask-6)" points="0.00198027735 15.9780252 15.8283569 15.9780252 15.8283569 0.363403361 0.00198027735 0.363403361"></polygon>
                            <polygon id="Fill-14" fill="#7FBA00" mask="url(#mask-6)" points="17.4729772 15.9760714 33.2993538 15.9760714 33.2993538 0.36144958 17.4729772 0.36144958"></polygon>
                            <polygon id="Fill-15" fill="#00A4EF" mask="url(#mask-6)" points="0 33.2142857 15.8263766 33.2142857 15.8263766 17.6006408 0 17.6006408"></polygon>
                            <polygon id="Fill-16" fill="#FFB900" mask="url(#mask-6)" points="17.4729772 33.2142857 33.2993538 33.2142857 33.2993538 17.6006408 17.4729772 17.6006408"></polygon>
                        </g>
                    </g>
                </g>
                <g id="redhat2019-copy" transform="translate(383.000000, 205.000000)" fill-rule="nonzero">
                    <path d="M40.709119,27.0714781 C44.715922,27.0714781 50.5177728,26.2234559 50.5177728,21.3636364 C50.5177728,21.0048577 50.4857184,20.6134629 50.4216096,20.2546842 L48.0495822,9.6870229 C47.5046569,7.37126995 47.0238406,6.29493407 43.0170375,4.27272727 C39.9077584,2.64191534 33.1442748,-9.09494702e-13 31.1248461,-9.09494702e-13 C29.2656895,-9.09494702e-13 28.7207643,2.4462179 26.4769545,2.4462179 C24.3293081,2.4462179 22.7586413,0.619708536 20.7392126,0.619708536 C18.8159471,0.619708536 17.5658246,1.95697432 16.6041918,4.69673838 C16.6041918,4.69673838 13.9116202,12.426787 13.5590215,13.5683553 C13.4949127,13.7640527 13.4949127,13.9923664 13.4949127,14.1880638 C13.4949127,17.221374 25.1306687,27.0714781 40.709119,27.0714781 M51.1268069,23.3532269 C51.6717321,26.0277585 51.6717321,26.3213046 51.6717321,26.647467 C51.6717321,31.2137405 46.6391875,33.7578071 40.0039216,33.7578071 C25.002451,33.7578071 11.8921914,24.8209577 11.8921914,18.9174185 C11.8921914,18.1020125 12.0524636,17.2866065 12.3730078,16.536433 C6.98786452,16.8299792 0,17.8084663 0,24.0707842 C0,34.3448994 23.9126006,47 42.824711,47 C57.3453652,47 60.9997863,40.3136711 60.9997863,35.0298404 C61.031624,30.8875781 57.5056374,26.1582235 51.1268069,23.3532269" id="Shape" fill="#EE0000"></path>
                    <path d="M51.4520548,22.6930533 C52,25.3424879 52,25.6332795 52,25.9563813 C52,30.4798061 46.9395649,33 40.2675262,33 C25.182917,33 12,24.1470113 12,18.2988691 C12,17.4911147 12.1611604,16.6833603 12.4834811,15.9402262 L13.6760677,13 C13.6116035,13.1938611 13.6116035,13.4200323 13.6116035,13.6138934 C13.6116035,16.5864297 25.3118453,26.3441034 40.9766317,26.3441034 C45.0056406,26.3441034 50.8396454,25.5040388 50.8396454,20.6898223 C50.8396454,20.3344103 50.8074134,19.9466882 50.7429492,19.5912763 L51.4520548,22.6930533 Z" id="Path" fill="#000000"></path>
                    <path d="M55.8419118,61.0025907 C55.8419118,62.9896373 56.9632353,63.9326425 59.0136555,63.9326425 C59.6544118,63.9326425 60.2631303,63.8316062 60.9038866,63.6632124 L60.9038866,61.373057 C60.5194328,61.507772 60.1029412,61.5751295 59.6864496,61.5751295 C58.8534664,61.5751295 58.5330882,61.3056995 58.5330882,60.4637306 L58.5330882,56.9611399 L61,56.9611399 L61,54.6036269 L58.5330882,54.6036269 L58.5330882,51.6062176 L55.8419118,52.2124352 L55.8419118,54.6036269 L54.0477941,54.6036269 L54.0477941,56.9611399 L55.8098739,56.9611399 L55.8098739,61.0025907 L55.8419118,61.0025907 Z M47.480042,61.0362694 C47.480042,60.4300518 48.0567227,60.126943 48.9537815,60.126943 C49.4984244,60.126943 50.0110294,60.1943005 50.5556723,60.3290155 L50.5556723,61.507772 C50.0430672,61.8108808 49.4663866,61.9455959 48.8897059,61.9455959 C47.9926471,61.9792746 47.480042,61.642487 47.480042,61.0362694 M48.3130252,63.9663212 C49.2741597,63.9663212 50.0110294,63.7642487 50.7478992,63.2590674 L50.7478992,63.8316062 L53.4070378,63.8316062 L53.4070378,57.9041451 C53.4070378,55.6476684 51.9653361,54.4352332 49.5625,54.4352332 C48.2169118,54.4352332 46.9033613,54.7720207 45.4616597,55.4455959 L46.4227941,57.5336788 C47.4480042,57.0958549 48.3130252,56.7927461 49.0819328,56.7927461 C50.1712185,56.7927461 50.7478992,57.2305699 50.7478992,58.1735751 L50.7478992,58.611399 C50.1071429,58.4430052 49.4343487,58.3419689 48.7615546,58.3419689 C46.4868697,58.3419689 45.1412815,59.3523316 45.1412815,61.1036269 C45.1092437,62.7202073 46.3587185,63.9663212 48.3130252,63.9663212 M33.7037815,63.7979275 L36.5551471,63.7979275 L36.5551471,59.015544 L41.3287815,59.015544 L41.3287815,63.7979275 L44.1801471,63.7979275 L44.1801471,51.5725389 L41.3287815,51.5725389 L41.3287815,56.253886 L36.5551471,56.253886 L36.5551471,51.5725389 L33.7037815,51.5725389 L33.7037815,63.7979275 Z M22.8429622,59.1839378 C22.8429622,57.8704663 23.8361345,56.8601036 25.1496849,56.8601036 C25.822479,56.8601036 26.4952731,57.0958549 27.0078782,57.5673575 L27.0078782,60.8005181 C26.4952731,61.3056995 25.8545168,61.5751295 25.1496849,61.5414508 C23.8681723,61.5414508 22.8429622,60.5310881 22.8429622,59.1839378 M27.039916,63.8316062 L29.6990546,63.8316062 L29.6990546,51 L27.0078782,51.6062176 L27.0078782,55.0751295 C26.335084,54.6709845 25.5661765,54.4689119 24.7652311,54.4689119 C22.2022059,54.4689119 20.2158613,56.5569948 20.2158613,59.1839378 C20.1838235,61.7772021 22.1701681,63.8989637 24.605042,63.9326425 C24.6370798,63.9326425 24.6691176,63.9326425 24.6691176,63.9326425 C25.5021008,63.9326425 26.335084,63.6632124 27.039916,63.1243523 L27.039916,63.8316062 Z M14.8655462,56.7253886 C15.6985294,56.7253886 16.4353992,57.2979275 16.6917017,58.2072539 L13.0393908,58.2072539 C13.2956933,57.2642487 13.9684874,56.7253886 14.8655462,56.7253886 M10.3161765,59.2176166 C10.3161765,61.9119171 12.3986345,64 15.0898109,64 C16.5635504,64 17.6528361,63.5958549 18.7741597,62.619171 L17.0120798,60.9689119 C16.5955882,61.4067358 15.9868697,61.6761658 15.25,61.6761658 C14.3209034,61.7098446 13.4558824,61.1373057 13.1034664,60.1943005 L19.3508403,60.1943005 L19.3508403,59.4870466 C19.3508403,56.5569948 17.4606092,54.4352332 14.9296218,54.4352332 C12.4306723,54.3678756 10.3802521,56.4559585 10.3161765,59.0829016 C10.3161765,59.1165803 10.3161765,59.1502591 10.3161765,59.2176166 M5.70273109,54.1658031 C6.66386555,54.1658031 7.17647059,54.8056995 7.17647059,55.5466321 C7.17647059,56.2875648 6.63182773,56.9274611 5.70273109,56.9274611 L2.88340336,56.9274611 L2.88340336,54.1658031 L5.70273109,54.1658031 Z M0,63.7979275 L2.85136555,63.7979275 L2.85136555,59.3523316 L5.02993697,59.3523316 L7.2085084,63.7979275 L10.4122899,63.7979275 L7.84926471,58.9145078 C9.16281513,58.3419689 10.0598739,56.9948187 10.0278361,55.4792746 C10.0278361,53.2901554 8.39390756,51.5725389 5.9269958,51.5725389 L0,51.5725389 L0,63.7979275 Z" id="Shape" fill="#000000"></path>
                </g>
                <g id="Logos/AlibabaCloud-2-Copy" transform="translate(42.000000, 139.000000)">
                    <g id="Group" transform="translate(0.000000, -0.000000)">
                        <g id="Group-3" transform="translate(0.000000, -0.000000)">
                            <mask id="mask-8" fill="white">
                                <use xlink:href="#path-7"></use>
                            </mask>
                            <g id="Clip-2"></g>
                            <path d="M19.3907019,14.7876 C19.331834,14.9836 19.3200604,15.1936 19.3553811,15.3956 C19.4103245,15.7076 19.7340981,15.7276 23.9784755,15.7816 L28.5309283,15.8176 L28.5309283,14.5296 L24.0177208,14.5296 C20.2442868,14.5296 19.4652679,14.5656 19.3946264,14.7896 L19.3907019,14.7876 Z M182.664815,10.3336 C182.611834,10.4816 182.592211,13.2416 182.629494,16.4636 C182.684438,21.7636 182.719758,22.3896 183.027834,22.9796 C184.093343,25.0236 185.898626,25.8696 188.842023,25.6676 L193.975306,25.3536 L193.975306,10.1136 L191.226174,10.1136 L191.226174,22.6136 L190.378475,22.7416 C188.806702,23.0016 186.854249,22.9076 186.224362,22.5756 L185.590551,22.2056 C185.570928,22.1876 185.500287,19.4836 185.445343,16.2076 L185.355079,10.2076 L184.036438,10.1516 C183.043532,10.1156 182.70406,10.1516 182.627532,10.3516 L182.664815,10.3336 Z M80.9214189,17.7336 L80.9214189,25.3716 L83.6293434,25.3716 L83.6293434,10.0936 L80.9214189,10.0936 L80.9214189,17.7336 Z M176.656362,12.9656 C177.576664,13.4456 177.721872,14.1056 177.721872,17.7336 C177.721872,21.1736 177.594325,21.8196 176.81923,22.5196 C176.258023,23.0356 173.712966,23.1636 172.790702,22.7036 C171.707532,22.1876 171.581947,21.6536 171.581947,17.7336 C171.581947,13.9796 171.687909,13.4816 172.627834,12.9656 C173.314626,12.5796 175.932287,12.5796 176.656362,12.9656 L176.656362,12.9656 Z M172.680815,9.9096 C171.585872,10.1536 170.600815,10.7616 169.880664,11.6396 C168.960362,12.8736 168.870098,13.4796 168.870098,17.8996 C168.870098,22.4276 168.995683,22.9576 170.190702,24.2316 C171.366098,25.4636 171.923381,25.6296 174.648966,25.6296 C177.449117,25.6296 178.082928,25.4316 179.23674,24.0316 C180.33757,22.7036 180.465117,22.0416 180.41606,17.3856 C180.359155,13.5956 180.325796,13.2276 179.962777,12.5276 C179.429042,11.5236 178.602928,10.7116 177.596287,10.2076 C176.674023,9.7836 173.966098,9.5996 172.7024,9.8756 L172.680815,9.9096 Z M137.681872,19.1136 L138.168513,19.1136 L138.168513,22.5936 L137.138325,22.7216 C135.152513,22.9816 133.219683,22.9216 132.713419,22.5736 C131.702853,21.8936 131.738174,20.1076 132.768362,19.5736 C133.47674,19.2036 135.152513,18.9476 136.271004,19.0576 L137.679909,19.1296 L137.681872,19.1136 Z M134.106626,9.9136 L131.704815,10.3936 C130.494098,10.6876 130.386174,10.7616 130.476438,11.1136 L130.802174,12.4736 C130.9984,13.3936 131.037645,13.4496 131.469343,13.3396 C133.890777,12.6956 136.218023,12.5116 137.161872,12.8596 C138.00957,13.1916 138.190098,13.5596 138.190098,14.9596 L138.190098,16.2856 L135.949192,16.2856 C133.113721,16.2856 131.81274,16.6536 130.566702,17.7936 C129.516891,18.6996 128.992966,20.0876 129.175457,21.4776 C129.483532,24.4776 131.577268,25.9316 135.333042,25.6936 L139.106475,25.4936 L141.056966,25.3656 L141.003985,19.2736 C140.947079,13.4196 140.929419,13.1436 140.550702,12.4256 C139.522475,10.4556 137.191306,9.5716 134.085042,9.9416 L134.106626,9.9136 Z M109.509645,19.2536 C109.692136,19.3636 109.672513,22.6216 109.490023,22.6216 C109.399758,22.6216 108.479457,22.7116 107.429645,22.8216 C104.413645,23.1156 103.312815,22.6556 103.312815,21.0736 C103.312815,20.3936 103.403079,20.1896 103.8544,19.7856 C104.246853,19.4756 104.753117,19.2796 105.263306,19.2136 L106.381796,19.0316 C106.707532,18.9556 109.325192,19.1296 109.505721,19.2616 L109.509645,19.2536 Z M105.302551,9.9396 C104.49606,10.0496 103.693494,10.2036 102.90074,10.3996 C101.925494,10.6396 101.690023,10.7676 101.762626,11.0076 C101.81757,11.1736 101.943155,11.7076 102.06874,12.2216 C102.194325,12.7356 102.323834,13.1976 102.394475,13.2516 C102.465117,13.3056 103.244136,13.2156 104.129117,13.0516 C107.147079,12.4076 109.187834,12.7016 109.474325,13.8056 C109.566551,14.2956 109.615608,14.7956 109.619532,15.2956 L109.639155,16.3256 L107.924136,16.2336 C103.336362,15.9936 100.573494,17.7436 100.538174,20.8896 C100.518551,22.3776 100.989494,23.5376 101.96474,24.4576 C103.102853,25.5276 104.311608,25.8596 106.642777,25.6936 L110.418174,25.4936 L112.366702,25.3656 L112.258777,12.9956 L111.752513,12.1296 C110.743909,10.3896 108.338174,9.5796 105.304513,9.9756 L105.302551,9.9396 Z M204.3184,12.9656 C204.608815,13.0936 204.624513,13.4996 204.624513,17.8616 L204.624513,22.6096 L203.959306,22.7376 C202.779985,22.9776 200.599909,22.9216 199.966098,22.6456 C199.640362,22.4976 199.300891,22.2416 199.208664,22.0556 C199.114475,21.8696 199.026174,19.9196 199.026174,17.7096 C199.026174,13.3116 199.061494,13.1836 200.019079,12.8716 C200.599909,12.6876 203.774853,12.7616 204.33606,12.9636 L204.3184,12.9656 Z M204.624513,7.3516 L204.624513,10.1116 L203.594325,10.0016 L202.15206,9.8176 C201.535909,9.7076 199.259683,10.0776 198.610174,10.4076 C197.768362,10.8636 197.079608,11.5596 196.624362,12.4136 C196.265268,13.0936 196.227985,13.4816 196.173042,17.2116 C196.1024,22.2376 196.245645,22.9736 197.546626,24.2816 C198.722023,25.4416 200.113268,25.8276 202.477796,25.6816 L205.837192,25.4816 L207.497268,25.3716 L207.497268,4.6116 L204.610777,4.6116 L204.624513,7.3516 Z M163.613192,14.9916 L163.613192,25.3916 L166.321117,25.3916 L166.321117,4.5916 L163.613192,4.5916 L163.613192,14.9916 Z M152.202626,4.7756 C150.397343,5.1076 149.453494,5.5496 148.535155,6.5056 C147.090928,7.9776 147.000664,8.5116 147.000664,15.1756 C147.000664,21.8396 147.090928,22.3716 148.570475,23.8636 C149.329872,24.6556 149.749796,24.8936 150.827079,25.2636 C152.004438,25.6296 152.542098,25.6876 154.963532,25.6876 C157.05923,25.6876 158.1424,25.5956 159.227532,25.3376 C159.802475,25.2196 160.36957,25.0596 160.922928,24.8596 C161.068136,24.7676 161.048513,24.4356 160.832664,23.5516 C160.730626,23.1076 160.591306,22.6696 160.416664,22.2476 C160.34406,22.1736 159.894702,22.2276 159.423758,22.3736 C157.814702,22.8716 154.998853,23.0756 153.246551,22.8556 C151.494249,22.6336 150.84474,22.3396 150.303155,21.6216 C149.942098,21.1416 149.924438,20.9416 149.924438,15.1976 C149.924438,9.4536 149.94406,9.2516 150.303155,8.7736 C150.8624,8.0536 151.494249,7.7796 153.246551,7.5396 C154.998853,7.2996 157.814702,7.5196 159.423758,8.0196 L160.399004,8.2956 C160.546174,8.2956 161.17606,5.7356 161.066174,5.6276 C161.01123,5.5716 160.34406,5.3676 159.549343,5.1476 C157.979532,4.7236 153.715532,4.5216 152.216362,4.7976 L152.202626,4.7756 Z M123.506475,12.8836 C123.810626,12.9936 124.154023,13.2336 124.246249,13.4176 C124.440513,13.7856 124.499381,21.4776 124.318853,21.9776 C124.010777,22.7876 121.569721,23.1356 119.152211,22.7316 L118.284891,22.6036 L118.284891,13.0996 L119.334702,12.9156 C120.776966,12.6756 122.817721,12.6556 123.506475,12.8876 L123.506475,12.8836 Z M115.396438,14.9736 L115.396438,25.3716 L117.1664,25.4636 L120.84957,25.7036 C123.322023,25.8536 124.876136,25.4456 125.888664,24.3616 C127.191608,23.0016 127.223004,22.8336 127.264211,18.1956 C127.317192,14.8276 127.281872,13.7956 127.066023,13.0416 C126.579381,11.3116 125.170475,10.2256 123.021796,9.9676 C121.936664,9.8396 119.101192,9.9876 118.524287,10.2276 C118.341796,10.2836 118.286853,9.6576 118.286853,7.4676 L118.286853,4.6136 L115.396438,4.6136 L115.396438,14.9736 Z M94.8986264,12.9676 C95.251834,13.0976 95.5422491,13.3616 95.7110038,13.7036 C95.9464755,14.3296 95.9464755,21.1776 95.7110038,21.7836 C95.4402113,22.5376 94.5336453,22.8856 92.8205887,22.8856 C92.0239094,22.8956 91.2272302,22.8476 90.4364377,22.7396 L89.569117,22.6116 L89.569117,13.0956 L90.616966,12.9116 C92.2260226,12.6356 94.1922113,12.6516 94.8947019,12.9676 L94.8986264,12.9676 Z M86.6826264,14.9556 L86.6826264,25.3556 L88.9039094,25.5216 L93.0933434,25.6876 C94.9182491,25.6876 95.1694189,25.6516 96.1270038,25.1536 C97.2553057,24.6316 98.1010415,23.6256 98.4385509,22.4136 C98.5464755,21.9736 98.6014189,20.0216 98.5641358,17.3536 C98.5091925,13.2496 98.4915321,12.9536 98.1128151,12.2176 C97.4064,10.8916 96.3428528,10.2476 94.3747019,9.9716 C93.3268528,9.8236 90.7248906,9.9716 89.9321358,10.2316 C89.5887396,10.3416 89.5710792,10.2676 89.5710792,7.4916 L89.5710792,4.5996 L86.6806642,4.5996 L86.6826264,14.9556 Z M81.4433811,4.8316 C81.1058717,5.0636 80.8311547,5.3796 80.6486642,5.7516 C80.3602113,6.3776 80.3425509,6.5256 80.5760604,7.1516 C80.8900226,8.0756 81.8633057,8.5796 82.779683,8.2916 C83.6823245,7.9976 84.0610415,7.4636 84.0610415,6.5056 C84.0610415,5.8056 83.9707774,5.6056 83.4645132,5.1456 C82.8326642,4.5756 82.1831547,4.4656 81.4433811,4.8516 L81.4433811,4.8316 Z M74.9424,14.9916 L74.9424,25.3916 L77.8328151,25.3916 L77.8328151,4.5916 L74.9424,4.5916 L74.9424,14.9916 Z M65.3351547,10.1516 L67.899834,17.2176 C67.899834,17.2556 66.1337962,17.2916 63.9262491,17.2916 C61.7187019,17.2916 59.9526642,17.2176 59.9526642,17.1456 C59.9526642,16.8336 61.7775698,11.8816 62.6605887,9.7456 C63.3473811,8.1056 63.6907774,7.5176 63.9242868,7.5176 C64.1577962,7.5176 64.5208151,8.1976 65.3331925,10.1316 L65.3351547,10.1516 Z M61.0574189,6.4716 C59.8113811,9.1216 58.5653434,12.3976 57.2839849,16.3716 L54.7193057,25.3356 C55.2000604,25.3816 55.7004377,25.4016 56.1635321,25.3916 L57.5900981,25.3916 L57.7863245,24.5996 L58.4927396,22.0796 L58.9793811,20.3316 L68.8947019,20.3316 L69.400966,22.1716 L70.0877585,24.6916 L70.2682868,25.3916 L71.6948528,25.3916 L73.1390792,25.3356 C73.1390792,25.2976 72.7780226,23.9356 72.3267019,22.2796 C70.6842868,16.2236 68.5885887,10.2796 66.8186264,6.5236 L65.8767396,4.5916 L61.9404377,4.5916 L61.0574189,6.4716 Z M27.4497208,0.2116 C27.4693434,0.5436 28.4799094,4.6116 28.587834,4.7036 C28.6231547,4.7596 31.0995321,5.3296 34.0821736,5.9736 L39.9159849,7.4096 C40.2338717,7.5976 40.5007396,7.8636 40.6930415,8.1836 C40.9814943,8.6996 41.0187774,9.2516 41.0187774,15.1776 L40.6930415,22.1716 C40.4968151,22.4876 40.2319094,22.7516 39.9159849,22.9456 C39.6805132,23.0736 37.0628528,23.7176 34.0821736,24.3796 L28.587834,25.6516 C28.1404377,27.1296 27.7617208,28.6276 27.4497208,30.1436 C27.4497208,30.3436 28.7507019,30.3816 34.4550038,30.3276 C42.3295698,30.2536 42.4217962,30.2356 44.4233057,28.8556 C45.8636075,27.8456 46.9507019,26.3936 47.5295698,24.7116 C47.9455698,23.4796 47.9455698,23.3696 47.9455698,15.1796 L47.5295698,5.6396 C46.9507019,3.9576 45.8636075,2.5076 44.4233057,1.4976 C42.4178717,0.0976 42.3276075,0.0976 34.4550038,0.0256 C28.7487396,-0.0304 27.4497208,-0.0024 27.4497208,0.2096 L27.4497208,0.2116 Z M6.51824906,0.1836 C4.33228679,0.6336 2.00504151,2.4196 1.01017358,4.3716 C0.0153056604,6.3236 -0.00039245283,6.8016 -0.00039245283,15.0116 L0.180135849,23.5716 C0.821796226,26.9116 3.38451321,29.5256 6.6634566,30.1796 C7.65636226,30.3636 20.587683,30.4536 20.587683,30.2536 C20.587683,30.1056 19.4888151,25.6896 19.4103245,25.6536 C19.3907019,25.6176 17.0987774,25.1016 14.3182491,24.4936 C7.8349283,23.0576 8.03311698,23.0936 7.48956981,22.4496 L7.01862642,21.8776 L7.01862642,8.5156 L7.48956981,7.9156 C8.03115472,7.2556 7.83296604,7.3076 14.3182491,5.8716 L19.4103245,4.7116 C19.4652679,4.6556 20.587683,0.2396 20.587683,0.1116 C20.587683,-0.0624 7.38556981,0.0196 6.51824906,0.2036 L6.51824906,0.1836 Z" id="Fill-1" fill="#373C41" mask="url(#mask-8)"></path>
                        </g>
                    </g>
                </g>
                <g id="equinix-metal-full" transform="translate(71.000000, 59.000000)" fill-rule="nonzero">
                    <polygon id="Path" fill="#000000" points="62.4999133 14.4782105 67.3529488 14.4782105 67.3529488 13.1738955 62.4999133 13.1738955 62.4999133 10.3043415 69.7352559 10.3043415 69.7352559 9 61 9 61 19 70 19 70 17.6955792 62.4999133 17.6955792"></polygon>
                    <path d="M103.531062,15.3932538 C103.622921,17.0855571 102.429562,18.4957622 100.77704,18.5897949 C100.685316,18.5897949 100.593457,18.5897949 100.409873,18.5897949 C98.8492115,18.6838276 97.5639923,17.3675123 97.4722683,15.7692418 C97.4722683,15.675209 97.4722683,15.4872865 97.4722683,15.3932538 L97.4722683,9 L96.0034657,9 L96.0034657,15.4872865 C95.9116063,17.837676 97.6558517,19.9061102 100.042707,20 C100.134431,20 100.318014,20 100.409873,20 C103.898364,20 105,17.5555778 105,15.4872865 L105,9 L103.531062,9 L103.531062,15.3932538 Z" id="Path" fill="#000000"></path>
                    <polygon id="Path" fill="#000000" points="115 9 114 9 114 19 115 19"></polygon>
                    <polygon id="Path" fill="#000000" points="132.584079 16.8260094 125.415921 9 124 9 124 19 125.415921 19 125.415921 11.1739113 132.584079 19 134 19 134 9 132.584079 9"></polygon>
                    <polygon id="Path" fill="#000000" points="145 9 144 9 144 19 145 19"></polygon>
                    <polygon id="Path" fill="#000000" points="160.647307 13.6086804 165.235128 9 163.227869 9 159.690866 12.6521668 156.153863 9 154.050818 9 158.448478 13.6086804 153 19 155.00726 19 159.499296 14.5651807 163.80117 19 166 19"></polygon>
                    <path d="M82.4077132,8.0930238 C79.4348158,8.0930238 77.0025177,10.6046524 77.0025177,13.6744096 C77.0025177,13.7674476 77.0025177,13.7674476 77.0025177,13.8604855 C76.9123736,16.9301721 79.2546603,19.4417723 82.1375463,19.5348103 C82.2275577,19.5348103 82.3177018,19.5348103 82.4978573,19.5348103 C83.3086233,19.5348103 84.1193894,19.3488758 84.9301554,18.976724 L85.7409215,20 L87.4525977,20 L86.0112211,18.1395239 C87.2724422,17.02321 88.0832082,15.4418478 87.9931969,13.6744096 C88.0832082,10.6046524 85.7409215,8.0930238 82.7681569,8 C82.6780128,8.0930238 82.5878686,8.0930238 82.4077132,8.0930238 Z M86.371532,13.8604855 C86.4616761,15.1627339 85.9212097,16.3720858 85.0202995,17.2092859 L84.2095335,16.2790478 L82.4978573,16.2790478 L83.9392339,17.953448 C83.4887788,18.1395239 82.9483124,18.2325619 82.4978573,18.2325619 C80.335726,18.2325619 78.5340384,16.3720858 78.5340384,14.1394579 C78.5340384,14.0465614 78.5340384,14.0465614 78.5340384,13.9535234 C78.3538829,11.7209239 79.975415,9.76743813 82.1375463,9.58139053 C82.2275577,9.58139053 82.3177018,9.58139053 82.3177018,9.58139053 C84.5698445,9.58139053 86.2815207,11.4418525 86.2815207,13.7674476 C86.371532,13.6744096 86.371532,13.7674476 86.371532,13.8604855 Z" id="Shape" fill="#000000"></path>
                    <polygon id="Path" fill="#ED1C24" points="40.1395795 6.3059175 40.1395795 18.29601 37.2790231 19.273005 37.2790231 5.3289495 28.6974897 2.398032 28.6974897 22.20399 25.8369332 23.180985 25.8369332 1.4210505 21.5 -9.09494702e-13 17.1630668 1.4210505 17.1630668 23.180985 14.3026463 22.20399 14.3026463 2.398032 5.72103133 5.3289495 5.72103133 19.273005 2.86051566 18.29601 2.86051566 6.3059175 0 7.1940825 0 20.33883 8.58154699 23.180985 8.58154699 7.282899 11.4420627 6.3059175 11.4420627 24.157845 20.0236232 27 20.0236232 3.375 21.5 2.9309175 22.9763768 3.375 22.9763768 27 31.5579101 24.157845 31.5579101 6.3059175 34.4184666 7.282899 34.4184666 23.180985 43 20.33883 43 7.1940825"></polygon>
                    <path d="M48.5,20 C49.8393421,20 51,18.8392324 51,17.5 C51,16.1607676 49.8393421,15 48.5,15 C47.1606579,15 46,16.1607676 46,17.5 C46,18.9285327 47.1606579,20 48.5,20 Z M48.5,19.7320992 C47.25,19.7320992 46.2678947,18.7500679 46.2678947,17.5 C46.2678947,16.2500679 47.25,15.2679008 48.5,15.2679008 C49.75,15.2679008 50.7321053,16.2500679 50.7321053,17.5 C50.8214474,18.7500679 49.8393421,19.7320992 48.5,19.7320992 C48.5893421,19.7320992 48.5893421,19.7320992 48.5,19.7320992 Z M47.5178947,18.7500679 L48.1428947,18.7500679 L48.1428947,17.9465013 L48.5,17.9465013 L49.0356579,18.7500679 L49.8393421,18.7500679 L49.2143421,17.857201 C49.5714474,17.7679008 49.8393421,17.4106997 49.75,17.0536344 C49.75,16.4285327 49.3035526,16.1607676 48.6785526,16.1607676 L47.4285526,16.1607676 L47.5178947,18.7500679 Z M48.1428947,17.4106997 L48.1428947,16.6964334 L48.6785526,16.6964334 C48.9464474,16.6964334 49.125,16.7857337 49.125,17.0536344 C49.125,17.3213995 48.9464474,17.4106997 48.6785526,17.4106997 L48.1428947,17.4106997 Z" id="Shape" fill="#ED1C24"></path>
                    <polygon id="Path" fill="#707073" points="183.6695 -9.09494702e-13 183.3305 -9.09494702e-13 183.3305 27 183.6695 27"></polygon>
                    <polygon id="Path" fill="#707073" points="201 9 203.068648 9 206.547802 13.6956311 209.931352 9 212 9 212 18.9130299 210.02557 18.9130299 210.02557 11.8695502 206.453584 16.5652342 206.359365 16.5652342 202.880212 11.956507 202.880212 19 201 19"></polygon>
                    <polygon id="Path" fill="#707073" points="217 9 224.910922 9 224.910922 10.5789425 218.955788 10.5789425 218.955788 13.2105088 224.288685 13.2105088 224.288685 14.7894779 218.955788 14.7894779 218.955788 17.4210709 225 17.4210709 225 19 217 19"></polygon>
                    <polygon id="Path" fill="#707073" points="231.525068 10.6666622 228 10.6666622 228 9 237 9 237 10.6666622 233.473564 10.6666622 233.473564 19 231.525068 19"></polygon>
                    <path d="M242.031614,9 L243.96696,9 L249,19 L246.870692,19 L245.709769,16.6316032 L240.193249,16.6316032 L239.032327,19 L237,19 L242.031614,9 Z M244.935346,15.1404051 L242.903019,11.1929704 L240.967673,15.1404051 L244.935346,15.1404051 Z" id="Shape" fill="#707073"></path>
                    <polygon id="Path" fill="#707073" points="252 9 254 9 254 17.4070958 260 17.4070958 260 19 252 19"></polygon>
                </g>
            </g>
        </g>
    </g>
</svg>