<svg xmlns="http://www.w3.org/2000/svg" width="40" height="40" viewBox="0 0 40 40">
    <path fill="#505A72" fill-rule="nonzero" d="M31.643 2.071H8.357A7.835 7.835 0 0 0 .5 9.93V29.57C.5 33.93 4 37.43 8.357 37.43h23.286c4.357 0 7.857-3.5 7.857-7.858V9.93c0-4.358-3.5-7.858-7.857-7.858zM8.929 25.643c.285.5.142 1.143-.429 1.428-.143.072-.357.143-.5.143-.357 0-.714-.214-.929-.571a14.055 14.055 0 0 1-1.857-7c0-2.429.643-4.857 1.857-7 .286-.5.929-.714 1.429-.357.5.285.714.928.429 1.428-1 1.786-1.572 3.786-1.572 5.929 0 2.214.5 4.214 1.572 6zm5.5-1c-.215.143-.358.214-.572.214-.357 0-.714-.143-.857-.5a8.74 8.74 0 0 1-1.429-4.786c0-1.5.358-3 1.143-4.285.286-.5.929-.715 1.429-.429s.714.929.357 1.5c-.571.929-.929 2.072-.929 3.214 0 1.286.358 2.5 1.072 3.572.357.5.214 1.143-.214 1.5zM20 22.57a2.79 2.79 0 0 1-2.786-2.785A2.79 2.79 0 0 1 20 17a2.79 2.79 0 0 1 2.786 2.786A2.79 2.79 0 0 1 20 22.57zm7.429 1.715c-.215.357-.572.571-.929.571-.143 0-.357-.071-.571-.143-.5-.285-.715-.928-.358-1.428.572-1 .858-2.072.858-3.215 0-1.285-.358-2.5-1.072-3.571-.357-.5-.214-1.143.286-1.5s1.143-.214 1.5.286c.928 1.428 1.5 3.071 1.5 4.785-.072 1.429-.429 2.929-1.214 4.215zm5.571 2.5c-.214.357-.571.571-.929.571-.214 0-.357-.071-.571-.143-.5-.285-.714-.928-.357-1.5 1.071-1.785 1.571-3.857 1.571-5.928 0-2.072-.571-4.143-1.571-5.929-.286-.5-.143-1.143.357-1.428.5-.286 1.143-.143 1.429.357a14.055 14.055 0 0 1 1.857 7c.071 2.428-.572 4.857-1.786 7z"/>
</svg>
