<svg xmlns="http://www.w3.org/2000/svg" width="40" height="40" viewBox="0 0 40 40">
    <g fill="none" fill-rule="nonzero">
        <path fill="#2D333A" d="M16.383 18.198l5.419-1.815 1.815 5.419-5.419 1.815z"/>
        <g fill="#505A72">
            <path d="M16.589 18.264l5.298-1.775 1.714 5.118-5.298 1.774z"/>
            <path d="M38.286 14.444C34.19.794 28.286-2.38 14.635 1.714.985 5.81-2.19 11.714 1.905 25.365c4.095 13.65 10 16.825 23.65 12.73 13.651-4.095 16.826-10 12.73-23.65zm-6.89 8.858l-2.57.857.888 2.666c.35 1.08-.222 2.254-1.301 2.604-.223.063-.476.127-.699.095-.825-.032-1.619-.572-1.904-1.397l-.89-2.667-5.301 1.778.889 2.667c.35 1.08-.222 2.254-1.302 2.603-.222.063-.476.127-.698.095-.825-.032-1.62-.571-1.905-1.397l-.889-2.666-2.571.857c-.222.063-.476.127-.699.095-.825-.032-1.619-.571-1.904-1.397-.35-1.08.222-2.254 1.301-2.603l2.572-.857-1.715-5.111-2.571.857c-.222.063-.476.127-.698.095-.826-.032-1.62-.571-1.905-1.397-.35-1.079.222-2.254 1.301-2.603l2.572-.857-.89-2.667c-.348-1.079.223-2.254 1.303-2.603 1.079-.349 2.253.222 2.603 1.302l.889 2.666 5.301-1.777-.889-2.667c-.349-1.08.223-2.254 1.302-2.603 1.08-.35 2.254.222 2.603 1.301l.889 2.667 2.571-.857c1.08-.35 2.254.222 2.604 1.302.349 1.079-.223 2.254-1.302 2.603l-2.571.857 1.714 5.111 2.571-.857c1.08-.35 2.254.222 2.603 1.301.35 1.08-.222 2.254-1.301 2.604z"/>
        </g>
    </g>
</svg>
