<svg xmlns="http://www.w3.org/2000/svg" xmlns:xlink="http://www.w3.org/1999/xlink" width="116" height="49" viewBox="0 0 116 49">
    <defs>
        <path id="prefix__a" d="M0 49L116 49 116 0 0 0z"/>
    </defs>
    <g fill="none" fill-rule="evenodd">
        <path fill="#000" d="M41.058 14.685l-.004-.004-.004-.004-.005-.004-.006-.003-.007-.004-.007-.004-.007-.004-.008-.004L41 14.65l-.009-.004-.01-.003-.01-.004-.01-.005-.012-.004-.012-.004-.012-.004-.013-.005-.013-.004-.015-.005-.014-.005-.015-.006-.017-.006-.016-.005-.017-.006-.018-.006-.018-.007-.02-.006-.019-.008-.02-.007-.02-.008-.021-.008-.022-.01-.023-.008-.023-.008-.023-.01-.025-.01-.024-.011-.026-.011-.026-.012-.027-.012-.027-.012-.029-.013-.028-.013-.03-.015-.03-.014-.03-.015h-.001l-.031-.016-.032-.016-.032-.016-.034-.018-.033-.018h-.001l-.034-.019-.035-.02-.036-.02-.037-.02-.037-.022-.038-.023c-.09-.052-.184-.111-.285-.177v5.056c-3.924 1.771-7.317 4.828-4.675 7.487.278.228.67.456.92.486-.501-.288-1.058-.688-1.197-1.8-.03-2.317 3.756-4.715 5.87-5.487v-3.914c4.369 1.572 9.488 1.087 13.912-2.228.165.371.277.914.222 1.429h.779c.194-1.572-.89-3.085-2.558-3.2.471.428.862.742 1.028 1.028 0 .028-.113.114-.113.114-5.702 4.085-11.182 2.2-11.71 2.058l3.141-3.171-.86-2.287C50.627 7.314 55.886 5.6 64.455 4.085l-1.92-1.629 1.002-.628c5.174 1.485 8.57 2.571 8.374 5.372.159-.843.098-1.532-.14-2.108-.99-2.314-4.91-2.82-8.43-4.092l-2.087 1.227 1.281 1.23C55.386 4.684 51.854 5.885 43.061 9l1.002 2.63-3.005 3.056z"/>
        <path fill="#F60" d="M66.808 23.216c3.356-4.57 9.709-10.945 9.928-15.457.387-5.896-5.444-7.814-11.44-7.758-4.18.057-8.499 1.271-11.44 2.34-10.149 3.64-16.53 9.48-20.545 15.937-4.262 6.403-2.86 12.523 6.133 12.722 6.903-.282 11.384-2.228 16.062-4.655.026 0-12.927 3.753-17.684.989-.248-.03-.634-.255-.909-.48-2.612-2.625.743-5.643 4.621-7.391v-4.991c.908.592 1.348.62 1.43.704l2.97-3.017-.99-2.596c8.691-3.074 12.183-4.26 19.251-5.471L62.93 2.877l2.064-1.211c3.478 1.256 7.353 1.756 8.33 4.04.244.57.308 1.25.14 2.08-.095.475-.266 1-.522 1.58-1.485 2.99-5.913 7.983-7.7 10.07-1.183 1.38-2.337 2.736-3.164 4.033-.852 1.298-1.375 2.509-1.4 3.667.107 9.053 26.263-4.23 31.323-7.757-7.48 3.272-15.537 6.43-24.423 7.024-2.447.112-2.2-1.187-.769-3.187M6.935 38.383l1.619 3.638H5.22l1.715-3.638zM14 46L9 36H5.24L0 46h3.396l.816-1.803h5.254L10.227 46H14z"/>
        <mask id="prefix__b" fill="#fff">
            <use xlink:href="#prefix__a"/>
        </mask>
        <path fill="#F60" d="M15 46L18 46 18 36 15 36zM21 46L24 46 24 39 21 39zM21 38L24 38 24 36 21 36zM32.045 39.93c.505 0 .905.192 1.199.576.295.384.442.908.442 1.573 0 .65-.151 1.165-.452 1.547-.301.381-.707.571-1.217.571-.52 0-.924-.185-1.214-.552-.29-.37-.435-.887-.435-1.552 0-.704.145-1.24.432-1.608.287-.37.702-.555 1.245-.555zM27.118 35v9.557c0 .274-.01.516-.032.73-.02.21-.049.388-.086.529h3.278c.042-.15.072-.329.09-.533.02-.206.028-.433.028-.683.354.46.779.808 1.275 1.045.497.238 1.051.355 1.661.355 1.109 0 1.996-.342 2.665-1.03.669-.687 1.003-1.6 1.003-2.74 0-1.251-.339-2.257-1.016-3.015-.679-.758-1.576-1.138-2.693-1.138-.574 0-1.102.108-1.586.32-.482.213-.918.533-1.309.96V35h-3.278zM42.188 42.739c.41-.149 1.181-.224 2.313-.224v.12c0 .564-.149.986-.448 1.266-.297.279-.742.42-1.337.42-.365 0-.646-.071-.846-.213-.198-.14-.299-.337-.299-.59 0-.371.206-.63.617-.779m-2.466-4.117c-.781.413-1.178 1.044-1.193 1.891h3.228c.044-.281.178-.493.403-.634.226-.141.55-.211.971-.211.467 0 .815.097 1.05.29.232.192.348.484.348.875l-.007.093-.007.085c-2.347.02-4.019.245-5.017.672-.999.43-1.498 1.127-1.498 2.093 0 .71.29 1.257.87 1.644.578.386 1.403.58 2.48.58.756 0 1.398-.108 1.928-.32.53-.214.963-.54 1.296-.983 0 .199.015.391.044.577.03.185.076.369.142.55H48c-.055-.127-.092-.266-.114-.414-.021-.148-.033-.344-.033-.585V40.93c0-.986-.377-1.722-1.126-2.205-.753-.483-1.897-.725-3.433-.725-1.601 0-2.791.208-3.572.622M52.8 40.484c.287-.37.702-.554 1.244-.554.506 0 .906.192 1.2.575.294.385.442.909.442 1.575 0 .649-.15 1.164-.452 1.546-.302.38-.706.57-1.217.57-.52 0-.924-.183-1.215-.552-.29-.368-.434-.886-.434-1.551 0-.705.145-1.24.432-1.609zM49.117 35v9.557c0 .274-.01.516-.03.729-.022.211-.05.39-.087.53h3.278c.042-.151.072-.329.09-.534.018-.205.028-.432.028-.682.354.459.779.808 1.275 1.045.496.237 1.05.355 1.66.355 1.108 0 1.997-.343 2.665-1.03.669-.687 1.004-1.6 1.004-2.74 0-1.251-.34-2.257-1.017-3.015-.679-.758-1.577-1.138-2.692-1.138-.574 0-1.104.108-1.586.32-.482.214-.92.533-1.31.96V35h-3.278zM64.186 42.739c.411-.149 1.183-.224 2.314-.224v.12c0 .564-.15.986-.446 1.266-.298.279-.744.42-1.339.42-.365 0-.645-.071-.846-.213-.198-.14-.299-.337-.299-.59 0-.371.206-.63.616-.779m-2.465-4.117c-.78.413-1.177 1.044-1.191 1.891h3.226c.046-.281.18-.493.405-.634.225-.141.55-.211.97-.211.466 0 .816.097 1.048.29.234.192.35.484.35.875l-.007.093-.008.085c-2.345.02-4.017.245-5.018.672C60.5 42.113 60 42.81 60 43.776c0 .71.29 1.257.868 1.644.578.386 1.407.58 2.481.58.756 0 1.399-.108 1.93-.32.529-.214.96-.54 1.293-.983 0 .199.016.391.045.577.03.185.076.369.141.55H70c-.054-.127-.093-.266-.114-.414-.023-.148-.034-.344-.034-.585V40.93c0-.986-.375-1.722-1.127-2.205-.751-.483-1.895-.725-3.432-.725-1.6 0-2.792.208-3.572.622M75 40.55c0 1.046.22 1.99.664 2.838.443.847 1.097 1.494 1.964 1.941.869.448 1.833.671 2.895.671.786 0 1.555-.14 2.301-.415.747-.278 1.472-.693 2.176-1.243v-3.94h-4.58v1.251h3.173v1.99c-.305.266-.753.518-1.34.754-.591.235-1.194.353-1.813.353-.71 0-1.384-.156-2.014-.466-.635-.31-1.116-.786-1.448-1.426-.332-.64-.496-1.434-.496-2.387 0-.77.136-1.486.411-2.145.163-.384.39-.735.681-1.055.293-.32.676-.579 1.153-.775.476-.197 1.04-.294 1.693-.294.546 0 1.039.092 1.486.28.448.186.792.435 1.03.746.24.31.443.738.605 1.279l1.296-.347c-.186-.717-.459-1.298-.817-1.743-.359-.446-.856-.794-1.488-1.044-.631-.25-1.339-.373-2.12-.373-1.076 0-2.028.217-2.853.652-.827.436-1.46 1.102-1.898 2-.442.898-.661 1.864-.661 2.899M88 38.172V46h1.249v-4.097c0-.56.07-1.075.208-1.548.094-.308.247-.551.463-.726.218-.174.462-.26.734-.26.303 0 .607.093.912.283l.434-1.23c-.434-.281-.862-.422-1.283-.422-.29 0-.558.088-.8.265-.242.176-.508.541-.795 1.095v-1.188H88zM93.931 44.205c-.416-.488-.625-1.222-.625-2.203 0-.98.21-1.714.625-2.2.416-.486.941-.73 1.572-.73.623 0 1.144.246 1.562.733.42.489.628 1.206.628 2.154 0 1.004-.207 1.753-.623 2.243-.417.49-.94.737-1.567.737-.631 0-1.156-.245-1.572-.734m-.777-5.355C92.384 39.532 92 40.582 92 42c0 1.292.322 2.282.968 2.969.645.686 1.49 1.031 2.535 1.031.652 0 1.255-.157 1.805-.469.552-.312.971-.75 1.26-1.315.288-.564.432-1.34.432-2.325 0-1.215-.325-2.168-.976-2.857-.652-.69-1.492-1.034-2.52-1.034-.924 0-1.708.283-2.35.85M101 38v4.847c0 .565.025.978.077 1.237.074.388.202.715.386.983.182.269.463.49.842.667.378.177.784.266 1.221.266.988 0 1.768-.445 2.345-1.33v1.156H107v-7.825h-1.257v4.187c0 .669-.07 1.177-.207 1.528-.136.351-.37.629-.697.83-.33.206-.682.308-1.058.308-.375 0-.691-.1-.946-.299-.254-.2-.422-.472-.5-.82-.05-.24-.076-.707-.076-1.399V38H101zM110.861 44.368c-.42-.482-.63-1.227-.63-2.235 0-1.008.224-1.776.671-2.305.448-.529.962-.794 1.543-.794.585 0 1.089.25 1.51.746.424.497.634 1.244.634 2.242 0 1.047-.214 1.821-.648 2.32-.432.5-.951.75-1.557.75-.598 0-1.104-.243-1.523-.724zM109 38.172V49h1.372v-3.807c.231.284.529.519.89.704.363.186.771.279 1.226.279.62 0 1.214-.171 1.778-.512.563-.341.994-.833 1.29-1.474.295-.64.444-1.361.444-2.162 0-.746-.135-1.432-.403-2.06-.268-.624-.665-1.109-1.191-1.454-.527-.344-1.135-.514-1.824-.514-.524 0-.973.099-1.342.297-.37.198-.703.496-.996.893v-1.018H109zM87.499 29.765c-.7 0-1.266-.569-1.266-1.264 0-.699.566-1.266 1.266-1.266.699 0 1.266.567 1.266 1.266 0 .695-.567 1.264-1.266 1.264M86 28.501c0 .825.673 1.499 1.499 1.499.828 0 1.501-.674 1.501-1.5 0-.827-.673-1.5-1.501-1.5-.826 0-1.499.673-1.499 1.5" mask="url(#prefix__b)"/>
        <path fill="#F60" d="M87.947 28.875h-.645v-.651h.72c.167 0 .287.03.365.088.076.06.117.14.117.232 0 .065-.022.12-.062.178-.037.05-.096.093-.177.12-.076.02-.18.033-.318.033zM87 28v2h.302v-.888h.348l.168.008c.047.009.09.03.136.053.045.027.096.072.154.135.053.066.13.154.218.28l.297.412H89l-.395-.545c-.075-.107-.163-.193-.247-.267-.041-.034-.1-.066-.182-.098.218-.03.378-.091.484-.186.1-.097.154-.218.154-.36 0-.11-.03-.21-.096-.3-.062-.094-.144-.154-.25-.193-.102-.033-.26-.051-.46-.051H87z" mask="url(#prefix__b)"/>
    </g>
</svg>
