<svg xmlns="http://www.w3.org/2000/svg" xmlns:xlink="http://www.w3.org/1999/xlink" width="197" height="30" viewBox="0 0 197 30">
    <defs>
        <path id="a" d="M0 0h196.524V28.47H0z"/>
    </defs>
    <g fill="none" fill-rule="evenodd">
        <mask id="b" fill="#fff">
            <use xlink:href="#a"/>
        </mask>
        <path fill="#373C41" d="M18.365 13.863c-.056.184-.067.381-.033.57.052.293.358.312 4.378.362l4.312.034v-1.208h-4.274c-3.574 0-4.312.034-4.38.244l-.003-.002zm154.64-4.175c-.05.138-.07 2.726-.034 5.747.052 4.968.086 5.555.377 6.108 1.01 1.917 2.72 2.71 5.507 2.52l4.862-.294V9.482h-2.604V21.2l-.803.12c-1.488.244-3.337.156-3.934-.155l-.6-.347c-.019-.017-.086-2.552-.138-5.623l-.085-5.625-1.25-.053c-.94-.034-1.261 0-1.334.188l.036-.017zm-96.363 6.937v7.16h2.565V9.464h-2.565v7.162zm90.672-4.47c.872.45 1.01 1.069 1.01 4.47 0 3.225-.122 3.83-.856 4.487-.531.484-2.942.604-3.815.173-1.026-.484-1.145-.985-1.145-4.66 0-3.52.1-3.986.99-4.47.65-.362 3.13-.362 3.816 0zm-3.765-2.865a4.783 4.783 0 0 0-2.652 1.622c-.872 1.157-.958 1.725-.958 5.869 0 4.245.12 4.742 1.251 5.936 1.113 1.155 1.641 1.31 4.223 1.31 2.652 0 3.252-.185 4.345-1.497 1.042-1.245 1.163-1.866 1.117-6.231-.054-3.553-.086-3.898-.43-4.554a5.137 5.137 0 0 0-2.24-2.175c-.874-.398-3.439-.57-4.636-.312l-.02.032zM130.4 17.92h.46v3.262l-.975.12c-1.881.244-3.712.188-4.191-.138-.957-.638-.924-2.312.052-2.813.67-.347 2.258-.587 3.317-.484l1.335.068.002-.015zm-3.387-8.625l-2.274.45c-1.147.276-1.25.345-1.164.675l.309 1.275c.186.862.223.915.632.812 2.293-.604 4.497-.776 5.391-.45.803.311.974.656.974 1.969v1.243h-2.122c-2.686 0-3.918.345-5.098 1.413a3.872 3.872 0 0 0-1.318 3.454c.292 2.813 2.275 4.176 5.832 3.953l3.574-.188 1.847-.12-.05-5.711c-.054-5.488-.07-5.747-.43-6.42-.973-1.847-3.181-2.676-6.123-2.329l.02-.026zm-23.296 8.756c.173.103.155 3.158-.018 3.158-.086 0-.957.084-1.952.187-2.856.276-3.899-.155-3.899-1.639 0-.637.086-.828.513-1.207.372-.29.851-.474 1.334-.536l1.06-.17c.308-.072 2.788.091 2.959.215l.003-.008zm-3.984-8.732c-.764.104-1.524.248-2.275.432-.924.225-1.147.345-1.078.57.052.155.17.656.29 1.138.119.482.241.915.308.965.067.051.805-.033 1.643-.187 2.859-.604 4.791-.328 5.063.707.087.46.134.928.137 1.397l.019.965-1.624-.086c-4.346-.225-6.962 1.416-6.996 4.365-.018 1.395.428 2.483 1.351 3.345 1.078 1.003 2.223 1.314 4.431 1.159l3.576-.188 1.845-.12-.102-11.597-.48-.812c-.955-1.63-3.233-2.39-6.106-2.019l-.002-.034zm93.78 2.837c.274.12.289.5.289 4.59v4.451l-.63.12c-1.117.226-3.182.173-3.782-.086-.309-.139-.63-.378-.717-.553-.09-.174-.173-2.002-.173-4.074 0-4.123.033-4.243.94-4.536.55-.172 3.557-.103 4.089.086l-.017.002zm.289-5.263V9.48l-.976-.104-1.366-.172c-.583-.103-2.74.244-3.354.553a4.609 4.609 0 0 0-1.881 1.88c-.34.638-.375 1.002-.427 4.499-.067 4.712.068 5.402 1.3 6.628 1.114 1.088 2.431 1.45 4.67 1.313l3.183-.188 1.572-.103V4.323h-2.734l.013 2.57zm-38.842 7.163v9.75h2.564v-19.5h-2.564v9.75zm-10.808-9.578c-1.71.311-2.603.726-3.473 1.622-1.368 1.38-1.453 1.88-1.453 8.128s.085 6.746 1.486 8.145c.72.743 1.117.966 2.138 1.313 1.115.343 1.624.397 3.917.397 1.985 0 3.011-.086 4.039-.328.544-.11 1.081-.26 1.606-.448.137-.086.119-.398-.086-1.226a7.675 7.675 0 0 0-.394-1.223c-.069-.07-.494-.019-.94.118-1.524.467-4.191.658-5.85.452-1.66-.208-2.276-.484-2.789-1.157-.342-.45-.358-.637-.358-6.022s.018-5.575.358-6.023c.53-.675 1.129-.932 2.788-1.157 1.66-.225 4.327-.018 5.85.45l.924.26c.14 0 .736-2.4.632-2.502-.052-.053-.684-.244-1.436-.45-1.487-.398-5.526-.587-6.946-.328l-.013-.02zm-27.178 7.601c.288.104.613.329.7.501.185.345.24 7.556.07 8.025-.292.76-2.604 1.086-4.894.707l-.822-.12v-8.91l.995-.173c1.366-.225 3.299-.243 3.95-.026v-.004zm-7.681 1.96v9.748l1.676.086 3.488.225c2.342.14 3.814-.242 4.773-1.258 1.234-1.275 1.264-1.432 1.303-5.78.05-3.158.017-4.126-.188-4.833-.46-1.621-1.795-2.64-3.83-2.881-1.028-.12-3.713.018-4.26.243-.173.053-.225-.534-.225-2.587V4.325h-2.737v9.713zm-19.414-1.88c.334.121.61.369.77.69.222.586.222 7.006 0 7.574-.257.707-1.116 1.033-2.738 1.033-.755.01-1.51-.035-2.258-.137l-.822-.12v-8.92l.993-.173c1.524-.26 3.386-.244 4.051.052h.004zm-7.782 1.863v9.75l2.104.155 3.968.156c1.729 0 1.966-.034 2.873-.5a4.023 4.023 0 0 0 2.19-2.57c.102-.412.154-2.242.119-4.743-.052-3.847-.07-4.125-.428-4.815-.669-1.243-1.676-1.847-3.54-2.106-.993-.138-3.457 0-4.208.244-.325.103-.342.034-.342-2.569v-2.71h-2.737l.001 9.708zM77.136 4.53c-.32.217-.58.513-.752.862-.274.587-.29.726-.07 1.313a1.68 1.68 0 0 0 2.088 1.068c.855-.275 1.214-.776 1.214-1.674 0-.656-.086-.844-.565-1.275-.599-.534-1.214-.638-1.915-.276V4.53zm-6.157 9.525v9.75h2.738v-19.5h-2.738v9.75zm-9.1-4.538l2.43 6.625c0 .035-1.673.069-3.763.069-2.091 0-3.764-.07-3.764-.137 0-.293 1.728-4.935 2.565-6.938.65-1.537.976-2.088 1.197-2.088.22 0 .565.637 1.334 2.45l.002.02zm-4.05-3.45c-1.18 2.485-2.36 5.556-3.574 9.281l-2.43 8.404c.456.043.93.062 1.368.053h1.351l.186-.743.67-2.362.46-1.64h9.391l.48 1.726.65 2.362.171.657h1.351l1.368-.053c0-.035-.342-1.312-.77-2.865-1.555-5.677-3.54-11.25-5.216-14.771l-.892-1.811h-3.728l-.837 1.762zM25.998.198c.018.312.975 4.125 1.077 4.212.033.052 2.379.587 5.204 1.19l5.525 1.347c.301.176.554.425.736.725.273.484.309 1.001.309 6.557l-.309 6.557a2.241 2.241 0 0 1-.736.726c-.223.12-2.702.723-5.525 1.344l-5.204 1.192a47.362 47.362 0 0 0-1.078 4.212c0 .187 1.232.223 6.635.172 7.458-.07 7.545-.086 9.441-1.38a7.873 7.873 0 0 0 2.942-3.885c.394-1.155.394-1.258.394-8.936l-.394-8.944a7.868 7.868 0 0 0-2.942-3.883C40.174.091 40.089.091 32.633.024c-5.405-.052-6.635-.026-6.635.173v.001zM6.173.172C4.104.594 1.899 2.268.957 4.098.014 5.928 0 6.377 0 14.073l.17 8.025c.608 3.132 3.036 5.582 6.141 6.195.94.173 13.188.257 13.188.07 0-.139-1.04-4.279-1.115-4.313-.019-.034-2.19-.517-4.823-1.087-6.14-1.347-5.953-1.313-6.468-1.916l-.446-.537V7.983l.446-.562c.513-.619.326-.57 6.468-1.916l4.823-1.088c.052-.052 1.115-4.192 1.115-4.312 0-.163-12.504-.087-13.325.086V.172z" mask="url(#b)"/>
    </g>
</svg>
