<svg xmlns="http://www.w3.org/2000/svg" xmlns:xlink="http://www.w3.org/1999/xlink" width="208" height="30" viewBox="0 0 208 30">
    <defs>
        <path id="a" d="M0 29.97h157.285V0H0z"/>
        <path id="c" d="M0 29.97h157.285V0H0z"/>
    </defs>
    <g fill="none" fill-rule="evenodd">
        <path fill="#152849" d="M47.778 24.169c-1.418.908-3.822 1.387-6.009 1.387-5.984 0-8.436-3.657-8.436-9.507 0-5.373 2.957-9.382 8.941-9.382 1.995 0 4.134.53 5.456 1.437v4.943l-2.644-.227-.385-2.47c-.047-.253-.144-.38-.384-.455-.529-.177-1.346-.303-2.139-.303-3.052 0-5 2.169-5 6.457 0 4.463 1.851 6.632 4.832 6.632.793 0 1.778-.126 2.403-.328.288-.075.36-.152.433-.53l.36-2.345h2.572v4.69"/>
        <path fill="#152849" fill-rule="nonzero" d="M58.224 18.803c0-2.898-.91-3.929-2.554-3.929-1.67 0-2.784 1.008-2.784 3.953 0 2.972.987 4.15 2.683 4.15 1.644 0 2.655-1.105 2.655-4.174zm-9.335.148c0-4.077 2.201-6.729 6.831-6.729 4.68 0 6.502 2.702 6.502 6.459 0 4.174-2.175 6.875-6.83 6.875-4.63 0-6.503-2.75-6.503-6.605z"/>
        <path fill="#152849" d="M74.444 24.353c-1.13.687-2.875 1.203-4.67 1.203-4.45 0-6.44-2.775-6.44-6.507 0-4.592 2.802-6.827 6.735-6.827 1.917 0 3.614.54 4.375 1.032v3.855l-2.63-.123-.295-1.62c-.024-.173-.073-.32-.294-.394-.296-.098-.763-.171-1.254-.171-1.475 0-2.729 1.006-2.729 3.88 0 3.191 1.426 4.1 3.171 4.1 1.23 0 2.336-.393 3.073-.712l.958 2.284M85.283 25.556l-3.089-6.38-1.313 1.476v2.252c0 .4.025.45.389.5l1.46.175v1.977h-7.126v-1.977l1.216-.175c.34-.05.39-.125.39-.5V9.694c0-.275-.074-.45-.317-.525l-1.337-.476.267-2.026h5.058V17.35l4.45-4.829h3.356v1.977l-1.265.25c-.316.05-.389.125-.607.375l-1.727 1.876 3.112 5.98c.17.35.341.4.73.45l1.07.175v1.952h-4.717M91.265 25.556v-2.034l1.155-.151c.359-.05.41-.125.41-.502v-7.357c0-.277-.077-.452-.333-.527l-1.386-.478.282-2.034h4.517l.307 2.009h.155c.846-1.28 1.975-2.26 3.618-2.26.59 0 1.77.1 2.232.226v4.57l-3.08-.1-.255-1.331c-.052-.226-.129-.276-.334-.276-.667 0-1.463.552-1.848.878v6.654c0 .403.026.478.411.503l2.54.201v2.009h-8.391"/>
        <path fill="#152849" fill-rule="nonzero" d="M112.669 18.803c0-2.898-.91-3.929-2.555-3.929-1.67 0-2.783 1.008-2.783 3.953 0 2.972.987 4.15 2.682 4.15 1.644 0 2.656-1.105 2.656-4.174zm-9.336.148c0-4.077 2.202-6.729 6.832-6.729 4.68 0 6.502 2.702 6.502 6.459 0 4.174-2.176 6.875-6.831 6.875-4.63 0-6.503-2.75-6.503-6.605zM123.862 19.982l-1.62.122c-1.406.099-1.907.467-1.907 1.45 0 .982.573 1.35 1.359 1.35.81 0 1.62-.467 2.168-.884v-2.038zm.643 5.28l-.238-1.327-.12-.024c-.905.908-2.096 1.645-4.002 1.645-3.002 0-3.478-2.112-3.478-3.634 0-2.456 1.477-3.586 4.455-3.782l2.74-.196v-1.35c0-1.155-.12-1.94-1.596-1.94-1.144 0-1.74.172-1.74 1.645l-3.359-.296c0-3.314 2.93-3.78 5.123-3.78 3.621 0 5.074 1.006 5.074 4.444v5.967c0 .393.024.442.382.49l1.143.198v1.94h-4.384z"/>
        <path fill="#152849" d="M141.111 24.353c-1.13.687-2.876 1.203-4.67 1.203-4.45 0-6.441-2.775-6.441-6.507 0-4.592 2.803-6.827 6.736-6.827 1.917 0 3.613.54 4.375 1.032v3.855l-2.63-.123-.295-1.62c-.024-.173-.074-.32-.295-.394-.294-.098-.762-.171-1.253-.171-1.476 0-2.73 1.006-2.73 3.88 0 3.191 1.427 4.1 3.172 4.1 1.23 0 2.335-.393 3.073-.712l.958 2.284"/>
        <g>
            <mask id="b" fill="#fff">
                <use xlink:href="#a"/>
            </mask>
            <path fill="#152849" d="M151.969 25.435v-8.048c0-.741-.074-2.098-1.299-2.098-.906 0-1.935.469-2.547.914v6.616c0 .394.024.444.392.493l1.175.173v1.95h-6.76v-1.95l1.102-.173c.342-.049.391-.123.391-.494V9.784c0-.271-.073-.444-.318-.518l-1.347-.469.269-2h5.046v6.987l.123.024c1.102-.913 2.377-1.481 3.92-1.481 2.596 0 3.552 1.432 3.552 3.999v6.494c0 .394.024.444.392.493l1.225.173v1.95h-5.316" mask="url(#b)"/>
        </g>
        <g>
            <mask id="d" fill="#fff">
                <use xlink:href="#c"/>
            </mask>
            <path fill="#152849" fill-rule="nonzero" d="M18.067 8.597a14.212 14.212 0 0 1-3.263.375 14.28 14.28 0 0 1-3.268-.375 14.618 14.618 0 0 1 3.268-3.668 14.689 14.689 0 0 1 3.263 3.668zm9.87-8.059A15.902 15.902 0 0 0 23.805 0 16.1 16.1 0 0 0 14.8 2.743 16.08 16.08 0 0 0 5.794 0C4.367 0 2.98.184 1.663.538 1.107.68.568.86.04 1.06a.065.065 0 0 0-.035.087c.23.504.487.993.764 1.465a.062.062 0 0 0 .074.028 14.266 14.266 0 0 1 4.95-.874c2.748 0 5.319.775 7.516 2.11a16.391 16.391 0 0 0-3.513 4.2 15.872 15.872 0 0 0-1.232 2.595 16.448 16.448 0 0 0-1.018 5.71 16.403 16.403 0 0 0 6.386 13.005c.268.215.55.413.831.603.021.015.05.014.071 0 .281-.194.559-.393.827-.603a9.7 9.7 0 0 0 .627-.506c.258-.22.516-.448.756-.681a16.424 16.424 0 0 0 5.008-11.819 16.412 16.412 0 0 0-1.436-6.726c-.098-.224-.2-.44-.303-.65a18.715 18.715 0 0 0-.511-.928 16.482 16.482 0 0 0-3.514-4.2 14.423 14.423 0 0 1 7.516-2.11 14.266 14.266 0 0 1 4.95.874c.029.01.06-.002.075-.028.276-.472.53-.96.763-1.464a.065.065 0 0 0-.035-.088c-.531-.2-1.07-.38-1.621-.522z" mask="url(#d)"/>
        </g>
        <path fill="#54B30E" d="M164.444 12.222h2.727v10.622h5.051v2.712h-7.778V12.222"/>
        <path fill="#54B30E" fill-rule="nonzero" d="M179.901 16.102l-1.543 4.143h3.105l-1.562-4.143zm-1.077-3.88h2.315l5.528 13.334h-3.16l-1.093-2.826h-4.936l-1.058 2.826h-3.087l5.491-13.334zM190.584 23.07h2.518c.216 0 .434-.025.656-.076.222-.05.423-.138.602-.264.18-.125.327-.287.441-.489.114-.2.171-.446.171-.734 0-.315-.075-.568-.225-.763a1.439 1.439 0 0 0-.566-.443c-.228-.1-.474-.169-.737-.207a5.217 5.217 0 0 0-.738-.057h-2.122v3.033zm0-5.518h2.032c.216 0 .429-.025.638-.075.21-.05.4-.132.567-.245.168-.114.303-.264.405-.452.101-.188.153-.414.153-.678 0-.277-.057-.506-.171-.687a1.213 1.213 0 0 0-.44-.425c-.18-.1-.385-.172-.612-.216a3.495 3.495 0 0 0-.666-.066h-1.906v2.844zm-2.806-5.33h4.748c.551 0 1.106.04 1.664.122a4.416 4.416 0 0 1 1.502.49 2.94 2.94 0 0 1 1.079 1.026c.276.44.414 1.024.414 1.752 0 .754-.202 1.378-.603 1.874-.402.496-.932.851-1.592 1.063v.038c.42.064.8.186 1.143.368.34.182.634.414.88.697a3 3 0 0 1 .567.988c.132.377.198.779.198 1.205 0 .704-.144 1.29-.432 1.761-.287.471-.66.851-1.115 1.14a4.757 4.757 0 0 1-1.538.621 7.832 7.832 0 0 1-1.7.189h-5.215V12.222z"/>
        <path fill="#54B30E" d="M205.9 15.645a1.94 1.94 0 0 0-.897-.637 3.138 3.138 0 0 0-1.07-.205c-.197 0-.4.023-.608.071a2.289 2.289 0 0 0-.592.224 1.302 1.302 0 0 0-.452.403c-.116.167-.174.371-.174.61 0 .382.14.675.418.878.278.204.628.376 1.052.52.423.143.878.286 1.365.43.488.143.942.346 1.366.609.423.263.774.616 1.052 1.058.279.442.418 1.033.418 1.774 0 .705-.128 1.32-.383 1.846s-.6.962-1.035 1.308c-.435.346-.94.603-1.513.77a6.457 6.457 0 0 1-1.818.252c-.8 0-1.543-.125-2.227-.377-.684-.25-1.322-.656-1.913-1.219l1.931-2.186c.278.382.63.678 1.052.887.423.21.861.314 1.314.314.22 0 .443-.027.67-.08.226-.055.428-.135.608-.243a1.34 1.34 0 0 0 .435-.412c.11-.167.165-.364.165-.591 0-.383-.142-.684-.426-.905a3.895 3.895 0 0 0-1.07-.565c-.429-.155-.893-.31-1.391-.466a6.117 6.117 0 0 1-1.392-.627 3.39 3.39 0 0 1-1.07-1.04c-.284-.43-.426-.997-.426-1.702 0-.68.13-1.278.391-1.792a3.87 3.87 0 0 1 1.044-1.29 4.49 4.49 0 0 1 1.505-.78 5.996 5.996 0 0 1 1.757-.26c.695 0 1.368.102 2.018.305a4.628 4.628 0 0 1 1.757 1.02l-1.862 2.098M20 16.622c0 3.886-1.445 7.42-3.804 10.045a15.415 15.415 0 0 1-.64-4.4c0-3.886 1.445-7.426 3.804-10.045.415 1.39.64 2.868.64 4.4"/>
        <path fill="#93E600" d="M13.333 22.267a15.3 15.3 0 0 1-.64 4.4c-2.359-2.625-3.804-6.16-3.804-10.045 0-1.532.228-3.01.646-4.4 2.359 2.619 3.798 6.16 3.798 10.045"/>
    </g>
</svg>
