<svg xmlns="http://www.w3.org/2000/svg" width="92" height="93" viewBox="0 0 92 93">
    <g fill="none" fill-rule="evenodd">
        <path fill="#FFF" d="M-279-1097H958v6101H-279z"/>
        <g stroke="#505A72" stroke-linecap="round" stroke-linejoin="round" stroke-width="4">
            <path d="M14 28H2M90 28H78M14 41H2M90 41H78M14 54H2M90 54H78M14 66H2M90 66H78M26 2v12M39 2v12M52 2v12M64 2v12M26 79v12M39 79v12M52 79v12M64 79v12"/>
            <path fill="#FFF" d="M72.15 79h-53.3A4.85 4.85 0 0 1 14 74.15v-53.3A4.85 4.85 0 0 1 18.85 16h53.3A4.85 4.85 0 0 1 77 20.85v53.3A4.85 4.85 0 0 1 72.15 79z"/>
            <path d="M71 66.5a3.501 3.501 0 1 1-7.002-.002A3.501 3.501 0 0 1 71 66.5zM57.594 62H33.405A2.406 2.406 0 0 1 31 59.594v-24.19A2.405 2.405 0 0 1 33.405 33h24.189A2.405 2.405 0 0 1 60 35.405v24.189A2.406 2.406 0 0 1 57.594 62z"/>
            <path d="M37 50.009V40.99c0-1.099.892-1.99 1.99-1.99H50.01M34 24.25H24"/>
        </g>
    </g>
</svg>
