<svg xmlns="http://www.w3.org/2000/svg" width="92" height="84" viewBox="0 0 92 84">
    <g fill="none" fill-rule="evenodd" transform="translate(2 2)">
        <path stroke="#505A72" stroke-linecap="round" stroke-linejoin="round" stroke-width="4" d="M60 9.455A43.882 43.882 0 0 1 66.359 9C78.309 9 88 13.646 88 19.387v37.225C88 62.349 78.31 67 66.359 67c-1.672 0-3.297-.091-4.86-.263"/>
        <path stroke="#505A72" stroke-linecap="round" stroke-linejoin="round" stroke-width="4" d="M60 9.45A45.108 45.108 0 0 1 66.42 9C78.338 9 88 13.477 88 19s-9.662 10-21.58 10c-1.8 0-3.548-.102-5.22-.294M88 34c-3.045 4.11-11.612 7-21.898 7-1.754 0-3.461-.085-5.102-.249M88 47c-2.75 4.09-11.358 7-21.754 7-1.807 0-3.563-.09-5.246-.26"/>
        <path stroke="#505A72" stroke-linecap="round" stroke-linejoin="round" stroke-width="4" d="M61 14.327v51.346C61 73.585 47.346 80 30.506 80c-12.3 0-22.893-3.414-27.72-8.345C.996 69.839 0 67.809 0 65.673V14.327C0 6.408 13.653 0 30.506 0 47.346 0 61 6.408 61 14.327z"/>
        <path stroke="#505A72" stroke-linecap="round" stroke-linejoin="round" stroke-width="4" d="M61 14c0 7.732-13.655 14-30.5 14S0 21.732 0 14 13.655 0 30.5 0 61 6.268 61 14zM61 34.025C57.145 39.853 45.076 44 30.5 44 16.027 44 3.867 39.821 0 34M61 52.025C57.145 57.853 45.076 62 30.5 62 16.027 62 3.867 57.821 0 52"/>
        <path fill="#505A72" d="M5 27c-1.105 0-2 1.119-2 2.5 0 1.38.895 2.5 2 2.5s2-1.12 2-2.5c0-1.381-.895-2.5-2-2.5M10 30c-1.105 0-2 1.12-2 2.5s.895 2.5 2 2.5 2-1.12 2-2.5-.895-2.5-2-2.5M5 45c-1.105 0-2 1.12-2 2.5 0 1.382.895 2.5 2 2.5s2-1.118 2-2.5c0-1.38-.895-2.5-2-2.5M10 48c-1.105 0-2 1.12-2 2.5s.895 2.5 2 2.5 2-1.12 2-2.5-.895-2.5-2-2.5M5 62c-1.105 0-2 1.118-2 2.5 0 1.38.895 2.5 2 2.5s2-1.12 2-2.5c0-1.382-.895-2.5-2-2.5M10 64c-1.105 0-2 1.118-2 2.5 0 1.38.895 2.5 2 2.5s2-1.12 2-2.5c0-1.382-.895-2.5-2-2.5"/>
        <ellipse cx="30.044" cy="15.116" stroke="#505A72" stroke-width="4" rx="18.044" ry="6.116"/>
        <path stroke="#505A72" stroke-linecap="round" stroke-linejoin="round" stroke-width="4" d="M74.386 17c7.106 1.23 6.602 3.405-.386 4.638"/>
    </g>
</svg>
