<svg xmlns="http://www.w3.org/2000/svg" xmlns:xlink="http://www.w3.org/1999/xlink" width="554" height="500" viewBox="0 0 554 500">
    <defs>
        <path id="a" d="M.745 33.537l103.614 58.484 56.655-32.214L57.726.928"/>
    </defs>
    <g fill="none" fill-rule="evenodd">
        <path stroke="#004680" stroke-linecap="round" stroke-linejoin="round" stroke-width="2.274" d="M491.34 270.014L542.9 240.07 286.395 94.183"/>
        <g opacity=".25">
            <path fill="#FFF" d="M377.181 390.648l11.312 6.531c4.453 2.571 11.188 2.85 15.044.623l136.152-78.606c3.856-2.227 3.373-6.115-1.08-8.687l-100.097-57.79c-4.452-2.57-11.187-2.85-15.044-.624l-136.152 78.608c-3.856 2.226-3.372 6.115 1.08 8.685l73.031 42.164 15.754 9.096z"/>
            <path stroke="#004680" stroke-linecap="round" stroke-linejoin="round" stroke-width=".827" d="M377.181 390.648l11.312 6.531c4.453 2.571 11.188 2.85 15.044.623l136.152-78.606c3.856-2.227 3.373-6.115-1.08-8.687l-100.097-57.79c-4.452-2.57-11.187-2.85-15.044-.624l-136.152 78.608c-3.856 2.226-3.372 6.115 1.08 8.685l73.031 42.164 15.754 9.096z"/>
        </g>
        <path stroke="#004680" stroke-linecap="round" stroke-linejoin="round" stroke-width="2.274" d="M258.352 424.828l91.311-57.574"/>
        <path fill="#DCE7F2" d="M542.285 307.882v-6.028c.003-.05 0-.101 0-.152v-.041h-.002c-.005-1.704-1.243-3.5-3.674-4.903l-100.096-57.79c-4.453-2.571-11.188-2.85-15.044-.624L287.316 316.95c-1.702.984-2.555 2.29-2.598 3.666h-.006v6.312h.009c-.02 1.719 1.22 3.536 3.675 4.953l100.097 57.79c4.453 2.57 11.188 2.85 15.045.625l136.15-78.607c1.763-1.017 2.608-2.381 2.594-3.808h.003z"/>
        <path stroke="#004680" stroke-linecap="round" stroke-linejoin="round" stroke-width=".827" d="M542.285 307.882v-6.028c.003-.05 0-.101 0-.152v-.041h-.002c-.005-1.704-1.243-3.5-3.674-4.903l-100.096-57.79c-4.453-2.571-11.188-2.85-15.044-.624L287.316 316.95c-1.702.984-2.555 2.29-2.598 3.666h-.006v6.312h.009c-.02 1.719 1.22 3.536 3.675 4.953l100.097 57.79c4.453 2.57 11.188 2.85 15.045.625l136.15-78.607c1.763-1.017 2.608-2.381 2.594-3.808h.003z"/>
        <path fill="#FFF" d="M377.181 376.897l11.312 6.53c4.453 2.572 11.188 2.851 15.044.624l136.152-78.607c3.856-2.227 3.373-6.115-1.08-8.686l-100.097-57.79c-4.452-2.57-11.187-2.85-15.044-.624l-136.152 78.607c-3.856 2.226-3.372 6.115 1.08 8.686l73.031 42.164"/>
        <path stroke="#004680" stroke-linecap="round" stroke-linejoin="round" stroke-width=".827" d="M377.181 376.897l11.312 6.53c4.453 2.572 11.188 2.851 15.044.624l136.152-78.607c3.856-2.227 3.373-6.115-1.08-8.686l-100.097-57.79c-4.452-2.57-11.187-2.85-15.044-.624l-136.152 78.607c-3.856 2.226-3.372 6.115 1.08 8.686l73.031 42.164"/>
        <path fill="#FFF" d="M366.154 370.53l1.077.622"/>
        <path stroke="#004680" stroke-linecap="round" stroke-linejoin="round" stroke-width="1.157" d="M366.154 370.53l1.077.622M542.285 301.702v-.041h-.002v-.002a3.544 3.544 0 0 0-.058-.621c-.002-.02-.007-.036-.01-.054a3.823 3.823 0 0 0-.155-.567c-.01-.033-.024-.066-.036-.098a4.388 4.388 0 0 0-.233-.518l-.07-.132a5.686 5.686 0 0 0-.302-.473c-.038-.054-.074-.107-.114-.161a6.404 6.404 0 0 0-.361-.432c-.054-.06-.104-.12-.161-.18a8.188 8.188 0 0 0-.423-.402c-.067-.06-.131-.123-.201-.182a9.78 9.78 0 0 0-.51-.395c-.073-.054-.14-.11-.216-.162-.257-.18-.531-.355-.824-.523l-100.096-57.791c-1.113-.643-2.37-1.142-3.687-1.495a18.71 18.71 0 0 0-6.077-.588c-1.984.14-3.835.624-5.28 1.459L287.316 316.95a7.129 7.129 0 0 0-1.031.732c-.04.035-.084.067-.122.1a5.017 5.017 0 0 0-.71.789c-.031.044-.064.088-.093.132a3.861 3.861 0 0 0-.437.858c-.013.036-.022.072-.033.108-.1.31-.163.626-.172.947h-.006v6.312h.009c-.02 1.718 1.22 3.536 3.675 4.953l100.097 57.79c4.453 2.572 11.188 2.85 15.045.625l136.15-78.608c1.762-1.017 2.609-2.381 2.594-3.807h.003v-6.028c.003-.05 0-.101 0-.152z"/>
        <path stroke="#B1CEE6" stroke-dasharray="3.186,3.186" stroke-linecap="round" stroke-linejoin="round" stroke-width=".867" d="M398.623 295.817l-15.157-8.751c-2.053-1.185-1.795-3.253.573-4.62l13.868-8.007c2.369-1.367 5.952-1.516 8.002-.331l15.158 8.751c2.051 1.184 1.793 3.253-.575 4.62l-13.867 8.006c-2.368 1.368-5.952 1.517-8.002.332z"/>
        <path stroke="#004680" stroke-linecap="round" stroke-linejoin="round" stroke-width=".743" d="M299.163 317.597l56.981-32.609 103.288 58.88-56.656 32.214z"/>
        <g fill="#2785C5" opacity=".5">
            <path d="M359.09 340.436l6.272-3.919c.194-.12.18-.33-.032-.467l-5.876-3.816c-.23-.15-.597-.149-.776.004l-5.317 4.54c-.146.125-.113.31.078.434l4.92 3.195c.21.136.538.15.731.03M357.96 340.656l-4.753-3.086c-.23-.15-.598-.15-.776.003l-3.913 3.342c-.147.125-.115.31.076.434l4.05 2.629c.21.137.538.15.731.03l4.616-2.885c.194-.121.18-.33-.03-.467M358.426 341.405l-4.616 2.885c-.194.12-.179.33.032.467l4.065 2.64a.76.76 0 0 0 .68.057l5.32-2.428c.243-.11.252-.344.02-.495l-4.769-3.097c-.21-.136-.539-.15-.732-.03M359.557 341.185l4.937 3.206a.76.76 0 0 0 .68.057l7.227-3.299c.242-.11.252-.344.02-.495l-5.89-3.825c-.212-.137-.54-.15-.734-.03l-6.272 3.92c-.194.12-.179.33.032.466"/>
        </g>
        <path stroke="#2768C5" stroke-linecap="round" stroke-linejoin="round" stroke-width=".333" d="M360.288 339.688l5.075-3.17c.194-.122.179-.33-.032-.468l-5.876-3.816c-.231-.15-.598-.149-.776.004l-4.123 3.521M358.358 340.407c.212.137.539.15.732.029M354.555 335.76l-1.193 1.018c-.147.125-.114.31.077.434l3.198 2.077M349.087 340.43l-.569.484c-.147.125-.115.311.076.435l4.05 2.63c.21.136.538.15.731.028l4.616-2.885c.194-.12.18-.33-.03-.466l-4.754-3.086c-.23-.15-.598-.15-.776.003l-1.37 1.171M357.234 342.151l-3.424 2.139c-.193.121-.18.33.032.466l4.066 2.641c.19.124.48.149.68.057l5.32-2.428c.242-.11.252-.344.019-.495l-1.67-1.084M359.557 341.185l1.896 1.232M359.525 340.718c-.193.121-.18.33.032.467M360.722 339.97l-1.197.748M364.154 337.826l-1.068.668M363.022 343.436l1.472.955a.76.76 0 0 0 .679.057l7.228-3.299c.242-.11.252-.344.019-.495l-5.89-3.825c-.211-.137-.54-.15-.733-.03l-.574.36"/>
        <g fill="#2785C5">
            <path d="M363.287 330.902l-.805-.523.78-.488 6.177 1.75.025-.015-2.582-3.996.74-.463 5.5 3.57-.59.369-4.475-2.906-.014.009 2.654 4.044-.288.179-6.34-1.765-.013.008 4.494 2.919-.57.356-2.926-1.902M374.319 329.516l-3.555-2.31.576-.36 2.14 1.391 1.044.677.743.483-.288.18-.29.18-.37-.24m-4.288-3.646c.118.077.179.164.182.261.002.098-.047.178-.151.242a.658.658 0 0 1-.38.094.764.764 0 0 1-.406-.125c-.11-.07-.17-.155-.18-.252-.007-.097.04-.179.15-.247a.667.667 0 0 1 .388-.092.767.767 0 0 1 .397.12M373.563 326.088c-.053-.468.204-.88.771-1.234a2.82 2.82 0 0 1 1.033-.391l.644.418c-.474.036-.862.148-1.164.337-.373.232-.53.516-.473.85.056.334.315.65.776.95.457.297.93.463 1.417.497.487.034.917-.065 1.289-.298.314-.196.497-.453.549-.773l.597.389c-.094.294-.332.56-.71.797a2.833 2.833 0 0 1-1.132.392 3.62 3.62 0 0 1-1.309-.075c-.447-.104-.891-.261-1.234-.523-.951-.725-1.054-1.336-1.054-1.336M378.965 322.893c-.187.01-.376.073-.565.192-.256.16-.332.374-.23.644.104.27.364.541.783.812l2.002 1.301-.576.36-3.927-2.55.576-.36.81.526.014-.009c-.192-.227-.283-.442-.274-.648.01-.206.121-.376.337-.51.151-.095.283-.155.4-.182l.65.424zM384.192 323.257c.627-.44.47-.792.47-.792-.062-.293-.337-.599-.825-.916-.494-.32-.972-.503-1.435-.549a1.941 1.941 0 0 0-1.255.28c-.37.232-.528.502-.474.812.054.31.327.624.818.942.47.306.946.477 1.428.514.48.036.905-.06 1.273-.29m-3.54-2.353c.535-.334 1.135-.477 1.802-.429.666.048 1.316.277 1.95.69.624.404.964.831 1.018 1.28.056.451-.19.845-.736 1.186-.531.333-1.14.48-1.827.437a3.925 3.925 0 0 1-1.936-.65s-2.29-1.357-.27-2.514M388.686 319.892c.863.702-.344 1.456-.344 1.456a2.82 2.82 0 0 1-1.13.403l-.674-.438c.534-.015.97-.128 1.31-.34.791-.494.134-.855-.225-.924-.36-.068-.648.023-1.12.122-1.463.31-2.025-.205-2.025-.205-.325-.21-.477-.46-.455-.752.021-.29.217-.55.584-.78a2.67 2.67 0 0 1 .954-.36l.633.41a2.295 2.295 0 0 0-1.096.327c-.189.12-.291.248-.305.387-.013.138.06.26.221.365.174.112.353.172.534.177.183.005.471-.048.884-.13.92-.182 1.525-.312 2.254.282m-2.254-.282c.5-.11.906-.153 1.219-.126M391.455 316.79c-.493-.321-.972-.504-1.436-.55a1.944 1.944 0 0 0-1.253.28c-.371.232-.53.502-.474.812.054.31.326.624.817.943.47.306.947.477 1.428.513.48.036.905-.061 1.273-.29.375-.234.532-.498.47-.792-.061-.294-.337-.6-.825-.916m.567-.385c.624.406.964.833 1.019 1.282.056.45-.19.845-.736 1.186-.532.332-1.141.478-1.828.437a3.942 3.942 0 0 1-1.935-.651c-.65-.422-1-.856-1.052-1.306-.051-.448.209-.85.78-1.208.535-.334 1.135-.476 1.802-.428.666.048 1.317.277 1.95.688M390.55 312.33c.16-.118.34-.181.487-.215l.568.368a1.247 1.247 0 0 0-.487.172c-.402.252-.327.559.228.918l.606.394.843-.527.533.346-.842.527.892.58 2.501 1.625-.577.359-3.394-2.203-.61.382-.534-.347.612-.382-.637-.413c-.399-.26-.613-.535-.643-.83 0 0-.016-.4.454-.753M393.97 313.385l-.533-.346.618-.386-.959-.623.373-.493 1.162.755.907-.566.534.346-.908.567 2.217 1.438c.263.172.491.268.685.288a.887.887 0 0 0 .578-.148c.142-.089.224-.194.246-.314l.536.348c-.054.141-.19.281-.414.42-.628.393-1.328.338-2.1-.163l-.894-.58-1.43-.93-.348.218-.27.17m2.048.541l-.785-.51"/>
        </g>
        <path fill="#2785C5" d="M376.627 335.335l-3.689-1.207-.016.01 1.834 2.366 1.871-1.17zm-1.49 2.958l-.525-.7.524.7zm-.525-.7l-.509-.681.51.682zm-1.396-1.864l-.74-.992.74.992zm-1.03-1.38l-.435-.578.654-.411 7.974 2.526-.7.437-2.216-.715-2.293 1.433 1.108 1.406-.7.438-.442-.592-2.95-3.943zM379.923 330.81l.193.124 1.158 3.664 2.258-1.412.572.371-3.166 1.98-.21-.137-1.145-3.65-2.066 1.29-.572-.37.646-.404m0 0l.605-.378m.838-.523l.89-.556M383.58 331.051l.88.571m2.186-.718c-.052-.278-.272-.542-.66-.794l-2.424-1.575.618-.385 4.207 2.731-.62.386-.664-.432-.014.01c.255.492.115.905-.418 1.24-.921.574-1.981.474-3.178-.304l-2.514-1.63.618-.388 1.528.993 1.149.746c.43.28 1.067.403 1.587.27.237-.06.457-.174.608-.374.295-.389.177-.494.177-.494M388.47 326.339c-.202.01-.403.078-.607.206-.274.17-.355.4-.246.69.111.288.39.578.84.87l2.144 1.392-.617.386-4.207-2.731.617-.385.867.562.015-.01c-.204-.241-.302-.472-.293-.693.01-.221.131-.403.361-.548.161-.1.303-.165.427-.193l.698.454zM392.844 324.903c-.395-.249-.782-.392-1.164-.428a1.601 1.601 0 0 0-1.028.233c-.287.178-.418.404-.398.676.022.274.191.546.508.82l2.082-1.301zm-.995 1.349l-.524.328c.484.301.961.465 1.431.49.471.025.9-.084 1.29-.327.436-.273.68-.621.733-1.044l.628.408c-.065.386-.376.753-.933 1.102-.55.343-1.173.485-1.869.426-.697-.058-1.387-.31-2.072-.754-.416-.271-.719-.566-.908-.885-.189-.321-.243-.626-.16-.918.081-.292.288-.542.62-.749.498-.312 1.066-.441 1.7-.385.634.056 1.271.291 1.91.705l.352.23-1.266.792-.932.581z"/>
        <path stroke="#20719E" stroke-linecap="round" stroke-linejoin="round" stroke-width=".238" d="M376.627 335.335l-3.689-1.207-.016.01 1.834 2.366 1.871-1.17zm-1.49 2.958l-.525-.7.524.7zm-.525-.7l-.509-.681.51.682zm-1.396-1.864l-.74-.992.74.992zm-1.03-1.38l-.435-.578.654-.411 7.974 2.526-.7.437-2.216-.715-2.293 1.433 1.108 1.406-.7.438-.442-.592-2.95-3.943zM379.923 330.81l.193.124 1.158 3.664 2.258-1.412.572.371-3.166 1.98-.21-.137-1.145-3.65-2.066 1.29-.572-.37.646-.404m0 0l.605-.378m.838-.523l.89-.556M383.58 331.051l.88.571m.773.205c.375.046.72-.028 1.031-.222m.382-.7c-.052-.279-.272-.543-.66-.795l-2.424-1.575.618-.385 4.207 2.731-.62.386-.664-.432-.014.01c.255.492.115.905-.418 1.24-.921.574-1.981.474-3.178-.304l-2.514-1.63.618-.388 1.528.993M388.47 326.339c-.202.01-.403.078-.607.206-.274.17-.355.4-.246.69.111.288.39.578.84.87l2.144 1.392-.617.386-4.207-2.731.617-.385.867.562.015-.01c-.204-.241-.302-.472-.293-.693.01-.221.131-.403.361-.548.161-.1.303-.165.427-.193l.698.454zM392.844 324.903c-.395-.249-.782-.392-1.164-.428a1.601 1.601 0 0 0-1.028.233c-.287.178-.418.404-.398.676.022.274.191.546.508.82l2.082-1.301zm-.995 1.349l-.524.328c.484.301.961.465 1.431.49.471.025.9-.084 1.29-.327.436-.273.68-.621.733-1.044l.628.408c-.065.386-.376.753-.933 1.102-.55.343-1.173.485-1.869.426-.697-.058-1.387-.31-2.072-.754-.416-.271-.719-.566-.908-.885-.189-.321-.243-.626-.16-.918.081-.292.288-.542.62-.749.498-.312 1.066-.441 1.7-.385.634.056 1.271.291 1.91.705l.352.23-1.266.792-.932.581z"/>
        <path fill="#D8AE64" d="M416.188 305.807l10.397 6.003c2.052 1.184 5.635 1.036 8.004-.332l13.867-8.006c1.376-.795 2.038-1.825 1.95-2.782v-6.398c.074-.812-.376-1.599-1.375-2.176l-15.157-8.75c-2.052-1.186-5.635-1.037-8.004.331l-13.867 8.006c-1.291.745-1.953 1.7-1.958 2.604h-.003v6.66h.004c-.036.782.418 1.535 1.382 2.092l1.122.647"/>
        <path stroke="#004680" stroke-linecap="round" stroke-linejoin="round" stroke-width=".867" d="M416.188 305.807l10.397 6.003c2.052 1.184 5.635 1.036 8.004-.332l13.867-8.006c1.376-.795 2.038-1.825 1.95-2.782v-6.398c.074-.812-.376-1.599-1.375-2.176l-15.157-8.75c-2.052-1.186-5.635-1.037-8.004.331l-13.867 8.006c-1.291.745-1.953 1.7-1.958 2.604h-.003v6.66h.004c-.036.782.418 1.535 1.382 2.092l1.122.647"/>
        <path fill="#DCE7F2" d="M414.362 304.753l.154.089"/>
        <path stroke="#004680" stroke-linecap="round" stroke-linejoin="round" stroke-width=".867" d="M414.362 304.753l.154.089"/>
        <path fill="#F9D093" d="M435.036 304.485l-.446.258c-2.37 1.367-5.952 1.516-8.004.332l-15.157-8.751c-2.051-1.185-1.794-3.253.575-4.621l13.866-8.006c2.369-1.367 5.952-1.517 8.004-.332l15.157 8.751c2.05 1.184 1.794 3.253-.575 4.621l-10.772 6.219"/>
        <path stroke="#004680" stroke-linecap="round" stroke-linejoin="round" stroke-width=".867" d="M435.036 304.485l-.446.258c-2.37 1.367-5.952 1.516-8.004.332l-15.157-8.751c-2.051-1.185-1.794-3.253.575-4.621l13.866-8.006c2.369-1.367 5.952-1.517 8.004-.332l15.157 8.751c2.05 1.184 1.794 3.253-.575 4.621l-10.772 6.219"/>
        <path stroke="#004680" stroke-linecap="round" stroke-linejoin="round" stroke-width=".832" d="M419.23 295.977c-.583-2.258.63-4.754 3.563-6.587 4.583-2.862 11.626-3.02 15.733-.354 4.107 2.667 3.722 7.15-.86 10.013-4.582 2.863-11.626 3.022-15.733.355"/>
        <path fill="#004680" d="M426.538 297.673c-.555.347-1.407.367-1.904.043-.497-.322-.45-.864.104-1.212.555-.346 1.406-.365 1.904-.043.497.323.45.865-.104 1.212M434.378 296.561c-.555.347-1.407.366-1.904.043-.497-.322-.45-.865.104-1.212.555-.346 1.406-.365 1.904-.043.497.323.45.865-.104 1.212M428.434 292.7c-.555.348-1.407.367-1.903.044-.497-.322-.45-.864.103-1.211.555-.347 1.407-.366 1.904-.043.497.322.451.865-.104 1.21M432.788 293.768c-.555.347-1.407.365-1.903.043-.497-.323-.451-.865.103-1.212.555-.347 1.407-.365 1.904-.043.497.323.45.865-.104 1.212M438.31 294.948c-.437-.284-1.19-.268-1.678.037-.488.306-.529.784-.092 1.068.437.285 1.19.267 1.678-.038.488-.304.529-.784.092-1.067m-2.008 1.254c-.555-.36-.503-.968.116-1.356.62-.386 1.575-.408 2.13-.047.555.36.503.968-.117 1.355-.619.387-1.574.408-2.129.048"/>
        <path stroke="#004680" stroke-width=".309" d="M438.31 294.948c-.437-.284-1.19-.268-1.678.037-.488.306-.529.784-.092 1.068.437.285 1.19.267 1.678-.038.488-.304.529-.784.092-1.067zm-2.008 1.254c-.555-.36-.503-.968.116-1.356.62-.386 1.575-.408 2.13-.047.555.36.503.968-.117 1.355-.619.387-1.574.408-2.129.048z"/>
        <path fill="#004680" d="M435.707 290.798c-.438-.285-1.19-.268-1.678.037-.488.306-.53.784-.092 1.068.438.285 1.19.268 1.678-.038.488-.304.529-.783.091-1.067m-2.007 1.255c-.555-.36-.504-.97.115-1.356.62-.387 1.576-.41 2.13-.047.555.36.503.966-.115 1.355-.62.387-1.576.407-2.13.048"/>
        <path stroke="#004680" stroke-width=".309" d="M435.707 290.798c-.438-.285-1.19-.268-1.678.037-.488.306-.53.784-.092 1.068.438.285 1.19.268 1.678-.038.488-.304.529-.783.091-1.067zm-2.008 1.255c-.555-.36-.504-.97.115-1.356.62-.387 1.576-.41 2.13-.047.555.36.503.966-.115 1.355-.62.387-1.576.407-2.13.048z"/>
        <path fill="#004680" d="M429.243 289.06c-.437-.284-1.19-.268-1.678.037-.487.305-.528.784-.091 1.068.437.284 1.19.267 1.677-.038.488-.304.529-.784.092-1.068m-2.008 1.255c-.555-.36-.503-.969.117-1.356.62-.386 1.575-.408 2.13-.047.555.36.502.968-.117 1.355-.62.387-1.574.408-2.13.048"/>
        <path stroke="#004680" stroke-width=".309" d="M429.243 289.06c-.437-.284-1.19-.268-1.678.037-.487.305-.528.784-.091 1.068.437.284 1.19.267 1.677-.038.488-.304.529-.784.092-1.068zm-2.008 1.254c-.555-.36-.503-.969.117-1.356.62-.386 1.575-.408 2.13-.047.555.36.502.968-.117 1.355-.62.387-1.574.408-2.13.048z"/>
        <path fill="#FFF" d="M425.637 297.09l1.897-4.973"/>
        <path stroke="#004680" stroke-linecap="round" stroke-linejoin="round" stroke-width=".619" d="M425.637 297.09l1.897-4.973"/>
        <path fill="#FFF" d="M425.637 297.09l6.251-3.906"/>
        <path stroke="#004680" stroke-linecap="round" stroke-linejoin="round" stroke-width=".619" d="M425.637 297.09l6.251-3.906"/>
        <path fill="#FFF" d="M433.478 295.977l-8.104 1.112"/>
        <path stroke="#004680" stroke-linecap="round" stroke-linejoin="round" stroke-width=".619" d="M433.478 295.977l-8.104 1.112"/>
        <path fill="#35D0BA" d="M452.683 260.514c.073-.812-.377-1.6-1.376-2.177l-15.157-8.75c-2.05-1.185-5.634-1.036-8.003.331l-13.867 8.006c-1.29.745-1.953 1.7-1.957 2.605h-.004v6.66h.004c-.036.782.418 1.535 1.382 2.092l15.158 8.751c2.05 1.184 5.634 1.036 8.003-.332l13.867-8.006c1.376-.795 2.038-1.826 1.95-2.783v-6.397z"/>
        <path stroke="#004680" stroke-linecap="round" stroke-linejoin="round" stroke-width=".867" d="M452.683 260.514c.073-.812-.377-1.6-1.376-2.177l-15.157-8.75c-2.05-1.185-5.634-1.036-8.003.331l-13.867 8.006c-1.29.745-1.953 1.7-1.957 2.605h-.004v6.66h.004c-.036.782.418 1.535 1.382 2.092l15.158 8.751c2.05 1.184 5.634 1.036 8.003-.332l13.867-8.006c1.376-.795 2.038-1.826 1.95-2.783v-6.397z"/>
        <path fill="#35EEBA" d="M419.696 266.004l-5.99-3.458c-2.052-1.185-1.794-3.253.574-4.621l13.867-8.006c2.369-1.367 5.952-1.517 8.003-.332l15.157 8.75c2.052 1.186 1.794 3.254-.574 4.622l-13.867 8.006c-2.368 1.367-5.952 1.516-8.003.332l-4.365-2.521"/>
        <path stroke="#004680" stroke-linecap="round" stroke-linejoin="round" stroke-width=".867" d="M419.696 266.004l-5.99-3.458c-2.052-1.185-1.794-3.253.574-4.621l13.867-8.006c2.369-1.367 5.952-1.517 8.003-.332l15.157 8.75c2.052 1.186 1.794 3.254-.574 4.622l-13.867 8.006c-2.368 1.367-5.952 1.516-8.003.332l-4.365-2.521"/>
        <path fill="#FFF" d="M422.504 267.626l-.299-.173"/>
        <path stroke="#004680" stroke-linecap="round" stroke-linejoin="round" stroke-width=".867" d="M422.504 267.626l-.299-.173M441.84 263.352c-.577.648-1.32 1.256-2.226 1.797-4.518 2.701-11.383 2.721-15.333.043-3.949-2.677-3.487-7.037 1.032-9.737 4.518-2.702 11.383-2.72 15.333-.044 1.974 1.338 2.846 3.098 2.66 4.86M427.24 258.86c-2.08 1.04-3.835 2.507-4.787 4.569M441.837 256.401s-6.116-.371-11.609 1.29M424.012 256.366s-.567 7.429 13.058 9.95M440.193 255.104s-10.27 5.041-6.103 11.916M428.325 258.386s.16-.08.323-.138"/>
        <path fill="#F3807B" d="M480.646 276.601c.073-.813-.376-1.6-1.375-2.177l-15.157-8.75c-2.052-1.185-5.635-1.037-8.004.331l-13.866 8.006c-1.291.745-1.953 1.7-1.958 2.605h-.004v6.66h.005c-.037.782.418 1.534 1.381 2.092l15.158 8.751c2.051 1.184 5.634 1.035 8.004-.332l13.866-8.006c1.376-.795 2.038-1.826 1.95-2.783v-6.397z"/>
        <path stroke="#004680" stroke-linecap="round" stroke-linejoin="round" stroke-width=".867" d="M480.646 276.601c.073-.813-.376-1.6-1.375-2.177l-15.157-8.75c-2.052-1.185-5.635-1.037-8.004.331l-13.866 8.006c-1.291.745-1.953 1.7-1.958 2.605h-.004v6.66h.005c-.037.782.418 1.534 1.381 2.092l15.158 8.751c2.051 1.184 5.634 1.035 8.004-.332l13.866-8.006c1.376-.795 2.038-1.826 1.95-2.783v-6.397z"/>
        <path fill="#EFA0A0" d="M458.56 288.013a5.829 5.829 0 0 1-1.734-.63l-15.158-8.75c-2.05-1.185-1.794-3.255.576-4.622l13.866-8.006c2.37-1.368 5.952-1.516 8.004-.332l15.157 8.751c2.051 1.185 1.794 3.253-.575 4.621l-13.866 8.006c-.95.548-2.094.9-3.257 1.05"/>
        <path stroke="#004680" stroke-linecap="round" stroke-linejoin="round" stroke-width=".867" d="M458.56 288.013a5.829 5.829 0 0 1-1.734-.63l-15.158-8.75c-2.05-1.185-1.794-3.255.576-4.622l13.866-8.006c2.37-1.368 5.952-1.516 8.004-.332l15.157 8.751c2.051 1.185 1.794 3.253-.575 4.621l-13.866 8.006c-.95.548-2.094.9-3.257 1.05"/>
        <path fill="#FFF" d="M460.062 288.18l-.077-.003"/>
        <path stroke="#004680" stroke-linecap="round" stroke-linejoin="round" stroke-width=".867" d="M460.062 288.18l-.077-.003"/>
        <path stroke="#004680" stroke-linecap="round" stroke-linejoin="round" stroke-width=".862" d="M466.13 270.312c1.018.31 1.962.732 2.787 1.27 4.113 2.67 3.738 7.144-.838 9.992-4.576 2.847-11.62 2.99-15.734.32-4.113-2.672-3.738-7.146.838-9.994 1.503-.935 3.272-1.578 5.117-1.927M462.898 269.717c1.122.087 2.215.284 3.232.595M459.788 269.758c.5-.05 1-.08 1.5-.089"/>
        <path fill="#004680" d="M468.312 276.88c-.753.468-3.097-.278-5.233-1.665-2.138-1.388-3.26-2.893-2.507-3.361.753-.47 3.095.276 5.233 1.664 2.138 1.388 3.26 2.893 2.507 3.362"/>
        <path fill="#004680" d="M459.433 272.561l-1.614 1.005s.05 1.638 2.771 3.406c2.723 1.768 5.01 1.595 5.01 1.595l1.573-.98s-2.79-.389-4.84-1.72c-2.05-1.332-2.9-3.306-2.9-3.306"/>
        <path fill="#004680" d="M456.908 274.133l-1.614 1.004s.049 1.64 2.77 3.406c2.724 1.77 5.01 1.595 5.01 1.595l1.573-.98s-2.79-.389-4.84-1.72c-2.05-1.332-2.9-3.305-2.9-3.305"/>
        <path fill="#004680" d="M454.465 275.653l-1.615 1.005s.05 1.638 2.772 3.406c2.723 1.768 5.01 1.594 5.01 1.594l1.572-.979s-2.789-.389-4.84-1.721c-2.05-1.332-2.899-3.305-2.899-3.305"/>
        <path fill="#FFCD3C" d="M472.87 303.404l12.269 7.084c2.05 1.184 5.634 1.035 8.003-.332l13.867-8.006c1.377-.795 2.038-1.826 1.95-2.782v-6.398c.074-.813-.376-1.6-1.375-2.176l-15.157-8.751c-2.052-1.185-5.635-1.036-8.003.332l-13.867 8.006c-1.291.745-1.954 1.699-1.958 2.604h-.003v6.659h.003c-.036.783.418 1.535 1.383 2.093l.724.418"/>
        <path stroke="#004680" stroke-linecap="round" stroke-linejoin="round" stroke-width=".867" d="M472.87 303.404l12.269 7.084c2.05 1.184 5.634 1.035 8.003-.332l13.867-8.006c1.377-.795 2.038-1.826 1.95-2.782v-6.398c.074-.813-.376-1.6-1.375-2.176l-15.157-8.751c-2.052-1.185-5.635-1.036-8.003.332l-13.867 8.006c-1.291.745-1.954 1.699-1.958 2.604h-.003v6.659h.003c-.036.783.418 1.535 1.383 2.093l.724.418"/>
        <path fill="#FFE8B6" d="M493.4 303.271l-.258.15c-2.37 1.367-5.952 1.515-8.004.331l-15.156-8.75c-2.052-1.185-1.795-3.254.574-4.622l13.867-8.005c2.369-1.369 5.952-1.517 8.003-.333l15.158 8.751c2.05 1.185 1.794 3.253-.576 4.622l-9.48 5.473"/>
        <path stroke="#004680" stroke-linecap="round" stroke-linejoin="round" stroke-width=".867" d="M493.4 303.271l-.258.15c-2.37 1.367-5.952 1.515-8.004.331l-15.156-8.75c-2.052-1.185-1.795-3.254.574-4.622l13.867-8.005c2.369-1.369 5.952-1.517 8.003-.333l15.158 8.751c2.05 1.185 1.794 3.253-.576 4.622l-9.48 5.473"/>
        <path stroke="#004680" stroke-linecap="round" stroke-linejoin="round" stroke-width=".928" d="M492.934 286.18l-1.946 1.217M495.842 288.069l-1.947 1.217M498.556 289.832l-1.947 1.216M494.236 287.026l-1.946 1.217M497.144 288.915l-1.946 1.216M499.858 290.677l-1.946 1.216M480.579 293.901l-1.946 1.217M483.486 295.79l-1.946 1.217M486.2 297.552l-1.946 1.216M481.88 294.747l-1.946 1.217M484.788 296.635l-1.947 1.216M487.502 298.398l-1.946 1.216M499.341 294.533l-1.744-1.134M496.097 296.56l-1.744-1.134M493.069 298.452l-1.744-1.133M497.89 295.44l-1.746-1.133M494.645 297.467l-1.745-1.133M491.617 299.359l-1.745-1.133M488.267 287.34l-1.744-1.132M485.023 289.368l-1.744-1.133M481.996 291.26l-1.745-1.134M486.815 288.249l-1.745-1.133M483.57 290.276l-1.744-1.134M480.542 292.168l-1.745-1.133M487.795 298.6l-7.872-5.113c-.397-.257-.359-.689.082-.965l8.784-5.488c.442-.276 1.12-.29 1.515-.035l7.873 5.113c.395.257.358.69-.083.965l-8.783 5.488c-.442.276-1.12.291-1.516.034z"/>
        <path stroke="#004680" stroke-linecap="round" stroke-linejoin="round" stroke-width=".928" d="M488.45 295.441l-3.558-2.31c-.195-.127-.176-.34.04-.476l3.97-2.481c.218-.135.553-.143.749-.016l3.557 2.31c.195.127.177.34-.041.476l-3.97 2.48c-.217.136-.552.144-.747.017z"/>
        <path stroke="#B1CEE6" stroke-dasharray="3.186,3.186" stroke-linecap="round" stroke-linejoin="round" stroke-width=".867" d="M455.921 325.785l-15.157-8.751c-2.052-1.185-1.794-3.253.574-4.621l13.867-8.006c2.368-1.367 5.952-1.516 8.003-.332l15.157 8.75c2.052 1.186 1.794 3.255-.574 4.622l-13.867 8.006c-2.369 1.368-5.952 1.517-8.003.332z"/>
        <path stroke="#004680" stroke-linecap="round" stroke-linejoin="round" stroke-width="2.274" d="M236.773 124.067l78.132-47.93 113.799 65.92-78.77 46.039"/>
        <g opacity=".25">
            <path fill="#FFF" d="M240.991 312.289l11.312 6.53c4.453 2.572 11.188 2.85 15.044.624L403.5 240.836c3.856-2.227 3.372-6.115-1.08-8.686l-100.096-57.791c-4.454-2.57-11.189-2.85-15.045-.623l-136.152 78.607c-3.856 2.226-3.372 6.115 1.08 8.686l73.031 42.164 15.754 9.096z"/>
            <path stroke="#004680" stroke-linecap="round" stroke-linejoin="round" stroke-width=".827" d="M240.991 312.289l11.312 6.53c4.453 2.572 11.188 2.85 15.044.624L403.5 240.836c3.856-2.227 3.372-6.115-1.08-8.686l-100.096-57.791c-4.454-2.57-11.189-2.85-15.045-.623l-136.152 78.607c-3.856 2.226-3.372 6.115 1.08 8.686l73.031 42.164 15.754 9.096z"/>
        </g>
        <path stroke="#004680" stroke-linecap="round" stroke-linejoin="round" stroke-width="2.274" d="M203.048 282.876l-95.915 54.653 151.219 87.299"/>
        <path fill="#DCE7F2" d="M406.095 229.522v-6.027c.002-.051 0-.101 0-.152v-.042h-.002c-.005-1.704-1.244-3.5-3.674-4.903l-100.096-57.791c-4.454-2.57-11.189-2.85-15.045-.623L151.126 238.59c-1.703.984-2.556 2.29-2.598 3.666h-.007v6.312h.01c-.02 1.719 1.221 3.536 3.675 4.953l100.097 57.79c4.453 2.572 11.188 2.85 15.044.625L403.5 233.329c1.761-1.016 2.607-2.381 2.593-3.807h.003z"/>
        <path stroke="#004680" stroke-linecap="round" stroke-linejoin="round" stroke-width=".827" d="M406.095 229.522v-6.027c.002-.051 0-.101 0-.152v-.042h-.002c-.005-1.704-1.244-3.5-3.674-4.903l-100.096-57.791c-4.454-2.57-11.189-2.85-15.045-.623L151.126 238.59c-1.703.984-2.556 2.29-2.598 3.666h-.007v6.312h.01c-.02 1.719 1.221 3.536 3.675 4.953l100.097 57.79c4.453 2.572 11.188 2.85 15.044.625L403.5 233.329c1.761-1.016 2.607-2.381 2.593-3.807h.003z"/>
        <path fill="#FFF" d="M240.991 298.537l11.312 6.53c4.453 2.572 11.188 2.85 15.044.624L403.5 227.084c3.856-2.226 3.372-6.115-1.08-8.686l-100.096-57.791c-4.454-2.57-11.189-2.85-15.045-.623L151.126 238.59c-3.856 2.227-3.372 6.115 1.08 8.686l73.031 42.164"/>
        <path stroke="#004680" stroke-linecap="round" stroke-linejoin="round" stroke-width=".827" d="M240.991 298.537l11.312 6.53c4.453 2.572 11.188 2.85 15.044.624L403.5 227.084c3.856-2.226 3.372-6.115-1.08-8.686l-100.096-57.791c-4.454-2.57-11.189-2.85-15.045-.623L151.126 238.59c-3.856 2.227-3.372 6.115 1.08 8.686l73.031 42.164"/>
        <path fill="#FFF" d="M229.964 292.17l1.077.621"/>
        <path stroke="#004680" stroke-linecap="round" stroke-linejoin="round" stroke-width="1.157" d="M229.964 292.17l1.077.621M406.095 223.342v-.042h-.002v-.001a3.624 3.624 0 0 0-.058-.621c-.002-.02-.007-.036-.01-.054a3.864 3.864 0 0 0-.155-.568c-.01-.032-.024-.065-.036-.097a4.557 4.557 0 0 0-.233-.518l-.07-.132a5.438 5.438 0 0 0-.303-.473c-.037-.054-.073-.108-.113-.161a7.375 7.375 0 0 0-.36-.432c-.055-.06-.106-.12-.163-.18a8.148 8.148 0 0 0-.422-.402c-.068-.061-.13-.123-.202-.183a9.217 9.217 0 0 0-.509-.393c-.073-.055-.139-.11-.217-.163a10.91 10.91 0 0 0-.824-.524l-100.095-57.791c-1.114-.642-2.37-1.142-3.688-1.494a18.704 18.704 0 0 0-6.076-.588c-1.985.14-3.835.624-5.28 1.459L151.126 238.59a6.95 6.95 0 0 0-1.03.733c-.042.034-.085.065-.124.1a5.06 5.06 0 0 0-.802.92 3.866 3.866 0 0 0-.438.858c-.012.036-.02.072-.033.108-.098.31-.162.626-.17.947h-.008v6.312h.01c-.02 1.719 1.221 3.535 3.675 4.953l100.097 57.79c4.453 2.572 11.188 2.85 15.044.624L403.5 233.329c1.761-1.017 2.607-2.381 2.593-3.807h.003v-6.027c.002-.051 0-.102 0-.153z"/>
        <path stroke="#004680" stroke-linecap="round" stroke-linejoin="round" stroke-width=".743" d="M162.974 239.237l56.98-32.61 103.289 58.88-56.656 32.215z"/>
        <path stroke="#004680" stroke-linecap="round" stroke-linejoin="round" stroke-width=".633" d="M244.227 239.393c.253.472.708.905 1.366 1.303.822.497 1.809.802 2.961.915 1.152.113 2.417-.06 3.794-.517l2.712-.91c.931-.298 1.667-.442 2.208-.432.542.01 1.031.147 1.47.412.639.387.895.845.768 1.372-.128.527-.625 1.082-1.492 1.663a11.27 11.27 0 0 1-1.831.983c-.674.29-1.363.518-2.066.687a10.33 10.33 0 0 0-.514.134 1.12 1.12 0 0 0-.308.137c-.209.14-.149.31.179.508l.795.48c.146.09.32.158.523.21.202.05.489.044.86-.019M243.928 237.952c-.054.49.046.97.3 1.441M246.016 235.173c-.611.41-1.098.853-1.461 1.33M248.082 234.103c-.354.144-.71.307-1.07.49a9.488 9.488 0 0 0-.996.58M260.729 238.48c-.821-.497-1.765-.796-2.83-.897-1.065-.102-2.278.072-3.639.518l-2.665.878c-1.013.33-1.807.495-2.381.496-.575 0-1.081-.132-1.519-.397-.639-.387-.888-.814-.747-1.282.142-.467.606-.964 1.393-1.492a9.953 9.953 0 0 1 3.255-1.412c.368-.085.609-.164.721-.24.209-.14.15-.309-.179-.508l-.74-.447a1.585 1.585 0 0 0-.641-.235 3.033 3.033 0 0 0-.793.043M262.19 239.824c-.298-.487-.786-.936-1.46-1.344M261.918 242.888c.395-.52.612-1.04.654-1.556M255.652 246.32c.607-.105 1.348-.332 2.22-.685a13.117 13.117 0 0 0 2.395-1.256c.707-.474 1.258-.971 1.652-1.491M224.373 260.079c.233-.336.615-.683 1.145-1.038.417-.28.88-.55 1.386-.807a18.1 18.1 0 0 1 1.525-.69l.657.397c.53.322.938.624 1.224.909.286.287.464.593.53.92a1.88 1.88 0 0 1-.302 1.478 4.207 4.207 0 0 1-1.133 1.127m0 0c-.627.42-1.298.63-2.01.629m-2.163-.662c-.785-.476-1.162-.991-1.131-1.547m0 0c.012-.234.102-.472.272-.716m.382-2.744a13.64 13.64 0 0 0-1.582.902c-1.413.947-2.132 1.948-2.155 2.999-.023 1.052.632 1.98 1.965 2.787 1.26.762 2.602 1.144 4.025 1.145 1.425 0 2.714-.388 3.871-1.163 1.624-1.087 2.252-2.43 1.887-4.023.49.114.938.204 1.338.273.401.068.808.104 1.22.107.275.003.484-.045.63-.141a.544.544 0 0 0 .224-.326l.21-.98c.03-.205-.037-.358-.2-.458a1.333 1.333 0 0 0-.452-.15 15.203 15.203 0 0 1-1.57-.381c-.452-.14-.97-.387-1.553-.741l-5.095-3.082c-1.718-1.038-3.382-1.558-4.994-1.56m-1.957.265a9.257 9.257 0 0 0-1.978.807m-.942.572c-.755.506-1.37 1.046-1.844 1.62m0 0c-.474.574-.815 1.105-1.023 1.594-.084.196-.103.348-.058.457.046.11.196.242.451.397l.767.464c.33.198.59.233.784.104a.993.993 0 0 0 .175-.171 2.74 2.74 0 0 0 .276-.447 8.3 8.3 0 0 1 .948-1.316c.37-.422.796-.795 1.278-1.12 1.06-.71 2.05-1.063 2.968-1.062.917.003 1.97.362 3.156 1.08l1.15.696a28.39 28.39 0 0 0-1.92.852M237.091 248.233l-1.68-1.586 12.226 4.659c.375.146.674.213.895.204.223-.009.462-.1.72-.272l1.18-.792c.241-.161.368-.31.38-.446.012-.136-.097-.325-.327-.567l-8.782-9.554a3.52 3.52 0 0 0-.287-.296 1.55 1.55 0 0 0-.222-.165c-.256-.155-.497-.157-.72-.006l-1.279.856c-.257.173-.387.324-.392.455-.004.131.11.317.34.558l8.105 7.946-12.66-4.893c-.375-.144-.669-.209-.882-.195-.213.015-.448.109-.705.281l-1.109.743c-.257.172-.39.327-.404.463-.012.136.105.319.352.55l8.21 7.702-12.67-4.713c-.39-.134-.688-.197-.893-.188-.205.01-.436.101-.693.273l-1.349.904c-.226.151-.21.304.045.459.11.066.36.166.751.3"/>
        <path stroke="#004680" stroke-linecap="round" stroke-linejoin="round" stroke-width=".633" d="M228.459 251.995l12.12 4.077c.391.135.693.194.905.18.213-.015.44-.104.682-.265l1.18-.791c.257-.173.388-.33.39-.472.003-.14-.118-.327-.364-.558l-.295-.278"/>
        <path fill="#F7971D" d="M231.732 269.315s13.136-1.809 26-10.456c5.126-3.445 11.058-12.23 11.058-12.23s2.183-.777 1.565 1.362c-.618 2.138-1.998 8.622-10.668 13.91-4.158 2.535-10.501 5.4-16.156 6.8-10.055 2.488-18.406 2.22-11.8.614"/>
        <path stroke="#F7971D" stroke-linecap="round" stroke-linejoin="round" stroke-width=".572" d="M266.973 255.051c1.876-2.508 3.154-5.196 3.512-7.814.12-.884-1.466-1.024-1.863-.287M235.731 268.46a77.767 77.767 0 0 1-5.787 1.168c-.848.138-.63.752.23.73 10.954-.267 21.432-3.04 29.367-8.357a33.165 33.165 0 0 0 1.554-1.108M237.29 268.067c-.518.136-1.038.268-1.559.394M239.234 267.527c-.343.1-.687.197-1.031.293"/>
        <path stroke="#F7971D" stroke-linecap="round" stroke-linejoin="round" stroke-width=".572" d="M268.622 246.95c-2.633 4.89-6.973 9.31-12 12.678-4.103 2.751-8.841 5.028-13.89 6.78M264.819 245.312c-.61.69-1.062 1.458-1.203 2.26M268.016 242.898c-.54.28-1.117.63-1.669 1.038"/>
        <path stroke="#F7971D" stroke-linecap="round" stroke-linejoin="round" stroke-width=".572" d="M263.616 247.572c-.08.46.428.68.811.348 1.262-1.101 4.072-3.55 5.496-3.43 1.425.123 3.678 3.048 4.684 4.355.304.396.85.27.868-.194.12-3.03-4.097-6.383-5.295-6.472-.202-.015-.509.044-.883.167"/>
        <path fill="#F7971D" d="M263.616 247.572c-.08.46.428.68.811.348 1.262-1.101 4.072-3.55 5.496-3.43 1.425.123 3.678 3.048 4.684 4.355.304.396.85.27.868-.194.12-3.03-4.097-6.383-5.295-6.472-1.189-.09-6.04 2.4-6.564 5.393"/>
        <path stroke="#B1CEE6" stroke-dasharray="3.186,3.186" stroke-linecap="round" stroke-linejoin="round" stroke-width=".867" d="M352.369 231.497l-15.157-8.751c-2.051-1.184-1.794-3.253.575-4.621l13.866-8.005c2.369-1.368 5.952-1.517 8.004-.332l15.157 8.75c2.05 1.185 1.794 3.253-.575 4.62l-13.866 8.007c-2.37 1.368-5.952 1.517-8.004.332zM319.827 250.734l-15.157-8.751c-2.051-1.185-1.794-3.253.575-4.621l13.867-8.006c2.368-1.367 5.95-1.516 8.003-.331l15.157 8.751c2.05 1.184 1.794 3.252-.575 4.62l-13.866 8.006c-2.37 1.368-5.952 1.517-8.004.332z"/>
        <path fill="#FFCD3C" d="M251.56 210.843l12.269 7.083c2.051 1.185 5.634 1.037 8.003-.331l13.867-8.006c1.376-.795 2.038-1.826 1.95-2.783v-6.397c.073-.813-.376-1.6-1.375-2.176l-15.158-8.751c-2.051-1.185-5.634-1.036-8.003.33l-13.867 8.008c-1.291.745-1.953 1.698-1.957 2.604h-.004v6.659h.004c-.036.783.418 1.536 1.383 2.093l.724.418"/>
        <path stroke="#004680" stroke-linecap="round" stroke-linejoin="round" stroke-width=".867" d="M251.56 210.843l12.269 7.083c2.051 1.185 5.634 1.037 8.003-.331l13.867-8.006c1.376-.795 2.038-1.826 1.95-2.783v-6.397c.073-.813-.376-1.6-1.375-2.176l-15.158-8.751c-2.051-1.185-5.634-1.036-8.003.33l-13.867 8.008c-1.291.745-1.953 1.698-1.957 2.604h-.004v6.659h.004c-.036.783.418 1.536 1.383 2.093l.724.418"/>
        <path fill="#FFE8B6" d="M272.09 210.71l-.258.15c-2.368 1.367-5.952 1.516-8.003.33l-15.157-8.75c-2.052-1.184-1.794-3.252.574-4.62l13.867-8.006c2.369-1.368 5.952-1.517 8.003-.332l15.158 8.75c2.05 1.186 1.794 3.254-.575 4.622l-9.481 5.473"/>
        <path stroke="#004680" stroke-linecap="round" stroke-linejoin="round" stroke-width=".867" d="M272.09 210.71l-.258.15c-2.368 1.367-5.952 1.516-8.003.33l-15.157-8.75c-2.052-1.184-1.794-3.252.574-4.62l13.867-8.006c2.369-1.368 5.952-1.517 8.003-.332l15.158 8.75c2.05 1.186 1.794 3.254-.575 4.622l-9.481 5.473"/>
        <path fill="#FFE8B6" d="M272.595 199.005l-4.286-2.474 3.144-2.201 4.286 2.474z"/>
        <path stroke="#004680" stroke-linecap="round" stroke-linejoin="round" stroke-width=".867" d="M272.595 199.005l-4.286-2.474 3.144-2.201 4.286 2.474z"/>
        <path fill="#FFE8B6" d="M265.37 204.064l-4.285-2.474 3.144-2.201 4.285 2.474z"/>
        <path stroke="#004680" stroke-linecap="round" stroke-linejoin="round" stroke-width=".867" d="M265.37 204.064l-4.285-2.474 3.144-2.201 4.285 2.474z"/>
        <path fill="#FFE8B6" d="M268.25 205.727l-.546-.315 3.143-2.202 4.286 2.475-1.058.74"/>
        <path stroke="#004680" stroke-linecap="round" stroke-linejoin="round" stroke-width=".867" d="M268.25 205.727l-.546-.315 3.143-2.202 4.286 2.475-1.058.74"/>
        <path fill="#FFE8B6" d="M269.847 206.648l-.776-.448"/>
        <path stroke="#004680" stroke-linecap="round" stroke-linejoin="round" stroke-width=".867" d="M269.847 206.648l-.776-.448"/>
        <path fill="#FFE8B6" d="M272.4 207.598l-.41.288-1.46-.843"/>
        <path stroke="#004680" stroke-linecap="round" stroke-linejoin="round" stroke-width=".867" d="M272.4 207.598l-.41.288-1.46-.843"/>
        <path fill="#FFE8B6" d="M274.075 206.425l-.514.36"/>
        <path stroke="#004680" stroke-linecap="round" stroke-linejoin="round" stroke-width=".867" d="M274.075 206.425l-.514.36"/>
        <path fill="#FFE8B6" d="M259.752 196.804l2.143 1.237-3.144 2.2-4.286-2.473 3.144-2.201.892.515"/>
        <path stroke="#004680" stroke-linecap="round" stroke-linejoin="round" stroke-width=".867" d="M259.752 196.804l2.143 1.237-3.144 2.2-4.286-2.473 3.144-2.201.892.515"/>
        <path fill="#FFE8B6" d="M260.75 196.105l1.484-1.04 13.239 7.644-1.485 1.04"/>
        <path stroke="#004680" stroke-linecap="round" stroke-linejoin="round" stroke-width=".867" d="M260.75 196.105l1.484-1.04 13.239 7.644-1.485 1.04"/>
        <path fill="#FFE8B6" d="M269.893 198.16l-2.524 1.767"/>
        <path stroke="#004680" stroke-linecap="round" stroke-linejoin="round" stroke-width=".867" d="M269.893 198.16l-2.524 1.767"/>
        <path fill="#D8AE64" d="M281.117 228.268l10.397 6.003c2.052 1.184 5.635 1.036 8.003-.332l13.868-8.005c1.376-.795 2.038-1.826 1.95-2.783v-6.397c.073-.813-.376-1.6-1.376-2.177l-15.156-8.75c-2.052-1.185-5.635-1.037-8.004.33l-13.867 8.007c-1.291.746-1.953 1.699-1.958 2.604h-.003v6.66h.004c-.036.783.418 1.535 1.383 2.092l1.12.648"/>
        <path stroke="#004680" stroke-linecap="round" stroke-linejoin="round" stroke-width=".867" d="M281.117 228.268l10.397 6.003c2.052 1.184 5.635 1.036 8.003-.332l13.868-8.005c1.376-.795 2.038-1.826 1.95-2.783v-6.397c.073-.813-.376-1.6-1.376-2.177l-15.156-8.75c-2.052-1.185-5.635-1.037-8.004.33l-13.867 8.007c-1.291.746-1.953 1.699-1.958 2.604h-.003v6.66h.004c-.036.783.418 1.535 1.383 2.092l1.12.648"/>
        <path fill="#DCE7F2" d="M279.29 227.214l.154.089"/>
        <path stroke="#004680" stroke-linecap="round" stroke-linejoin="round" stroke-width=".867" d="M279.29 227.214l.154.089"/>
        <path fill="#F9D093" d="M299.964 226.945l-.447.258c-2.368 1.368-5.95 1.516-8.003.332l-15.157-8.75c-2.052-1.185-1.794-3.254.574-4.622l13.867-8.006c2.37-1.367 5.952-1.516 8.004-.33l15.157 8.75c2.051 1.184 1.794 3.253-.575 4.62l-10.773 6.22"/>
        <path stroke="#004680" stroke-linecap="round" stroke-linejoin="round" stroke-width=".867" d="M299.964 226.945l-.447.258c-2.368 1.368-5.95 1.516-8.003.332l-15.157-8.75c-2.052-1.185-1.794-3.254.574-4.622l13.867-8.006c2.37-1.367 5.952-1.516 8.004-.33l15.157 8.75c2.051 1.184 1.794 3.253-.575 4.62l-10.773 6.22"/>
        <path fill="#004680" d="M285.638 215.674l.002.001h-.002z"/>
        <path stroke="#004680" stroke-linecap="round" stroke-linejoin="round" stroke-width=".832" d="M284.159 217.993c-.583-2.259.63-4.755 3.563-6.587 4.583-2.863 11.626-3.022 15.733-.355 4.107 2.667 3.722 7.15-.86 10.013-4.582 2.864-11.626 3.023-15.733.355"/>
        <path fill="#004680" d="M291.465 219.69c-.554.346-1.406.365-1.903.042-.497-.323-.45-.865.104-1.21.554-.348 1.406-.367 1.903-.044.498.322.451.865-.104 1.211M299.306 218.577c-.554.347-1.406.366-1.903.043-.497-.323-.45-.865.104-1.211.554-.347 1.406-.366 1.903-.043.498.322.451.865-.104 1.21M293.363 214.717c-.555.346-1.407.366-1.904.043-.497-.323-.45-.865.104-1.212.555-.346 1.406-.366 1.904-.043.497.323.45.865-.104 1.212M297.716 215.784c-.555.346-1.407.365-1.904.043-.496-.323-.45-.865.104-1.212.555-.346 1.406-.366 1.904-.043.497.323.45.865-.104 1.212M303.238 216.963c-.437-.284-1.19-.267-1.677.038-.488.305-.53.784-.092 1.067.437.285 1.19.268 1.677-.037.488-.305.529-.784.092-1.068m-2.008 1.255c-.555-.361-.503-.969.117-1.356.62-.387 1.575-.408 2.13-.048.555.36.502.969-.117 1.356-.62.387-1.574.408-2.13.048"/>
        <path stroke="#004680" stroke-width=".309" d="M303.238 216.963c-.437-.284-1.19-.267-1.677.038-.488.305-.53.784-.092 1.067.437.285 1.19.268 1.677-.037.488-.305.529-.784.092-1.068zm-2.008 1.255c-.555-.361-.503-.969.117-1.356.62-.387 1.575-.408 2.13-.048.555.36.502.969-.117 1.356-.62.387-1.574.408-2.13.048z"/>
        <path fill="#004680" d="M300.635 212.813c-.437-.284-1.19-.267-1.678.038s-.529.784-.092 1.067c.437.285 1.19.268 1.678-.037s.53-.784.092-1.068m-2.008 1.255c-.555-.36-.503-.969.116-1.356.62-.387 1.575-.408 2.13-.048.555.36.503.97-.117 1.356-.619.387-1.574.408-2.129.048"/>
        <path stroke="#004680" stroke-width=".309" d="M300.635 212.813c-.437-.284-1.19-.267-1.678.038s-.529.784-.092 1.067c.437.285 1.19.268 1.678-.037s.53-.784.092-1.068zm-2.008 1.255c-.555-.36-.503-.969.116-1.356.62-.387 1.575-.408 2.13-.048.555.36.503.97-.117 1.356-.619.387-1.574.408-2.129.048z"/>
        <path fill="#004680" d="M294.171 211.075c-.437-.284-1.189-.267-1.678.038-.487.305-.528.784-.092 1.067.438.284 1.191.268 1.678-.038.488-.304.53-.783.092-1.067m-2.008 1.254c-.555-.36-.503-.968.116-1.355.621-.387 1.576-.409 2.13-.048.556.36.503.968-.116 1.356-.619.386-1.574.408-2.13.047"/>
        <path stroke="#004680" stroke-width=".309" d="M294.171 211.075c-.437-.284-1.189-.267-1.678.038-.487.305-.528.784-.092 1.067.438.284 1.191.268 1.678-.038.488-.304.53-.783.092-1.067zm-2.008 1.254c-.555-.36-.503-.968.116-1.355.621-.387 1.576-.409 2.13-.048.556.36.503.968-.116 1.356-.619.386-1.574.408-2.13.047z"/>
        <path fill="#FFF" d="M290.566 219.105l1.896-4.972"/>
        <path stroke="#004680" stroke-linecap="round" stroke-linejoin="round" stroke-width=".619" d="M290.566 219.105l1.896-4.972"/>
        <path fill="#FFF" d="M290.566 219.105l6.25-3.905"/>
        <path stroke="#004680" stroke-linecap="round" stroke-linejoin="round" stroke-width=".619" d="M290.566 219.105l6.25-3.905"/>
        <path fill="#FFF" d="M298.407 217.993l-8.104 1.112"/>
        <path stroke="#004680" stroke-linecap="round" stroke-linejoin="round" stroke-width=".619" d="M298.407 217.993l-8.104 1.112"/>
        <path fill="#35D0BA" d="M317.612 182.976c.073-.813-.377-1.6-1.376-2.177l-15.157-8.751c-2.051-1.184-5.635-1.036-8.003.332l-13.867 8.006c-1.291.745-1.953 1.699-1.958 2.604h-.003v6.659h.004c-.036.784.418 1.536 1.382 2.093l15.158 8.75c2.05 1.185 5.633 1.037 8.003-.331l13.867-8.006c1.376-.794 2.038-1.825 1.95-2.783v-6.396z"/>
        <path stroke="#004680" stroke-linecap="round" stroke-linejoin="round" stroke-width=".867" d="M317.612 182.976c.073-.813-.377-1.6-1.376-2.177l-15.157-8.751c-2.051-1.184-5.635-1.036-8.003.332l-13.867 8.006c-1.291.745-1.953 1.699-1.958 2.604h-.003v6.659h.004c-.036.784.418 1.536 1.382 2.093l15.158 8.75c2.05 1.185 5.633 1.037 8.003-.331l13.867-8.006c1.376-.794 2.038-1.825 1.95-2.783v-6.396z"/>
        <path fill="#35EEBA" d="M284.625 188.465l-5.99-3.459c-2.052-1.184-1.795-3.253.574-4.621l13.867-8.005c2.368-1.368 5.952-1.517 8.003-.332l15.157 8.75c2.052 1.185 1.794 3.254-.574 4.622l-13.867 8.005c-2.37 1.368-5.953 1.517-8.004.332l-4.365-2.52"/>
        <path stroke="#004680" stroke-linecap="round" stroke-linejoin="round" stroke-width=".867" d="M284.625 188.465l-5.99-3.459c-2.052-1.184-1.795-3.253.574-4.621l13.867-8.005c2.368-1.368 5.952-1.517 8.003-.332l15.157 8.75c2.052 1.185 1.794 3.254-.574 4.622l-13.867 8.005c-2.37 1.368-5.953 1.517-8.004.332l-4.365-2.52"/>
        <path fill="#FFF" d="M287.433 190.086l-.3-.172"/>
        <path stroke="#004680" stroke-linecap="round" stroke-linejoin="round" stroke-width=".867" d="M287.433 190.086l-.3-.172"/>
        <path fill="#004680" d="M296.494 188.88l5.374-5.318-9.204 3.39-.903-.46 3.312-6.388-7.093 4.438-3.1-1.58 12.516-7.61 3.055 1.557-3.281 5.939 8.528-3.265 3.056 1.556-9.173 9.315z"/>
        <path fill="#F3807B" d="M345.575 199.063c.073-.813-.376-1.6-1.376-2.177l-15.156-8.751c-2.052-1.184-5.635-1.036-8.004.332l-13.866 8.006c-1.291.745-1.954 1.698-1.958 2.604h-.004v6.659h.004c-.036.784.418 1.536 1.382 2.093l15.158 8.75c2.05 1.185 5.634 1.037 8.003-.331l13.867-8.006c1.376-.795 2.038-1.825 1.95-2.783v-6.396z"/>
        <path stroke="#004680" stroke-linecap="round" stroke-linejoin="round" stroke-width=".867" d="M345.575 199.063c.073-.813-.376-1.6-1.376-2.177l-15.156-8.751c-2.052-1.184-5.635-1.036-8.004.332l-13.866 8.006c-1.291.745-1.954 1.698-1.958 2.604h-.004v6.659h.004c-.036.784.418 1.536 1.382 2.093l15.158 8.75c2.05 1.185 5.634 1.037 8.003-.331l13.867-8.006c1.376-.795 2.038-1.825 1.95-2.783v-6.396z"/>
        <path fill="#EFA0A0" d="M323.488 210.474a5.829 5.829 0 0 1-1.733-.63l-15.158-8.75c-2.05-1.185-1.794-3.254.576-4.622l13.866-8.006c2.369-1.367 5.952-1.516 8.004-.332l15.156 8.751c2.052 1.185 1.795 3.254-.574 4.621l-13.867 8.006c-.95.548-2.093.9-3.256 1.05"/>
        <path stroke="#004680" stroke-linecap="round" stroke-linejoin="round" stroke-width=".867" d="M323.488 210.474a5.829 5.829 0 0 1-1.733-.63l-15.158-8.75c-2.05-1.185-1.794-3.254.576-4.622l13.866-8.006c2.369-1.367 5.952-1.516 8.004-.332l15.156 8.751c2.052 1.185 1.795 3.254-.574 4.621l-13.867 8.006c-.95.548-2.093.9-3.256 1.05"/>
        <path fill="#FFF" d="M324.99 210.64l-.076-.001"/>
        <path stroke="#004680" stroke-linecap="round" stroke-linejoin="round" stroke-width=".867" d="M324.99 210.64l-.076-.001"/>
        <path stroke="#004680" stroke-linecap="round" stroke-linejoin="round" stroke-width=".928" d="M329.45 191.961l-1.945 1.216M332.359 193.85l-1.946 1.215M335.073 195.612l-1.946 1.216M330.753 192.806l-1.947 1.216M333.66 194.695l-1.945 1.216M336.375 196.457l-1.947 1.216M317.095 199.681l-1.946 1.217M320.003 201.57l-1.947 1.216M322.717 203.332l-1.946 1.216M318.398 200.527l-1.947 1.216M321.305 202.415l-1.946 1.217M324.019 204.178l-1.946 1.216M335.859 200.313l-1.745-1.133M332.614 202.34l-1.744-1.134M329.586 204.232l-1.745-1.133M334.406 201.22l-1.745-1.133M331.162 203.248l-1.745-1.133M328.133 205.14l-1.744-1.133M324.785 193.12l-1.745-1.132M321.54 195.148l-1.745-1.133M318.512 197.04l-1.745-1.133M323.332 194.028l-1.745-1.133M320.087 196.056l-1.745-1.133M317.06 197.948l-1.745-1.133M324.312 204.38l-7.872-5.112c-.396-.258-.358-.69.083-.966l8.783-5.487c.442-.276 1.12-.291 1.516-.035l7.872 5.112c.395.257.358.69-.083.965l-8.783 5.489c-.442.275-1.12.29-1.516.034z"/>
        <path stroke="#004680" stroke-linecap="round" stroke-linejoin="round" stroke-width=".928" d="M324.966 201.221l-3.558-2.31c-.195-.127-.176-.34.041-.477l3.97-2.479c.218-.136.553-.144.748-.017l3.557 2.31c.196.127.178.34-.04.476l-3.97 2.48c-.218.137-.553.144-.748.017z"/>
        <g opacity=".25">
            <path fill="#FFF" d="M104.762 234.553l11.312 6.53c4.453 2.572 11.188 2.85 15.044.625L267.27 163.1c3.857-2.226 3.373-6.115-1.08-8.686l-100.096-57.79c-4.453-2.571-11.188-2.85-15.044-.624L14.898 174.607c-3.857 2.227-3.373 6.115 1.08 8.686l73.03 42.164 15.754 9.096z"/>
            <path stroke="#004680" stroke-linecap="round" stroke-linejoin="round" stroke-width=".827" d="M104.762 234.553l11.312 6.53c4.453 2.572 11.188 2.85 15.044.625L267.27 163.1c3.857-2.226 3.373-6.115-1.08-8.686l-100.096-57.79c-4.453-2.571-11.188-2.85-15.044-.624L14.898 174.607c-3.857 2.227-3.373 6.115 1.08 8.686l73.03 42.164 15.754 9.096z"/>
        </g>
        <path fill="#DCE7F2" d="M269.866 151.786v-6.027c.002-.05 0-.1 0-.152v-.042h-.002c-.005-1.704-1.243-3.499-3.674-4.903l-100.096-57.79c-4.453-2.57-11.188-2.85-15.044-.624L14.898 160.855c-1.703.984-2.557 2.291-2.599 3.666h-.007v6.312h.01c-.02 1.72 1.221 3.536 3.676 4.953l100.096 57.791c4.453 2.571 11.188 2.85 15.044.624l136.152-78.608c1.762-1.016 2.607-2.38 2.593-3.807h.003z"/>
        <path stroke="#004680" stroke-linecap="round" stroke-linejoin="round" stroke-width=".827" d="M269.866 151.786v-6.027c.002-.05 0-.1 0-.152v-.042h-.002c-.005-1.704-1.243-3.499-3.674-4.903l-100.096-57.79c-4.453-2.57-11.188-2.85-15.044-.624L14.898 160.855c-1.703.984-2.557 2.291-2.599 3.666h-.007v6.312h.01c-.02 1.72 1.221 3.536 3.676 4.953l100.096 57.791c4.453 2.571 11.188 2.85 15.044.624l136.152-78.608c1.762-1.016 2.607-2.38 2.593-3.807h.003z"/>
        <g>
            <path fill="#FFF" d="M104.762 220.801l11.312 6.531c4.453 2.571 11.188 2.85 15.044.623l136.152-78.607c3.857-2.226 3.373-6.115-1.08-8.686l-100.096-57.79c-4.453-2.57-11.188-2.85-15.044-.624L14.898 160.855c-3.857 2.227-3.373 6.115 1.08 8.686l73.03 42.164"/>
            <path stroke="#004680" stroke-linecap="round" stroke-linejoin="round" stroke-width=".827" d="M104.762 220.801l11.312 6.531c4.453 2.571 11.188 2.85 15.044.623l136.152-78.607c3.857-2.226 3.373-6.115-1.08-8.686l-100.096-57.79c-4.453-2.57-11.188-2.85-15.044-.624L14.898 160.855c-3.857 2.227-3.373 6.115 1.08 8.686l73.03 42.164"/>
        </g>
        <g>
            <path fill="#FFF" d="M93.735 214.435l1.077.622"/>
            <path stroke="#004680" stroke-linecap="round" stroke-linejoin="round" stroke-width="1.4" d="M93.735 214.435l1.077.622"/>
        </g>
        <path stroke="#004680" stroke-linecap="round" stroke-linejoin="round" stroke-width="1.157" d="M269.866 145.607v-.042h-.002v-.001a3.645 3.645 0 0 0-.058-.622c-.002-.018-.007-.035-.01-.053a3.952 3.952 0 0 0-.154-.568c-.01-.032-.025-.065-.036-.097a4.749 4.749 0 0 0-.304-.65 5.7 5.7 0 0 0-.303-.473c-.037-.054-.073-.108-.113-.161a6.662 6.662 0 0 0-.36-.432c-.055-.06-.105-.12-.162-.18a8.176 8.176 0 0 0-.423-.402c-.068-.061-.13-.123-.2-.183a9.246 9.246 0 0 0-.51-.393c-.074-.055-.14-.11-.217-.163-.258-.18-.53-.355-.824-.524L166.094 82.872c-1.113-.642-2.369-1.142-3.687-1.495a18.736 18.736 0 0 0-6.077-.587c-1.984.14-3.835.624-5.28 1.459L14.897 160.856a6.95 6.95 0 0 0-1.03.733c-.04.034-.085.065-.123.1a4.973 4.973 0 0 0-.71.788l-.093.132a3.909 3.909 0 0 0-.438.858c-.012.036-.02.072-.032.108-.099.31-.163.626-.172.947h-.007v6.312h.01c-.02 1.718 1.221 3.536 3.675 4.953l100.097 57.79c4.453 2.572 11.188 2.85 15.044.624l136.152-78.607c1.761-1.017 2.607-2.381 2.593-3.807h.003v-6.027c.002-.051 0-.102 0-.153z"/>
        <path stroke="#B1CEE6" stroke-dasharray="3.186,3.186" stroke-linecap="round" stroke-linejoin="round" stroke-width=".867" d="M126.204 139.722l-15.157-8.751c-2.05-1.185-1.794-3.253.574-4.621l13.867-8.006c2.37-1.367 5.952-1.516 8.004-.331l15.156 8.75c2.052 1.185 1.795 3.253-.574 4.62l-13.867 8.007c-2.369 1.368-5.952 1.516-8.003.332z"/>
        <g>
            <path fill="#FFF" d="M92.346 137.382l86.145 49.106"/>
            <path stroke="#004680" stroke-linecap="round" stroke-linejoin="round" stroke-width=".867" d="M92.346 137.382l86.145 49.106"/>
        </g>
        <g transform="translate(26 127.965)">
            <mask id="b" fill="#fff">
                <use xlink:href="#a"/>
            </mask>
            <path fill="#FFF" d="M-7.658 60.011L-27 48.622 69.176-5.986l2.45-1.396 109.666 62.516-1.893 1.075-98.532 55.928L-.495 64.23" mask="url(#b)"/>
        </g>
        <g>
            <path stroke="#004680" stroke-linecap="round" stroke-linejoin="round" stroke-width=".743" d="M26.745 161.502l56.981-32.61 103.288 58.88-56.656 32.215z"/>
            <path stroke="#B1CEE6" stroke-dasharray="3.186,3.186" stroke-linecap="round" stroke-linejoin="round" stroke-width=".867" d="M125.62 139.18l-15.157-8.75c-2.05-1.185-1.794-3.253.574-4.621l13.868-8.006c2.368-1.367 5.951-1.516 8.003-.331l15.157 8.75c2.051 1.185 1.794 3.253-.575 4.62l-13.867 8.007c-2.368 1.368-5.952 1.516-8.003.332zM153.97 154.768l-15.158-8.751c-2.05-1.185-1.794-3.253.574-4.621l13.868-8.006c2.368-1.368 5.951-1.516 8.003-.331l15.157 8.75c2.051 1.185 1.794 3.253-.575 4.62l-13.867 8.007c-2.368 1.368-5.952 1.516-8.003.332zM212.943 152.753l-15.157-8.75c-2.051-1.186-1.794-3.254.575-4.622l13.867-8.006c2.368-1.368 5.952-1.516 8.003-.33l15.157 8.75c2.052 1.184 1.794 3.252-.574 4.62l-13.868 8.006c-2.368 1.368-5.951 1.516-8.003.332z"/>
            <path fill="#D8AE64" d="M144.85 115.392l10.397 6.003c2.052 1.184 5.635 1.036 8.004-.332l13.867-8.005c1.376-.795 2.038-1.826 1.95-2.783v-6.397c.074-.813-.376-1.6-1.376-2.177l-15.156-8.75c-2.052-1.185-5.635-1.037-8.004.331l-13.867 8.006c-1.29.746-1.953 1.7-1.958 2.604h-.003v6.66h.004c-.036.783.418 1.535 1.383 2.092l1.121.647"/>
            <path stroke="#004680" stroke-linecap="round" stroke-linejoin="round" stroke-width=".867" d="M144.85 115.392l10.397 6.003c2.052 1.184 5.635 1.036 8.004-.332l13.867-8.005c1.376-.795 2.038-1.826 1.95-2.783v-6.397c.074-.813-.376-1.6-1.376-2.177l-15.156-8.75c-2.052-1.185-5.635-1.037-8.004.331l-13.867 8.006c-1.29.746-1.953 1.7-1.958 2.604h-.003v6.66h.004c-.036.783.418 1.535 1.383 2.092l1.121.647"/>
            <path fill="#D8AE64" d="M143.023 114.338l.155.089"/>
            <path stroke="#004680" stroke-linecap="round" stroke-linejoin="round" stroke-width=".867" d="M143.023 114.338l.155.089"/>
            <path fill="#F9D093" d="M163.698 114.07l-.447.258c-2.369 1.368-5.952 1.516-8.004.332l-15.156-8.751c-2.052-1.184-1.795-3.253.574-4.621l13.867-8.006c2.37-1.367 5.952-1.516 8.003-.332l15.157 8.75c2.051 1.186 1.795 3.255-.575 4.622l-10.772 6.219"/>
            <path stroke="#004680" stroke-linecap="round" stroke-linejoin="round" stroke-width=".867" d="M163.698 114.07l-.447.258c-2.369 1.368-5.952 1.516-8.004.332l-15.156-8.751c-2.052-1.184-1.795-3.253.574-4.621l13.867-8.006c2.37-1.367 5.952-1.516 8.003-.332l15.157 8.75c2.051 1.186 1.795 3.255-.575 4.622l-10.772 6.219"/>
            <path fill="#004680" d="M157.166 111.8l-11.302-6.792c-.52-.312-.492-.869.064-1.243l7.95-5.363c.556-.374 1.428-.425 1.948-.112l11.3 6.79c.52.313.493.87-.064 1.244l-7.95 5.363c-.554.374-1.427.424-1.946.112"/>
            <path fill="#004680" d="M165.295 99.109c-1.973-1.186-5.292-.995-7.398.426s-2.214 3.541-.24 4.727c1.973 1.185 5.292.994 7.398-.426 2.106-1.421 2.214-3.541.24-4.727m-9.046 6.102c-2.7-1.623-2.553-4.524.33-6.469 2.881-1.944 7.423-2.205 10.124-.582 2.7 1.622 2.552 4.524-.329 6.469-2.883 1.943-7.424 2.205-10.125.582"/>
            <path fill="#35D0BA" d="M205.717 154.12c.074-.813-.376-1.6-1.375-2.177l-15.158-8.751c-2.05-1.184-5.634-1.036-8.003.332l-13.867 8.006c-1.29.745-1.953 1.699-1.957 2.604h-.004v6.659h.004c-.036.784.418 1.536 1.383 2.093l15.157 8.75c2.051 1.185 5.634 1.037 8.003-.331l13.867-8.006c1.376-.794 2.038-1.825 1.95-2.783v-6.396z"/>
            <path stroke="#004680" stroke-linecap="round" stroke-linejoin="round" stroke-width=".867" d="M205.717 154.12c.074-.813-.376-1.6-1.375-2.177l-15.158-8.751c-2.05-1.184-5.634-1.036-8.003.332l-13.867 8.006c-1.29.745-1.953 1.699-1.957 2.604h-.004v6.659h.004c-.036.784.418 1.536 1.383 2.093l15.157 8.75c2.051 1.185 5.634 1.037 8.003-.331l13.867-8.006c1.376-.794 2.038-1.825 1.95-2.783v-6.396z"/>
            <path fill="#35EEBA" d="M172.73 159.609l-5.99-3.459c-2.052-1.184-1.795-3.253.574-4.621l13.868-8.005c2.369-1.368 5.952-1.517 8.004-.332l15.155 8.75c2.052 1.185 1.795 3.254-.574 4.622l-13.867 8.005c-2.369 1.368-5.952 1.517-8.003.332l-4.365-2.52"/>
            <path stroke="#004680" stroke-linecap="round" stroke-linejoin="round" stroke-width=".867" d="M172.73 159.609l-5.99-3.459c-2.052-1.184-1.795-3.253.574-4.621l13.868-8.005c2.369-1.368 5.952-1.517 8.004-.332l15.155 8.75c2.052 1.185 1.795 3.254-.574 4.622l-13.867 8.005c-2.369 1.368-5.952 1.517-8.003.332l-4.365-2.52"/>
            <path fill="#FFF" d="M175.539 161.23l-.3-.173"/>
            <path stroke="#004680" stroke-linecap="round" stroke-linejoin="round" stroke-width=".867" d="M175.539 161.23l-.3-.173"/>
            <path stroke="#004680" stroke-linecap="round" stroke-linejoin="round" stroke-width=".862" d="M191.04 147.126c1.018.31 1.961.733 2.787 1.27 4.113 2.67 3.738 7.145-.838 9.992-4.576 2.847-11.621 2.99-15.734.32-4.113-2.672-3.738-7.146.838-9.994 1.503-.935 3.272-1.578 5.116-1.926M187.807 146.532c1.123.086 2.215.284 3.233.594M184.698 146.572c.5-.05 1-.08 1.5-.088"/>
            <path fill="#004680" d="M193.221 153.694c-.753.468-3.096-.277-5.233-1.665-2.138-1.388-3.26-2.893-2.507-3.361.753-.47 3.096.276 5.234 1.664 2.137 1.388 3.26 2.893 2.506 3.362"/>
            <path fill="#004680" d="M184.343 149.376l-1.615 1.005s.05 1.638 2.773 3.406c2.722 1.768 5.009 1.594 5.009 1.594l1.573-.98s-2.79-.39-4.84-1.72c-2.051-1.332-2.9-3.305-2.9-3.305"/>
            <path fill="#004680" d="M181.817 150.947l-1.615 1.005s.05 1.638 2.772 3.406c2.723 1.768 5.01 1.594 5.01 1.594l1.573-.98s-2.79-.388-4.84-1.72c-2.05-1.332-2.9-3.305-2.9-3.305"/>
            <path fill="#004680" d="M179.375 152.467l-1.615 1.005s.05 1.638 2.773 3.406c2.722 1.768 5.009 1.594 5.009 1.594l1.572-.98s-2.788-.388-4.84-1.72c-2.05-1.332-2.9-3.305-2.9-3.305"/>
            <path fill="#F3807B" d="M207.644 119.965c.073-.813-.376-1.6-1.375-2.177l-15.158-8.751c-2.051-1.184-5.634-1.035-8.003.332l-13.867 8.006c-1.291.745-1.953 1.699-1.958 2.604h-.003v6.659h.004c-.036.784.418 1.536 1.382 2.093l15.158 8.751c2.051 1.185 5.634 1.036 8.003-.331l13.867-8.007c1.376-.794 2.038-1.825 1.95-2.782v-6.397z"/>
            <path stroke="#004680" stroke-linecap="round" stroke-linejoin="round" stroke-width=".867" d="M207.644 119.965c.073-.813-.376-1.6-1.375-2.177l-15.158-8.751c-2.051-1.184-5.634-1.035-8.003.332l-13.867 8.006c-1.291.745-1.953 1.699-1.958 2.604h-.003v6.659h.004c-.036.784.418 1.536 1.382 2.093l15.158 8.751c2.051 1.185 5.634 1.036 8.003-.331l13.867-8.007c1.376-.794 2.038-1.825 1.95-2.782v-6.397z"/>
            <path fill="#EFA0A0" d="M185.557 131.377c-.642-.132-1.233-.341-1.733-.63l-15.157-8.751c-2.051-1.184-1.794-3.253.575-4.62l13.866-8.007c2.369-1.367 5.952-1.516 8.004-.331l15.157 8.75c2.05 1.185 1.794 3.254-.575 4.62l-13.866 8.007c-.95.548-2.094.9-3.257 1.05"/>
            <path stroke="#004680" stroke-linecap="round" stroke-linejoin="round" stroke-width=".867" d="M185.557 131.377c-.642-.132-1.233-.341-1.733-.63l-15.157-8.751c-2.051-1.184-1.794-3.253.575-4.62l13.866-8.007c2.369-1.367 5.952-1.516 8.004-.331l15.157 8.75c2.05 1.185 1.794 3.254-.575 4.62l-13.866 8.007c-.95.548-2.094.9-3.257 1.05"/>
            <path fill="#FFF" d="M187.06 131.543c-.026 0-.051 0-.077-.002"/>
            <path stroke="#004680" stroke-linecap="round" stroke-linejoin="round" stroke-width=".867" d="M187.06 131.543c-.026 0-.051 0-.077-.002M196.359 122.902c-.577.647-1.32 1.255-2.225 1.796-4.52 2.702-11.384 2.721-15.333.044-3.95-2.677-3.488-7.037 1.03-9.738 4.52-2.702 11.384-2.721 15.334-.043 1.975 1.338 2.847 3.097 2.66 4.859M181.759 118.41c-2.08 1.04-3.834 2.506-4.788 4.569M196.357 115.95s-6.117-.372-11.61 1.29M178.531 115.916s-.567 7.428 13.057 9.949M194.711 114.653s-10.269 5.042-6.102 11.916M182.843 117.936s.162-.082.324-.138"/>
            <path fill="#A8C9FB" d="M87.21 186.427c-.282 0-.57-.01-.865-.032-1.947-.14-3.677-.732-5.144-1.759-1.491-1.044-2.265-2.228-2.3-3.517-.032-1.303.666-2.376 2.076-3.19.686-.396 1.49-.68 2.39-.845a8.924 8.924 0 0 1 1.59-.148c.346 0 .687.022 1.022.066a.204.204 0 0 1 .177.195l.036 1.074a.201.201 0 0 1-.203.21h-.027a6.706 6.706 0 0 0-.894-.062c-.98 0-1.885.236-2.69.7-.923.534-1.37 1.205-1.366 2.053.004.845.558 1.661 1.648 2.423a7.295 7.295 0 0 0 3.782 1.311c.194.012.385.018.57.018 1.144 0 2.136-.237 2.947-.705.98-.567 1.445-1.25 1.418-2.086-.017-.5-.356-1.036-1.01-1.593l-3.267 1.886a.207.207 0 0 1-.218-.009l-1.171-.82a.205.205 0 0 1-.086-.175.205.205 0 0 1 .102-.167l4.525-2.612a.193.193 0 0 1 .1-.028c.033 0 .065.008.094.023.306.157.58.321.824.491 1.409.987 2.142 2.032 2.178 3.107.089 1.252-.613 2.321-2.09 3.173-1.168.675-2.564 1.018-4.148 1.018"/>
            <path fill="#004680" d="M84.957 176.733a9.14 9.14 0 0 0-1.626.151c-.922.17-1.749.462-2.456.87-1.48.855-2.212 1.989-2.175 3.37.034 1.359.837 2.596 2.385 3.679 1.497 1.049 3.262 1.653 5.246 1.796.298.02.591.032.877.032 1.621 0 3.052-.353 4.254-1.046 1.547-.894 2.284-2.028 2.188-3.37-.037-1.128-.799-2.227-2.264-3.253a7.196 7.196 0 0 0-.847-.505.404.404 0 0 0-.39.01l-4.525 2.612a.408.408 0 0 0-.03.685l1.172.82a.403.403 0 0 0 .435.018l3.143-1.813c.537.483.816.936.83 1.351.024.754-.406 1.376-1.317 1.902-.78.45-1.736.68-2.844.68-.181 0-.369-.007-.558-.019a7.096 7.096 0 0 1-3.678-1.274c-1.032-.723-1.558-1.483-1.561-2.258-.004-.769.41-1.382 1.264-1.875a5.107 5.107 0 0 1 2.59-.674c.279 0 .57.02.866.06a.403.403 0 0 0 .326-.102.404.404 0 0 0 .132-.316l-.035-1.074a.406.406 0 0 0-.353-.39 8.08 8.08 0 0 0-1.049-.067m0 .406c.337 0 .669.022.996.064l.035 1.076a6.933 6.933 0 0 0-.918-.063c-1.022 0-1.953.242-2.793.727-.984.568-1.472 1.311-1.468 2.23.004.92.582 1.782 1.734 2.59a7.46 7.46 0 0 0 3.886 1.345c.198.013.394.02.584.02 1.185 0 2.2-.245 3.047-.734 1.043-.602 1.55-1.358 1.52-2.268-.02-.59-.416-1.202-1.192-1.833l-3.39 1.957-1.17-.819 4.525-2.613c.297.153.564.312.8.477 1.36.953 2.057 1.936 2.093 2.948.083 1.18-.58 2.177-1.987 2.99-1.144.66-2.495.991-4.05.991-.276 0-.56-.01-.85-.032-1.918-.138-3.599-.712-5.041-1.723-1.444-1.008-2.18-2.128-2.212-3.356-.032-1.227.625-2.23 1.973-3.008.67-.386 1.444-.66 2.325-.82a8.696 8.696 0 0 1 1.553-.145"/>
            <path fill="#FFB5B5" d="M96.336 175.462c-.622 0-1.156.127-1.588.376-.498.288-.729.655-.705 1.123.023.478.374.958 1.043 1.426a4.554 4.554 0 0 0 2.268.83c.145.012.285.018.421.018.622 0 1.156-.126 1.587-.376.498-.287.73-.655.706-1.123-.024-.478-.375-.957-1.043-1.425a4.551 4.551 0 0 0-2.268-.831 5.101 5.101 0 0 0-.42-.018m1.56 5.26c-.223 0-.45-.01-.683-.031-1.322-.12-2.52-.55-3.562-1.28-1.064-.743-1.635-1.572-1.698-2.463-.064-.91.423-1.671 1.448-2.262.816-.472 1.763-.711 2.813-.711.222 0 .448.01.68.03 1.323.12 2.522.55 3.563 1.28 1.064.745 1.635 1.574 1.698 2.464.065.909-.422 1.67-1.447 2.263-.817.47-1.763.71-2.813.71"/>
            <path fill="#E04646" d="M97.775 179.032a4.366 4.366 0 0 1-2.573-.812c-.614-.43-.935-.857-.956-1.27-.012-.245.037-.61.604-.936.4-.232.9-.35 1.488-.35.13 0 .264.007.403.018a4.362 4.362 0 0 1 2.168.795c.614.43.936.857.956 1.269.013.245-.037.61-.604.937-.401.23-.901.349-1.486.349m-1.56-5.26c-1.086 0-2.066.248-2.915.738-1.097.633-1.618 1.459-1.548 2.453.067.953.668 1.834 1.785 2.615 1.07.75 2.3 1.192 3.66 1.315.239.022.472.033.7.033 1.086 0 2.066-.25 2.914-.74 1.098-.633 1.619-1.458 1.548-2.452-.067-.953-.667-1.834-1.784-2.616-1.071-.75-2.302-1.191-3.661-1.314a7.587 7.587 0 0 0-.7-.032m1.56 5.666c.662 0 1.225-.134 1.69-.403.565-.326.834-.762.808-1.31-.028-.546-.404-1.073-1.13-1.581a4.744 4.744 0 0 0-2.804-.885c-.662 0-1.226.134-1.691.403-.565.326-.834.763-.807 1.309.027.546.404 1.074 1.129 1.582a4.744 4.744 0 0 0 2.806.885m-1.56-5.26c.216 0 .437.01.663.03 1.293.117 2.448.532 3.464 1.243 1.016.712 1.553 1.482 1.612 2.312.059.83-.39 1.52-1.346 2.073-.79.455-1.693.683-2.711.683a7.2 7.2 0 0 1-.664-.031c-1.292-.117-2.447-.531-3.463-1.243-1.016-.711-1.554-1.482-1.613-2.311-.058-.83.39-1.521 1.347-2.073.789-.455 1.693-.683 2.71-.683"/>
            <path fill="#FFF3B8" d="M104.29 170.87c-.622 0-1.156.126-1.588.375-.498.288-.727.655-.704 1.124.022.477.373.957 1.042 1.425a4.554 4.554 0 0 0 2.268.83c.144.012.284.018.42.018.623 0 1.157-.127 1.589-.376.498-.287.729-.655.706-1.123-.024-.478-.376-.958-1.043-1.425a4.548 4.548 0 0 0-2.269-.83 5.101 5.101 0 0 0-.42-.019m1.56 5.26c-.222 0-.45-.01-.683-.03-1.322-.12-2.52-.55-3.562-1.28-1.063-.745-1.634-1.574-1.697-2.464-.065-.909.422-1.67 1.447-2.262.818-.472 1.764-.71 2.813-.71.222 0 .449.01.681.03 1.323.12 2.522.55 3.563 1.28 1.065.744 1.636 1.573 1.698 2.463.064.91-.422 1.671-1.448 2.263-.816.471-1.763.71-2.811.71"/>
            <path fill="#DDD247" d="M105.729 174.44c-.13 0-.265-.006-.404-.018a4.353 4.353 0 0 1-2.168-.795c-.615-.43-.936-.856-.957-1.269-.012-.245.037-.609.604-.937.401-.23.902-.349 1.488-.349a4.362 4.362 0 0 1 2.571.812c.614.43.936.857.956 1.27.013.245-.037.61-.604.936-.401.232-.901.35-1.486.35m-1.56-5.26c-1.086 0-2.066.247-2.915.737-1.097.633-1.618 1.46-1.548 2.453.067.954.668 1.834 1.785 2.616 1.07.75 2.301 1.192 3.66 1.314.239.022.472.033.7.033 1.086 0 2.066-.248 2.914-.738 1.098-.634 1.619-1.459 1.548-2.453-.067-.954-.667-1.834-1.784-2.616-1.07-.75-2.302-1.192-3.66-1.315a7.625 7.625 0 0 0-.7-.032m1.56 5.667c.661 0 1.224-.135 1.689-.404.565-.326.834-.762.808-1.309-.028-.546-.404-1.073-1.13-1.582a4.73 4.73 0 0 0-2.368-.866 5.041 5.041 0 0 0-.436-.019c-.662 0-1.226.134-1.691.403-.565.327-.834.763-.807 1.31.027.546.404 1.073 1.129 1.581a4.725 4.725 0 0 0 2.369.867 5.5 5.5 0 0 0 .437.02m-1.559-5.262c.215 0 .436.011.662.031 1.293.117 2.448.531 3.464 1.243 1.016.711 1.554 1.482 1.612 2.311.059.83-.39 1.521-1.346 2.073-.79.456-1.693.683-2.711.683a7.56 7.56 0 0 1-.664-.03c-1.292-.117-2.447-.53-3.463-1.243-1.016-.712-1.554-1.482-1.613-2.312-.058-.829.39-1.52 1.347-2.072.789-.456 1.693-.684 2.712-.684"/>
            <path fill="#A8C9FB" d="M112.139 166.314c-.594 0-1.11.124-1.534.37-.487.28-.708.64-.674 1.098.036.473.394.95 1.063 1.42a4.625 4.625 0 0 0 2.706.863c.593 0 1.104-.12 1.519-.36.496-.287.72-.646.687-1.099-.035-.467-.397-.945-1.077-1.42-.701-.492-1.46-.778-2.25-.85a4.773 4.773 0 0 0-.44-.022zm4.729 7.335c-.891 0-1.714-.122-2.447-.363a.206.206 0 0 1-.128-.125.207.207 0 0 1 .02-.178l.619-.966a.205.205 0 0 1 .244-.08c.419.16.88.24 1.37.24l.135-.003c.534-.015 1-.136 1.387-.359.592-.342.866-.716.838-1.143-.031-.44-.376-.896-1.028-1.352l-.3-.21a1.76 1.76 0 0 1-.16.792c-.182.412-.534.771-1.048 1.068-.677.39-1.507.59-2.468.59-.261 0-.532-.016-.813-.044-1.31-.133-2.495-.567-3.528-1.289-1.053-.737-1.63-1.558-1.716-2.438-.09-.906.32-1.627 1.218-2.145a4.346 4.346 0 0 1 1.696-.543 6.077 6.077 0 0 1 1.05-.03l-.314-.22a.202.202 0 0 1 .016-.342l1.147-.663a.202.202 0 0 1 .218.01l6.328 4.431c1.199.84 1.785 1.697 1.74 2.551-.043.852-.558 1.568-1.53 2.13a5.016 5.016 0 0 1-2.543.681h-.003z"/>
            <path fill="#004680" d="M113.699 169.862a4.421 4.421 0 0 1-2.588-.827c-.618-.433-.946-.86-.977-1.268-.018-.238.023-.59.572-.908.393-.227.875-.342 1.432-.342.136 0 .277.007.422.02.756.07 1.48.344 2.153.815.627.44.96.865.99 1.27.017.233-.024.582-.586.906-.383.222-.86.334-1.418.334m-.94-6.247a.4.4 0 0 0-.203.055l-1.147.662a.407.407 0 0 0-.164.53 5.926 5.926 0 0 0-.51.037 4.55 4.55 0 0 0-1.774.568c-1.211.7-1.386 1.66-1.32 2.341.094.943.7 1.812 1.804 2.585 1.06.742 2.279 1.188 3.623 1.324.287.03.568.045.834.045.997 0 1.86-.208 2.569-.617.553-.318.934-.709 1.133-1.16.074-.169.125-.336.154-.5l.003.002c.599.418.916.822.94 1.2.01.124.036.507-.735.952-.356.205-.791.317-1.291.332l-.13.002c-.465 0-.902-.076-1.298-.227a.408.408 0 0 0-.486.161l-.62.966a.408.408 0 0 0 .217.606c.754.247 1.599.373 2.51.373a5.22 5.22 0 0 0 2.647-.709c1.036-.597 1.585-1.369 1.633-2.295.048-.928-.567-1.846-1.827-2.728l-6.33-4.43a.402.402 0 0 0-.231-.075m.939 6.653c.633 0 1.173-.129 1.622-.388.565-.326.827-.756.788-1.289-.04-.534-.428-1.058-1.163-1.572-.735-.515-1.518-.81-2.35-.887a4.83 4.83 0 0 0-.458-.02c-.632 0-1.177.13-1.635.395-.556.321-.814.751-.774 1.29.04.54.423 1.063 1.149 1.571a4.808 4.808 0 0 0 2.82.9m-.938-6.246l6.328 4.431c1.143.8 1.694 1.592 1.654 2.374-.041.783-.517 1.437-1.43 1.964a4.794 4.794 0 0 1-2.441.655h-.003c-.872 0-1.667-.118-2.383-.354l.618-.965a4.053 4.053 0 0 0 1.584.25c.57-.016 1.065-.145 1.482-.386.66-.38.974-.826.939-1.333-.035-.508-.406-1.009-1.114-1.504l-.64-.449-.051.031c.118.35.094.71-.07 1.084-.165.373-.487.697-.965.973-.65.375-1.437.562-2.366.562a7.83 7.83 0 0 1-.793-.042c-1.28-.13-2.424-.548-3.431-1.253-1.007-.705-1.551-1.469-1.631-2.292-.081-.823.292-1.472 1.117-1.949a4.14 4.14 0 0 1 1.618-.517c.232-.026.46-.039.682-.039.353 0 .693.033 1.02.1l.053-.03-.925-.649 1.148-.662"/>
            <path fill="#BDFFBF" d="M121.54 167.675a.2.2 0 0 1-.117-.037l-9.744-6.822a.204.204 0 0 1 .015-.343l1.2-.693a.202.202 0 0 1 .218.01l9.744 6.823a.204.204 0 0 1-.015.343l-1.199.692a.208.208 0 0 1-.102.027"/>
            <path fill="#05D305" d="M112.996 159.55a.4.4 0 0 0-.203.055l-1.2.692a.406.406 0 0 0-.03.685l9.744 6.823a.405.405 0 0 0 .437.019l1.199-.692a.409.409 0 0 0 .03-.686l-9.744-6.822a.403.403 0 0 0-.233-.074m0 .406l9.744 6.823-1.2.693-9.744-6.823 1.2-.693"/>
            <path fill="#FFB5B5" d="M123.806 159.964c-.34 0-.712.062-1.106.185-.553.172-.973.506-1.285 1.021-.207.344-.236.664-.086.977.14.293.415.546.818.756l1.776-2.937a4.414 4.414 0 0 0-.117-.002m.336 4.973a7.739 7.739 0 0 1-1.67-.188c-1.246-.276-2.166-.803-2.735-1.566-.594-.795-.617-1.657-.07-2.561.546-.902 1.409-1.539 2.563-1.894a6.592 6.592 0 0 1 1.94-.283c.585 0 1.202.071 1.835.212l.287.077a.204.204 0 0 1 .12.301l-2.62 4.332c.206.025.406.038.599.038a3.9 3.9 0 0 0 1.329-.224c.652-.236 1.117-.578 1.383-1.017.414-.684.29-1.201-.387-1.626a.204.204 0 0 1-.012-.337l1.162-.845a.205.205 0 0 1 .228-.008c.564.356.943.828 1.127 1.404.187.587.072 1.231-.34 1.913-.555.917-1.45 1.574-2.656 1.953a6.925 6.925 0 0 1-2.083.319"/>
            <path fill="#E04646" d="M122.075 162.63c-.272-.167-.461-.358-.563-.57-.075-.158-.15-.41.078-.784.284-.47.667-.775 1.17-.932.28-.088.547-.143.797-.165l-1.482 2.45zm2.095-4.388c-.697 0-1.37.098-2 .292-1.204.37-2.104 1.037-2.677 1.983-.585.968-.558 1.933.08 2.788.6.803 1.56 1.356 2.854 1.642a7.907 7.907 0 0 0 1.715.194c.729 0 1.45-.11 2.144-.328 1.255-.394 2.187-1.081 2.768-2.043.445-.734.566-1.433.36-2.08-.198-.622-.606-1.131-1.212-1.514a.405.405 0 0 0-.456.016l-1.161.845a.407.407 0 0 0 .023.674c.586.366.679.757.32 1.348-.24.399-.67.712-1.278.93a3.69 3.69 0 0 1-1.26.214 4.46 4.46 0 0 1-.255-.008l2.453-4.054a.406.406 0 0 0-.242-.602l-.28-.076a8.74 8.74 0 0 0-1.896-.221zm-1.945 4.926l2.038-3.37a2.828 2.828 0 0 0-.457-.037c-.362 0-.751.065-1.167.195a2.434 2.434 0 0 0-1.397 1.11c-.244.403-.276.793-.097 1.169.18.376.54.687 1.08.933zm1.945-4.52c.572 0 1.169.07 1.79.208l.28.075-2.778 4.591c.32.057.63.086.929.086.495 0 .96-.079 1.397-.236.7-.253 1.197-.62 1.489-1.103.474-.784.323-1.418-.453-1.904l1.16-.846c.527.332.874.763 1.043 1.294.169.531.063 1.113-.32 1.746-.531.878-1.38 1.5-2.543 1.865a6.72 6.72 0 0 1-2.022.31 7.536 7.536 0 0 1-1.627-.184c-1.201-.267-2.073-.763-2.615-1.489-.542-.725-.561-1.504-.06-2.334.523-.862 1.339-1.464 2.45-1.806a6.384 6.384 0 0 1 1.88-.273z"/>
            <path stroke="#004680" stroke-linecap="round" stroke-linejoin="round" stroke-width="2.274" d="M77.403 212.145l-61.582 38 271.172 155.868"/>
            <path fill="#F3807B" d="M74.156 267.64c.073-.806-.373-1.585-1.363-2.156l-15.017-8.67c-2.032-1.173-5.582-1.027-7.93.33l-13.738 7.93c-1.28.74-1.935 1.683-1.94 2.58h-.003v6.597h.004c-.035.776.414 1.522 1.37 2.074l15.017 8.67c2.032 1.172 5.582 1.025 7.929-.33l13.739-7.93c1.363-.788 2.019-1.81 1.932-2.758v-6.337z"/>
            <path stroke="#004680" stroke-linecap="round" stroke-linejoin="round" stroke-width="1.173" d="M74.156 267.64c.073-.806-.373-1.585-1.363-2.156l-15.017-8.67c-2.032-1.173-5.582-1.027-7.93.33l-13.738 7.93c-1.28.74-1.935 1.683-1.94 2.58h-.003v6.597h.004c-.035.776.414 1.522 1.37 2.074l15.017 8.67c2.032 1.172 5.582 1.025 7.929-.33l13.739-7.93c1.363-.788 2.019-1.81 1.932-2.758v-6.337z"/>
            <path fill="#EFA0A0" d="M62.263 275.811l-3.778 2.182c-2.347 1.354-5.897 1.502-7.93.328l-15.017-8.669c-2.032-1.174-1.777-3.223.57-4.578l13.738-7.93c2.347-1.356 5.897-1.503 7.93-.33l15.016 8.67c2.033 1.173 1.778 3.223-.569 4.577l-7.564 4.366"/>
            <path stroke="#004680" stroke-linecap="round" stroke-linejoin="round" stroke-width="1.173" d="M62.263 275.811l-3.778 2.182c-2.347 1.354-5.897 1.502-7.93.328l-15.017-8.669c-2.032-1.174-1.777-3.223.57-4.578l13.738-7.93c2.347-1.356 5.897-1.503 7.93-.33l15.016 8.67c2.033 1.173 1.778 3.223-.569 4.577l-7.564 4.366"/>
            <path stroke="#EDEDED" stroke-linecap="round" stroke-linejoin="round" stroke-width="1.323" d="M41.088 258.916l-6.266-3.807M32.99 265.347l-13.97-8.417"/>
            <path stroke="#004680" stroke-linecap="round" stroke-linejoin="round" stroke-width="2.274" d="M64.75 278.27l12.06 6.932"/>
            <path fill="#35D0BA" d="M177.604 303.753c.073-.806-.373-1.585-1.363-2.157l-15.017-8.67c-2.032-1.173-5.582-1.026-7.929.329l-13.739 7.932c-1.279.738-1.935 1.683-1.939 2.58h-.004v6.596h.004c-.035.777.414 1.522 1.37 2.074l15.017 8.67c2.032 1.172 5.582 1.026 7.929-.33l13.739-7.93c1.363-.787 2.019-1.81 1.932-2.757v-6.337z"/>
            <path stroke="#004680" stroke-linecap="round" stroke-linejoin="round" stroke-width="1.173" d="M177.604 303.753c.073-.806-.373-1.585-1.363-2.157l-15.017-8.67c-2.032-1.173-5.582-1.026-7.929.329l-13.739 7.932c-1.279.738-1.935 1.683-1.939 2.58h-.004v6.596h.004c-.035.777.414 1.522 1.37 2.074l15.017 8.67c2.032 1.172 5.582 1.026 7.929-.33l13.739-7.93c1.363-.787 2.019-1.81 1.932-2.757v-6.337z"/>
            <path fill="#35EEBA" d="M144.922 309.19l-5.935-3.426c-2.033-1.174-1.778-3.222.57-4.578l13.738-7.932c2.346-1.354 5.897-1.5 7.93-.328l15.016 8.67c2.032 1.173 1.777 3.222-.569 4.577l-13.739 7.932c-2.347 1.355-5.897 1.502-7.929.328l-4.325-2.496"/>
            <path stroke="#004680" stroke-linecap="round" stroke-linejoin="round" stroke-width="1.173" d="M144.922 309.19l-5.935-3.426c-2.033-1.174-1.778-3.222.57-4.578l13.738-7.932c2.346-1.354 5.897-1.5 7.93-.328l15.016 8.67c2.032 1.173 1.777 3.222-.569 4.577l-13.739 7.932c-2.347 1.355-5.897 1.502-7.929.328l-4.325-2.496"/>
            <path stroke="#EDEDED" stroke-linecap="round" stroke-linejoin="round" stroke-width="1.323" d="M170.156 293.884l6.98-4.15M180.573 299.355l13.272-7.547"/>
            <path stroke="#004680" stroke-linecap="round" stroke-linejoin="round" stroke-width="2.274" d="M146.413 314.816l-13.599 8.079"/>
            <path fill="#F7D186" d="M378.166 170.842l10.302 5.947c2.032 1.174 5.583 1.027 7.929-.328l13.739-7.932c1.362-.787 2.018-1.808 1.931-2.756v-6.337c.073-.806-.373-1.586-1.363-2.157l-15.017-8.67c-2.032-1.173-5.583-1.025-7.929.329l-13.738 7.932c-1.28.738-1.935 1.683-1.94 2.579h-.003v6.598h.004c-.035.775.414 1.52 1.37 2.073l1.11.64"/>
            <path stroke="#004680" stroke-linecap="round" stroke-linejoin="round" stroke-width="1.173" d="M378.166 170.842l10.302 5.947c2.032 1.174 5.583 1.027 7.929-.328l13.739-7.932c1.362-.787 2.018-1.808 1.931-2.756v-6.337c.073-.806-.373-1.586-1.363-2.157l-15.017-8.67c-2.032-1.173-5.583-1.025-7.929.329l-13.738 7.932c-1.28.738-1.935 1.683-1.94 2.579h-.003v6.598h.004c-.035.775.414 1.52 1.37 2.073l1.11.64"/>
            <path fill="#FFE8B6" d="M396.84 169.532l-.443.255c-2.347 1.355-5.898 1.502-7.93.33l-15.017-8.67c-2.032-1.173-1.777-3.223.57-4.578l13.738-7.93c2.347-1.356 5.897-1.503 7.93-.33l15.016 8.67c2.032 1.173 1.778 3.222-.569 4.577l-10.672 6.161"/>
            <path stroke="#004680" stroke-linecap="round" stroke-linejoin="round" stroke-width="1.173" d="M396.84 169.532l-.443.255c-2.347 1.355-5.898 1.502-7.93.33l-15.017-8.67c-2.032-1.173-1.777-3.223.57-4.578l13.738-7.93c2.347-1.356 5.897-1.503 7.93-.33l15.016 8.67c2.032 1.173 1.778 3.222-.569 4.577l-10.672 6.161"/>
            <path stroke="#EDEDED" stroke-linecap="round" stroke-linejoin="round" stroke-width="1.323" d="M405.527 149.851l11.372-7.508M402.61 148.394l5.56-3.513M413.318 155.456l3.014-1.745"/>
            <path stroke="#004680" stroke-linecap="round" stroke-linejoin="round" stroke-width="2.274" d="M370.298 176.215l11.11-6.611"/>
            <path fill="#FFCD3C" d="M252.749 110.878l12.156 7.018c2.032 1.173 5.582 1.025 7.929-.33l13.739-7.931c1.363-.787 2.018-1.808 1.931-2.756v-6.337c.074-.806-.373-1.585-1.362-2.157l-15.017-8.67c-2.032-1.172-5.583-1.025-7.929.33l-13.739 7.93c-1.279.739-1.935 1.684-1.94 2.58h-.003v6.598h.004c-.036.776.414 1.52 1.37 2.073l.717.414"/>
            <path stroke="#004680" stroke-linecap="round" stroke-linejoin="round" stroke-width="1.173" d="M252.749 110.878l12.156 7.018c2.032 1.173 5.582 1.025 7.929-.33l13.739-7.931c1.363-.787 2.018-1.808 1.931-2.756v-6.337c.074-.806-.373-1.585-1.362-2.157l-15.017-8.67c-2.032-1.172-5.583-1.025-7.929.33l-13.739 7.93c-1.279.739-1.935 1.684-1.94 2.58h-.003v6.598h.004c-.036.776.414 1.52 1.37 2.073l.717.414"/>
            <g>
                <path fill="#FFE8B6" d="M273.09 110.746l-.256.147c-2.347 1.355-5.897 1.502-7.93.33l-15.017-8.67c-2.032-1.174-1.777-3.223.57-4.578l13.738-7.93c2.347-1.356 5.897-1.503 7.93-.33l15.017 8.67c2.032 1.173 1.777 3.222-.57 4.577l-9.393 5.423"/>
                <path stroke="#004680" stroke-linecap="round" stroke-linejoin="round" stroke-width="1.173" d="M273.09 110.746l-.256.147c-2.347 1.355-5.897 1.502-7.93.33l-15.017-8.67c-2.032-1.174-1.777-3.223.57-4.578l13.738-7.93c2.347-1.356 5.897-1.503 7.93-.33l15.017 8.67c2.032 1.173 1.777 3.222-.57 4.577l-9.393 5.423"/>
            </g>
            <path stroke="#EDEDED" stroke-linecap="round" stroke-linejoin="round" stroke-width="1.323" d="M256.333 116.905l-11.375 7.412M259.179 120.611l-5.887 3.706"/>
            <path stroke="#004680" stroke-linecap="round" stroke-linejoin="round" stroke-width="2.274" d="M252.068 114.675l5.112-3.211M332.062 86.075l-2.443-1.463"/>
            <g>
                <path fill="#D8AE64" d="M294.68 397.994l12.154 7.018c2.033 1.172 5.583 1.026 7.93-.33l13.738-7.931c1.364-.787 2.02-1.808 1.933-2.756v-6.337c.072-.807-.373-1.586-1.363-2.157l-15.017-8.67c-2.032-1.173-5.583-1.025-7.93.329l-13.738 7.932c-1.279.738-1.936 1.683-1.939 2.58h-.004v6.596h.004c-.036.777.414 1.522 1.37 2.074l.717.414"/>
                <path stroke="#004680" stroke-linecap="round" stroke-linejoin="round" stroke-width="1.1" d="M294.68 397.994l12.154 7.018c2.033 1.172 5.583 1.026 7.93-.33l13.738-7.931c1.364-.787 2.02-1.808 1.933-2.756v-6.337c.072-.807-.373-1.586-1.363-2.157l-15.017-8.67c-2.032-1.173-5.583-1.025-7.93.329l-13.738 7.932c-1.279.738-1.936 1.683-1.939 2.58h-.004v6.596h.004c-.036.777.414 1.522 1.37 2.074l.717.414"/>
            </g>
            <g>
                <path fill="#F9D093" d="M315.019 397.862l-.255.147c-2.347 1.356-5.896 1.502-7.93.33l-15.016-8.67c-2.032-1.173-1.778-3.223.569-4.578l13.738-7.931c2.347-1.355 5.898-1.502 7.93-.328l15.017 8.669c2.032 1.173 1.777 3.222-.57 4.578l-9.392 5.422"/>
                <path stroke="#004680" stroke-linecap="round" stroke-linejoin="round" stroke-width="1.1" d="M315.019 397.862l-.255.147c-2.347 1.356-5.896 1.502-7.93.33l-15.016-8.67c-2.032-1.173-1.778-3.223.569-4.578l13.738-7.931c2.347-1.355 5.898-1.502 7.93-.328l15.017 8.669c2.032 1.173 1.777 3.222-.57 4.578l-9.392 5.422"/>
            </g>
            <path stroke="#EDEDED" stroke-linecap="round" stroke-linejoin="round" stroke-width="1.323" d="M297.945 408.14l-22.413 14.151M297.07 404.526l-10.331 6.504M289.126 399.98l-3.173 2.141"/>
            <path stroke="#004680" stroke-linecap="round" stroke-linejoin="round" stroke-width="2.274" d="M299.163 399.128l-14.346 9.013"/>
        </g>
    </g>
</svg>
