<svg xmlns="http://www.w3.org/2000/svg" xmlns:xlink="http://www.w3.org/1999/xlink" width="554" height="500" viewBox="0 0 554 500">
    <defs>
        <path id="a" d="M77.479.76C76.119 1.44.655 44.668.655 44.668l10.395 69.886 77.59-45.7c2.949-1.711 4.317-2.273 4.331-7.336l.398-48.426c0-4.97-2.114-7.973-5.108-9.304L80.875.873s-.998-.388-2.063-.388c-.456 0-.925.071-1.333.275"/>
        <path id="c" d="M28.705 12.693C13.38 21.155-1.048 30.201.845 61.979c1.195 20.077 16.28 31.676 32.11 24.054L67.63 66.206 33.05 40.148 51.042.097 28.705 12.693z"/>
        <path id="e" d="M83.858.76C82.498 1.44.283 49.248.283 49.248L6.026 59.4c-.057.773.287 1.52.912 1.98l10.166 7.472 1.292 44.673 76.35-44.458c1.979-.684 5.614-1.638 5.628-6.703V11.75c0-4.97-2.74-6.632-5.734-7.963L87.254.873s-.998-.388-2.063-.388c-.456 0-.925.071-1.333.275z"/>
    </defs>
    <g fill="none" fill-rule="evenodd">
        <path fill="#DCE7F2" d="M421.515 235.618c0-11.338 8.01-25.153 17.89-30.858 5.01-2.892 9.539-3.139 12.787-1.205l.004-.009 10.476 5.775v.004c3.313 1.812 5.371 5.814 5.371 11.558 0 11.337-8.01 25.152-17.89 30.856-5.015 2.896-9.547 3.14-12.796 1.2l-10.578-5.818-.035-.02-.08-.044.003-.004c-3.185-1.867-5.152-5.819-5.152-11.435"/>
        <path stroke="#004680" stroke-linecap="round" stroke-linejoin="round" stroke-width="1.837" d="M421.515 235.618c0-11.338 8.01-25.153 17.89-30.858 5.01-2.892 9.539-3.139 12.787-1.205l.004-.009 10.476 5.775v.004c3.313 1.812 5.371 5.814 5.371 11.558 0 11.337-8.01 25.152-17.89 30.856-5.015 2.896-9.547 3.14-12.796 1.2l-10.578-5.818-.035-.02-.08-.044.003-.004c-3.185-1.867-5.152-5.819-5.152-11.435z"/>
        <path fill="#DCE7F2" d="M432.264 241.54c0 11.337 8.01 15.903 17.89 10.2 9.88-5.704 17.889-19.52 17.889-30.857 0-11.338-8.01-15.904-17.889-10.2-9.88 5.705-17.89 19.52-17.89 30.857"/>
        <path stroke="#004680" stroke-linecap="round" stroke-linejoin="round" stroke-width="1.837" d="M432.264 241.54c0 11.337 8.01 15.903 17.89 10.2 9.88-5.704 17.889-19.52 17.889-30.857 0-11.338-8.01-15.904-17.889-10.2-9.88 5.705-17.89 19.52-17.89 30.857z"/>
        <path fill="#DCE7F2" d="M437.661 238.424c0 7.917 5.593 11.107 12.493 7.123 6.899-3.984 12.493-13.632 12.493-21.548 0-7.918-5.594-11.107-12.493-7.123-6.9 3.983-12.493 13.63-12.493 21.548"/>
        <path stroke="#004680" stroke-linecap="round" stroke-linejoin="round" stroke-width="1.837" d="M437.661 238.424c0 7.917 5.593 11.107 12.493 7.123 6.899-3.984 12.493-13.632 12.493-21.548 0-7.918-5.594-11.107-12.493-7.123-6.9 3.983-12.493 13.63-12.493 21.548z"/>
        <path fill="#DCE7F2" d="M438.584 237.722c.43 6.062 5.155 7.527 10.552 3.273 5.396-4.255 9.422-12.618 8.991-18.68-.43-6.061-5.155-7.527-10.552-3.273-5.396 4.255-9.422 12.618-8.99 18.68"/>
        <path stroke="#004680" stroke-linecap="round" stroke-linejoin="round" stroke-width="1.837" d="M438.584 237.722c.43 6.062 5.155 7.527 10.552 3.273 5.396-4.255 9.422-12.618 8.991-18.68-.43-6.061-5.155-7.527-10.552-3.273-5.396 4.255-9.422 12.618-8.99 18.68z"/>
        <path fill="#FFF" d="M444.573 231.934c-.144-2.01 1.191-4.784 2.982-6.195 1.052-.83 2.018-.987 2.671-.582l.01-.016 2.36 1.559-.006.009c.442.29.739.84.796 1.65.144 2.011-1.192 4.785-2.982 6.196-1.077.85-2.069.999-2.722.554l-.011.014-2.385-1.556.012-.02c-.404-.302-.67-.843-.725-1.613"/>
        <path stroke="#004680" stroke-linecap="round" stroke-linejoin="round" stroke-width="1.837" d="M444.573 231.934c-.144-2.01 1.191-4.784 2.982-6.195 1.052-.83 2.018-.987 2.671-.582l.01-.016 2.36 1.559-.006.009c.442.29.739.84.796 1.65.144 2.011-1.192 4.785-2.982 6.196-1.077.85-2.069.999-2.722.554l-.011.014-2.385-1.556.012-.02c-.404-.302-.67-.843-.725-1.613z"/>
        <path fill="#FFF" d="M446.905 233.469c.143 2.01 1.709 2.496 3.5 1.085 1.79-1.41 3.124-4.184 2.982-6.195-.143-2.01-1.71-2.496-3.5-1.085-1.79 1.41-3.125 4.185-2.982 6.195"/>
        <path stroke="#004680" stroke-linecap="round" stroke-linejoin="round" stroke-width="1.837" d="M446.905 233.469c.143 2.01 1.709 2.496 3.5 1.085 1.79-1.41 3.124-4.184 2.982-6.195-.143-2.01-1.71-2.496-3.5-1.085-1.79 1.41-3.125 4.185-2.982 6.195z"/>
        <path fill="#DCE7F2" d="M343.052 280.451c0-11.337 8.01-25.152 17.89-30.857 5.012-2.893 9.539-3.14 12.787-1.205l.004-.009 10.477 5.775v.003c3.313 1.813 5.372 5.815 5.372 11.56 0 11.336-8.01 25.151-17.891 30.855-5.015 2.896-9.546 3.14-12.795 1.2l-10.579-5.82a1.066 1.066 0 0 1-.035-.017l-.08-.045.002-.004c-3.184-1.868-5.152-5.82-5.152-11.436"/>
        <path stroke="#004680" stroke-linecap="round" stroke-linejoin="round" stroke-width="1.837" d="M343.052 280.451c0-11.337 8.01-25.152 17.89-30.857 5.012-2.893 9.539-3.14 12.787-1.205l.004-.009 10.477 5.775v.003c3.313 1.813 5.372 5.815 5.372 11.56 0 11.336-8.01 25.151-17.891 30.855-5.015 2.896-9.546 3.14-12.795 1.2l-10.579-5.82a1.066 1.066 0 0 1-.035-.017l-.08-.045.002-.004c-3.184-1.868-5.152-5.82-5.152-11.436z"/>
        <path fill="#DCE7F2" d="M353.802 286.373c0 11.338 8.01 15.904 17.89 10.2 9.88-5.703 17.889-19.52 17.889-30.857s-8.009-15.903-17.89-10.199c-9.88 5.704-17.889 19.519-17.889 30.856"/>
        <path stroke="#004680" stroke-linecap="round" stroke-linejoin="round" stroke-width="1.837" d="M353.802 286.373c0 11.338 8.01 15.904 17.89 10.2 9.88-5.703 17.889-19.52 17.889-30.857s-8.009-15.903-17.89-10.199c-9.88 5.704-17.889 19.519-17.889 30.856z"/>
        <path fill="#DCE7F2" d="M359.2 283.258c0 7.917 5.592 11.106 12.491 7.122 6.9-3.983 12.493-13.63 12.493-21.547 0-7.919-5.593-11.108-12.493-7.124-6.899 3.984-12.492 13.631-12.492 21.549"/>
        <path stroke="#004680" stroke-linecap="round" stroke-linejoin="round" stroke-width="1.837" d="M359.2 283.258c0 7.917 5.592 11.106 12.491 7.122 6.9-3.983 12.493-13.63 12.493-21.547 0-7.919-5.593-11.108-12.493-7.124-6.899 3.984-12.492 13.631-12.492 21.549z"/>
        <path fill="#DCE7F2" d="M360.121 282.555c.43 6.062 5.155 7.527 10.552 3.272 5.397-4.253 9.423-12.616 8.992-18.678-.43-6.061-5.155-7.528-10.552-3.273-5.396 4.255-9.422 12.618-8.992 18.679"/>
        <path stroke="#004680" stroke-linecap="round" stroke-linejoin="round" stroke-width="1.837" d="M360.121 282.555c.43 6.062 5.155 7.527 10.552 3.272 5.397-4.253 9.423-12.616 8.992-18.678-.43-6.061-5.155-7.528-10.552-3.273-5.396 4.255-9.422 12.618-8.992 18.679z"/>
        <path fill="#FFF" d="M366.11 276.768c-.143-2.012 1.193-4.784 2.983-6.195 1.051-.83 2.018-.988 2.67-.582l.011-.016 2.36 1.558-.006.01c.442.29.738.84.796 1.65.144 2.01-1.192 4.785-2.982 6.195-1.078.85-2.069 1-2.723.554l-.01.015-2.385-1.557.012-.02c-.405-.302-.671-.843-.725-1.612"/>
        <path stroke="#004680" stroke-linecap="round" stroke-linejoin="round" stroke-width="1.837" d="M366.11 276.768c-.143-2.012 1.193-4.784 2.983-6.195 1.051-.83 2.018-.988 2.67-.582l.011-.016 2.36 1.558-.006.01c.442.29.738.84.796 1.65.144 2.01-1.192 4.785-2.982 6.195-1.078.85-2.069 1-2.723.554l-.01.015-2.385-1.557.012-.02c-.405-.302-.671-.843-.725-1.612z"/>
        <path fill="#FFF" d="M368.443 278.302c.143 2.012 1.71 2.498 3.5 1.086 1.79-1.411 3.123-4.185 2.982-6.195-.144-2.01-1.71-2.496-3.5-1.085s-3.125 4.184-2.982 6.194"/>
        <path stroke="#004680" stroke-linecap="round" stroke-linejoin="round" stroke-width="1.837" d="M368.443 278.302c.143 2.012 1.71 2.498 3.5 1.086 1.79-1.411 3.123-4.185 2.982-6.195-.144-2.01-1.71-2.496-3.5-1.085s-3.125 4.184-2.982 6.194z"/>
        <path fill="#FFF" d="M277.746 224.346l15.121-8.62 46.523 40.734-6.648 45.027-61.98-35.837-.285-29.254a14.417 14.417 0 0 1 7.27-12.05"/>
        <path stroke="#004680" stroke-linecap="round" stroke-linejoin="round" stroke-width="1.837" d="M277.746 224.346l15.121-8.62 46.523 40.734-6.648 45.027-61.98-35.837-.285-29.254a14.417 14.417 0 0 1 7.27-12.05z"/>
        <path fill="#FFF" d="M479.39 191.373v25.398l-6.073 3.147-4.09 2.364c.093-.9.13-1.802.13-2.683 0-13.36-9.428-18.736-21.072-12.02-11.634 6.728-21.073 22.997-21.073 36.358 0 .882.039 1.735.123 2.551l-16.861 10.064-19.402 11.212c.15-1.248.225-2.487.225-3.706 0-13.557-9.57-19.008-21.383-12.197-11.802 6.82-21.382 23.333-21.382 36.881 0 1.23.075 2.392.226 3.482l-16.017 9.26v-28.823c0-5.001 2.759-10.185 6.07-13.938l11.262-64.624 129.317-73.315.45 6.263"/>
        <path stroke="#004680" stroke-linecap="round" stroke-linejoin="round" stroke-width="1.837" d="M479.39 191.373v25.398l-6.073 3.147-4.09 2.364c.093-.9.13-1.802.13-2.683 0-13.36-9.428-18.736-21.072-12.02-11.634 6.728-21.073 22.997-21.073 36.358 0 .882.039 1.735.123 2.551l-16.861 10.064-19.402 11.212c.15-1.248.225-2.487.225-3.706 0-13.557-9.57-19.008-21.383-12.197-11.802 6.82-21.382 23.333-21.382 36.881 0 1.23.075 2.392.226 3.482l-16.017 9.26v-28.823c0-5.001 2.759-10.185 6.07-13.938l11.262-64.624 129.317-73.315.45 6.263"/>
        <path fill="#FFF" d="M278.058 223.798l6.92-57.197a17.193 17.193 0 0 1 9.669-13.454L407.534 91.35a6.384 6.384 0 0 1 5.564.034l65.248 28.969-118.737 67.456a23.4 23.4 0 0 0-11.702 17.55l-9.094 53.364-60.755-34.925z"/>
        <path stroke="#004680" stroke-linecap="round" stroke-linejoin="round" stroke-width="1.837" d="M278.058 223.798l6.92-57.197a17.193 17.193 0 0 1 9.669-13.454L407.534 91.35a6.384 6.384 0 0 1 5.564.034l65.248 28.969-118.737 67.456a23.4 23.4 0 0 0-11.702 17.55l-9.094 53.364-60.755-34.925z"/>
        <path fill="#DCE7F2" d="M283.962 209.185l3.965-35.95c.31-2.544 3.117-3.945 5.337-2.664l48.364 25.998a3.577 3.577 0 0 1 1.761 3.53l-6.234 35.699c-.31 2.544-3.117 3.946-5.337 2.665l-46.094-25.748a3.576 3.576 0 0 1-1.762-3.53"/>
        <path stroke="#004680" stroke-linecap="round" stroke-linejoin="round" stroke-width="1.837" d="M283.962 209.185l3.965-35.95c.31-2.544 3.117-3.945 5.337-2.664l48.364 25.998a3.577 3.577 0 0 1 1.761 3.53l-6.234 35.699c-.31 2.544-3.117 3.946-5.337 2.665l-46.094-25.748a3.576 3.576 0 0 1-1.762-3.53z"/>
        <path fill="#DCE7F2" d="M372.356 220.211l-19.792 11.452c-1.177.682-2.627-.263-2.48-1.613l1.632-19.252a23.854 23.854 0 0 1 11.761-18.072l27.009-15.635c2.089-1.21 4.702.298 4.702 2.71V207l-14.698 8.506"/>
        <path stroke="#004680" stroke-linecap="round" stroke-linejoin="round" stroke-width="1.837" d="M372.356 220.211l-19.792 11.452c-1.177.682-2.627-.263-2.48-1.613l1.632-19.252a23.854 23.854 0 0 1 11.761-18.072l27.009-15.635c2.089-1.21 4.702.298 4.702 2.71V207l-14.698 8.506"/>
        <path fill="#DCE7F2" d="M433.036 185.462l-21.65 12.527c-1.286.745-2.872-.288-2.713-1.765l-.406-22.422c.014-1.981-.748-5.675 4.294-8.665l40.306-22.26c2.284-1.321 5.143.327 5.143 2.966v25.168l-16.077 9.302"/>
        <path stroke="#004680" stroke-linecap="round" stroke-linejoin="round" stroke-width="1.837" d="M433.036 185.462l-21.65 12.527c-1.286.745-2.872-.288-2.713-1.765l-.406-22.422c.014-1.981-.748-5.675 4.294-8.665l40.306-22.26c2.284-1.321 5.143.327 5.143 2.966v25.168l-16.077 9.302"/>
        <path fill="#FFF" d="M396.021 213.841l-10.348 5.573"/>
        <path stroke="#DCE7F2" stroke-linecap="round" stroke-linejoin="round" stroke-width="1.837" d="M396.021 213.841l-10.348 5.573"/>
        <path fill="#DCE7F2" d="M337.117 180.325l93.447-51.324c5.744-3.144 7.853-10.35 4.708-16.097-3.145-5.744-10.347-7.855-16.096-4.709l-109.554 58.69"/>
        <path fill="#FFF" d="M242.042 292.924l31.933-18.213c1.43-.825 2.589-2.824 2.589-4.463v-85.929c0-2.11 1.49-4.682 3.33-5.744.774-.447 1.484-.55 2.05-.37l.002-.01.041.023c.153.054.295.131.423.228l5.053 2.726c.745.27 1.22 1.059 1.22 2.25v87.622c0 3.165-2.236 7.022-4.995 8.615l-39.673 22.731-5.46-2.949 3.487-6.517z"/>
        <path stroke="#004680" stroke-linecap="round" stroke-linejoin="round" stroke-width="1.837" d="M242.042 292.924l31.933-18.213c1.43-.825 2.589-2.824 2.589-4.463v-85.929c0-2.11 1.49-4.682 3.33-5.744.774-.447 1.484-.55 2.05-.37l.002-.01.041.023c.153.054.295.131.423.228l5.053 2.726c.745.27 1.22 1.059 1.22 2.25v87.622c0 3.165-2.236 7.022-4.995 8.615l-39.673 22.731-5.46-2.949 3.487-6.517z"/>
        <path fill="#DCE7F2" d="M247.502 295.873l31.933-18.214c1.43-.824 2.589-2.822 2.589-4.463v-85.928c0-2.11 1.49-4.683 3.33-5.744 1.838-1.062 3.329-.211 3.329 1.898v87.622c0 3.165-2.236 7.023-4.995 8.615l-39.673 22.732 3.487-6.518z"/>
        <path stroke="#004680" stroke-linecap="round" stroke-linejoin="round" stroke-width="1.837" d="M247.502 295.873l31.933-18.214c1.43-.824 2.589-2.822 2.589-4.463v-85.928c0-2.11 1.49-4.683 3.33-5.744 1.838-1.062 3.329-.211 3.329 1.898v87.622c0 3.165-2.236 7.023-4.995 8.615l-39.673 22.732 3.487-6.518z"/>
        <path fill="#FFF" d="M247.502 295.873l-5.46-2.949"/>
        <path stroke="#004680" stroke-linecap="round" stroke-linejoin="round" stroke-width="1.837" d="M247.502 295.873l-5.46-2.949"/>
        <path fill="#DCE7F2" d="M288.22 264.003l11.298-6.523c.527-.305.337-1.052-.425-1.67l-.473-.382c-.764-.618-1.81-.872-2.337-.568l-11.297 6.523 3.235 2.62z"/>
        <path stroke="#004680" stroke-linecap="round" stroke-linejoin="round" stroke-width="1.837" d="M288.22 264.003l11.298-6.523c.527-.305.337-1.052-.425-1.67l-.473-.382c-.764-.618-1.81-.872-2.337-.568l-11.297 6.523 3.235 2.62z"/>
        <path fill="#DCE7F2" d="M305.74 253.176V247.2l-.054-5.145-17.172-8.038-4.834.967v6.679z"/>
        <path stroke="#004680" stroke-linecap="round" stroke-linejoin="round" stroke-width="1.837" d="M305.74 253.176V247.2l-.054-5.145-17.172-8.038-4.834.967v6.679z"/>
        <path fill="#FFF" d="M304.87 245.064l-20.839-9.993"/>
        <path stroke="#004680" stroke-linecap="round" stroke-linejoin="round" stroke-width="1.837" d="M304.87 245.064l-20.839-9.993"/>
        <path fill="#DCE7F2" d="M305.74 277.32v-5.976l-.054-5.145-17.172-8.038-4.834.968v6.68z"/>
        <path stroke="#004680" stroke-linecap="round" stroke-linejoin="round" stroke-width="1.837" d="M305.74 277.32v-5.976l-.054-5.145-17.172-8.038-4.834.968v6.68z"/>
        <path fill="#FFF" d="M304.87 269.208l-20.839-9.991"/>
        <path stroke="#004680" stroke-linecap="round" stroke-linejoin="round" stroke-width="1.837" d="M304.87 269.208l-20.839-9.991"/>
        <path fill="#FFF" d="M269.029 310.253l31.934-18.213c1.427-.825 2.586-2.824 2.586-4.463v-85.929c0-2.11 1.492-4.682 3.33-5.744.775-.446 1.485-.55 2.05-.369l.003-.01.042.022c.153.054.293.132.422.228l5.053 2.726c.745.271 1.22 1.06 1.22 2.251v87.621c0 3.165-2.236 7.022-4.994 8.615l-39.673 22.731-5.46-2.948 3.487-6.518z"/>
        <path stroke="#004680" stroke-linecap="round" stroke-linejoin="round" stroke-width="1.837" d="M269.029 310.253l31.934-18.213c1.427-.825 2.586-2.824 2.586-4.463v-85.929c0-2.11 1.492-4.682 3.33-5.744.775-.446 1.485-.55 2.05-.369l.003-.01.042.022c.153.054.293.132.422.228l5.053 2.726c.745.271 1.22 1.06 1.22 2.251v87.621c0 3.165-2.236 7.022-4.994 8.615l-39.673 22.731-5.46-2.948 3.487-6.518z"/>
        <path fill="#FFF" d="M309.01 256.043v-51.446c0-2.11 1.49-4.68 3.33-5.743 1.839-1.062 3.33-.212 3.33 1.899v87.62c0 3.166-2.237 7.023-4.996 8.616l-39.672 22.731 3.486-6.517 31.934-18.214c1.429-.825 2.588-2.823 2.588-4.463V272.1"/>
        <path stroke="#004680" stroke-linecap="round" stroke-linejoin="round" stroke-width="1.837" d="M309.01 256.043v-51.446c0-2.11 1.49-4.68 3.33-5.743 1.839-1.062 3.33-.212 3.33 1.899v87.62c0 3.166-2.237 7.023-4.996 8.616l-39.672 22.731 3.486-6.517 31.934-18.214c1.429-.825 2.588-2.823 2.588-4.463V272.1"/>
        <path fill="#FFF" d="M309.01 260.998v-1.07"/>
        <path stroke="#004680" stroke-linecap="round" stroke-linejoin="round" stroke-width="1.837" d="M309.01 260.998v-1.07"/>
        <path fill="#FFF" d="M274.488 313.203l-5.46-2.95"/>
        <path stroke="#004680" stroke-linecap="round" stroke-linejoin="round" stroke-width="1.837" d="M274.488 313.203l-5.46-2.95"/>
        <path fill="#FFCD3C" d="M308.976 280.723c.12-1.319-.61-2.596-2.232-3.532l-24.594-14.2c-3.329-1.921-9.143-1.68-12.987.538l-22.501 12.992c-2.095 1.21-3.17 2.757-3.177 4.225h-.006v10.807h.007c-.059 1.27.678 2.49 2.243 3.394l24.595 14.2c3.329 1.922 9.143 1.68 12.987-.538l22.5-12.99c2.234-1.29 3.308-2.963 3.165-4.516v-10.38z"/>
        <path stroke="#004680" stroke-linecap="round" stroke-linejoin="round" stroke-width="2.203" d="M308.976 280.723c.12-1.319-.61-2.596-2.232-3.532l-24.594-14.2c-3.329-1.921-9.143-1.68-12.987.538l-22.501 12.992c-2.095 1.21-3.17 2.757-3.177 4.225h-.006v10.807h.007c-.059 1.27.678 2.49 2.243 3.394l24.595 14.2c3.329 1.922 9.143 1.68 12.987-.538l22.5-12.99c2.234-1.29 3.308-2.963 3.165-4.516v-10.38z"/>
        <path fill="#FFE8B6" d="M290.054 293.787l-6.743 3.893c-3.844 2.219-9.658 2.46-12.987.538l-24.595-14.2c-3.329-1.922-2.91-5.278.933-7.497l22.501-12.992c3.844-2.219 9.658-2.459 12.986-.538l24.595 14.2c3.329 1.92 2.912 5.278-.933 7.497l-11.203 6.47"/>
        <path stroke="#004680" stroke-linecap="round" stroke-linejoin="round" stroke-width="1.402" d="M290.054 293.787l-6.743 3.893c-3.844 2.219-9.658 2.46-12.987.538l-24.595-14.2c-3.329-1.922-2.91-5.278.933-7.497l22.501-12.992c3.844-2.219 9.658-2.459 12.986-.538l24.595 14.2c3.329 1.92 2.912 5.278-.933 7.497l-11.203 6.47"/>
        <path fill="#FFF" d="M431.544 211.903l39.976-24.144c1.954-1.128 1.71-3.1-.548-4.403l-10.305-5.95-47.053 28.23 10.306 5.951c2.256 1.303 5.67 1.444 7.624.316"/>
        <path stroke="#004680" stroke-linecap="round" stroke-linejoin="round" stroke-width="1.837" d="M431.544 211.903l39.976-24.144c1.954-1.128 1.71-3.1-.548-4.403l-10.305-5.95-47.053 28.23 10.306 5.951c2.256 1.303 5.67 1.444 7.624.316z"/>
        <path fill="#FFF" d="M463.968 184.341l-36.06 21.737"/>
        <path stroke="#004680" stroke-linecap="round" stroke-linejoin="round" stroke-width="1.837" d="M463.968 184.341l-36.06 21.737"/>
        <path fill="#FFF" d="M425.898 188.312l-.708-29.676"/>
        <path stroke="#004680" stroke-linecap="round" stroke-linejoin="round" stroke-width="1.837" d="M425.898 188.312l-.708-29.676"/>
        <path fill="#FFF" d="M319.602 282.12c.297 4.015 2.446 7.13 4.797 6.955 2.351-.174 4.014-3.571 3.716-7.589-.298-4.015-2.447-7.13-4.798-6.955-2.35.174-4.014 3.573-3.715 7.589"/>
        <path stroke="#004680" stroke-linecap="round" stroke-linejoin="round" stroke-width="1.837" d="M319.602 282.12c.297 4.015 2.446 7.13 4.797 6.955 2.351-.174 4.014-3.571 3.716-7.589-.298-4.015-2.447-7.13-4.798-6.955-2.35.174-4.014 3.573-3.715 7.589z"/>
        <path fill="#FFF" d="M473.86 140.7l-15.782-9.345-58.162 33.621 17.61 10.427"/>
        <path stroke="#004680" stroke-linecap="round" stroke-linejoin="round" stroke-width="1.837" d="M473.86 140.7l-15.782-9.345-58.162 33.621 17.61 10.427"/>
        <path fill="#DCE7F2" d="M463.383 147.427l-11.912 7.008-15.766-9.046 12.516-7.25zM440.658 160.542l-11.912 7.007-15.848-8.876 12.41-7.303z"/>
        <path fill="#FFF" d="M472.746 149.605l-53.837 32.332-.153 3.995 5.222-.999 15.436-8.985 29.953-18.126z"/>
        <path fill="#FFF" d="M474.68 150.198v-8.892l-56.93 33.102v9.442"/>
        <path stroke="#004680" stroke-linecap="round" stroke-linejoin="round" stroke-width="1.837" d="M474.68 150.198v-8.892l-56.93 33.102v9.442"/>
        <g>
            <path fill="#FFF" d="M466.598 159.605c.825.765 1.82 1.213 2.892 1.213 2.855 0 5.17-3.18 5.17-7.102v-7.1"/>
            <path stroke="#004680" stroke-linecap="round" stroke-linejoin="round" stroke-width="1.837" d="M466.598 159.605c.825.765 1.82 1.213 2.892 1.213 2.855 0 5.17-3.18 5.17-7.102v-7.1"/>
        </g>
        <g>
            <path fill="#FFF" d="M458.42 164.32c.825.766 1.82 1.214 2.891 1.214 2.857 0 5.173-3.18 5.173-7.102"/>
            <path stroke="#004680" stroke-linecap="round" stroke-linejoin="round" stroke-width="1.837" d="M458.42 164.32c.825.766 1.82 1.214 2.891 1.214 2.857 0 5.173-3.18 5.173-7.102"/>
        </g>
        <g>
            <path fill="#FFF" d="M450.593 168.636c.825.765 1.822 1.213 2.892 1.213 2.856 0 5.172-3.18 5.172-7.102"/>
            <path stroke="#004680" stroke-linecap="round" stroke-linejoin="round" stroke-width="1.837" d="M450.593 168.636c.825.765 1.822 1.213 2.892 1.213 2.856 0 5.172-3.18 5.172-7.102"/>
        </g>
        <g>
            <path fill="#FFF" d="M442.466 172.95c.825.765 1.821 1.213 2.892 1.213 2.855 0 5.172-3.18 5.172-7.102"/>
            <path stroke="#004680" stroke-linecap="round" stroke-linejoin="round" stroke-width="1.837" d="M442.466 172.95c.825.765 1.821 1.213 2.892 1.213 2.855 0 5.172-3.18 5.172-7.102"/>
        </g>
        <g>
            <path fill="#FFF" d="M434.389 178.168c.825.765 1.82 1.213 2.891 1.213 2.857 0 5.173-3.18 5.173-7.102"/>
            <path stroke="#004680" stroke-linecap="round" stroke-linejoin="round" stroke-width="1.837" d="M434.389 178.168c.825.765 1.82 1.213 2.891 1.213 2.857 0 5.173-3.18 5.173-7.102"/>
        </g>
        <g>
            <path fill="#FFF" d="M426.311 182.934c.826.765 1.821 1.213 2.893 1.213 2.855 0 5.171-3.18 5.171-7.102"/>
            <path stroke="#004680" stroke-linecap="round" stroke-linejoin="round" stroke-width="1.837" d="M426.311 182.934c.826.765 1.821 1.213 2.893 1.213 2.855 0 5.171-3.18 5.171-7.102"/>
        </g>
        <g>
            <path fill="#FFF" d="M417.866 184.114c-.05 2.208 1.038 2.997 1.038 2.997.011.011-.194.01-.182.019.817.746 1.8 1.18 2.855 1.18 2.857 0 5.172-3.179 5.172-7.1"/>
            <path stroke="#004680" stroke-linecap="round" stroke-linejoin="round" stroke-width="1.837" d="M417.866 184.114c-.05 2.208 1.038 2.997 1.038 2.997.011.011-.194.01-.182.019.817.746 1.8 1.18 2.855 1.18 2.857 0 5.172-3.179 5.172-7.1"/>
        </g>
        <g>
            <path fill="#DCE7F2" d="M345.104 188.62l-48.384-25.805"/>
            <path stroke="#004680" stroke-linecap="round" stroke-linejoin="round" stroke-width="1.837" d="M345.104 188.62l-48.384-25.805"/>
        </g>
        <g>
            <path fill="#DCE7F2" d="M463.558 147.126l-15.498-8.688"/>
            <path stroke="#004680" stroke-linecap="round" stroke-linejoin="round" stroke-width="1.837" d="M463.558 147.126l-15.498-8.688"/>
        </g>
        <g>
            <path fill="#DCE7F2" d="M451.346 153.948l-15.498-8.688"/>
            <path stroke="#004680" stroke-linecap="round" stroke-linejoin="round" stroke-width="1.837" d="M451.346 153.948l-15.498-8.688"/>
        </g>
        <g>
            <path fill="#DCE7F2" d="M440.517 160.335l-15.496-8.688"/>
            <path stroke="#004680" stroke-linecap="round" stroke-linejoin="round" stroke-width="1.837" d="M440.517 160.335l-15.496-8.688"/>
        </g>
        <g>
            <path fill="#DCE7F2" d="M428.305 167.158l-15.496-8.689"/>
            <path stroke="#004680" stroke-linecap="round" stroke-linejoin="round" stroke-width="1.837" d="M428.305 167.158l-15.496-8.689"/>
        </g>
        <g>
            <path fill="#FFF" d="M414.641 103.726l29.577-16.696c.71-.412 1.287-.633 1.29-1.854V72.983c0-1.196-.66-1.597-1.381-1.917l-1.778-.703s-.491-.191-.82-.026c-.327.163-27.908 15.17-27.908 15.17"/>
            <path stroke="#004680" stroke-linecap="round" stroke-linejoin="round" stroke-width="1.837" d="M414.641 103.726l29.577-16.696c.71-.412 1.287-.633 1.29-1.854V72.983c0-1.196-.66-1.597-1.381-1.917l-1.778-.703s-.491-.191-.82-.026c-.327.163-27.908 15.17-27.908 15.17"/>
        </g>
        <g>
            <path fill="#DCE7F2" d="M345.007 166.114c-15.83 7.62-30.914-3.978-32.11-24.054-1.891-31.778 12.535-40.825 27.861-49.286l22.338-12.597"/>
            <path stroke="#004680" stroke-linecap="round" stroke-linejoin="round" stroke-width="1.837" d="M345.007 166.114c-15.83 7.62-30.914-3.978-32.11-24.054-1.891-31.778 12.535-40.825 27.861-49.286l22.338-12.597"/>
        </g>
        <g>
            <path fill="#DCE7F2" d="M345.429 165.93l77.59-44.494c2.948-1.712 5.342-2.631 5.355-7.695V63.126c0-4.969-2.74-6.632-5.733-7.963l-7.386-2.914s-2.038-.793-3.398-.114c-1.358.68-76.823 43.908-76.823 43.908"/>
            <path stroke="#004680" stroke-linecap="round" stroke-linejoin="round" stroke-width="1.837" d="M345.429 165.93l77.59-44.494c2.948-1.712 5.342-2.631 5.355-7.695V63.126c0-4.969-2.74-6.632-5.733-7.963l-7.386-2.914s-2.038-.793-3.398-.114c-1.358.68-76.823 43.908-76.823 43.908"/>
        </g>
        <g transform="translate(334.379 51.376)">
            <mask id="b" fill="#fff">
                <use xlink:href="#a"/>
            </mask>
            <path fill="#35D0BA" d="M88.64 70.06L42.415 36.814l-9.806-10.491L78.891.486l15.821 6.662-.717 58.033s-.277 4.213-5.354 4.88" mask="url(#b)"/>
        </g>
        <g transform="translate(312.053 80.081)">
            <mask id="d" fill="#fff">
                <use xlink:href="#c"/>
            </mask>
            <path fill="#F3807B" d="M66.31 66.206L33.052 84.82s-16.29 9.566-26.986-8C-4.629 59.253.274 28.207 23.447 16.62l2.508 2.902L66.31 66.206z" mask="url(#d)"/>
        </g>
        <g transform="translate(328 51.376)">
            <mask id="f" fill="#fff">
                <use xlink:href="#e"/>
            </mask>
            <path fill="#FFCD3C" d="M95.02 70.06l-44.218-31.8a25.16 25.16 0 0 1-3.7-3.253l-6.479-9.616L.401 48.299s.768 7.465 4.34 12.921c2.656 4.055 9.09 4.723 12.363 7.634 7.677 6.825 34.578 26.058 34.578 26.058L95.02 70.06z" mask="url(#f)"/>
        </g>
        <g>
            <path fill="#DCE7F2" d="M355.136 240.709c3.624.909 6.563-1.608 6.533-5.594l-.096-12.019c-.032-3.985-3.023-7.991-6.646-8.901-3.624-.91-6.564 1.607-6.532 5.593l.095 12.019c.03 3.987 3.022 7.993 6.646 8.902"/>
            <path stroke="#004680" stroke-linecap="round" stroke-linejoin="round" stroke-width="1.837" d="M355.136 240.709c3.624.909 6.563-1.608 6.533-5.594l-.096-12.019c-.032-3.985-3.023-7.991-6.646-8.901-3.624-.91-6.564 1.607-6.532 5.593l.095 12.019c.03 3.987 3.022 7.993 6.646 8.902z"/>
            <path fill="#DCE7F2" d="M353.448 234.522c1.653.393 2.974-.768 2.938-2.58l-.112-5.462c-.037-1.813-1.42-3.616-3.07-4.01-1.653-.393-2.975.768-2.939 2.58l.11 5.463c.04 1.812 1.42 3.615 3.073 4.009"/>
            <path stroke="#004680" stroke-linecap="round" stroke-linejoin="round" stroke-width="1.837" d="M353.448 234.522c1.653.393 2.974-.768 2.938-2.58l-.112-5.462c-.037-1.813-1.42-3.616-3.07-4.01-1.653-.393-2.975.768-2.939 2.58l.11 5.463c.04 1.812 1.42 3.615 3.073 4.009z"/>
            <path fill="#F3807B" d="M324.061 151.602c0 9.162 6.55 16.59 14.63 16.59"/>
            <path stroke="#004680" stroke-linecap="round" stroke-linejoin="round" stroke-width="1.837" d="M324.061 151.602c0 9.162 6.55 16.59 14.63 16.59"/>
            <path fill="#FFF" d="M464.76 148.376v3.84"/>
            <path stroke="#004680" stroke-linecap="round" stroke-linejoin="round" stroke-width="1.837" d="M464.76 148.376v3.84"/>
            <path fill="#FFF" d="M452.01 154.98v3.84"/>
            <path stroke="#004680" stroke-linecap="round" stroke-linejoin="round" stroke-width="1.837" d="M452.01 154.98v3.84"/>
            <path fill="#FFF" d="M428.97 168.19v3.84"/>
            <path stroke="#004680" stroke-linecap="round" stroke-linejoin="round" stroke-width="1.837" d="M428.97 168.19v3.84"/>
            <path stroke="#004680" stroke-linecap="round" stroke-linejoin="round" stroke-width="2.887" d="M270.477 262.154l-23.815 14.367s-3.183 1.856-3.183 5.944v9.087l-2.024.94-2.9 7.024 5.46 2.875 6.869-3.935 18.145 10.486-4.31 7.884 5.758 3.602 40.576-22.583s3.49-1.606 4.616-5.208l17.073 9.492 15.981-8.907 9.54 5.305s4.562 3.732 14.366-1.201c9.807-4.932 17.984-21.415 17.593-28.813l36.527-20.506 9.094 5.052s4.193 3.822 11.052 1.138c6.859-2.686 19.416-12.224 22.044-31.11l10.901-5.45-.45-96.853-49.825-22.089v-2.246l15.495-9.006a3.166 3.166 0 0 0 1.576-2.758l-.084-12.305a1.82 1.82 0 0 0-1.042-1.632l-2.98-1.407a2.48 2.48 0 0 0-2.243.066l-11.03 6.017v-12.96a8.346 8.346 0 0 0-5.265-7.756l-10.372-4.236-79.582 45.359a42.39 42.39 0 0 0-21.4 37.245l.092 9.336-17.027 9.343a24.082 24.082 0 0 0-12.41 19.08l-.565 6.698-.56.103a7.557 7.557 0 0 0-6.192 7.39l-.225 39.554c-3.39 3.753-5.833 8.183-5.751 13.24l.477 24.334z"/>
            <path stroke="#004680" stroke-linecap="round" stroke-linejoin="round" stroke-width="1.837" d="M390.734 98.552l-7.1-5.032M403.519 107.614l-7.893-5.594M423.02 121.436l-19.502-13.822M379.683 146.287l-34.579-26.058M339.39 107.614l-1.074.723a26.801 26.801 0 0 0-11.345 17.07"/>
            <path fill="#DCE7F2" d="M187.424 414.924l-52.157 30.112c-9.35 5.399-25.683 4.723-36.48-1.512l-63.21-36.494c-6.273-3.622-9.29-7.198-8.89-11.56v-6.023c-.335-3.706 1.716-7.294 6.27-9.923l69.091-39.89c9.35-5.4 25.685-4.72 36.482 1.512l63.21 36.495c5.884 3.397 8.903 7.744 8.923 11.87h.017v6.097h-.019c.164 3.569-1.905 7-6.302 9.54l-8.223 4.746"/>
            <path stroke="#004680" stroke-linecap="round" stroke-linejoin="round" stroke-width="1.651" d="M187.424 414.924l-52.157 30.112c-9.35 5.399-25.683 4.723-36.48-1.512l-63.21-36.494c-6.273-3.622-9.29-7.198-8.89-11.56v-6.023c-.335-3.706 1.716-7.294 6.27-9.923l69.091-39.89c9.35-5.4 25.685-4.72 36.482 1.512l63.21 36.495c5.884 3.397 8.903 7.744 8.923 11.87h.017v6.097h-.019c.164 3.569-1.905 7-6.302 9.54l-8.223 4.746"/>
            <path fill="#FFF" d="M71.933 421.577l26.853 15.503c11.662 6.733 26.267 7.41 36.482 1.513l69.091-39.89c9.35-5.398 8.178-14.828-2.62-21.062l-63.209-36.494c-10.798-6.234-27.13-6.911-36.482-1.513l-69.09 39.89c-9.352 5.398-8.179 14.829 2.618 21.062l17.633 10.18"/>
            <path stroke="#004680" stroke-linecap="round" stroke-linejoin="round" stroke-width="1.651" d="M71.933 421.577l26.853 15.503c11.662 6.733 26.267 7.41 36.482 1.513l69.091-39.89c9.35-5.398 8.178-14.828-2.62-21.062l-63.209-36.494c-10.798-6.234-27.13-6.911-36.482-1.513l-69.09 39.89c-9.352 5.398-8.179 14.829 2.618 21.062l17.633 10.18"/>
            <path fill="#FFF" d="M61.72 415.68l1.088.628"/>
            <path stroke="#004680" stroke-linecap="round" stroke-linejoin="round" stroke-width="1.651" d="M61.72 415.68l1.088.628"/>
            <path fill="#35D0BA" d="M88.299 362.047c-.116-1.278.591-2.514 2.16-3.42l23.812-13.747c3.222-1.86 8.85-1.628 12.572.52l21.785 12.578c2.027 1.17 3.068 2.669 3.076 4.091h.005v10.46h-.007c.056 1.232-.657 2.414-2.172 3.289l-23.811 13.746c-3.223 1.862-8.85 1.628-12.572-.52l-21.785-12.578c-2.162-1.247-3.201-2.867-3.063-4.37v-10.05z"/>
            <path stroke="#004680" stroke-linecap="round" stroke-linejoin="round" stroke-width="1.651" d="M88.299 362.047c-.116-1.278.591-2.514 2.16-3.42l23.812-13.747c3.222-1.86 8.85-1.628 12.572.52l21.785 12.578c2.027 1.17 3.068 2.669 3.076 4.091h.005v10.46h-.007c.056 1.232-.657 2.414-2.172 3.289l-23.811 13.746c-3.223 1.862-8.85 1.628-12.572-.52l-21.785-12.578c-2.162-1.247-3.201-2.867-3.063-4.37v-10.05z"/>
            <path fill="#35D0BA" d="M125.72 378.983l23.81-13.747c3.222-1.86 2.818-5.11-.903-7.258L126.843 345.4c-3.721-2.147-9.35-2.381-12.573-.52l-23.81 13.747c-3.223 1.86-2.819 5.11.902 7.258l21.784 12.578c3.721 2.147 9.35 2.381 12.573.52"/>
            <path stroke="#004680" stroke-linecap="round" stroke-linejoin="round" stroke-width="1.651" d="M125.72 378.983l23.81-13.747c3.222-1.86 2.818-5.11-.903-7.258L126.843 345.4c-3.721-2.147-9.35-2.381-12.573-.52l-23.81 13.747c-3.223 1.86-2.819 5.11.902 7.258l21.784 12.578c3.721 2.147 9.35 2.381 12.573.52z"/>
            <path fill="#35D0BA" d="M88.299 351.552c-.116-1.278.591-2.513 2.16-3.42l23.812-13.747c3.222-1.86 8.85-1.627 12.572.521l21.785 12.577c2.027 1.171 3.068 2.67 3.076 4.092h.005v10.46h-.007c.056 1.231-.657 2.413-2.172 3.288l-23.811 13.748c-3.223 1.86-8.85 1.627-12.572-.521l-21.785-12.578c-2.162-1.247-3.201-2.868-3.063-4.37v-10.05z"/>
            <path stroke="#004680" stroke-linecap="round" stroke-linejoin="round" stroke-width="1.651" d="M88.299 351.552c-.116-1.278.591-2.513 2.16-3.42l23.812-13.747c3.222-1.86 8.85-1.627 12.572.521l21.785 12.577c2.027 1.171 3.068 2.67 3.076 4.092h.005v10.46h-.007c.056 1.231-.657 2.413-2.172 3.288l-23.811 13.748c-3.223 1.86-8.85 1.627-12.572-.521l-21.785-12.578c-2.162-1.247-3.201-2.868-3.063-4.37v-10.05z"/>
            <path fill="#35D0BA" d="M125.72 368.489l23.81-13.748c3.222-1.86 2.818-5.11-.903-7.258l-21.784-12.577c-3.721-2.148-9.35-2.382-12.573-.521l-23.81 13.748c-3.223 1.86-2.819 5.11.902 7.259l21.784 12.576c3.721 2.149 9.35 2.381 12.573.52"/>
            <path stroke="#004680" stroke-linecap="round" stroke-linejoin="round" stroke-width="1.651" d="M125.72 368.489l23.81-13.748c3.222-1.86 2.818-5.11-.903-7.258l-21.784-12.577c-3.721-2.148-9.35-2.382-12.573-.521l-23.81 13.748c-3.223 1.86-2.819 5.11.902 7.259l21.784 12.576c3.721 2.149 9.35 2.381 12.573.52z"/>
            <path fill="#35D0BA" d="M88.299 341.145c-.116-1.278.591-2.515 2.16-3.42l23.812-13.747c3.222-1.86 8.85-1.629 12.572.521l21.785 12.576c2.027 1.17 3.068 2.67 3.076 4.092h.005v10.46h-.007c.056 1.232-.657 2.414-2.172 3.288l-23.811 13.748c-3.223 1.86-8.85 1.627-12.572-.521l-21.785-12.578c-2.162-1.248-3.201-2.868-3.063-4.371v-10.048z"/>
            <path stroke="#004680" stroke-linecap="round" stroke-linejoin="round" stroke-width="1.651" d="M88.299 341.145c-.116-1.278.591-2.515 2.16-3.42l23.812-13.747c3.222-1.86 8.85-1.629 12.572.521l21.785 12.576c2.027 1.17 3.068 2.67 3.076 4.092h.005v10.46h-.007c.056 1.232-.657 2.414-2.172 3.288l-23.811 13.748c-3.223 1.86-8.85 1.627-12.572-.521l-21.785-12.578c-2.162-1.248-3.201-2.868-3.063-4.371v-10.048z"/>
            <path fill="#35D0BA" d="M125.72 358.082l23.81-13.748c3.222-1.86 2.818-5.11-.903-7.26L126.843 324.5c-3.721-2.149-9.35-2.382-12.573-.521l-23.81 13.747c-3.223 1.86-2.819 5.11.902 7.259l21.784 12.577c3.721 2.147 9.35 2.381 12.573.52"/>
            <path stroke="#004680" stroke-linecap="round" stroke-linejoin="round" stroke-width="1.651" d="M125.72 358.082l23.81-13.748c3.222-1.86 2.818-5.11-.903-7.26L126.843 324.5c-3.721-2.149-9.35-2.382-12.573-.521l-23.81 13.747c-3.223 1.86-2.819 5.11.902 7.259l21.784 12.577c3.721 2.147 9.35 2.381 12.573.52z"/>
            <path fill="#35D0BA" d="M88.299 330.65c-.116-1.278.591-2.513 2.16-3.42l23.812-13.747c3.222-1.86 8.85-1.627 12.572.521l21.785 12.578c2.027 1.17 3.068 2.668 3.076 4.09h.005v10.461h-.007c.056 1.231-.657 2.413-2.172 3.287l-23.811 13.748c-3.223 1.86-8.85 1.628-12.572-.52L91.362 345.07c-2.162-1.248-3.201-2.868-3.063-4.37v-10.05z"/>
            <path stroke="#004680" stroke-linecap="round" stroke-linejoin="round" stroke-width="1.651" d="M88.299 330.65c-.116-1.278.591-2.513 2.16-3.42l23.812-13.747c3.222-1.86 8.85-1.627 12.572.521l21.785 12.578c2.027 1.17 3.068 2.668 3.076 4.09h.005v10.461h-.007c.056 1.231-.657 2.413-2.172 3.287l-23.811 13.748c-3.223 1.86-8.85 1.628-12.572-.52L91.362 345.07c-2.162-1.248-3.201-2.868-3.063-4.37v-10.05z"/>
            <path fill="#35EEBA" d="M125.72 347.587l23.81-13.748c3.222-1.86 2.818-5.11-.903-7.258l-21.784-12.577c-3.721-2.147-9.35-2.381-12.573-.52L90.46 327.23c-3.223 1.86-2.819 5.11.902 7.258l21.784 12.577c3.721 2.148 9.35 2.382 12.573.521"/>
            <path stroke="#004680" stroke-linecap="round" stroke-linejoin="round" stroke-width="1.651" d="M125.72 347.587l23.81-13.748c3.222-1.86 2.818-5.11-.903-7.258l-21.784-12.577c-3.721-2.147-9.35-2.381-12.573-.52L90.46 327.23c-3.223 1.86-2.819 5.11.902 7.258l21.784 12.577c3.721 2.148 9.35 2.382 12.573.521z"/>
            <path fill="#F3807B" d="M52.991 382.384c-.115-1.278.592-2.515 2.161-3.42l23.81-13.747c3.223-1.86 8.853-1.629 12.574.52l21.784 12.578c2.027 1.17 3.068 2.669 3.076 4.091h.005v10.46h-.006c.056 1.232-.656 2.414-2.172 3.288L90.413 409.9c-3.223 1.861-8.853 1.628-12.574-.52l-21.784-12.578c-2.161-1.248-3.201-2.868-3.064-4.371v-10.048z"/>
            <path stroke="#004680" stroke-linecap="round" stroke-linejoin="round" stroke-width="1.651" d="M52.991 382.384c-.115-1.278.592-2.515 2.161-3.42l23.81-13.747c3.223-1.86 8.853-1.629 12.574.52l21.784 12.578c2.027 1.17 3.068 2.669 3.076 4.091h.005v10.46h-.006c.056 1.232-.656 2.414-2.172 3.288L90.413 409.9c-3.223 1.861-8.853 1.628-12.574-.52l-21.784-12.578c-2.161-1.248-3.201-2.868-3.064-4.371v-10.048z"/>
            <path fill="#F3807B" d="M90.412 399.32l23.81-13.747c3.223-1.86 2.819-5.11-.902-7.258l-21.784-12.578c-3.722-2.148-9.35-2.381-12.573-.52l-23.81 13.747c-3.223 1.86-2.82 5.11.902 7.258L77.839 398.8c3.72 2.147 9.35 2.381 12.573.52"/>
            <path stroke="#004680" stroke-linecap="round" stroke-linejoin="round" stroke-width="1.651" d="M90.412 399.32l23.81-13.747c3.223-1.86 2.819-5.11-.902-7.258l-21.784-12.578c-3.722-2.148-9.35-2.381-12.573-.52l-23.81 13.747c-3.223 1.86-2.82 5.11.902 7.258L77.839 398.8c3.72 2.147 9.35 2.381 12.573.52z"/>
            <path fill="#F3807B" d="M52.991 371.89c-.115-1.279.592-2.514 2.161-3.42l23.81-13.748c3.223-1.86 8.853-1.627 12.574.521l21.784 12.578c2.027 1.169 3.068 2.668 3.076 4.09h.005v10.461h-.006c.056 1.231-.656 2.413-2.172 3.287l-23.81 13.748c-3.223 1.86-8.853 1.628-12.574-.521l-21.784-12.577c-2.161-1.248-3.201-2.869-3.064-4.37v-10.05z"/>
            <path stroke="#004680" stroke-linecap="round" stroke-linejoin="round" stroke-width="1.651" d="M52.991 371.89c-.115-1.279.592-2.514 2.161-3.42l23.81-13.748c3.223-1.86 8.853-1.627 12.574.521l21.784 12.578c2.027 1.169 3.068 2.668 3.076 4.09h.005v10.461h-.006c.056 1.231-.656 2.413-2.172 3.287l-23.81 13.748c-3.223 1.86-8.853 1.628-12.574-.521l-21.784-12.577c-2.161-1.248-3.201-2.869-3.064-4.37v-10.05z"/>
            <path fill="#F3807B" d="M90.412 388.826l23.81-13.748c3.223-1.86 2.819-5.11-.902-7.258l-21.784-12.577c-3.722-2.148-9.35-2.382-12.573-.521l-23.81 13.748c-3.223 1.86-2.82 5.11.902 7.258l21.784 12.577c3.72 2.148 9.35 2.382 12.573.521"/>
            <path stroke="#004680" stroke-linecap="round" stroke-linejoin="round" stroke-width="1.651" d="M90.412 388.826l23.81-13.748c3.223-1.86 2.819-5.11-.902-7.258l-21.784-12.577c-3.722-2.148-9.35-2.382-12.573-.521l-23.81 13.748c-3.223 1.86-2.82 5.11.902 7.258l21.784 12.577c3.72 2.148 9.35 2.382 12.573.521z"/>
            <path fill="#F3807B" d="M52.991 361.48c-.115-1.276.592-2.512 2.161-3.42l23.81-13.745c3.223-1.862 8.853-1.629 12.574.52l21.784 12.577c2.027 1.17 3.068 2.67 3.076 4.091h.005v10.462h-.006c.056 1.23-.656 2.412-2.172 3.287L90.413 389c-3.223 1.86-8.853 1.626-12.574-.521L56.055 375.9c-2.161-1.247-3.201-2.867-3.064-4.37v-10.05z"/>
            <path stroke="#004680" stroke-linecap="round" stroke-linejoin="round" stroke-width="1.651" d="M52.991 361.48c-.115-1.276.592-2.512 2.161-3.42l23.81-13.745c3.223-1.862 8.853-1.629 12.574.52l21.784 12.577c2.027 1.17 3.068 2.67 3.076 4.091h.005v10.462h-.006c.056 1.23-.656 2.412-2.172 3.287L90.413 389c-3.223 1.86-8.853 1.626-12.574-.521L56.055 375.9c-2.161-1.247-3.201-2.867-3.064-4.37v-10.05z"/>
            <path fill="#FF8F8F" d="M85.367 379.669c.214-.007.427-.017.637-.031"/>
            <path stroke="#004680" stroke-linecap="round" stroke-linejoin="round" stroke-width="1.651" d="M85.367 379.669c.214-.007.427-.017.637-.031"/>
            <path fill="#EFA0A0" d="M90.064 378.606a7.76 7.76 0 0 0 .348-.187l23.81-13.747c3.223-1.86 2.819-5.11-.902-7.26l-21.784-12.578c-3.721-2.147-9.35-2.381-12.573-.52l-23.81 13.747c-3.224 1.86-2.819 5.11.902 7.26l21.783 12.577c.992.572 2.117 1.007 3.297 1.305"/>
            <path stroke="#004680" stroke-linecap="round" stroke-linejoin="round" stroke-width="1.651" d="M90.064 378.606a7.76 7.76 0 0 0 .348-.187l23.81-13.747c3.223-1.86 2.819-5.11-.902-7.26l-21.784-12.578c-3.721-2.147-9.35-2.381-12.573-.52l-23.81 13.747c-3.224 1.86-2.819 5.11.902 7.26l21.783 12.577c.992.572 2.117 1.007 3.297 1.305"/>
            <path fill="#FF8F8F" d="M86.004 379.638c.312-.023.62-.056.924-.1"/>
            <path stroke="#004680" stroke-linecap="round" stroke-linejoin="round" stroke-width="1.651" d="M86.004 379.638c.312-.023.62-.056.924-.1"/>
            <path fill="#FFCD3C" d="M120.01 385.645c-.114-1.277.592-2.514 2.162-3.42l23.81-13.746c3.223-1.86 8.853-1.629 12.574.521l21.784 12.576c2.027 1.17 3.068 2.67 3.076 4.091h.005v10.462h-.007c.057 1.23-.657 2.412-2.172 3.287l-23.811 13.748c-3.223 1.86-8.85 1.626-12.572-.521l-21.785-12.579c-2.162-1.247-3.201-2.867-3.063-4.37v-10.05z"/>
            <path stroke="#004680" stroke-linecap="round" stroke-linejoin="round" stroke-width="2.203" d="M120.01 385.645c-.114-1.277.592-2.514 2.162-3.42l23.81-13.746c3.223-1.86 8.853-1.629 12.574.521l21.784 12.576c2.027 1.17 3.068 2.67 3.076 4.091h.005v10.462h-.007c.057 1.23-.657 2.412-2.172 3.287l-23.811 13.748c-3.223 1.86-8.85 1.626-12.572-.521l-21.785-12.579c-2.162-1.247-3.201-2.867-3.063-4.37v-10.05z"/>
            <path fill="#FFED3C" d="M157.431 402.583l23.81-13.748c3.224-1.86 2.82-5.11-.902-7.26L158.556 369c-3.722-2.149-9.35-2.382-12.574-.521l-23.81 13.746c-3.223 1.86-2.819 5.111.902 7.26l21.784 12.577c3.721 2.147 9.35 2.381 12.573.52"/>
            <path stroke="#004680" stroke-linecap="round" stroke-linejoin="round" stroke-width="1.651" d="M157.431 402.583l23.81-13.748c3.224-1.86 2.82-5.11-.902-7.26L158.556 369c-3.722-2.149-9.35-2.382-12.574-.521l-23.81 13.746c-3.223 1.86-2.819 5.111.902 7.26l21.784 12.577c3.721 2.147 9.35 2.381 12.573.52z"/>
            <path fill="#FFCD3C" d="M120.01 375.15c-.114-1.276.592-2.513 2.162-3.419l23.81-13.746c3.223-1.86 8.853-1.63 12.574.52l21.784 12.577c2.027 1.17 3.068 2.67 3.076 4.09h.005v10.462h-.007c.057 1.231-.657 2.414-2.172 3.287l-23.811 13.748c-3.223 1.86-8.85 1.627-12.572-.52l-21.785-12.579c-2.162-1.247-3.201-2.867-3.063-4.37v-10.05z"/>
            <path stroke="#004680" stroke-linecap="round" stroke-linejoin="round" stroke-width="2.203" d="M120.01 375.15c-.114-1.276.592-2.513 2.162-3.419l23.81-13.746c3.223-1.86 8.853-1.63 12.574.52l21.784 12.577c2.027 1.17 3.068 2.67 3.076 4.09h.005v10.462h-.007c.057 1.231-.657 2.414-2.172 3.287l-23.811 13.748c-3.223 1.86-8.85 1.627-12.572-.52l-21.785-12.579c-2.162-1.247-3.201-2.867-3.063-4.37v-10.05z"/>
            <path fill="#FFE8B6" d="M138.868 388.108l5.99 3.46c3.721 2.147 9.35 2.38 12.573.52l23.81-13.748c3.224-1.86 2.82-5.11-.902-7.259l-21.783-12.576c-3.722-2.149-9.35-2.381-12.574-.52l-23.81 13.747c-3.223 1.86-2.819 5.11.902 7.258l11.994 6.924"/>
            <path stroke="#004680" stroke-linecap="round" stroke-linejoin="round" stroke-width="1.402" d="M138.868 388.108l5.99 3.46c3.721 2.147 9.35 2.38 12.573.52l23.81-13.748c3.224-1.86 2.82-5.11-.902-7.259l-21.783-12.576c-3.722-2.149-9.35-2.381-12.574-.52l-23.81 13.747c-3.223 1.86-2.819 5.11.902 7.258l11.994 6.924"/>
            <path fill="#F7D186" d="M86.695 402.858c-.114-1.277.591-2.513 2.162-3.42l23.81-13.746c3.223-1.861 8.852-1.629 12.573.52l21.784 12.577c2.028 1.17 3.069 2.67 3.076 4.091h.005v10.462h-.006c.056 1.23-.657 2.412-2.172 3.287l-23.812 13.748c-3.221 1.86-8.85 1.626-12.572-.521L89.76 417.277c-2.162-1.247-3.202-2.867-3.064-4.37v-10.05z"/>
            <path stroke="#004680" stroke-linecap="round" stroke-linejoin="round" stroke-width="1.65" d="M86.695 402.858c-.114-1.277.591-2.513 2.162-3.42l23.81-13.746c3.223-1.861 8.852-1.629 12.573.52l21.784 12.577c2.028 1.17 3.069 2.67 3.076 4.091h.005v10.462h-.006c.056 1.23-.657 2.412-2.172 3.287l-23.812 13.748c-3.221 1.86-8.85 1.626-12.572-.521L89.76 417.277c-2.162-1.247-3.202-2.867-3.064-4.37v-10.05z"/>
            <path fill="#F7D186" d="M124.116 419.796l23.81-13.748c3.224-1.86 2.819-5.11-.902-7.26l-21.784-12.576c-3.72-2.148-9.35-2.382-12.573-.52l-23.811 13.746c-3.222 1.86-2.818 5.11.904 7.26l21.783 12.577c3.72 2.147 9.35 2.381 12.573.52"/>
            <path stroke="#004680" stroke-linecap="round" stroke-linejoin="round" stroke-width="1.65" d="M124.116 419.796l23.81-13.748c3.224-1.86 2.819-5.11-.902-7.26l-21.784-12.576c-3.72-2.148-9.35-2.382-12.573-.52l-23.811 13.746c-3.222 1.86-2.818 5.11.904 7.26l21.783 12.577c3.72 2.147 9.35 2.381 12.573.52z"/>
            <path fill="#F7D186" d="M86.695 392.363c-.114-1.277.591-2.513 2.162-3.419l23.81-13.746c3.223-1.861 8.852-1.63 12.573.52l21.784 12.577c2.028 1.17 3.069 2.67 3.076 4.09h.005v10.462h-.006c.056 1.231-.657 2.413-2.172 3.287l-23.812 13.748c-3.221 1.86-8.85 1.627-12.572-.52l-21.784-12.58c-2.162-1.246-3.202-2.866-3.064-4.37v-10.049z"/>
            <path stroke="#004680" stroke-linecap="round" stroke-linejoin="round" stroke-width="1.65" d="M86.695 392.363c-.114-1.277.591-2.513 2.162-3.419l23.81-13.746c3.223-1.861 8.852-1.63 12.573.52l21.784 12.577c2.028 1.17 3.069 2.67 3.076 4.09h.005v10.462h-.006c.056 1.231-.657 2.413-2.172 3.287l-23.812 13.748c-3.221 1.86-8.85 1.627-12.572-.52l-21.784-12.58c-2.162-1.246-3.202-2.866-3.064-4.37v-10.049z"/>
            <path fill="#F7D186" d="M124.116 409.301l23.81-13.748c3.224-1.86 2.819-5.11-.902-7.259l-21.784-12.576c-3.72-2.149-9.35-2.381-12.573-.52l-23.811 13.747c-3.222 1.86-2.818 5.11.904 7.258l21.783 12.577c3.72 2.148 9.35 2.382 12.573.521"/>
            <path stroke="#004680" stroke-linecap="round" stroke-linejoin="round" stroke-width="1.65" d="M124.116 409.301l23.81-13.748c3.224-1.86 2.819-5.11-.902-7.259l-21.784-12.576c-3.72-2.149-9.35-2.381-12.573-.52l-23.811 13.747c-3.222 1.86-2.818 5.11.904 7.258l21.783 12.577c3.72 2.148 9.35 2.382 12.573.521z"/>
            <path fill="#F7D186" d="M86.695 381.956c-.114-1.278.591-2.513 2.162-3.42l23.81-13.747c3.223-1.86 8.852-1.628 12.573.521l21.784 12.577c2.028 1.17 3.069 2.67 3.076 4.091h.005v10.46h-.006c.056 1.232-.657 2.414-2.172 3.289l-23.812 13.748c-3.221 1.86-8.85 1.626-12.572-.521L89.76 396.376c-2.162-1.248-3.202-2.868-3.064-4.371v-10.049z"/>
            <path stroke="#004680" stroke-linecap="round" stroke-linejoin="round" stroke-width="1.65" d="M86.695 381.956c-.114-1.278.591-2.513 2.162-3.42l23.81-13.747c3.223-1.86 8.852-1.628 12.573.521l21.784 12.577c2.028 1.17 3.069 2.67 3.076 4.091h.005v10.46h-.006c.056 1.232-.657 2.414-2.172 3.289l-23.812 13.748c-3.221 1.86-8.85 1.626-12.572-.521L89.76 396.376c-2.162-1.248-3.202-2.868-3.064-4.371v-10.049z"/>
            <path fill="#F7D186" d="M124.116 398.893l23.81-13.747c3.224-1.861 2.819-5.11-.902-7.26L125.24 365.31c-3.72-2.148-9.35-2.382-12.573-.521l-23.811 13.748c-3.222 1.86-2.818 5.11.904 7.259l21.783 12.576c3.72 2.149 9.35 2.381 12.573.52"/>
            <path stroke="#004680" stroke-linecap="round" stroke-linejoin="round" stroke-width="1.65" d="M124.116 398.893l23.81-13.747c3.224-1.861 2.819-5.11-.902-7.26L125.24 365.31c-3.72-2.148-9.35-2.382-12.573-.521l-23.811 13.748c-3.222 1.86-2.818 5.11.904 7.259l21.783 12.576c3.72 2.149 9.35 2.381 12.573.52z"/>
            <path fill="#F7D186" d="M86.695 371.461c-.114-1.276.591-2.513 2.162-3.42l23.81-13.746c3.223-1.86 8.852-1.628 12.573.52l21.784 12.578c2.028 1.17 3.069 2.67 3.076 4.09h.005v10.461h-.006c.056 1.232-.657 2.414-2.172 3.289l-23.812 13.747c-3.221 1.86-8.85 1.627-12.572-.52L89.76 385.88c-2.162-1.247-3.202-2.867-3.064-4.37v-10.05z"/>
            <path stroke="#004680" stroke-linecap="round" stroke-linejoin="round" stroke-width="1.65" d="M86.695 371.461c-.114-1.276.591-2.513 2.162-3.42l23.81-13.746c3.223-1.86 8.852-1.628 12.573.52l21.784 12.578c2.028 1.17 3.069 2.67 3.076 4.09h.005v10.461h-.006c.056 1.232-.657 2.414-2.172 3.289l-23.812 13.747c-3.221 1.86-8.85 1.627-12.572-.52L89.76 385.88c-2.162-1.247-3.202-2.867-3.064-4.37v-10.05z"/>
            <path fill="#FFE8C0" d="M139.221 379.678l8.705-5.027c3.224-1.86 2.819-5.11-.902-7.259l-21.784-12.577c-3.72-2.148-9.35-2.381-12.573-.52l-23.811 13.747c-3.222 1.86-2.818 5.11.904 7.259l21.783 12.577c3.72 2.148 9.35 2.382 12.573.521l6.956-4.016"/>
            <path stroke="#004680" stroke-linecap="round" stroke-linejoin="round" stroke-width="1.65" d="M139.221 379.678l8.705-5.027c3.224-1.86 2.819-5.11-.902-7.259l-21.784-12.577c-3.72-2.148-9.35-2.381-12.573-.52l-23.811 13.747c-3.222 1.86-2.818 5.11.904 7.259l21.783 12.577c3.72 2.148 9.35 2.382 12.573.521l6.956-4.016"/>
            <path fill="#FF8F8F" d="M134.586 382.354l.449-.259"/>
            <path stroke="#004680" stroke-linecap="round" stroke-linejoin="round" stroke-width="1.651" d="M134.586 382.354l.449-.259"/>
            <path stroke="#004680" stroke-linecap="round" stroke-linejoin="round" stroke-width="2.594" d="M26.687 395.47v-6.023c-.012-.128.002-.253-.003-.38a8.379 8.379 0 0 1-.01-.923c.01-.156.04-.309.059-.463.036-.305.071-.61.141-.91.036-.16.098-.315.145-.472.085-.291.167-.583.285-.868.07-.17.166-.332.246-.5.13-.267.253-.537.413-.8.113-.184.254-.36.38-.541.166-.237.32-.477.512-.71.168-.201.37-.395.557-.591.19-.201.363-.405.572-.6.252-.234.544-.456.825-.68.183-.146.346-.3.541-.443a18.093 18.093 0 0 1 1.581-1.024c.01-.006.017-.012.027-.017l20.034-11.568v-6.476c-.004-.044 0-.087-.001-.13a2.661 2.661 0 0 1-.005-.32c.005-.052.014-.105.022-.159.011-.105.024-.209.048-.313.012-.055.033-.109.05-.163.028-.1.057-.2.097-.299.025-.058.058-.115.085-.173.045-.092.088-.184.143-.274.038-.065.088-.126.132-.188.057-.081.11-.164.175-.244.058-.069.127-.136.191-.204.066-.068.126-.14.198-.206.09-.084.193-.162.292-.242.061-.047.114-.098.178-.145.172-.125.356-.245.555-.36l23.81-13.747c2.014-1.163 4.969-1.508 7.81-1.078.515.077 1.024.189 1.527.318v-2.41c-.004-.044 0-.088-.002-.132-.004-.106-.01-.212-.002-.317l.004-.058v-9.987c-.004-.045 0-.088-.002-.133-.004-.105-.01-.211-.002-.316.002-.054.013-.107.02-.161.012-.104.025-.209.048-.313.013-.055.033-.108.05-.162.03-.101.057-.201.098-.3.024-.058.057-.114.085-.172.046-.093.087-.184.142-.275.039-.064.088-.124.131-.186.058-.082.11-.165.177-.245.057-.07.126-.136.191-.203.066-.07.125-.14.198-.207.086-.08.185-.155.28-.231.064-.053.122-.107.19-.157a6.3 6.3 0 0 1 .555-.36l23.81-13.746c.806-.465 1.763-.8 2.801-1.007 3.118-.617 6.981-.084 9.772 1.528l21.784 12.577.01.007c.24.138.464.283.677.428.071.05.133.102.2.153.139.102.277.203.402.31.07.06.133.12.198.18.111.1.22.2.32.302.06.064.113.127.17.19.09.103.18.207.26.311.049.063.091.128.136.191.074.108.144.214.207.323.035.063.07.125.101.189a4.236 4.236 0 0 1 .22.515c.039.117.07.234.095.35.013.058.026.114.035.17.02.123.03.244.035.365.001.035.01.072.01.107h.005v1.293l1.075 17.41 32.628 18.839 16.328 9.427.025.016c.698.404 1.351.821 1.968 1.25.204.141.38.288.574.433.405.297.808.597 1.173.905.204.172.382.347.573.52.322.292.64.583.928.88.175.183.331.368.495.552.265.299.523.598.754.9.141.186.269.372.396.559.216.31.418.62.599.934.105.182.2.364.294.547a11.591 11.591 0 0 1 .637 1.499c.114.34.203.677.278 1.015.035.164.073.327.1.49.058.354.087.707.102 1.06.004.104.028.208.028.31h.016v6.097h-.018c.163 3.569-1.906 7-6.302 9.54l-8.223 4.746-8.712 5.03-52.157 30.112c-9.35 5.399-25.683 4.722-36.48-1.512l-63.21-36.493c-6.273-3.623-9.29-7.2-8.89-11.561z"/>
            <path fill="#DCE7F2" d="M186.088 228.6l-52.157 30.113c-9.35 5.399-25.684 4.721-36.48-1.513L34.24 220.706c-6.273-3.622-9.289-7.198-8.89-11.56v-6.022c-.334-3.708 1.717-7.295 6.271-9.924l69.09-39.89c9.351-5.398 25.686-4.721 36.482 1.512l63.21 36.495c5.885 3.397 8.903 7.744 8.924 11.87h.016v6.097h-.018c.164 3.57-1.905 7-6.302 9.54l-8.223 4.746"/>
            <path stroke="#004680" stroke-linecap="round" stroke-linejoin="round" stroke-width="1.651" d="M186.088 228.6l-52.157 30.113c-9.35 5.399-25.684 4.721-36.48-1.513L34.24 220.706c-6.273-3.622-9.289-7.198-8.89-11.56v-6.022c-.334-3.708 1.717-7.295 6.271-9.924l69.09-39.89c9.351-5.398 25.686-4.721 36.482 1.512l63.21 36.495c5.885 3.397 8.903 7.744 8.924 11.87h.016v6.097h-.018c.164 3.57-1.905 7-6.302 9.54l-8.223 4.746"/>
            <path fill="#FFF" d="M70.597 235.253l26.853 15.504c11.662 6.733 26.267 7.41 36.481 1.512l69.092-39.89c9.35-5.398 8.178-14.828-2.62-21.062l-63.21-36.494c-10.797-6.234-27.13-6.911-36.481-1.513l-69.09 39.89c-9.352 5.399-8.18 14.829 2.618 21.063l17.633 10.18"/>
            <path stroke="#004680" stroke-linecap="round" stroke-linejoin="round" stroke-width="1.651" d="M70.597 235.253l26.853 15.504c11.662 6.733 26.267 7.41 36.481 1.512l69.092-39.89c9.35-5.398 8.178-14.828-2.62-21.062l-63.21-36.494c-10.797-6.234-27.13-6.911-36.481-1.513l-69.09 39.89c-9.352 5.399-8.18 14.829 2.618 21.063l17.633 10.18"/>
            <path fill="#FFF" d="M60.383 229.356l1.088.628"/>
            <path stroke="#004680" stroke-linecap="round" stroke-linejoin="round" stroke-width="1.651" d="M60.383 229.356l1.088.628"/>
            <path fill="#D8AE64" d="M86.962 175.723c-.115-1.278.591-2.514 2.162-3.42l23.81-13.747c3.223-1.86 8.852-1.628 12.573.52l21.784 12.578c2.028 1.17 3.068 2.668 3.076 4.09h.005v10.462h-.006c.056 1.23-.656 2.413-2.172 3.288l-23.81 13.747c-3.223 1.86-8.853 1.627-12.574-.52l-21.784-12.579c-2.161-1.247-3.2-2.867-3.064-4.37v-10.05z"/>
            <path stroke="#004680" stroke-linecap="round" stroke-linejoin="round" stroke-width="1.65" d="M86.962 175.723c-.115-1.278.591-2.514 2.162-3.42l23.81-13.747c3.223-1.86 8.852-1.628 12.573.52l21.784 12.578c2.028 1.17 3.068 2.668 3.076 4.09h.005v10.462h-.006c.056 1.23-.656 2.413-2.172 3.288l-23.81 13.747c-3.223 1.86-8.853 1.627-12.574-.52l-21.784-12.579c-2.161-1.247-3.2-2.867-3.064-4.37v-10.05z"/>
            <path fill="#D8AE64" d="M124.383 192.66l23.81-13.748c3.223-1.86 2.819-5.11-.902-7.258l-21.784-12.577c-3.721-2.149-9.35-2.382-12.573-.521l-23.81 13.746c-3.223 1.861-2.82 5.111.902 7.26l21.784 12.577c3.721 2.147 9.35 2.381 12.573.52"/>
            <path stroke="#004680" stroke-linecap="round" stroke-linejoin="round" stroke-width="1.65" d="M124.383 192.66l23.81-13.748c3.223-1.86 2.819-5.11-.902-7.258l-21.784-12.577c-3.721-2.149-9.35-2.382-12.573-.521l-23.81 13.746c-3.223 1.861-2.82 5.111.902 7.26l21.784 12.577c3.721 2.147 9.35 2.381 12.573.52z"/>
            <path fill="#D8AE64" d="M86.962 165.229c-.115-1.278.591-2.515 2.162-3.42l23.81-13.747c3.223-1.86 8.852-1.628 12.573.52l21.784 12.577c2.028 1.171 3.068 2.67 3.076 4.092h.005v10.46h-.006c.056 1.231-.656 2.414-2.172 3.289l-23.81 13.746c-3.223 1.86-8.853 1.628-12.574-.52l-21.784-12.578c-2.161-1.248-3.2-2.867-3.064-4.37v-10.05z"/>
            <path stroke="#004680" stroke-linecap="round" stroke-linejoin="round" stroke-width="1.65" d="M86.962 165.229c-.115-1.278.591-2.515 2.162-3.42l23.81-13.747c3.223-1.86 8.852-1.628 12.573.52l21.784 12.577c2.028 1.171 3.068 2.67 3.076 4.092h.005v10.46h-.006c.056 1.231-.656 2.414-2.172 3.289l-23.81 13.746c-3.223 1.86-8.853 1.628-12.574-.52l-21.784-12.578c-2.161-1.248-3.2-2.867-3.064-4.37v-10.05z"/>
            <path fill="#D8AE64" d="M124.383 182.165l23.81-13.747c3.223-1.86 2.819-5.11-.902-7.259l-21.784-12.577c-3.721-2.148-9.35-2.381-12.573-.52l-23.81 13.747c-3.223 1.86-2.82 5.11.902 7.258l21.784 12.577c3.721 2.149 9.35 2.382 12.573.521"/>
            <path stroke="#004680" stroke-linecap="round" stroke-linejoin="round" stroke-width="1.65" d="M124.383 182.165l23.81-13.747c3.223-1.86 2.819-5.11-.902-7.259l-21.784-12.577c-3.721-2.148-9.35-2.381-12.573-.52l-23.81 13.747c-3.223 1.86-2.82 5.11.902 7.258l21.784 12.577c3.721 2.149 9.35 2.382 12.573.521z"/>
            <path fill="#D8AE64" d="M86.962 154.82c-.115-1.277.591-2.513 2.162-3.42l23.81-13.746c3.223-1.86 8.852-1.628 12.573.52l21.784 12.578c2.028 1.17 3.068 2.668 3.076 4.091h.005v10.46h-.006c.056 1.232-.656 2.414-2.172 3.289l-23.81 13.746c-3.223 1.86-8.853 1.628-12.574-.52L90.026 169.24c-2.161-1.248-3.2-2.867-3.064-4.37v-10.05z"/>
            <path stroke="#004680" stroke-linecap="round" stroke-linejoin="round" stroke-width="1.65" d="M86.962 154.82c-.115-1.277.591-2.513 2.162-3.42l23.81-13.746c3.223-1.86 8.852-1.628 12.573.52l21.784 12.578c2.028 1.17 3.068 2.668 3.076 4.091h.005v10.46h-.006c.056 1.232-.656 2.414-2.172 3.289l-23.81 13.746c-3.223 1.86-8.853 1.628-12.574-.52L90.026 169.24c-2.161-1.248-3.2-2.867-3.064-4.37v-10.05z"/>
            <path fill="#D8AE64" d="M124.383 171.758l23.81-13.747c3.223-1.86 2.819-5.11-.902-7.26l-21.784-12.577c-3.721-2.147-9.35-2.381-12.573-.52L89.124 151.4c-3.223 1.86-2.82 5.11.902 7.258l21.784 12.578c3.721 2.148 9.35 2.381 12.573.52"/>
            <path stroke="#004680" stroke-linecap="round" stroke-linejoin="round" stroke-width="1.65" d="M124.383 171.758l23.81-13.747c3.223-1.86 2.819-5.11-.902-7.26l-21.784-12.577c-3.721-2.147-9.35-2.381-12.573-.52L89.124 151.4c-3.223 1.86-2.82 5.11.902 7.258l21.784 12.578c3.721 2.148 9.35 2.381 12.573.52z"/>
            <path fill="#D8AE64" d="M86.962 144.326c-.115-1.278.591-2.513 2.162-3.42l23.81-13.747c3.223-1.86 8.852-1.627 12.573.521l21.784 12.577c2.028 1.171 3.068 2.669 3.076 4.091h.005v10.46h-.006c.056 1.232-.656 2.414-2.172 3.29l-23.81 13.746c-3.223 1.86-8.853 1.628-12.574-.521l-21.784-12.577c-2.161-1.248-3.2-2.868-3.064-4.37v-10.05z"/>
            <path stroke="#004680" stroke-linecap="round" stroke-linejoin="round" stroke-width="1.65" d="M86.962 144.326c-.115-1.278.591-2.513 2.162-3.42l23.81-13.747c3.223-1.86 8.852-1.627 12.573.521l21.784 12.577c2.028 1.171 3.068 2.669 3.076 4.091h.005v10.46h-.006c.056 1.232-.656 2.414-2.172 3.29l-23.81 13.746c-3.223 1.86-8.853 1.628-12.574-.521l-21.784-12.577c-2.161-1.248-3.2-2.868-3.064-4.37v-10.05z"/>
            <path fill="#F9D093" d="M124.383 161.264l23.81-13.748c3.223-1.86 2.819-5.11-.902-7.258l-21.784-12.578c-3.721-2.148-9.35-2.382-12.573-.522l-23.81 13.748c-3.223 1.86-2.82 5.11.902 7.26l21.784 12.577c3.721 2.147 9.35 2.381 12.573.52"/>
            <path stroke="#004680" stroke-linecap="round" stroke-linejoin="round" stroke-width="1.65" d="M124.383 161.264l23.81-13.748c3.223-1.86 2.819-5.11-.902-7.258l-21.784-12.578c-3.721-2.148-9.35-2.382-12.573-.522l-23.81 13.748c-3.223 1.86-2.82 5.11.902 7.26l21.784 12.577c3.721 2.147 9.35 2.381 12.573.52z"/>
            <path fill="#F3807B" d="M51.655 196.06c-.115-1.278.59-2.514 2.161-3.42l23.81-13.747c3.223-1.86 8.852-1.628 12.574.52l21.784 12.578c2.027 1.17 3.068 2.668 3.075 4.09h.006v10.461h-.007c.057 1.231-.656 2.414-2.172 3.289l-23.81 13.746c-3.223 1.86-8.852 1.628-12.573-.52l-21.784-12.578c-2.162-1.248-3.202-2.867-3.064-4.37v-10.05z"/>
            <path stroke="#004680" stroke-linecap="round" stroke-linejoin="round" stroke-width="1.651" d="M51.655 196.06c-.115-1.278.59-2.514 2.161-3.42l23.81-13.747c3.223-1.86 8.852-1.628 12.574.52l21.784 12.578c2.027 1.17 3.068 2.668 3.075 4.09h.006v10.461h-.007c.057 1.231-.656 2.414-2.172 3.289l-23.81 13.746c-3.223 1.86-8.852 1.628-12.573-.52l-21.784-12.578c-2.162-1.248-3.202-2.867-3.064-4.37v-10.05z"/>
            <path fill="#F3807B" d="M89.076 212.996l23.81-13.746c3.222-1.86 2.818-5.11-.903-7.26L90.2 179.414c-3.72-2.147-9.35-2.381-12.573-.52l-23.81 13.747c-3.222 1.86-2.818 5.11.903 7.258l21.784 12.578c3.72 2.148 9.35 2.381 12.573.52"/>
            <path stroke="#004680" stroke-linecap="round" stroke-linejoin="round" stroke-width="1.651" d="M89.076 212.996l23.81-13.746c3.222-1.86 2.818-5.11-.903-7.26L90.2 179.414c-3.72-2.147-9.35-2.381-12.573-.52l-23.81 13.747c-3.222 1.86-2.818 5.11.903 7.258l21.784 12.578c3.72 2.148 9.35 2.381 12.573.52z"/>
            <path fill="#F3807B" d="M51.655 185.565c-.115-1.278.59-2.513 2.161-3.42l23.81-13.747c3.223-1.86 8.852-1.627 12.574.521l21.784 12.577c2.027 1.17 3.068 2.669 3.075 4.091h.006v10.462h-.007c.057 1.23-.656 2.412-2.172 3.287l-23.81 13.747c-3.223 1.86-8.852 1.627-12.573-.521l-21.784-12.577c-2.162-1.247-3.202-2.868-3.064-4.371v-10.049z"/>
            <path stroke="#004680" stroke-linecap="round" stroke-linejoin="round" stroke-width="1.651" d="M51.655 185.565c-.115-1.278.59-2.513 2.161-3.42l23.81-13.747c3.223-1.86 8.852-1.627 12.574.521l21.784 12.577c2.027 1.17 3.068 2.669 3.075 4.091h.006v10.462h-.007c.057 1.23-.656 2.412-2.172 3.287l-23.81 13.747c-3.223 1.86-8.852 1.627-12.573-.521l-21.784-12.577c-2.162-1.247-3.202-2.868-3.064-4.371v-10.049z"/>
            <path fill="#F3807B" d="M89.076 202.502l23.81-13.747c3.222-1.86 2.818-5.11-.903-7.259L90.2 168.92c-3.72-2.148-9.35-2.382-12.573-.522l-23.81 13.748c-3.222 1.86-2.818 5.11.903 7.26l21.784 12.576c3.72 2.148 9.35 2.382 12.573.521"/>
            <path stroke="#004680" stroke-linecap="round" stroke-linejoin="round" stroke-width="1.651" d="M89.076 202.502l23.81-13.747c3.222-1.86 2.818-5.11-.903-7.259L90.2 168.92c-3.72-2.148-9.35-2.382-12.573-.522l-23.81 13.748c-3.222 1.86-2.818 5.11.903 7.26l21.784 12.576c3.72 2.148 9.35 2.382 12.573.521z"/>
            <path fill="#F3807B" d="M51.655 175.157c-.115-1.278.59-2.513 2.161-3.42l23.81-13.747c3.223-1.86 8.852-1.627 12.574.521l21.784 12.577c2.027 1.171 3.068 2.669 3.075 4.092h.006v10.461h-.007c.057 1.23-.656 2.412-2.172 3.287l-23.81 13.748c-3.223 1.86-8.852 1.627-12.573-.521l-21.784-12.578c-2.162-1.247-3.202-2.868-3.064-4.37v-10.05z"/>
            <path stroke="#004680" stroke-linecap="round" stroke-linejoin="round" stroke-width="1.651" d="M51.655 175.157c-.115-1.278.59-2.513 2.161-3.42l23.81-13.747c3.223-1.86 8.852-1.627 12.574.521l21.784 12.577c2.027 1.171 3.068 2.669 3.075 4.092h.006v10.461h-.007c.057 1.23-.656 2.412-2.172 3.287l-23.81 13.748c-3.223 1.86-8.852 1.627-12.573-.521l-21.784-12.578c-2.162-1.247-3.202-2.868-3.064-4.37v-10.05z"/>
            <path fill="#FF8F8F" d="M84.031 193.345c.214-.006.425-.016.637-.031"/>
            <path stroke="#004680" stroke-linecap="round" stroke-linejoin="round" stroke-width="1.651" d="M84.031 193.345c.214-.006.425-.016.637-.031"/>
            <path fill="#EFA0A0" d="M88.728 192.283c.118-.061.234-.124.348-.189l23.81-13.746c3.223-1.86 2.819-5.11-.902-7.26L90.2 158.511c-3.721-2.148-9.35-2.381-12.573-.52l-23.81 13.746c-3.224 1.86-2.82 5.11.902 7.26l21.783 12.576c.99.572 2.117 1.008 3.297 1.306"/>
            <path stroke="#004680" stroke-linecap="round" stroke-linejoin="round" stroke-width="1.651" d="M88.728 192.283c.118-.061.234-.124.348-.189l23.81-13.746c3.223-1.86 2.819-5.11-.902-7.26L90.2 158.511c-3.721-2.148-9.35-2.381-12.573-.52l-23.81 13.746c-3.224 1.86-2.82 5.11.902 7.26l21.783 12.576c.99.572 2.117 1.008 3.297 1.306"/>
            <path fill="#FF8F8F" d="M84.668 193.313c.312-.022.62-.055.924-.097"/>
            <path stroke="#004680" stroke-linecap="round" stroke-linejoin="round" stroke-width="1.651" d="M84.668 193.313c.312-.022.62-.055.924-.097"/>
            <path stroke="#B1CEE6" stroke-dasharray="4.336,4.336" stroke-linecap="round" stroke-linejoin="round" stroke-width="1.179" d="M161.364 221.714l21.927-12.659c2.967-1.714 2.595-4.706-.832-6.684L162.4 190.79c-3.426-1.979-8.609-2.193-11.577-.48l-21.927 12.658c-2.967 1.713-2.594 4.706.833 6.685l20.058 11.58c3.428 1.979 8.61 2.194 11.578.481z"/>
            <path fill="#F7D186" d="M85.36 216.534c-.117-1.278.59-2.513 2.16-3.42l23.811-13.747c3.223-1.86 8.85-1.627 12.573.521l21.784 12.578c2.028 1.17 3.068 2.668 3.076 4.09h.005v10.462h-.006c.055 1.23-.657 2.412-2.172 3.287l-23.812 13.748c-3.222 1.86-8.85 1.627-12.572-.52l-21.785-12.58c-2.161-1.246-3.201-2.867-3.063-4.37v-10.049z"/>
            <path stroke="#004680" stroke-linecap="round" stroke-linejoin="round" stroke-width="1.65" d="M85.36 216.534c-.117-1.278.59-2.513 2.16-3.42l23.811-13.747c3.223-1.86 8.85-1.627 12.573.521l21.784 12.578c2.028 1.17 3.068 2.668 3.076 4.09h.005v10.462h-.006c.055 1.23-.657 2.412-2.172 3.287l-23.812 13.748c-3.222 1.86-8.85 1.627-12.572-.52l-21.785-12.58c-2.161-1.246-3.201-2.867-3.063-4.37v-10.049z"/>
            <path fill="#FFE8C0" d="M122.78 233.471l23.81-13.747c3.223-1.86 2.818-5.11-.903-7.258l-21.783-12.578c-3.722-2.148-9.35-2.381-12.574-.52l-23.81 13.746c-3.223 1.86-2.819 5.11.902 7.26l21.784 12.577c3.722 2.148 9.35 2.381 12.573.52"/>
            <path stroke="#004680" stroke-linecap="round" stroke-linejoin="round" stroke-width="1.65" d="M122.78 233.471l23.81-13.747c3.223-1.86 2.818-5.11-.903-7.258l-21.783-12.578c-3.722-2.148-9.35-2.381-12.574-.52l-23.81 13.746c-3.223 1.86-2.819 5.11.902 7.26l21.784 12.577c3.722 2.148 9.35 2.381 12.573.52z"/>
            <path stroke="#004680" stroke-linecap="round" stroke-linejoin="round" stroke-width="2.594" d="M25.35 209.146v-6.023c-.01-.127.003-.253-.002-.38a8.362 8.362 0 0 1-.01-.923c.01-.156.04-.309.059-.463.036-.305.07-.61.141-.91.036-.16.098-.315.145-.472.085-.292.166-.583.285-.868.069-.169.165-.333.246-.5.13-.267.253-.537.413-.8.112-.183.254-.36.38-.541.166-.237.32-.477.512-.708.168-.203.37-.396.557-.593.19-.2.362-.406.572-.599.252-.235.544-.456.825-.681.183-.146.345-.3.54-.442a18.12 18.12 0 0 1 1.582-1.026c.01-.005.017-.011.026-.017l20.035-11.566v-6.477c-.006-.043 0-.087-.003-.13a2.924 2.924 0 0 1-.003-.32c.003-.052.014-.106.02-.159.013-.105.025-.21.05-.313.012-.055.032-.109.05-.163.028-.1.057-.2.097-.299.025-.058.058-.115.085-.173.045-.093.087-.184.143-.274.038-.064.088-.126.132-.189.057-.08.109-.163.175-.243.057-.07.126-.136.191-.203.066-.07.126-.14.198-.207.09-.083.192-.162.291-.24.062-.05.115-.1.179-.146.171-.126.356-.246.555-.36l23.81-13.747c2.014-1.163 4.969-1.509 7.81-1.08.515.078 1.024.19 1.527.318v-2.409c-.005-.044 0-.088-.002-.133-.004-.105-.01-.21-.003-.315l.005-.058v-9.988c-.005-.045 0-.088-.002-.132-.004-.106-.01-.211-.003-.317.003-.054.014-.107.02-.16.013-.106.024-.21.049-.313.013-.055.033-.11.05-.164.03-.1.057-.2.098-.298.024-.059.057-.115.085-.173.045-.092.087-.185.142-.275.038-.063.087-.124.13-.186.058-.082.111-.165.177-.244.058-.07.127-.137.192-.205.066-.069.125-.139.198-.206.086-.08.185-.155.28-.232.064-.052.121-.105.19-.156a6.3 6.3 0 0 1 .554-.36l23.81-13.746c.807-.466 1.763-.8 2.802-1.006 3.117-.618 6.981-.085 9.772 1.527l21.784 12.577.01.007c.24.138.464.282.677.43.07.05.133.1.2.151.139.102.276.204.401.31.072.06.133.12.2.18.11.1.218.2.318.302.06.064.114.128.17.19.092.104.181.207.26.31.049.065.092.129.137.192a4.7 4.7 0 0 1 .308.512 4.088 4.088 0 0 1 .22.516c.039.116.07.233.095.35a3.042 3.042 0 0 1 .07.535c.001.035.009.071.01.106h.005v1.294l1.075 17.41 32.628 18.837 16.328 9.427.025.016c.697.404 1.35.822 1.967 1.25.204.142.381.29.575.433.405.3.808.598 1.173.906.203.171.382.347.573.521.321.29.64.582.927.88.176.182.332.367.496.551.265.299.522.598.754.902.141.185.269.37.396.557.216.31.418.62.599.934.105.182.2.365.294.548a10.963 10.963 0 0 1 .636 1.498c.115.339.204.677.279 1.015.035.164.073.327.1.49.058.354.087.707.102 1.06.004.103.028.208.028.31h.016v6.097h-.019c.164 3.57-1.905 7-6.301 9.54l-8.223 4.745-8.713 5.031-52.156 30.113c-9.35 5.399-25.684 4.722-36.48-1.513L34.24 220.706c-6.273-3.622-9.289-7.198-8.89-11.56z"/>
            <path fill="#DCE7F2" d="M506.085 409.848L453.93 439.96c-9.352 5.399-25.685 4.723-36.481-1.513l-63.21-36.494c-6.273-3.62-9.29-7.197-8.89-11.56v-6.022c-.334-3.707 1.716-7.293 6.271-9.924l69.09-39.888c9.35-5.4 25.684-4.723 36.482 1.51l63.21 36.495c5.884 3.398 8.903 7.744 8.924 11.872h.016v6.095h-.02c.164 3.57-1.905 7-6.302 9.54l-8.222 4.748"/>
            <path stroke="#004680" stroke-linecap="round" stroke-linejoin="round" stroke-width="1.651" d="M506.085 409.848L453.93 439.96c-9.352 5.399-25.685 4.723-36.481-1.513l-63.21-36.494c-6.273-3.62-9.29-7.197-8.89-11.56v-6.022c-.334-3.707 1.716-7.293 6.271-9.924l69.09-39.888c9.35-5.4 25.684-4.723 36.482 1.51l63.21 36.495c5.884 3.398 8.903 7.744 8.924 11.872h.016v6.095h-.02c.164 3.57-1.905 7-6.302 9.54l-8.222 4.748"/>
            <path fill="#FFF" d="M390.594 416.5l26.854 15.504c11.662 6.733 26.266 7.41 36.48 1.513l69.092-39.89c9.35-5.4 8.178-14.828-2.62-21.063l-63.21-36.493c-10.797-6.235-27.13-6.911-36.482-1.513l-69.09 39.89c-9.35 5.398-8.178 14.83 2.62 21.062l17.632 10.18"/>
            <path stroke="#004680" stroke-linecap="round" stroke-linejoin="round" stroke-width="1.651" d="M390.594 416.5l26.854 15.504c11.662 6.733 26.266 7.41 36.48 1.513l69.092-39.89c9.35-5.4 8.178-14.828-2.62-21.063l-63.21-36.493c-10.797-6.235-27.13-6.911-36.482-1.513l-69.09 39.89c-9.35 5.398-8.178 14.83 2.62 21.062l17.632 10.18"/>
            <path fill="#FFF" d="M380.38 410.604l1.088.628"/>
            <path stroke="#004680" stroke-linecap="round" stroke-linejoin="round" stroke-width="1.651" d="M380.38 410.604l1.088.628"/>
            <path fill="#35D0BA" d="M406.96 356.97c-.116-1.277.591-2.514 2.16-3.42l23.812-13.746c3.222-1.86 8.851-1.629 12.572.52l21.784 12.577c2.028 1.17 3.068 2.67 3.076 4.092h.006v10.46h-.007c.056 1.232-.656 2.414-2.172 3.288l-23.81 13.747c-3.223 1.86-8.853 1.627-12.574-.52l-21.784-12.578c-2.161-1.248-3.202-2.868-3.064-4.371V356.97z"/>
            <path stroke="#004680" stroke-linecap="round" stroke-linejoin="round" stroke-width="1.651" d="M406.96 356.97c-.116-1.277.591-2.514 2.16-3.42l23.812-13.746c3.222-1.86 8.851-1.629 12.572.52l21.784 12.577c2.028 1.17 3.068 2.67 3.076 4.092h.006v10.46h-.007c.056 1.232-.656 2.414-2.172 3.288l-23.81 13.747c-3.223 1.86-8.853 1.627-12.574-.52l-21.784-12.578c-2.161-1.248-3.202-2.868-3.064-4.371V356.97z"/>
            <path fill="#35D0BA" d="M444.38 373.908l23.811-13.748c3.222-1.86 2.818-5.11-.903-7.26l-21.784-12.575c-3.72-2.15-9.35-2.382-12.573-.521l-23.81 13.747c-3.223 1.86-2.819 5.11.902 7.258l21.785 12.578c3.72 2.147 9.35 2.381 12.572.52"/>
            <path stroke="#004680" stroke-linecap="round" stroke-linejoin="round" stroke-width="1.651" d="M444.38 373.908l23.811-13.748c3.222-1.86 2.818-5.11-.903-7.26l-21.784-12.575c-3.72-2.15-9.35-2.382-12.573-.521l-23.81 13.747c-3.223 1.86-2.819 5.11.902 7.258l21.785 12.578c3.72 2.147 9.35 2.381 12.572.52z"/>
            <path fill="#35D0BA" d="M406.96 346.476c-.116-1.278.591-2.513 2.16-3.42l23.812-13.747c3.222-1.86 8.851-1.627 12.572.521l21.784 12.577c2.028 1.17 3.068 2.669 3.076 4.091h.006v10.46h-.007c.056 1.232-.656 2.414-2.172 3.288l-23.81 13.748c-3.223 1.86-8.853 1.628-12.574-.521l-21.784-12.577c-2.161-1.248-3.202-2.869-3.064-4.37v-10.05z"/>
            <path stroke="#004680" stroke-linecap="round" stroke-linejoin="round" stroke-width="1.651" d="M406.96 346.476c-.116-1.278.591-2.513 2.16-3.42l23.812-13.747c3.222-1.86 8.851-1.627 12.572.521l21.784 12.577c2.028 1.17 3.068 2.669 3.076 4.091h.006v10.46h-.007c.056 1.232-.656 2.414-2.172 3.288l-23.81 13.748c-3.223 1.86-8.853 1.628-12.574-.521l-21.784-12.577c-2.161-1.248-3.202-2.869-3.064-4.37v-10.05z"/>
            <path fill="#35D0BA" d="M444.38 363.413l23.811-13.748c3.222-1.86 2.818-5.11-.903-7.258l-21.784-12.577c-3.72-2.148-9.35-2.382-12.573-.521l-23.81 13.748c-3.223 1.86-2.819 5.11.902 7.258l21.785 12.577c3.72 2.148 9.35 2.382 12.572.521"/>
            <path stroke="#004680" stroke-linecap="round" stroke-linejoin="round" stroke-width="1.651" d="M444.38 363.413l23.811-13.748c3.222-1.86 2.818-5.11-.903-7.258l-21.784-12.577c-3.72-2.148-9.35-2.382-12.573-.521l-23.81 13.748c-3.223 1.86-2.819 5.11.902 7.258l21.785 12.577c3.72 2.148 9.35 2.382 12.572.521z"/>
            <path fill="#35D0BA" d="M406.96 336.068c-.116-1.277.591-2.513 2.16-3.42l23.812-13.747c3.222-1.86 8.851-1.628 12.572.521l21.784 12.577c2.028 1.17 3.068 2.67 3.076 4.091h.006v10.46h-.007c.056 1.233-.656 2.414-2.172 3.289l-23.81 13.748c-3.223 1.86-8.853 1.626-12.574-.521l-21.784-12.579c-2.161-1.247-3.202-2.867-3.064-4.37v-10.05z"/>
            <path stroke="#004680" stroke-linecap="round" stroke-linejoin="round" stroke-width="1.651" d="M406.96 336.068c-.116-1.277.591-2.513 2.16-3.42l23.812-13.747c3.222-1.86 8.851-1.628 12.572.521l21.784 12.577c2.028 1.17 3.068 2.67 3.076 4.091h.006v10.46h-.007c.056 1.233-.656 2.414-2.172 3.289l-23.81 13.748c-3.223 1.86-8.853 1.626-12.574-.521l-21.784-12.579c-2.161-1.247-3.202-2.867-3.064-4.37v-10.05z"/>
            <path fill="#35D0BA" d="M444.38 353.006l23.811-13.748c3.222-1.86 2.818-5.11-.903-7.26l-21.784-12.576c-3.72-2.148-9.35-2.382-12.573-.521l-23.81 13.747c-3.223 1.86-2.819 5.11.902 7.26l21.785 12.577c3.72 2.147 9.35 2.381 12.572.52"/>
            <path stroke="#004680" stroke-linecap="round" stroke-linejoin="round" stroke-width="1.651" d="M444.38 353.006l23.811-13.748c3.222-1.86 2.818-5.11-.903-7.26l-21.784-12.576c-3.72-2.148-9.35-2.382-12.573-.521l-23.81 13.747c-3.223 1.86-2.819 5.11.902 7.26l21.785 12.577c3.72 2.147 9.35 2.381 12.572.52z"/>
            <path fill="#35D0BA" d="M406.96 325.573c-.116-1.277.591-2.513 2.16-3.42l23.812-13.745c3.222-1.861 8.851-1.63 12.572.52l21.784 12.577c2.028 1.17 3.068 2.67 3.076 4.09h.006v10.462h-.007c.056 1.231-.656 2.412-2.172 3.287l-23.81 13.748c-3.223 1.86-8.853 1.627-12.574-.52l-21.784-12.58c-2.161-1.246-3.202-2.866-3.064-4.37v-10.049z"/>
            <path stroke="#004680" stroke-linecap="round" stroke-linejoin="round" stroke-width="1.651" d="M406.96 325.573c-.116-1.277.591-2.513 2.16-3.42l23.812-13.745c3.222-1.861 8.851-1.63 12.572.52l21.784 12.577c2.028 1.17 3.068 2.67 3.076 4.09h.006v10.462h-.007c.056 1.231-.656 2.412-2.172 3.287l-23.81 13.748c-3.223 1.86-8.853 1.627-12.574-.52l-21.784-12.58c-2.161-1.246-3.202-2.866-3.064-4.37v-10.049z"/>
            <path fill="#35EEBA" d="M444.38 342.511l23.811-13.747c3.222-1.861 2.818-5.11-.903-7.26l-21.784-12.576c-3.72-2.148-9.35-2.381-12.573-.52l-23.81 13.746c-3.223 1.861-2.819 5.11.902 7.26l21.785 12.576c3.72 2.148 9.35 2.382 12.572.521"/>
            <path stroke="#004680" stroke-linecap="round" stroke-linejoin="round" stroke-width="1.651" d="M444.38 342.511l23.811-13.747c3.222-1.861 2.818-5.11-.903-7.26l-21.784-12.576c-3.72-2.148-9.35-2.381-12.573-.52l-23.81 13.746c-3.223 1.861-2.819 5.11.902 7.26l21.785 12.576c3.72 2.148 9.35 2.382 12.572.521z"/>
            <path fill="#D8AE64" d="M371.652 377.307c-.115-1.277.592-2.514 2.161-3.42l23.812-13.747c3.221-1.86 8.85-1.628 12.572.52l21.784 12.578c2.027 1.17 3.068 2.67 3.075 4.091h.006v10.462h-.007c.057 1.23-.656 2.412-2.172 3.287l-23.811 13.748c-3.222 1.86-8.851 1.626-12.572-.521l-21.784-12.579c-2.162-1.247-3.202-2.867-3.064-4.37v-10.05z"/>
            <path stroke="#004680" stroke-linecap="round" stroke-linejoin="round" stroke-width="1.65" d="M371.652 377.307c-.115-1.277.592-2.514 2.161-3.42l23.812-13.747c3.221-1.86 8.85-1.628 12.572.52l21.784 12.578c2.027 1.17 3.068 2.67 3.075 4.091h.006v10.462h-.007c.057 1.23-.656 2.412-2.172 3.287l-23.811 13.748c-3.222 1.86-8.851 1.626-12.572-.521l-21.784-12.579c-2.162-1.247-3.202-2.867-3.064-4.37v-10.05z"/>
            <path fill="#D8AE64" d="M409.072 394.245l23.81-13.748c3.224-1.86 2.82-5.11-.901-7.26l-21.784-12.577c-3.721-2.147-9.35-2.381-12.573-.52l-23.81 13.747c-3.223 1.86-2.819 5.11.902 7.26l21.784 12.577c3.721 2.147 9.35 2.381 12.572.52"/>
            <path stroke="#004680" stroke-linecap="round" stroke-linejoin="round" stroke-width="1.65" d="M409.072 394.245l23.81-13.748c3.224-1.86 2.82-5.11-.901-7.26l-21.784-12.577c-3.721-2.147-9.35-2.381-12.573-.52l-23.81 13.747c-3.223 1.86-2.819 5.11.902 7.26l21.784 12.577c3.721 2.147 9.35 2.381 12.572.52z"/>
            <path fill="#D8AE64" d="M371.652 366.812c-.115-1.277.592-2.513 2.161-3.419l23.812-13.747c3.221-1.86 8.85-1.628 12.572.521l21.784 12.577c2.027 1.17 3.068 2.67 3.075 4.09h.006v10.462h-.007c.057 1.231-.656 2.412-2.172 3.287l-23.811 13.748c-3.222 1.86-8.851 1.627-12.572-.52l-21.784-12.58c-2.162-1.246-3.202-2.866-3.064-4.37v-10.049z"/>
            <path stroke="#004680" stroke-linecap="round" stroke-linejoin="round" stroke-width="1.65" d="M371.652 366.812c-.115-1.277.592-2.513 2.161-3.419l23.812-13.747c3.221-1.86 8.85-1.628 12.572.521l21.784 12.577c2.027 1.17 3.068 2.67 3.075 4.09h.006v10.462h-.007c.057 1.231-.656 2.412-2.172 3.287l-23.811 13.748c-3.222 1.86-8.851 1.627-12.572-.52l-21.784-12.58c-2.162-1.246-3.202-2.866-3.064-4.37v-10.049z"/>
            <path fill="#D8AE64" d="M409.072 383.75l23.81-13.748c3.224-1.86 2.82-5.11-.901-7.259l-21.784-12.576c-3.721-2.149-9.35-2.381-12.573-.52l-23.81 13.747c-3.223 1.86-2.819 5.11.902 7.258l21.784 12.577c3.721 2.148 9.35 2.382 12.572.521"/>
            <path stroke="#004680" stroke-linecap="round" stroke-linejoin="round" stroke-width="1.65" d="M409.072 383.75l23.81-13.748c3.224-1.86 2.82-5.11-.901-7.259l-21.784-12.576c-3.721-2.149-9.35-2.381-12.573-.52l-23.81 13.747c-3.223 1.86-2.819 5.11.902 7.258l21.784 12.577c3.721 2.148 9.35 2.382 12.572.521z"/>
            <path fill="#D8AE64" d="M371.652 356.405c-.115-1.278.592-2.513 2.161-3.42l23.812-13.747c3.221-1.86 8.85-1.628 12.572.521l21.784 12.577c2.027 1.17 3.068 2.67 3.075 4.091h.006v10.46h-.007c.057 1.232-.656 2.414-2.172 3.289l-23.811 13.748c-3.222 1.86-8.851 1.626-12.572-.521l-21.784-12.579c-2.162-1.247-3.202-2.867-3.064-4.37v-10.05z"/>
            <path stroke="#004680" stroke-linecap="round" stroke-linejoin="round" stroke-width="1.65" d="M371.652 356.405c-.115-1.278.592-2.513 2.161-3.42l23.812-13.747c3.221-1.86 8.85-1.628 12.572.521l21.784 12.577c2.027 1.17 3.068 2.67 3.075 4.091h.006v10.46h-.007c.057 1.232-.656 2.414-2.172 3.289l-23.811 13.748c-3.222 1.86-8.851 1.626-12.572-.521l-21.784-12.579c-2.162-1.247-3.202-2.867-3.064-4.37v-10.05z"/>
            <path fill="#D8AE64" d="M404.028 374.593c.214-.007.425-.017.637-.032"/>
            <path stroke="#004680" stroke-linecap="round" stroke-linejoin="round" stroke-width="1.65" d="M404.028 374.593c.214-.007.425-.017.637-.032"/>
            <g>
                <path fill="#F9D093" d="M408.725 373.53c.118-.061.235-.123.347-.189l23.811-13.746c3.223-1.86 2.819-5.11-.902-7.26l-21.784-12.577c-3.721-2.147-9.35-2.381-12.572-.52l-23.812 13.747c-3.222 1.86-2.818 5.11.903 7.26L396.5 372.82c.99.572 2.116 1.008 3.296 1.307"/>
                <path stroke="#004680" stroke-linecap="round" stroke-linejoin="round" stroke-width="1.65" d="M408.725 373.53c.118-.061.235-.123.347-.189l23.811-13.746c3.223-1.86 2.819-5.11-.902-7.26l-21.784-12.577c-3.721-2.147-9.35-2.381-12.572-.52l-23.812 13.747c-3.222 1.86-2.818 5.11.903 7.26L396.5 372.82c.99.572 2.116 1.008 3.296 1.307"/>
            </g>
            <g>
                <path fill="#D8AE64" d="M404.665 374.56c.312-.022.62-.055.924-.097"/>
                <path stroke="#004680" stroke-linecap="round" stroke-linejoin="round" stroke-width="1.65" d="M404.665 374.56c.312-.022.62-.055.924-.097"/>
            </g>
            <path stroke="#004680" stroke-linecap="round" stroke-linejoin="round" stroke-width="2.594" d="M345.348 390.393v-6.022c-.012-.128.002-.253-.003-.38a8.357 8.357 0 0 1-.01-.923c.01-.156.04-.31.059-.464.036-.304.07-.608.141-.91.037-.158.098-.315.145-.472.085-.29.167-.583.285-.868.07-.169.164-.332.246-.498.131-.27.253-.538.413-.8.112-.185.254-.361.38-.543.167-.236.32-.476.512-.708.168-.202.37-.396.557-.592.19-.201.361-.405.572-.6.252-.234.544-.456.825-.68.184-.147.345-.3.541-.443a18.094 18.094 0 0 1 1.58-1.024.156.156 0 0 0 .026-.018l20.035-11.567v-6.476c-.005-.044 0-.086-.002-.13a2.922 2.922 0 0 1-.003-.32c.003-.052.014-.105.022-.158.012-.106.023-.21.047-.314.013-.055.034-.109.05-.163a2.74 2.74 0 0 1 .098-.3c.025-.057.058-.114.085-.172.045-.092.088-.184.143-.274.038-.065.088-.127.13-.188.059-.082.112-.164.177-.245.057-.069.126-.136.191-.203.066-.069.126-.14.2-.206.088-.084.19-.163.29-.241.061-.048.113-.1.178-.146.171-.125.356-.245.554-.36l23.811-13.747c2.014-1.163 4.97-1.508 7.81-1.08.516.078 1.024.191 1.526.319v-2.41c-.004-.044.001-.088-.001-.131-.004-.106-.01-.212-.003-.317l.004-.058v-9.988c-.004-.044.001-.088-.001-.132-.004-.105-.01-.211-.003-.317.003-.053.014-.106.021-.16.013-.105.023-.208.048-.313.013-.055.034-.108.05-.162.03-.101.057-.201.098-.3.024-.058.057-.115.085-.172.045-.093.087-.184.142-.275.038-.063.087-.125.131-.187.057-.082.112-.164.176-.244.059-.07.127-.136.192-.203.066-.07.125-.14.199-.208.085-.08.184-.154.278-.23.065-.053.122-.107.192-.157a6.3 6.3 0 0 1 .553-.359l23.812-13.747c.806-.466 1.76-.8 2.8-1.006 3.118-.62 6.981-.084 9.772 1.526l21.784 12.577.01.007c.24.139.465.283.677.43.07.05.133.101.2.151.139.103.276.204.401.31.072.06.132.12.2.18.11.1.22.2.318.303.06.063.115.127.171.19.092.103.18.206.26.311.049.063.092.128.137.19a4.118 4.118 0 0 1 .526 1.028c.04.116.07.234.096.35.013.058.025.114.035.17.02.123.03.244.034.365.002.035.01.072.01.107h.007v1.293l1.073 17.41 32.63 18.838 16.327 9.427.025.017c.697.403 1.35.821 1.967 1.249.205.141.381.289.575.433.405.298.808.598 1.173.906.203.172.382.347.574.52.32.292.64.583.926.88.176.182.333.367.497.552.264.3.52.598.754.9.14.186.268.372.396.558.215.31.417.622.598.936.105.18.202.363.294.546.166.324.313.649.443.974.068.175.136.349.193.524.115.34.204.677.279 1.016.035.164.073.326.1.488.058.355.087.708.102 1.062.004.104.028.208.03.31h.014v6.096h-.018c.163 3.57-1.905 7-6.302 9.54l-8.223 4.747-8.713 5.03-52.155 30.112c-9.351 5.4-25.684 4.722-36.483-1.513l-63.209-36.493c-6.272-3.622-9.289-7.198-8.889-11.561z"/>
            <path fill="#FFBD85" d="M255.804 408.68v-2.315h.001c.015-.776.489-1.517 1.451-2.072l16.011-9.245c2.154-1.243 5.917-1.088 8.405.35l14.655 8.46c1.364.788 2.057 1.796 2.053 2.753h.003v2.469h-.004c-.043.748-.519 1.458-1.448 1.993l-16.012 9.245c-2.153 1.243-5.916 1.088-8.403-.35l-14.656-8.46c-1.378-.795-2.072-1.816-2.055-2.78h-.001v-.048z"/>
            <path stroke="#004680" stroke-linecap="round" stroke-linejoin="round" stroke-width="1.355" d="M255.804 408.68v-2.315h.001c.015-.776.489-1.517 1.451-2.072l16.011-9.245c2.154-1.243 5.917-1.088 8.405.35l14.655 8.46c1.364.788 2.057 1.796 2.053 2.753h.003v2.469h-.004c-.043.748-.519 1.458-1.448 1.993l-16.012 9.245c-2.153 1.243-5.916 1.088-8.403-.35l-14.656-8.46c-1.378-.795-2.072-1.816-2.055-2.78h-.001v-.048z"/>
            <g>
                <path fill="#FFBD85" d="M262.11 411.598l10.405 6.008c2.488 1.436 6.25 1.591 8.404.348l16.012-9.244c2.154-1.244 1.884-3.416-.603-4.851l-14.657-8.462c-2.486-1.437-6.25-1.592-8.403-.348l-16.012 9.244c-1.98 1.143-1.912 3.072.046 4.492"/>
                <path stroke="#004680" stroke-linecap="round" stroke-linejoin="round" stroke-width="1.355" d="M262.11 411.598l10.405 6.008c2.488 1.436 6.25 1.591 8.404.348l16.012-9.244c2.154-1.244 1.884-3.416-.603-4.851l-14.657-8.462c-2.486-1.437-6.25-1.592-8.403-.348l-16.012 9.244c-1.98 1.143-1.912 3.072.046 4.492"/>
            </g>
            <g>
                <path fill="#FFBD85" d="M271.2 378.493l1.018-2.94h.01c.148-.586.61-1.155 1.396-1.607 1.928-1.114 5.045-1.12 6.962-.012.73.42 1.18.945 1.35 1.491l9.63 27.692h-.004c.938 2.705-.419 5.63-4.065 7.736-5.782 3.337-15.126 3.354-20.871.037-3.62-2.09-4.945-5.003-3.987-7.709l7.557-21.793"/>
                <path stroke="#004680" stroke-linecap="round" stroke-linejoin="round" stroke-width="1.355" d="M271.2 378.493l1.018-2.94h.01c.148-.586.61-1.155 1.396-1.607 1.928-1.114 5.045-1.12 6.962-.012.73.42 1.18.945 1.35 1.491l9.63 27.692h-.004c.938 2.705-.419 5.63-4.065 7.736-5.782 3.337-15.126 3.354-20.871.037-3.62-2.09-4.945-5.003-3.987-7.709l7.557-21.793"/>
            </g>
            <path fill="#FFF" d="M273.727 378.078c1.847 1.067 4.853 1.061 6.712-.013 1.86-1.072 1.87-2.807.02-3.875-1.846-1.067-4.852-1.06-6.711.012-1.86 1.074-1.87 2.809-.021 3.876"/>
            <path stroke="#004680" stroke-linecap="round" stroke-linejoin="round" stroke-width="1.355" d="M273.727 378.078c1.847 1.067 4.853 1.061 6.712-.013 1.86-1.072 1.87-2.807.02-3.875-1.846-1.067-4.852-1.06-6.711.012-1.86 1.074-1.87 2.809-.021 3.876z"/>
            <g>
                <path fill="#FFF" d="M280.108 399.245c1.75-.29 3.402-.836 4.784-1.633 1.607-.927 2.62-2.066 3.037-3.26.125-.35.199-.705.219-1.064l.634 1.824 1.633 4.694c-.334 1.684-1.625 3.315-3.866 4.608-5.255 3.037-13.75 3.052-18.973.036-2.202-1.272-3.474-2.881-3.804-4.542l1.633-4.71.631-1.82c.02.354.094.71.222 1.057.413 1.173 1.411 2.292 2.987 3.204 1.386.8 3.053 1.343 4.82 1.626"/>
                <path stroke="#004680" stroke-linecap="round" stroke-linejoin="round" stroke-width="1.355" d="M280.108 399.245c1.75-.29 3.402-.836 4.784-1.633 1.607-.927 2.62-2.066 3.037-3.26.125-.35.199-.705.219-1.064l.634 1.824 1.633 4.694c-.334 1.684-1.625 3.315-3.866 4.608-5.255 3.037-13.75 3.052-18.973.036-2.202-1.272-3.474-2.881-3.804-4.542l1.633-4.71.631-1.82c.02.354.094.71.222 1.057.413 1.173 1.411 2.292 2.987 3.204 1.386.8 3.053 1.343 4.82 1.626"/>
            </g>
            <g>
                <path fill="#DCE7F2" d="M276.611 399.492c.144.003.288.005.432.005"/>
                <path stroke="#004680" stroke-linecap="round" stroke-linejoin="round" stroke-width="1.355" d="M276.611 399.492c.144.003.288.005.432.005"/>
            </g>
            <g>
                <path fill="#FFF" d="M279.556 392.842c-3.126.506-6.61.052-9.056-1.358-1.59-.92-2.48-2.09-2.662-3.294l1.036-2.997 1.111-3.193c.18.56.562 1.1 1.142 1.582.241.206.519.397.83.577 2.819 1.626 7.4 1.617 10.236-.02.325-.186.614-.39.863-.6.581-.488.963-1.029 1.146-1.586l1.11 3.188 1.038 2.983c-.187 1.212-1.091 2.4-2.705 3.333a9.75 9.75 0 0 1-.591.313"/>
                <path stroke="#004680" stroke-linecap="round" stroke-linejoin="round" stroke-width="1.355" d="M279.556 392.842c-3.126.506-6.61.052-9.056-1.358-1.59-.92-2.48-2.09-2.662-3.294l1.036-2.997 1.111-3.193c.18.56.562 1.1 1.142 1.582.241.206.519.397.83.577 2.819 1.626 7.4 1.617 10.236-.02.325-.186.614-.39.863-.6.581-.488.963-1.029 1.146-1.586l1.11 3.188 1.038 2.983c-.187 1.212-1.091 2.4-2.705 3.333a9.75 9.75 0 0 1-.591.313"/>
            </g>
            <path fill="#FFBD85" d="M51.814 290.379v-2.316c.016-.776.49-1.516 1.452-2.072l16.011-9.244c2.155-1.243 5.918-1.087 8.404.349l14.657 8.462c1.363.787 2.056 1.795 2.052 2.752h.003v2.47h-.004c-.044.747-.519 1.456-1.448 1.993l-16.011 9.243c-2.154 1.244-5.917 1.089-8.405-.347l-14.655-8.462c-1.378-.795-2.072-1.816-2.055-2.78h-.001v-.048z"/>
            <path stroke="#004680" stroke-linecap="round" stroke-linejoin="round" stroke-width="1.355" d="M51.814 290.379v-2.316c.016-.776.49-1.516 1.452-2.072l16.011-9.244c2.155-1.243 5.918-1.087 8.404.349l14.657 8.462c1.363.787 2.056 1.795 2.052 2.752h.003v2.47h-.004c-.044.747-.519 1.456-1.448 1.993l-16.011 9.243c-2.154 1.244-5.917 1.089-8.405-.347l-14.655-8.462c-1.378-.795-2.072-1.816-2.055-2.78h-.001v-.048z"/>
            <g>
                <path fill="#FFBD85" d="M58.119 293.298l10.407 6.007c2.487 1.437 6.25 1.592 8.403.35l16.011-9.246c2.154-1.244 1.884-3.416-.602-4.851l-14.657-8.462c-2.487-1.436-6.25-1.591-8.403-.349l-16.011 9.244c-1.982 1.144-1.913 3.073.045 4.492"/>
                <path stroke="#004680" stroke-linecap="round" stroke-linejoin="round" stroke-width="1.355" d="M58.119 293.298l10.407 6.007c2.487 1.437 6.25 1.592 8.403.35l16.011-9.246c2.154-1.244 1.884-3.416-.602-4.851l-14.657-8.462c-2.487-1.436-6.25-1.591-8.403-.349l-16.011 9.244c-1.982 1.144-1.913 3.073.045 4.492"/>
            </g>
            <g>
                <path fill="#FFBD85" d="M67.21 260.193l1.019-2.94h.008c.15-.587.612-1.155 1.396-1.608 1.929-1.114 5.046-1.12 6.963-.013.731.421 1.179.945 1.351 1.492l9.628 27.692h-.003c.938 2.706-.418 5.63-4.066 7.735-5.781 3.338-15.125 3.356-20.87.039-3.62-2.09-4.945-5.005-3.987-7.71l7.557-21.792"/>
                <path stroke="#004680" stroke-linecap="round" stroke-linejoin="round" stroke-width="1.355" d="M67.21 260.193l1.019-2.94h.008c.15-.587.612-1.155 1.396-1.608 1.929-1.114 5.046-1.12 6.963-.013.731.421 1.179.945 1.351 1.492l9.628 27.692h-.003c.938 2.706-.418 5.63-4.066 7.735-5.781 3.338-15.125 3.356-20.87.039-3.62-2.09-4.945-5.005-3.987-7.71l7.557-21.792"/>
            </g>
            <path fill="#FFF" d="M69.736 259.777c1.848 1.067 4.854 1.06 6.713-.013 1.86-1.073 1.869-2.808.021-3.875-1.848-1.066-4.853-1.061-6.713.012-1.859 1.073-1.869 2.808-.02 3.876"/>
            <path stroke="#004680" stroke-linecap="round" stroke-linejoin="round" stroke-width="1.355" d="M69.736 259.777c1.848 1.067 4.854 1.06 6.713-.013 1.86-1.073 1.869-2.808.021-3.875-1.848-1.066-4.853-1.061-6.713.012-1.859 1.073-1.869 2.808-.02 3.876z"/>
            <g>
                <path fill="#FFF" d="M76.118 280.945c1.75-.292 3.402-.836 4.785-1.633 1.605-.929 2.618-2.066 3.036-3.26.124-.35.198-.706.218-1.064l.636 1.824 1.633 4.694c-.335 1.684-1.626 3.314-3.867 4.608-5.255 3.037-13.75 3.052-18.973.035-2.203-1.272-3.474-2.88-3.805-4.542l1.633-4.709.632-1.821c.02.355.094.71.223 1.058.412 1.173 1.41 2.291 2.985 3.203 1.387.8 3.053 1.343 4.821 1.627"/>
                <path stroke="#004680" stroke-linecap="round" stroke-linejoin="round" stroke-width="1.355" d="M76.118 280.945c1.75-.292 3.402-.836 4.785-1.633 1.605-.929 2.618-2.066 3.036-3.26.124-.35.198-.706.218-1.064l.636 1.824 1.633 4.694c-.335 1.684-1.626 3.314-3.867 4.608-5.255 3.037-13.75 3.052-18.973.035-2.203-1.272-3.474-2.88-3.805-4.542l1.633-4.709.632-1.821c.02.355.094.71.223 1.058.412 1.173 1.41 2.291 2.985 3.203 1.387.8 3.053 1.343 4.821 1.627"/>
            </g>
            <g>
                <path fill="#DCE7F2" d="M72.621 281.192c.143.003.288.004.432.004"/>
                <path stroke="#004680" stroke-linecap="round" stroke-linejoin="round" stroke-width="1.355" d="M72.621 281.192c.143.003.288.004.432.004"/>
            </g>
            <g>
                <path fill="#FFF" d="M79.063 273.47c.203-.1.4-.204.591-.314 1.614-.932 2.519-2.121 2.706-3.333l-1.038-2.983-1.11-3.188c-.183.557-.565 1.1-1.147 1.586-.248.21-.538.414-.86.6-2.84 1.637-7.42 1.646-10.238.02a5.489 5.489 0 0 1-.83-.576c-.58-.484-.963-1.022-1.142-1.583l-1.111 3.192-1.038 2.999c.184 1.204 1.073 2.373 2.664 3.292 2.446 1.412 5.93 1.864 9.055 1.359"/>
                <path stroke="#004680" stroke-linecap="round" stroke-linejoin="round" stroke-width="1.355" d="M79.063 273.47c.203-.1.4-.204.591-.314 1.614-.932 2.519-2.121 2.706-3.333l-1.038-2.983-1.11-3.188c-.183.557-.565 1.1-1.147 1.586-.248.21-.538.414-.86.6-2.84 1.637-7.42 1.646-10.238.02a5.489 5.489 0 0 1-.83-.576c-.58-.484-.963-1.022-1.142-1.583l-1.111 3.192-1.038 2.999c.184 1.204 1.073 2.373 2.664 3.292 2.446 1.412 5.93 1.864 9.055 1.359"/>
            </g>
            <path stroke="#B1CEE6" stroke-dasharray="4.336,4.336" stroke-linecap="round" stroke-linejoin="round" stroke-width="1.179" d="M447.42 426.267l21.926-12.659c2.967-1.714 2.594-4.706-.831-6.684l-20.06-11.582c-3.427-1.978-8.61-2.192-11.578-.48l-21.925 12.66c-2.969 1.712-2.596 4.705.83 6.683l20.06 11.583c3.427 1.977 8.61 2.192 11.577.479zM485.13 405.36l21.927-12.659c2.967-1.714 2.595-4.706-.831-6.684l-20.059-11.582c-3.428-1.978-8.61-2.192-11.579-.48l-21.925 12.66c-2.968 1.712-2.596 4.706.831 6.683l20.059 11.583c3.427 1.977 8.61 2.192 11.577.479z"/>
        </g>
    </g>
</svg>
