<svg xmlns="http://www.w3.org/2000/svg" width="148" height="46" viewBox="0 0 148 46">
    <g fill="none">
        <path fill="#8C929D" d="M103.348 10.845L100.2 10.845 100.214 34.282 112.965 34.282 112.965 31.383 103.362 31.383 103.348 10.845zM125.099 30.17c-1.02 1.058-2.429 1.652-3.9 1.644-2.396 0-3.364-1.182-3.364-2.726 0-2.322 1.618-3.432 5.054-3.432.745.003 1.488.06 2.224.173v4.341h-.014zm-3.264-14.207c-2.447-.007-4.819.846-6.7 2.41l1.112 1.932c1.285-.75 2.86-1.5 5.126-1.5 2.585 0 3.726 1.327 3.726 3.548v1.14c-.722-.114-1.45-.172-2.18-.174-5.517 0-8.318 1.933-8.318 5.971 0 3.62 2.224 5.438 5.588 5.438 2.267 0 4.448-1.039 5.199-2.726l.577 2.293h2.224v-12c-.015-3.793-1.66-6.332-6.354-6.332zM138.346 31.921c-1.184 0-2.224-.144-3.003-.505V20.585c1.068-.895 2.397-1.544 4.086-1.544 3.047 0 4.217 2.15 4.217 5.625 0 4.933-1.892 7.255-5.3 7.255m1.329-15.952c-1.653-.01-3.23.689-4.332 1.919v-3.032l-.015-4.01h-3.076l.015 22.86c1.545.65 3.653.996 5.95.996 5.876 0 8.706-3.75 8.706-10.226-.014-5.12-2.628-8.51-7.248-8.51M69.073 13.387c2.787 0 4.592.924 5.761 1.861l1.358-2.35c-1.834-1.616-4.318-2.482-6.975-2.482-6.7 0-11.393 4.082-11.393 12.318 0 8.625 5.068 11.985 10.859 11.985 2.395.006 4.77-.455 6.989-1.356l-.072-9.216v-2.899h-8.598v2.9h5.487l.072 6.994c-.722.36-1.963.65-3.653.65-4.65 0-7.769-2.929-7.769-9.087-.014-6.274 3.206-9.318 7.928-9.318M91.243 10.842h-3.076l.014 3.937V28.38c0 3.794 1.646 6.332 6.34 6.332.634.002 1.267-.056 1.891-.173v-2.755c-.473.072-.951.105-1.43.101-2.584 0-3.725-1.327-3.725-3.548v-9.375h5.155v-2.567h-5.15l-.015-5.553h-.004zM80.345 34.282L83.42 34.282 83.42 16.398 80.345 16.398zM80.345 13.931L83.42 13.931 83.42 10.859 80.345 10.859z"/>
        <path fill="#FC6D26" d="M48.663 25.79l-2.73-8.383L40.528.78c-.128-.38-.484-.637-.886-.637s-.758.257-.886.637l-5.4 16.617H15.402L9.998.78C9.871.4 9.514.143 9.112.143c-.401 0-.758.257-.885.637L2.833 17.397.101 25.79c-.248.764.023 1.602.673 2.075L24.378 45 47.98 27.865c.653-.471.928-1.309.682-2.075"/>
        <path fill="#E24329" d="M9.077 27.676L9.077 27.676 18.05 0.088 0.101 0.088z" transform="translate(15.306 17.308)"/>
        <path fill="#FC6D26" d="M21.634 27.678L12.658 0.088 0.095 0.088z" transform="translate(2.744 17.308)"/>
        <path fill="#FCA326" d="M2.829 17.406L.097 25.788c-.249.765.023 1.602.673 2.076L24.373 45 2.83 17.406z"/>
        <path fill="#E24329" d="M2.832 17.406H15.41L9.997.789C9.869.409 9.513.152 9.11.152S8.353.41 8.225.79L2.832 17.406z"/>
        <path fill="#FC6D26" d="M0.124 27.678L9.097 0.088 21.675 0.088z" transform="translate(24.26 17.308)"/>
        <path fill="#FCA326" d="M45.93 17.406l2.733 8.382c.248.765-.023 1.602-.673 2.076l-23.605 17.12L45.93 17.406z"/>
        <path fill="#E24329" d="M45.937 17.406h-12.58L38.76.789c.128-.38.484-.637.886-.637s.758.257.886.637l5.403 16.617h.002z"/>
    </g>
</svg>
