<svg xmlns="http://www.w3.org/2000/svg" width="101" height="39" viewBox="0 0 101 39">
    <g fill="none" fill-rule="evenodd">
        <path fill="#8C929D" d="M75.193 12.419h-1.791l.006 14.184h7.246V24.85h-5.455z"/>
        <path fill="#8C929D" fill-rule="nonzero" d="M87.566 24.3a3.094 3.094 0 0 1-2.253.954c-1.384 0-1.942-.684-1.942-1.575 0-1.347.93-1.99 2.914-1.99.372 0 .97.042 1.28.104v2.508zm-1.88-8.227a6.045 6.045 0 0 0-3.867 1.391l.643 1.117c.744-.435 1.653-.87 2.955-.87 1.487 0 2.149.766 2.149 2.051v.664c-.29-.063-.889-.104-1.26-.104-3.183 0-4.794 1.119-4.794 3.46 0 2.094 1.28 3.15 3.223 3.15 1.308 0 2.562-.6 2.996-1.574l.33 1.326h1.282v-6.942c0-2.197-.95-3.669-3.658-3.669zM95.21 25.316c-.682 0-1.282-.082-1.736-.29v-6.279c.62-.518 1.384-.891 2.355-.891 1.757 0 2.438 1.243 2.438 3.253 0 2.86-1.095 4.207-3.058 4.207m.765-9.243c-1.625 0-2.5 1.11-2.5 1.11V15.43l-.006-2.321h-1.777l.006 13.243c.888.373 2.107.58 3.43.58 3.388 0 5.02-2.176 5.02-5.927 0-2.964-1.508-4.933-4.173-4.933"/>
        <path fill="#8C929D" d="M55.253 14.581c1.612 0 2.645.539 3.327 1.078l.78-1.358c-1.064-.936-2.497-1.44-4.024-1.44-3.864 0-6.571 2.363-6.571 7.13 0 4.994 2.92 6.942 6.26 6.942 1.674 0 3.1-.394 4.03-.788l-.038-5.336V19.13h-4.96v1.679h3.162l.038 4.051c-.413.208-1.136.373-2.107.373-2.686 0-4.484-1.694-4.484-5.263 0-3.627 1.86-5.389 4.587-5.389M68.04 13.11h-1.777l.006 2.28V23.263c0 2.197.95 3.669 3.657 3.669.374 0 .74-.034 1.095-.099v-1.6c-.257.04-.531.062-.826.062-1.488 0-2.149-.767-2.149-2.052v-5.43h2.975v-1.492h-2.975l-.006-3.212zM61.754 26.684h1.777V16.322h-1.777zM61.754 14.892h1.777V13.11h-1.777z"/>
        <path fill="#FC6D26" d="M41.079 22.617l-2.296-7.086-4.549-14.043c-.234-.722-1.253-.722-1.487 0l-4.55 14.043H13.093L8.542 1.488c-.234-.722-1.253-.722-1.487 0L2.506 15.531.211 22.617c-.21.646.02 1.354.568 1.754l19.866 14.476L40.51 24.371c.548-.4.777-1.108.568-1.754"/>
        <path fill="#E24329" d="M20.645 38.847l7.553-23.316H13.092z"/>
        <path fill="#FC6D26" d="M20.645 38.847l-7.553-23.315H2.506z"/>
        <path fill="#FCA326" d="M2.506 15.532L.211 22.617c-.21.646.02 1.354.568 1.754l19.866 14.476L2.506 15.532z"/>
        <path fill="#E24329" d="M2.506 15.532h10.586L8.542 1.489c-.234-.723-1.253-.723-1.487 0L2.506 15.532z"/>
        <path fill="#FC6D26" d="M20.645 38.847l7.553-23.315h10.585z"/>
        <path fill="#FCA326" d="M38.783 15.532l2.296 7.085c.21.646-.02 1.354-.568 1.754L20.645 38.847l18.138-23.315z"/>
        <path fill="#E24329" d="M38.783 15.532H28.198l4.55-14.043c.233-.723 1.252-.723 1.486 0l4.55 14.043z"/>
    </g>
</svg>
