<svg xmlns="http://www.w3.org/2000/svg" xmlns:xlink="http://www.w3.org/1999/xlink" width="185" height="40" viewBox="0 0 185 40">
    <defs>
        <path id="a" d="M.136 9.121a10.009 10.009 0 0 0 .002.912c-.004.078-.012.155-.012.234V25.63c0 2.938 2.398 5.342 5.329 5.342h8.02c2.93 0 5.329-2.404 5.329-5.342V10.267c0-.09-.01-.176-.014-.264a9.12 9.12 0 0 0 .001-.882C18.565 4.153 14.475.196 9.464.196 4.452.196.362 4.153.136 9.12z"/>
        <path id="c" d="M.136 9.121a10.009 10.009 0 0 0 .002.912c-.004.078-.012.155-.012.234V25.63c0 2.938 2.398 5.342 5.329 5.342h8.02c2.93 0 5.329-2.404 5.329-5.342V10.267c0-.09-.01-.176-.014-.264a9.12 9.12 0 0 0 .001-.882C18.565 4.153 14.475.196 9.464.196 4.452.196.362 4.153.136 9.12z"/>
        <path id="e" d="M.136 9.121a10.009 10.009 0 0 0 .002.912c-.004.078-.012.155-.012.234V25.63c0 2.938 2.398 5.342 5.329 5.342h8.02c2.93 0 5.329-2.404 5.329-5.342V10.267c0-.09-.01-.176-.014-.264a9.12 9.12 0 0 0 .001-.882C18.565 4.153 14.475.196 9.464.196 4.452.196.362 4.153.136 9.12z"/>
    </defs>
    <g fill="none" fill-rule="evenodd">
        <path fill="#F7D186" d="M9.351 12.989a2.344 2.344 0 0 0-2.34 2.346v22.08a2.343 2.343 0 0 0 2.34 2.346c1.293 0 2.341-1.05 2.341-2.346v-22.08a2.344 2.344 0 0 0-2.34-2.346"/>
        <path fill="#FF9234" d="M18.744 10.095a9.554 9.554 0 0 0 0-.882C18.52 4.245 14.43.287 9.418.287 4.406.287.316 4.245.09 9.213a9.533 9.533 0 0 0 .001.912c-.003.078-.011.155-.011.234v15.363c0 2.938 2.398 5.342 5.329 5.342h8.02c2.93 0 5.328-2.404 5.328-5.342V10.359c0-.09-.009-.176-.013-.264"/>
        <g transform="translate(0 .092)">
            <mask id="b" fill="#fff">
                <use xlink:href="#a"/>
            </mask>
            <path fill="#FFCD3C" d="M24.4 9.414L1.237 32.632l-6.86-6.877L17.539 2.537z" mask="url(#b)"/>
        </g>
        <g transform="translate(0 .092)">
            <mask id="d" fill="#fff">
                <use xlink:href="#c"/>
            </mask>
            <path fill="#F3807B" d="M17.518 2.515L-5.644 25.733l-8.536-8.557L8.98-6.042z" mask="url(#d)"/>
        </g>
        <g transform="translate(0 .092)">
            <mask id="f" fill="#fff">
                <use xlink:href="#e"/>
            </mask>
            <path fill="#35D0BA" d="M31.282 16.313L8.12 39.53l-6.86-6.877L24.422 9.436z" mask="url(#f)"/>
        </g>
        <g>
            <path fill="#D8AE64" d="M7.646 31.09l4.06 4.07v-4.104l-4.06.034"/>
            <path fill="#FFF" d="M38.892 28.558c-5.969 0-10.8-4.873-10.8-10.856 0-5.953 4.831-10.826 10.8-10.826a10.78 10.78 0 0 1 8.122 3.702c.646.77.584 1.881-.154 2.529-.738.678-1.876.585-2.523-.155a7.23 7.23 0 0 0-5.445-2.467c-3.97 0-7.23 3.239-7.23 7.217 0 4.01 3.26 7.248 7.23 7.248 2.092 0 4.06-.895 5.445-2.468.647-.74 1.785-.832 2.523-.154.738.648.8 1.759.154 2.53a10.78 10.78 0 0 1-8.122 3.7M59.044 13.724c0 .986-.8 1.788-1.816 1.788-1.969 0-3.446 1.604-3.446 3.794v7.464c0 .986-.8 1.788-1.784 1.788a1.788 1.788 0 0 1-1.784-1.788V13.353c0-.987.8-1.788 1.784-1.788.83 0 1.507.554 1.723 1.326a6.88 6.88 0 0 1 3.507-.956c1.016 0 1.816.802 1.816 1.789M68.12 15.235c-2.708 0-4.892 2.22-4.892 4.934 0 2.684 2.184 4.905 4.892 4.905 2.707 0 4.891-2.221 4.891-4.905 0-2.714-2.184-4.934-4.891-4.934m0 13.416c-4.677 0-8.461-3.824-8.461-8.482 0-4.688 3.784-8.512 8.46-8.512 4.677 0 8.492 3.824 8.492 8.512 0 4.658-3.815 8.482-8.491 8.482M79.565 25.443a1.772 1.772 0 0 1 .86-2.375 1.755 1.755 0 0 1 2.37.864c.246.494.923 1.049 2.123 1.049 1.661 0 2.246-1.018 2.246-1.697 0-.925-.246-1.203-2.646-1.82-1.077-.246-2.185-.523-3.138-1.14-1.292-.864-2-2.16-2-3.763 0-1.264.554-2.53 1.507-3.454 1.016-.988 2.43-1.542 4.03-1.542 2.278 0 4.216 1.11 5.046 2.93.431.894.031 1.942-.86 2.374a1.763 1.763 0 0 1-2.37-.863c-.184-.401-.769-.864-1.815-.864-1.415 0-1.939.894-1.939 1.42 0 .616.124.862 2.4 1.448 2 .494 5.353 1.326 5.353 5.274 0 1.326-.553 2.653-1.538 3.64-.769.74-2.123 1.634-4.276 1.634-2.43 0-4.492-1.203-5.353-3.115M93.686 25.443a1.772 1.772 0 0 1 .861-2.375 1.755 1.755 0 0 1 2.37.864c.246.494.923 1.049 2.122 1.049 1.662 0 2.246-1.018 2.246-1.697 0-.925-.246-1.203-2.646-1.82-1.076-.246-2.184-.523-3.138-1.14-1.292-.864-2-2.16-2-3.763 0-1.264.554-2.53 1.508-3.454 1.015-.988 2.43-1.542 4.03-1.542 2.277 0 4.216 1.11 5.046 2.93.43.894.03 1.942-.861 2.374a1.764 1.764 0 0 1-2.37-.863c-.184-.401-.769-.864-1.815-.864-1.415 0-1.938.894-1.938 1.42 0 .616.123.862 2.4 1.448 2 .494 5.353 1.326 5.353 5.274 0 1.326-.553 2.653-1.538 3.64-.77.74-2.123 1.634-4.277 1.634-2.43 0-4.492-1.203-5.353-3.115M120.176 20.046c0-2.837-1.877-4.904-4.492-4.904-2.585 0-4.461 2.067-4.461 4.904 0 2.838 1.876 4.904 4.46 4.904 2.616 0 4.493-2.066 4.493-4.904m3.568 0c0 2.282-.769 4.38-2.215 5.953a7.855 7.855 0 0 1-5.845 2.56 8.011 8.011 0 0 1-4.461-1.358v7.279c0 .987-.831 1.788-1.816 1.788a1.787 1.787 0 0 1-1.784-1.788V13.353c0-.987.8-1.788 1.784-1.788.831 0 1.57.585 1.754 1.387a8.068 8.068 0 0 1 4.523-1.387c2.277 0 4.338.894 5.845 2.529 1.446 1.572 2.215 3.7 2.215 5.952M128.452 28.558a1.788 1.788 0 0 1-1.785-1.788V8.696c0-.987.8-1.789 1.785-1.789.984 0 1.815.802 1.815 1.79V26.77c0 .986-.83 1.788-1.815 1.788M145.742 20.077c0-2.868-1.907-4.935-4.492-4.935-2.615 0-4.492 2.067-4.492 4.935 0 2.837 1.877 4.903 4.492 4.903 2.585 0 4.492-2.066 4.492-4.903m3.57-6.724V26.77c0 .986-.801 1.788-1.785 1.788-.862 0-1.57-.585-1.754-1.388a7.923 7.923 0 0 1-4.523 1.388c-2.276 0-4.338-.894-5.846-2.56-1.415-1.542-2.214-3.67-2.214-5.921 0-2.282.8-4.41 2.214-5.953 1.508-1.665 3.57-2.56 5.846-2.56 1.662 0 3.23.494 4.523 1.388a1.786 1.786 0 0 1 1.754-1.387c.984 0 1.784.801 1.784 1.788M166.448 18.936v7.833c0 .988-.8 1.79-1.816 1.79a1.788 1.788 0 0 1-1.784-1.79v-7.833c0-1.82-1.016-3.794-3.292-3.794-2.061 0-3.6 1.635-3.6 3.794v7.833c0 .988-.8 1.79-1.784 1.79a1.788 1.788 0 0 1-1.785-1.79V13.353a1.788 1.788 0 0 1 3.415-.74c1.077-.679 2.37-1.048 3.754-1.048 3.907 0 6.892 3.176 6.892 7.37M173.031 18.319h8.092c-.616-2.128-2.308-3.115-4-3.115-1.661 0-3.446.987-4.092 3.115m4.246 10.393c-2.277 0-4.338-.987-5.846-2.652-1.445-1.542-2.215-3.67-2.215-5.921 0-4.874 3.415-8.513 7.907-8.513 4.523 0 7.815 3.578 7.815 8.513 0 .986-.8 1.788-1.816 1.788h-10.06c.615 1.882 2.215 3.208 4.215 3.208 1.204 0 2.227-.255 2.958-.958.221-.214.416-.468.58-.77a1.804 1.804 0 0 1 2.461-.616 1.814 1.814 0 0 1 .616 2.467c-1.385 2.499-3.784 3.454-6.615 3.454"/>
        </g>
    </g>
</svg>
