<svg xmlns="http://www.w3.org/2000/svg" width="197" height="50" viewBox="0 0 197 50">
    <g fill="none" fill-rule="nonzero">
        <path fill="#0DADEA" d="M5 16.44l11.06-1.41v9.894H5.001L5 16.44zm11.06 9.75v9.78L5.002 34.565V26.19H16.06zm1.223-11.315L32 13v11.924H17.283V14.875zM32 26.19V38l-14.717-1.874V26.19H32z"/>
        <path fill="#00ADEF" d="M55.136 32.706h-2.467v-9.414c0-.772.05-1.714.147-2.83h-.042c-.154.635-.29 1.091-.407 1.37l-4.473 10.874H46.18l-4.483-10.793c-.125-.318-.258-.801-.397-1.45h-.041c.056.581.083 1.531.083 2.85v9.393h-2.299V18.159h3.5l3.94 9.688c.3.744.495 1.299.585 1.664h.053c.257-.765.466-1.333.627-1.705l4.013-9.647h3.375v14.547zm4.63-12.569a1.48 1.48 0 0 1-1.02-.375 1.218 1.218 0 0 1-.423-.954c0-.385.141-.706.424-.964a1.463 1.463 0 0 1 1.019-.385c.41 0 .76.129 1.045.385.285.258.429.578.429.964 0 .365-.144.678-.43.938-.286.261-.634.391-1.044.391zm1.2 12.569h-2.423V22.318h2.424v10.388zm10.838-.477c-.856.48-1.87.72-3.041.72-1.588 0-2.87-.482-3.846-1.445-.975-.963-1.463-2.213-1.463-3.749 0-1.71.524-3.085 1.573-4.123 1.048-1.038 2.45-1.558 4.206-1.558.975 0 1.836.166 2.581.498v2.19c-.746-.54-1.54-.81-2.382-.81-1.024 0-1.864.336-2.518 1.009-.655.672-.983 1.553-.983 2.642 0 1.075.307 1.924.924 2.546.617.622 1.444.933 2.482.933.871 0 1.693-.3 2.466-.902l.001 2.049zm8.621-7.669c-.293-.224-.714-.335-1.265-.335-.717 0-1.317.314-1.797.944-.481.628-.722 1.484-.722 2.566v4.97h-2.425V22.319h2.425v2.14h.041c.237-.73.601-1.3 1.092-1.709.491-.409 1.04-.614 1.646-.614.44 0 .774.065 1.004.193l.001 2.232zm6.48 8.389c-1.652 0-2.97-.485-3.956-1.456-.986-.97-1.48-2.257-1.48-3.86 0-1.744.514-3.107 1.542-4.088 1.028-.98 2.412-1.47 4.155-1.47 1.672 0 2.974.477 3.908 1.43.934.954 1.4 2.276 1.4 3.966 0 1.657-.503 2.984-1.51 3.981-1.006.998-2.36 1.497-4.06 1.497zm.114-8.998c-.947 0-1.697.322-2.246.963-.551.643-.826 1.529-.826 2.658 0 1.089.28 1.946.836 2.571.557.625 1.303.938 2.237.938.955 0 1.689-.308 2.2-.922.511-.616.768-1.492.768-2.628 0-1.143-.255-2.025-.768-2.648-.512-.62-1.246-.932-2.2-.932zm7.264 8.43v-2.18c.906.67 1.906 1.004 2.998 1.004 1.464 0 2.195-.42 2.195-1.258a.972.972 0 0 0-.188-.603 1.752 1.752 0 0 0-.507-.441 4.157 4.157 0 0 0-.752-.345c-.29-.102-.612-.217-.967-.345a10.335 10.335 0 0 1-1.186-.538 3.573 3.573 0 0 1-.878-.644 2.405 2.405 0 0 1-.527-.817 2.916 2.916 0 0 1-.178-1.065c0-.5.122-.941.366-1.323.245-.383.571-.704.982-.963a4.78 4.78 0 0 1 1.4-.589 6.59 6.59 0 0 1 1.62-.197c.99 0 1.874.145 2.654.435v2.06c-.752-.501-1.616-.752-2.591-.752-.307 0-.584.031-.831.091s-.459.145-.633.254c-.174.108-.31.237-.407.39a.91.91 0 0 0-.146.502c0 .223.048.413.146.568.098.156.242.293.434.411.19.119.421.227.69.324.268.098.576.206.925.32.422.166.835.352 1.238.558.366.19.678.404.936.644.254.234.457.518.596.832.139.314.209.688.209 1.12 0 .528-.125.988-.377 1.38-.25.393-.586.717-1.003.974a4.759 4.759 0 0 1-1.447.572 7.703 7.703 0 0 1-1.73.188c-1.171 0-2.185-.188-3.041-.567zm14.651.568c-1.65 0-2.97-.485-3.956-1.456-.986-.97-1.478-2.257-1.478-3.86 0-1.744.514-3.107 1.542-4.088 1.027-.98 2.412-1.47 4.153-1.47 1.673 0 2.975.477 3.909 1.43.933.954 1.4 2.276 1.4 3.966 0 1.657-.503 2.984-1.51 3.981-1.007.998-2.36 1.497-4.06 1.497zm.115-8.998c-.948 0-1.697.322-2.248.963-.55.643-.825 1.529-.825 2.658 0 1.089.279 1.946.836 2.571.557.625 1.303.938 2.237.938.954 0 1.687-.308 2.2-.922.512-.616.768-1.492.768-2.628 0-1.143-.256-2.025-.768-2.648-.513-.62-1.246-.932-2.2-.932zm13.983-4.706a2.258 2.258 0 0 0-1.119-.274c-1.178 0-1.766.646-1.766 1.937v1.41h2.488v1.847h-2.477v8.54h-2.425v-8.54h-1.828v-1.846h1.828v-1.685c0-1.095.37-1.959 1.108-2.591.739-.633 1.662-.949 2.77-.949.6 0 1.073.064 1.42.193v1.958zm6.99 13.35c-.473.23-1.097.345-1.87.345-2.076 0-3.114-.968-3.114-2.901v-5.873h-1.787V22.32h1.787v-2.405l2.425-.669v3.074h2.56v1.846h-2.56v5.193c0 .615.115 1.055.345 1.318.23.264.613.396 1.15.396.41 0 .766-.114 1.065-.345v1.866zm20.567.11h-2.727l-1.348-3.702h-5.894l-1.295 3.703h-2.718l5.612-14.547h2.8l5.57 14.547zm-4.734-5.67l-2.079-5.802a6.613 6.613 0 0 1-.198-.913h-.041a5.76 5.76 0 0 1-.21.913l-2.058 5.802h4.586zm14.432-3.733l-5.78 7.567h5.759v1.837h-9.155v-.883l5.904-7.669h-5.34v-1.836h8.612v.984zm11.38 9.404h-2.424v-1.644h-.041c-.704 1.258-1.798 1.887-3.281 1.887-2.53 0-3.794-1.474-3.794-4.423v-6.208h2.425v5.965c0 1.866.741 2.8 2.226 2.8.717 0 1.307-.257 1.771-.771.464-.514.695-1.187.695-2.019v-5.975h2.425l-.002 10.388zm9.374-8.146c-.293-.224-.714-.335-1.265-.335-.717 0-1.317.314-1.797.944-.481.628-.722 1.484-.722 2.566v4.97h-2.424V22.319h2.424v2.14h.041c.237-.73.6-1.3 1.092-1.709.492-.409 1.04-.614 1.646-.614.438 0 .774.065 1.003.193l.002 2.232zm10.795 3.59h-7.294c.027.96.332 1.701.914 2.223.582.52 1.38.78 2.399.78A5.398 5.398 0 0 0 191 30.16v1.896c-.975.595-2.265.893-3.867.893-1.575 0-2.809-.472-3.705-1.415-.895-.944-1.342-2.27-1.342-3.982 0-1.616.492-2.933 1.48-3.951.985-1.018 2.21-1.527 3.673-1.527s2.594.457 3.396 1.37c.8.912 1.202 2.18 1.202 3.804l-.001.903zm-2.34-1.663c-.011-.845-.213-1.503-.617-1.972-.405-.47-.962-.705-1.673-.705-.696 0-1.287.247-1.77.74-.485.494-.783 1.14-.894 1.938h4.953z"/>
    </g>
</svg>
