<svg xmlns="http://www.w3.org/2000/svg" xmlns:xlink="http://www.w3.org/1999/xlink" width="179" height="38" viewBox="0 0 179 38">
    <defs>
        <path id="prefix__a" d="M0.515 0.381L10.397 0.381 10.397 11.601 0.515 11.601z"/>
        <path id="prefix__c" d="M0 25.243L175.716 25.243 175.716 0.274 0 0.274z"/>
    </defs>
    <g fill="none" fill-rule="evenodd">
        <path fill="#737373" d="M130.876 6.107l5.815 14.657h-2.951l-1.366-3.638h-6.085l-1.314 3.638h-2.93l5.815-14.657h3.016zm-1.593 2.72l-2.284 6.172h4.63l-2.27-6.173h-.076zM137.899 10.179L146.423 10.179 146.423 11.177 140.828 18.788 146.455 18.788 146.455 20.764 137.505 20.764 137.505 19.58 143.017 12.156 137.899 12.156z" transform="translate(1.808 5.429)"/>
        <g transform="translate(1.808 5.429) translate(0 .407)">
            <path fill="#737373" d="M157.436 9.51v10.74h-2.56v-1.41h-.04c-.335.487-.785.869-1.346 1.143-.563.275-1.193.413-1.893.413-1.25 0-2.202-.354-2.855-1.06-.653-.707-.98-1.806-.98-3.297v-6.53h2.569v6.227c0 .906.178 1.586.54 2.042.358.456.901.685 1.628.685.72 0 1.296-.252 1.73-.757.433-.505.648-1.166.648-1.98V9.51h2.559zM164.722 9.332c.202 0 .385.014.546.041.16.028.297.063.408.105v2.56c-.133-.097-.325-.19-.581-.277-.255-.087-.565-.13-.927-.13-.622 0-1.149.26-1.578.782-.428.524-.644 1.328-.644 2.414v5.423h-2.537V9.51h2.537v1.692h.042c.23-.585.58-1.043 1.047-1.374.468-.33 1.031-.496 1.687-.496"/>
            <g transform="translate(165.32 8.91)">
                <mask id="prefix__b" fill="#fff">
                    <use xlink:href="#prefix__a"/>
                </mask>
                <path fill="#737373" d="M9.527 8.634v2.08c-.418.264-.967.478-1.645.641-.678.165-1.4.246-2.17.246-1.642 0-2.918-.484-3.83-1.452C.971 9.181.515 7.834.515 6.106c0-1.663.488-3.035 1.462-4.111C2.952.918 4.187.38 5.68.38c1.49 0 2.647.454 3.476 1.363.826.909 1.24 2.165 1.24 3.766v1.222H3.02c.112 1.08.46 1.833 1.043 2.263.581.428 1.336.643 2.257.643.608 0 1.188-.093 1.74-.277.552-.185 1.041-.427 1.467-.727zM7.902 4.883c0-.835-.193-1.472-.581-1.911-.387-.439-.934-.659-1.64-.659-.607 0-1.153.219-1.634.654-.483.436-.804 1.074-.964 1.916h4.82z" mask="url(#prefix__b)"/>
            </g>
            <path fill="#737373" d="M48.822 5.268v14.981h-2.61V8.506h-.042L41.508 20.25h-1.73L35 8.506h-.031V20.25h-2.41V5.268h3.741l4.317 11.105h.063l4.559-11.105h3.584zm2.182 1.139c0-.418.152-.768.456-1.05.303-.283.665-.423 1.085-.423.446 0 .817.144 1.11.432.294.29.44.637.44 1.04 0 .411-.15.756-.45 1.034-.3.28-.667.419-1.1.419-.434 0-.799-.141-1.095-.423-.298-.282-.446-.625-.446-1.03zm.262 13.842h2.536V9.51h-2.536v10.74zm10.227-1.839c.377 0 .793-.087 1.247-.26.454-.175.874-.404 1.258-.69v2.35c-.405.23-.865.404-1.378.523-.513.118-1.077.178-1.693.178-1.586 0-2.874-.5-3.866-1.5-.993-.998-1.489-2.275-1.489-3.828 0-1.728.508-3.15 1.52-4.269 1.013-1.117 2.449-1.676 4.308-1.676.475 0 .954.061 1.44.183.486.12.872.262 1.158.423v2.423c-.391-.285-.792-.506-1.2-.663-.409-.157-.827-.235-1.252-.235-1 0-1.806.324-2.421.972-.615.647-.922 1.522-.922 2.622 0 1.086.295 1.934.886 2.539.59.605 1.392.908 2.404.908zm9.725-9.078c.203 0 .384.014.545.041.16.029.297.063.408.105v2.56c-.132-.098-.326-.19-.58-.277-.257-.088-.566-.13-.928-.13-.622 0-1.148.26-1.578.783-.428.522-.644 1.327-.644 2.413v5.422h-2.536V9.51h2.536v1.693h.042c.23-.585.58-1.043 1.049-1.374.466-.33 1.03-.496 1.686-.496zm1.091 5.704c0-1.776.503-3.183 1.509-4.22 1.006-1.039 2.403-1.557 4.192-1.557 1.683 0 2.999.5 3.945 1.5.947 1 1.42 2.348 1.42 4.048 0 1.741-.503 3.127-1.509 4.157-1.006 1.031-2.375 1.547-4.108 1.547-1.67 0-2.996-.489-3.977-1.468-.981-.979-1.472-2.314-1.472-4.007zm2.64-.084c0 1.122.256 1.979.766 2.57.51.593 1.24.888 2.19.888.922 0 1.625-.295 2.106-.888.482-.591.724-1.469.724-2.633 0-1.155-.25-2.028-.75-2.616-.5-.588-1.2-.883-2.101-.883-.93 0-1.65.308-2.164.925-.514.616-.77 1.495-.77 2.637zm12.198-2.621c0 .361.115.645.346.851.23.205.74.465 1.53.778 1.013.404 1.724.86 2.133 1.364.408.504.612 1.116.612 1.833 0 1.01-.388 1.822-1.168 2.434-.778.614-1.833.92-3.16.92-.446 0-.94-.054-1.482-.162-.542-.109-1.001-.246-1.378-.414V17.45c.461.32.958.574 1.488.763.53.188 1.013.281 1.446.281.573 0 .996-.08 1.268-.24.272-.16.408-.428.408-.804 0-.349-.14-.643-.424-.883-.282-.24-.818-.518-1.609-.83-.935-.39-1.6-.83-1.99-1.317-.391-.488-.587-1.107-.587-1.86 0-.968.386-1.764 1.157-2.388.773-.623 1.773-.934 3.003-.934.377 0 .8.041 1.268.125.469.084.86.192 1.174.324v2.403c-.335-.223-.727-.414-1.174-.575-.446-.16-.891-.24-1.33-.24-.482 0-.859.094-1.127.282-.27.189-.404.446-.404.774zm5.712 2.705c0-1.776.502-3.183 1.508-4.22 1.007-1.039 2.403-1.557 4.192-1.557 1.684 0 3 .5 3.946 1.5.947 1 1.42 2.348 1.42 4.048 0 1.741-.504 3.127-1.509 4.157-1.006 1.031-2.376 1.547-4.108 1.547-1.67 0-2.996-.489-3.977-1.468-.982-.979-1.472-2.314-1.472-4.007zm2.64-.084c0 1.122.256 1.979.765 2.57.51.593 1.24.888 2.19.888.922 0 1.625-.295 2.106-.888.482-.591.723-1.469.723-2.633 0-1.155-.248-2.028-.749-2.616-.499-.588-1.2-.883-2.1-.883-.93 0-1.65.308-2.165.925-.513.616-.77 1.495-.77 2.637zm16.838-3.374h-3.777v8.671h-2.566v-8.67h-1.803v-2.07h1.803V8.015c0-1.128.367-2.052 1.105-2.773.737-.722 1.682-1.082 2.835-1.082.307 0 .579.016.817.048.238.03.447.077.629.14v2.184c-.084-.049-.231-.108-.44-.178-.21-.07-.452-.104-.723-.104-.531 0-.94.165-1.227.496-.286.331-.43.82-.43 1.468v1.295h3.777V7.096l2.547-.773v3.186h2.567v2.07h-2.567v5.024c0 .663.12 1.129.362 1.4.24.272.62.407 1.137.407.146 0 .324-.034.53-.104.205-.07.384-.153.538-.25v2.09c-.16.09-.428.173-.801.25-.374.076-.743.115-1.106.115-1.069 0-1.87-.284-2.405-.853-.534-.566-.802-1.421-.802-2.564v-5.516z"/>
            <mask id="prefix__d" fill="#fff">
                <use xlink:href="#prefix__c"/>
            </mask>
            <path fill="#F25022" d="M0.001 12.143L11.905 12.143 11.905 0.276 0.001 0.276z" mask="url(#prefix__d)"/>
            <path fill="#7FBA00" d="M13.141 12.142L25.044 12.142 25.044 0.275 13.141 0.275z" mask="url(#prefix__d)"/>
            <path fill="#00A4EF" d="M0 25.243L11.903 25.243 11.903 13.376 0 13.376z" mask="url(#prefix__d)"/>
            <path fill="#FFB900" d="M13.141 25.243L25.044 25.243 25.044 13.376 13.141 13.376z" mask="url(#prefix__d)"/>
        </g>
    </g>
</svg>
