<svg xmlns="http://www.w3.org/2000/svg" width="173" height="50" viewBox="0 0 173 50">
    <g fill="none" fill-rule="evenodd">
        <path d="M0 0L173 0 173 50 0 50z"/>
        <path fill="#F65314" d="M7.767 7.746L24.008 7.746 24.007 23.944 7.767 23.944z"/>
        <path fill="#7FBB41" d="M25.42 7.746h16.241l-.001 16.198H25.422c-.002-5.4-.001-10.798-.001-16.198z"/>
        <path fill="#787878" d="M151.407 14.232c1.464-.952 3.356-1.04 5.006-.587.014.98.001 1.96.006 2.94-.784-.344-1.707-.57-2.531-.23-.655.259-1.044.93-1.146 1.6-.123.851-.043 1.714-.064 2.57 1.675.003 3.35 0 5.025.001.013-1.086-.013-2.173.014-3.26 1.14-.323 2.265-.687 3.399-1.028.01 1.431-.014 2.864.012 4.296 1.132-.016 2.266-.004 3.399-.008v2.787c-1.137-.047-2.275-.013-3.412-.016.005 1.602 0 3.204.002 4.807.018.887-.048 1.779.056 2.663.063.522.253 1.1.742 1.369.82.458 1.859.258 2.612-.245v2.814c-.982.426-2.079.556-3.14.48-1.008-.074-2.05-.44-2.708-1.24-.76-.905-.955-2.13-.97-3.275-.009-2.458 0-4.917-.004-7.377-1.676-.001-3.352-.002-5.027 0-.002 3.86 0 7.718 0 11.577h-3.435c0-3.858-.005-7.714.001-11.572-.796-.015-1.593.004-2.39-.013.003-.915.007-1.832-.002-2.75.793-.017 1.587-.01 2.381-.004.058-1.218-.127-2.47.237-3.657.308-1.071.993-2.038 1.937-2.642zm-73.537.2c.693-.105 1.442.132 1.901.673.538.593.638 1.536.239 2.23-.441.78-1.427 1.143-2.286.956-.892-.16-1.635-.989-1.596-1.912-.025-.972.788-1.838 1.742-1.947zm-26.322.425h4.995c1.555 3.945 3.12 7.885 4.678 11.83.397.986.77 1.984 1.186 2.962 2-4.928 4.03-9.845 6.014-14.78 1.602-.026 3.204-.006 4.806-.01-.004 6.67-.002 13.34 0 20.01-1.157-.003-2.312.01-3.467-.007.012-4.922 0-9.844.006-14.767.002-.221-.006-.443-.021-.663-.068.102-.128.21-.18.32-1.985 5.038-4.008 10.062-5.982 15.105-.822.03-1.645.002-2.468.015-2.048-5.038-4.07-10.088-6.107-15.13-.054-.105-.111-.207-.173-.305-.042 2.157-.007 4.315-.018 6.472 0 2.987-.002 5.973 0 8.96-1.09.003-2.18 0-3.269.001-.001-6.671-.002-13.342 0-20.013zm35.775 5.656c1.657-.472 3.445-.453 5.102.015.341.096.672.228.98.408-.02 1.093 0 2.187-.011 3.282-1.108-.846-2.513-1.381-3.92-1.204-1.119.1-2.185.68-2.853 1.583-.86 1.118-1.058 2.604-.91 3.973.11 1.07.554 2.141 1.388 2.851.866.77 2.08 1.042 3.213.956 1.12-.129 2.177-.603 3.082-1.264.01 1.036-.005 2.072.007 3.108-1.404.835-3.087 1.05-4.694.971-1.645-.087-3.284-.709-4.475-1.864-1.293-1.246-1.995-3.022-2.078-4.801-.084-1.85.293-3.78 1.358-5.325.893-1.318 2.29-2.25 3.81-2.689zm37.518-.218c1.588-.28 3.25-.075 4.753.495.002 1.052 0 2.103.001 3.154-1.05-.722-2.333-1.11-3.607-1.065-.642.025-1.348.297-1.64.907-.233.603-.072 1.394.497 1.755.974.651 2.136.928 3.145 1.51.794.447 1.565 1.03 1.968 1.87.756 1.575.436 3.655-.894 4.83-1.27 1.185-3.098 1.513-4.78 1.45-1.194-.077-2.394-.313-3.491-.801.005-1.106-.007-2.212.005-3.317.924.67 1.989 1.149 3.116 1.344.785.127 1.64.133 2.37-.218.7-.348.826-1.342.41-1.95-.388-.469-.96-.726-1.499-.98-1.011-.455-2.075-.835-2.964-1.516-.625-.487-1.098-1.173-1.283-1.947-.275-1.141-.189-2.427.475-3.424.758-1.161 2.075-1.858 3.418-2.097zm-23.757.452c.948-.57 2.153-.617 3.188-.269-.005 1.145 0 2.289-.003 3.433-.677-.438-1.522-.626-2.321-.544-.976.11-1.748.858-2.148 1.716-.436.908-.518 1.935-.49 2.928v6.86h-3.386c-.003-4.78.004-9.558-.003-14.337 1.13-.014 2.26-.009 3.391-.003-.005.82 0 1.641-.003 2.463.367-.893.914-1.76 1.775-2.248zm-24.643-.216c1.138-.005 2.278-.016 3.417.006-.013 4.778 0 9.556-.006 14.333h-3.41c-.002-4.78.002-9.559-.001-14.339zm34.152-.265c1.648-.21 3.386-.116 4.917.58 1.327.598 2.403 1.705 3 3.03.635 1.41.79 2.994.682 4.523-.106 1.493-.575 2.99-1.51 4.176-.956 1.26-2.398 2.114-3.943 2.431-1.32.275-2.701.274-4.021-.003-1.58-.338-3.042-1.254-3.968-2.586-1.087-1.544-1.396-3.507-1.258-5.357.093-1.57.582-3.151 1.585-4.383 1.1-1.379 2.785-2.192 4.516-2.41zm1.024 2.724c-.821.046-1.65.323-2.26.89-.839.76-1.223 1.893-1.326 2.993-.115 1.21-.032 2.487.521 3.59.43.857 1.221 1.53 2.153 1.775.916.237 1.912.217 2.8-.123.758-.295 1.359-.919 1.687-1.656.496-1.095.545-2.325.484-3.505-.085-1.08-.392-2.21-1.186-2.99-.742-.75-1.84-1.042-2.873-.974zm26.35-2.729c1.715-.212 3.535-.097 5.099.693 1.364.681 2.422 1.912 2.95 3.336.413 1.09.558 2.265.534 3.425.003 1.732-.465 3.51-1.554 4.885-1.018 1.33-2.577 2.195-4.222 2.466-1.61.26-3.31.193-4.838-.408-1.549-.61-2.836-1.852-3.49-3.383-.679-1.56-.75-3.315-.539-4.982.222-1.667.978-3.296 2.266-4.405 1.055-.925 2.413-1.449 3.795-1.627zm.928 2.732c-.95.053-1.893.462-2.507 1.201-.673.793-.962 1.838-1.04 2.857-.081 1.052 0 2.141.407 3.124.338.826.982 1.543 1.81 1.894.77.331 1.636.39 2.458.267.766-.113 1.508-.478 2.007-1.079.495-.597.756-1.35.888-2.105.166-1.013.168-2.056-.029-3.065-.174-.86-.555-1.713-1.243-2.283-.745-.655-1.78-.879-2.75-.811z"/>
        <path fill="#00A1F1" d="M7.767 25.352c5.414.002 10.827 0 16.24.002.002 5.399 0 10.797 0 16.195H7.768V25.352z"/>
        <path fill="#FB0" d="M25.421 25.353c5.413-.002 10.827 0 16.24 0v16.196h-16.24c0-5.399-.002-10.798 0-16.196z"/>
    </g>
</svg>
