<svg xmlns="http://www.w3.org/2000/svg" width="50" height="52" viewBox="0 0 50 52">
    <g fill="none">
        <path fill="#E00" d="M33.368 21.964c3.284 0 8.04-.688 8.04-4.63 0-.292-.026-.61-.079-.9L39.385 7.86c-.447-1.88-.84-2.753-4.125-4.393C32.71 2.144 27.167 0 25.512 0c-1.524 0-1.97 1.985-3.81 1.985-1.76 0-3.047-1.482-4.703-1.482-1.576 0-2.6 1.085-3.389 3.308 0 0-2.207 6.271-2.496 7.198-.053.158-.053.344-.053.502 0 2.462 9.538 10.453 22.307 10.453m8.54-3.016c.446 2.17.446 2.408.446 2.672 0 3.705-4.125 5.77-9.564 5.77-12.296 0-23.042-7.252-23.042-12.041 0-.662.131-1.324.394-1.932C5.728 13.655 0 14.449 0 19.53c0 8.336 19.6 18.603 35.102 18.603C47.004 38.133 50 32.708 50 28.421c.026-3.36-2.864-7.198-8.093-9.473"/>
        <path fill="#000" d="M41.914 18.822c.447 2.112.447 2.344.447 2.602 0 3.607-4.13 5.616-9.573 5.616-12.309 0-23.066-7.059-23.066-11.722 0-.644.132-1.288.395-1.88l.973-2.345c-.053.155-.053.335-.053.49 0 2.37 9.547 10.15 22.33 10.15 3.287 0 8.047-.67 8.047-4.508 0-.284-.026-.593-.079-.876l.579 2.473zM45.772 49.602c0 1.59.92 2.344 2.6 2.344.525 0 1.024-.08 1.55-.215v-1.833c-.316.108-.657.162-.999.162-.682 0-.945-.215-.945-.889v-2.802H50v-1.886h-2.022v-2.398l-2.206.485v1.913h-1.47v1.886h1.444v3.233h.026zm-6.854.027c0-.485.473-.727 1.208-.727.446 0 .867.053 1.313.161v.943c-.42.243-.893.35-1.365.35-.736.027-1.156-.242-1.156-.727m.683 2.344c.788 0 1.392-.162 1.996-.566v.458h2.18v-4.742c0-1.805-1.182-2.775-3.152-2.775-1.103 0-2.18.27-3.361.808l.787 1.67c.84-.35 1.55-.592 2.18-.592.893 0 1.366.35 1.366 1.105v.35c-.526-.135-1.077-.215-1.629-.215-1.864 0-2.967.808-2.967 2.209-.026 1.293.998 2.29 2.6 2.29m-11.975-.135h2.337v-3.826h3.913v3.826h2.337v-9.78h-2.337v3.745h-3.913v-3.745h-2.337v9.78zm-8.902-3.69c0-1.052.814-1.86 1.89-1.86.552 0 1.103.189 1.524.566v2.586c-.42.405-.946.62-1.524.593-1.05 0-1.89-.808-1.89-1.886m3.44 3.718h2.18V41.6l-2.206.485v2.775c-.552-.323-1.182-.485-1.839-.485-2.1 0-3.729 1.67-3.729 3.772-.026 2.075 1.602 3.772 3.598 3.8h.053c.682 0 1.365-.216 1.943-.648v.566zm-9.98-5.685c.684 0 1.288.458 1.498 1.186h-2.994c.21-.755.762-1.186 1.497-1.186m-3.73 1.994C8.456 50.33 10.164 52 12.37 52c1.208 0 2.1-.323 3.02-1.105l-1.445-1.32c-.341.35-.84.566-1.444.566-.762.027-1.47-.431-1.76-1.186h5.121v-.565c0-2.344-1.549-4.042-3.624-4.042-2.048-.054-3.729 1.617-3.781 3.718v.108m-3.782-4.041c.788 0 1.208.512 1.208 1.104 0 .593-.446 1.105-1.208 1.105h-2.31v-2.21h2.31zM0 51.838h2.337v-3.556h1.786l1.786 3.556h2.626l-2.101-3.906c1.077-.458 1.812-1.536 1.786-2.749 0-1.75-1.34-3.125-3.362-3.125H0v9.78z"/>
    </g>
</svg>
