<svg xmlns="http://www.w3.org/2000/svg" width="178" height="42" viewBox="0 0 178 42">
    <g fill="none">
        <path fill="#E00" d="M37.014 24.183c3.633 0 8.889-.747 8.889-5.057.01-.333-.02-.665-.09-.99l-2.164-9.374c-.5-2.062-.938-2.998-4.567-4.808-2.817-1.437-8.953-3.81-10.768-3.81-1.69 0-2.18 2.173-4.195 2.173-1.94 0-3.38-1.622-5.195-1.622-1.742 0-2.878 1.185-3.755 3.62 0 0-2.442 6.871-2.755 7.868-.05.183-.072.372-.064.562 0 2.67 10.54 11.427 24.664 11.427m9.446-3.297c.502 2.373.502 2.622.502 2.935 0 4.055-4.57 6.305-10.578 6.305-13.578.01-25.472-7.927-25.472-13.173 0-.73.149-1.453.439-2.123C6.467 15.062.145 15.93.145 21.499c0 9.118 21.66 20.356 38.809 20.356 13.148 0 16.464-5.932 16.464-10.616 0-3.684-3.194-7.867-8.952-10.364"/>
        <path fill="#000" d="M46.46 20.875c.502 2.373.502 2.622.502 2.935 0 4.055-4.57 6.305-10.578 6.305-13.578.01-25.472-7.927-25.472-13.173 0-.73.149-1.453.439-2.123l1.063-2.625c-.05.18-.07.365-.064.55 0 2.671 10.54 11.428 24.664 11.428 3.633 0 8.889-.748 8.889-5.058.01-.332-.02-.665-.09-.99l.647 2.751zM168.342 26.88c0 3.444 2.076 5.118 5.863 5.118 1.166-.029 2.324-.192 3.452-.486v-3.995c-.72.228-1.473.342-2.23.336-1.559 0-2.137-.486-2.137-1.95v-6.12h4.518V15.67h-4.518v-5.213l-4.936 1.065v4.148h-3.279v4.113h3.267v7.097zm-15.39.093c0-1.066 1.072-1.585 2.69-1.585.988.006 1.972.129 2.932.365v2.071c-.946.516-2.01.778-3.087.762-1.585 0-2.535-.608-2.535-1.613m1.51 5.086c1.742 0 3.148-.365 4.46-1.248v.976h4.884v-10.33c0-3.927-2.654-6.082-7.082-6.082-2.474 0-4.919.58-7.55 1.767l1.772 3.626c1.893-.793 3.484-1.28 4.887-1.28 2.032 0 3.084.79 3.084 2.407v.79c-1.197-.308-2.429-.462-3.665-.457-4.155 0-6.658 1.738-6.658 4.846 0 2.833 2.259 4.994 5.862 4.994m-26.842-.273h5.253V23.44h8.795v8.348h5.268V10.462h-5.247v8.195h-8.796v-8.195h-5.253l-.02 21.333zm-19.995-8.08c0-2.318 1.832-4.085 4.245-4.085 1.256-.025 2.475.421 3.415 1.251v5.634c-.92.867-2.15 1.332-3.415 1.292-2.38 0-4.245-1.767-4.245-4.081m7.727 8.072h4.887V9.396l-4.937 1.066v6.063c-1.256-.71-2.678-1.078-4.123-1.066-4.701 0-8.398 3.623-8.398 8.255-.027 2.195.831 4.31 2.382 5.867 1.55 1.558 3.664 2.429 5.865 2.417 1.558.008 3.077-.483 4.335-1.399l-.011 1.2zM92.92 19.407c1.556 0 2.869 1.005 3.389 2.558h-6.737c.488-1.602 1.71-2.558 3.348-2.558m-8.325 4.345c0 4.692 3.847 8.348 8.793 8.348 2.717 0 4.704-.733 6.75-2.44l-3.269-2.896c-.764.794-1.893 1.22-3.235 1.22-1.726.048-3.305-.968-3.972-2.558h11.513V24.2c0-5.119-3.45-8.803-8.153-8.803-2.234-.034-4.387.833-5.972 2.404-1.585 1.57-2.468 3.712-2.45 5.941m-8.522-8.803c1.743 0 2.718 1.095 2.718 2.407 0 1.313-.975 2.407-2.718 2.407h-5.195V14.94h5.195zM65.625 31.787h5.253v-7.769h3.998l4.033 7.769h5.88l-4.704-8.53c2.446-.993 4.042-3.369 4.03-6.002 0-3.838-3.022-6.793-7.549-6.793H65.625v21.325z"/>
    </g>
</svg>
