<svg xmlns="http://www.w3.org/2000/svg" width="20" height="20" viewBox="0 0 20 20">
    <g fill="none" fill-rule="evenodd">
        <g fill="#FFF" fill-rule="nonzero">
            <g>
                <g>
                    <g>
                        <path d="M4.258 2.129c0 1.145-.935 2.08-2.08 2.08-1.146 0-2.081-.935-2.081-2.08s.935-2.08 2.08-2.08h2.081v2.08zM5.306 2.129c0-1.145.936-2.08 2.081-2.08s2.08.935 2.08 2.08v5.21c0 1.145-.935 2.08-2.08 2.08s-2.08-.935-2.08-2.08v-5.21z" transform="translate(-335 -635) translate(315 625) translate(20 10) translate(0 10.484)"/>
                    </g>
                    <g>
                        <path d="M7.387 4.258c-1.145 0-2.08-.935-2.08-2.08 0-1.146.935-2.081 2.08-2.081s2.08.935 2.08 2.08v2.081h-2.08zM7.387 5.306c1.145 0 2.08.936 2.08 2.081s-.935 2.08-2.08 2.08h-5.21c-1.145 0-2.08-.935-2.08-2.08s.935-2.08 2.08-2.08h5.21z" transform="translate(-335 -635) translate(315 625) translate(20 10)"/>
                    </g>
                    <g>
                        <path d="M5.258 7.387c0-1.145.936-2.08 2.08-2.08 1.146 0 2.081.935 2.081 2.08s-.935 2.08-2.08 2.08h-2.08v-2.08zM4.21 7.387c0 1.145-.936 2.08-2.081 2.08s-2.08-.935-2.08-2.08v-5.21c0-1.145.935-2.08 2.08-2.08s2.08.935 2.08 2.08v5.21z" transform="translate(-335 -635) translate(315 625) translate(20 10) translate(10.484)"/>
                    </g>
                    <g>
                        <path d="M2.129 5.258c1.145 0 2.08.936 2.08 2.08 0 1.146-.935 2.081-2.08 2.081S.049 8.484.049 7.34v-2.08h2.08zM2.129 4.21c-1.145 0-2.08-.936-2.08-2.081S.983.049 2.128.049h5.21c1.145 0 2.08.935 2.08 2.08s-.935 2.08-2.08 2.08h-5.21z" transform="translate(-335 -635) translate(315 625) translate(20 10) translate(10.484 10.484)"/>
                    </g>
                </g>
            </g>
        </g>
    </g>
</svg>
