<svg xmlns="http://www.w3.org/2000/svg" width="79" height="91" viewBox="0 0 79 91">
    <g fill="none" fill-rule="evenodd" stroke="#505A72" stroke-linecap="round" stroke-linejoin="round" stroke-width="4">
        <path d="M39 24v-4M39 51v-6M8 83.25h17M52 83.25h17M39 78v-8M45.068 83.5c0 3.037-2.478 5.5-5.534 5.5C36.478 89 34 86.537 34 83.5c0-3.038 2.478-5.5 5.534-5.5 3.056 0 5.534 2.462 5.534 5.5zM73.91 19.828H4.73A2.722 2.722 0 0 1 2 17.116V4.714A2.722 2.722 0 0 1 4.73 2h69.18a2.722 2.722 0 0 1 2.73 2.714v12.402a2.721 2.721 0 0 1-2.73 2.712zM11 11h2.315M20 11h2.315M29 11h2.315M38 11h2.315M47 11h2.315M73.91 44.828H4.73A2.722 2.722 0 0 1 2 42.116V29.713A2.722 2.722 0 0 1 4.73 27h69.18a2.721 2.721 0 0 1 2.73 2.713v12.403a2.721 2.721 0 0 1-2.73 2.712z"/>
        <path d="M65.284 38.528c-1.811 0-3.284-1.464-3.284-3.264 0-1.8 1.473-3.264 3.284-3.264 1.81 0 3.283 1.464 3.283 3.264 0 1.8-1.472 3.264-3.283 3.264zM65.284 63.528c-1.811 0-3.284-1.464-3.284-3.264 0-1.8 1.473-3.264 3.284-3.264 1.81 0 3.283 1.464 3.283 3.264 0 1.8-1.472 3.264-3.283 3.264zM65.284 13.528c-1.811 0-3.284-1.464-3.284-3.264C62 8.464 63.473 7 65.284 7c1.81 0 3.283 1.464 3.283 3.264 0 1.8-1.472 3.264-3.283 3.264z"/>
        <path d="M73.91 69.828H4.73A2.722 2.722 0 0 1 2 67.116V54.713A2.722 2.722 0 0 1 4.73 52h69.18a2.721 2.721 0 0 1 2.73 2.713v12.403a2.721 2.721 0 0 1-2.73 2.712zM11 36h2.315M20 36h2.315M29 36h2.315M38 36h2.315M47 36h2.315M12 61h2.315M21 61h2.315M30 61h2.315M39 61h2.315M48 61h2.315"/>
    </g>
</svg>
