<svg xmlns="http://www.w3.org/2000/svg" xmlns:xlink="http://www.w3.org/1999/xlink" width="122" height="30" viewBox="0 0 122 30">
    <defs>
        <path id="a" d="M.264.69H15.97V21.43H.264z"/>
        <path id="c" d="M.862.63h15.705V22.4H.862z"/>
        <path id="e" d="M0 0h6.293v6.293H0z"/>
    </defs>
    <g fill="none" fill-rule="evenodd">
        <path fill="#6553C0" d="M15.628 11.958l-.059 5.837c0 5.61-5.402 6.748-7.282 6.748-3.911 0-7.212-2.382-7.212-6.748v-6.168c0-1.365.787-2.184 2.061-2.184 1.304 0 2.093.819 2.093 2.184v5.7c0 2.213 1.118 3.425 3.058 3.425 2.062 0 3.187-1.03 3.187-3.425v-5.37c0-1.363.788-2.182 2.091-2.182 1.274 0 2.063.819 2.063 2.183M86.41 11.626l-.06 6.17c0 5.61-5.402 6.746-7.281 6.746-3.91 0-7.213-2.38-7.213-6.746v-6.17c0-1.364.788-2.182 2.063-2.182 1.303 0 2.09.818 2.09 2.182v5.7c0 2.214 1.12 3.427 3.06 3.427 2.061 0 3.186-1.03 3.186-3.427v-5.7c0-1.364.789-2.182 2.093-2.182 1.274 0 2.061.818 2.061 2.182"/>
        <g transform="translate(18.214 8.571)">
            <mask id="b" fill="#fff">
                <use xlink:href="#a"/>
            </mask>
            <path fill="#6553C0" d="M11.725 8.33c0-2.304-1.486-3.85-3.608-3.85-2.153 0-3.699 1.607-3.699 3.85 0 2.244 1.546 3.851 3.699 3.851 2.122 0 3.608-1.577 3.608-3.85m4.245 0c0 4.639-2.79 7.64-7.004 7.64-1.91 0-3.456-.666-4.488-1.82h-.06v5.064c0 1.364-.789 2.214-2.091 2.214-1.274 0-2.063-.85-2.063-2.214V3.055c0-1.365.789-2.183 2.063-2.183 1.12 0 1.879.607 2.06 1.668h.061C5.478 1.357 7.025.69 8.966.69c4.214 0 7.004 3.001 7.004 7.64" mask="url(#b)"/>
        </g>
        <path fill="#6553C0" d="M47.666 16.902c0-2.305-1.486-3.85-3.607-3.85-2.153 0-3.699 1.607-3.699 3.85 0 2.244 1.546 3.85 3.699 3.85 2.121 0 3.607-1.576 3.607-3.85m4.245 0c0 4.64-2.79 7.64-7.004 7.64-1.94 0-3.486-.666-4.517-1.879h-.061c-.182 1.06-.94 1.697-2.031 1.697-1.304 0-2.092-.848-2.092-2.212V4.987c0-1.365.788-2.214 2.092-2.214 1.273 0 2.062.849 2.062 2.214v6.124h.06c1-1.183 2.547-1.85 4.487-1.85 4.214 0 7.004 3.002 7.004 7.641M61.836 20.753c2.183 0 3.669-1.576 3.669-3.851 0-2.304-1.486-3.85-3.669-3.85-2.153 0-3.638 1.546-3.638 3.85 0 2.275 1.485 3.85 3.638 3.85m0-11.49c4.7 0 7.914 3.092 7.914 7.64 0 4.518-3.214 7.64-7.914 7.64-4.669 0-7.882-3.122-7.882-7.64 0-4.548 3.213-7.64 7.882-7.64M103.83 15.992v6.156c0 1.364-.788 2.212-2.092 2.212-1.274 0-2.062-.848-2.062-2.212v-5.67c0-2.244-1.031-3.427-3.032-3.427-2.092 0-3.305 1.425-3.305 3.821v5.276c0 1.364-.788 2.212-2.092 2.212-1.273 0-2.061-.848-2.061-2.212V11.656c0-1.364.788-2.212 2.061-2.212 1.091 0 1.85.606 2.063 1.637h.059c1.002-1.183 2.457-1.82 4.367-1.82 3.972 0 6.093 2.365 6.093 6.731"/>
        <g transform="translate(105 2.143)">
            <mask id="d" fill="#fff">
                <use xlink:href="#c"/>
            </mask>
            <path fill="#6553C0" d="M12.414 14.76c0-2.244-1.546-3.851-3.7-3.851-2.122 0-3.607 1.546-3.607 3.85 0 2.274 1.485 3.851 3.607 3.851 2.154 0 3.7-1.607 3.7-3.85m4.154-11.916v17.161c0 1.364-.789 2.212-2.093 2.212-1.092 0-1.85-.636-2.031-1.697h-.06c-1.031 1.213-2.578 1.88-4.519 1.88-4.215 0-7.003-3.001-7.003-7.64 0-4.64 2.788-7.641 7.003-7.641 1.94 0 3.488.666 4.487 1.85h.062V2.843c0-1.365.787-2.214 2.061-2.214 1.304 0 2.093.849 2.093 2.214" mask="url(#d)"/>
        </g>
        <g>
            <mask id="f" fill="#fff">
                <use xlink:href="#e"/>
            </mask>
            <path fill="#6553C0" d="M6.293 3.146A3.146 3.146 0 1 1 0 3.148a3.146 3.146 0 0 1 6.293-.002" mask="url(#f)"/>
        </g>
    </g>
</svg>
