<svg xmlns="http://www.w3.org/2000/svg" xmlns:xlink="http://www.w3.org/1999/xlink" width="130" height="32" viewBox="0 0 130 32">
    <defs>
        <path id="6ah9w93u2a" d="M0.281 0.736L16.997 0.736 16.997 22.857 0.281 22.857z"/>
        <path id="ketplwn3dc" d="M0.917 0.672L17.633 0.672 17.633 23.893 0.917 23.893z"/>
        <path id="d81956hmxe" d="M0 0L6.698 0 6.698 6.713 0 6.713z"/>
    </defs>
    <g fill="none" fill-rule="evenodd">
        <g>
            <g>
                <path fill="#6553C0" d="M16.633 12.755l-.062 6.226c0 5.984-5.75 7.198-7.751 7.198-4.163 0-7.676-2.54-7.676-7.198v-6.58c0-1.455.838-2.328 2.194-2.328 1.388 0 2.227.873 2.227 2.329v6.08c0 2.361 1.19 3.654 3.255 3.654 2.195 0 3.392-1.1 3.392-3.654v-5.727c0-1.455.838-2.328 2.226-2.328 1.356 0 2.195.873 2.195 2.328M91.968 12.401l-.063 6.581c0 5.984-5.75 7.197-7.75 7.197-4.162 0-7.677-2.54-7.677-7.197v-6.58c0-1.455.838-2.329 2.195-2.329 1.388 0 2.226.874 2.226 2.328v6.08c0 2.362 1.191 3.655 3.256 3.655 2.194 0 3.392-1.1 3.392-3.655v-6.08c0-1.454.839-2.328 2.227-2.328 1.356 0 2.194.874 2.194 2.328" transform="translate(-165 -3897) translate(165 3897)"/>
                <g transform="translate(-165 -3897) translate(165 3897) translate(19.386 9.143)">
                    <mask id="sflne02xzb" fill="#fff">
                        <use xlink:href="#6ah9w93u2a"/>
                    </mask>
                    <path fill="#6553C0" d="M12.48 8.886c0-2.458-1.582-4.107-3.841-4.107-2.291 0-3.937 1.714-3.937 4.107 0 2.393 1.646 4.107 3.937 4.107 2.259 0 3.84-1.682 3.84-4.107m4.518 0c0 4.949-2.969 8.15-7.454 8.15-2.033 0-3.679-.711-4.777-1.94h-.064v5.4c0 1.455-.84 2.361-2.226 2.361-1.356 0-2.195-.906-2.195-2.36V3.258c0-1.456.84-2.328 2.195-2.328 1.193 0 2 .646 2.193 1.778h.065C5.831 1.447 7.477.736 9.543.736c4.485 0 7.454 3.201 7.454 8.15" mask="url(#sflne02xzb)"/>
                </g>
                <path fill="#6553C0" d="M50.732 18.029c0-2.458-1.581-4.108-3.84-4.108-2.29 0-3.936 1.715-3.936 4.108s1.646 4.107 3.937 4.107c2.258 0 3.84-1.682 3.84-4.107m4.517 0c0 4.948-2.969 8.15-7.454 8.15-2.065 0-3.71-.711-4.808-2.005h-.065c-.194 1.131-1.001 1.81-2.162 1.81-1.388 0-2.226-.905-2.226-2.36V5.32c0-1.456.838-2.36 2.226-2.36 1.356 0 2.195.904 2.195 2.36v6.533h.064c1.065-1.262 2.71-1.973 4.776-1.973 4.485 0 7.454 3.201 7.454 8.15M65.814 22.136c2.323 0 3.905-1.681 3.905-4.107 0-2.457-1.582-4.108-3.905-4.108-2.292 0-3.872 1.65-3.872 4.108 0 2.426 1.58 4.107 3.872 4.107m0-12.257c5.002 0 8.423 3.298 8.423 8.15 0 4.82-3.421 8.15-8.423 8.15-4.97 0-8.39-3.33-8.39-8.15 0-4.852 3.42-8.15 8.39-8.15M110.508 17.059v6.565c0 1.455-.838 2.36-2.226 2.36-1.356 0-2.194-.905-2.194-2.36v-6.048c0-2.393-1.098-3.655-3.227-3.655-2.227 0-3.518 1.52-3.518 4.076v5.627c0 1.455-.838 2.36-2.226 2.36-1.356 0-2.194-.905-2.194-2.36v-11.19c0-1.455.838-2.36 2.194-2.36 1.161 0 1.968.646 2.195 1.746h.063c1.066-1.262 2.615-1.94 4.648-1.94 4.227 0 6.485 2.521 6.485 7.179" transform="translate(-165 -3897) translate(165 3897)"/>
                <g transform="translate(-165 -3897) translate(165 3897) translate(111.754 2.286)">
                    <mask id="9aecmaz1wd" fill="#fff">
                        <use xlink:href="#ketplwn3dc"/>
                    </mask>
                    <path fill="#6553C0" d="M13.212 15.743c0-2.393-1.645-4.107-3.937-4.107-2.26 0-3.84 1.649-3.84 4.107 0 2.425 1.58 4.108 3.84 4.108 2.292 0 3.937-1.715 3.937-4.108m4.421-12.71V21.34c0 1.454-.839 2.36-2.227 2.36-1.162 0-1.97-.68-2.162-1.81h-.064c-1.097 1.293-2.743 2.004-4.809 2.004-4.486 0-7.454-3.201-7.454-8.15 0-4.948 2.968-8.15 7.454-8.15 2.066 0 3.712.711 4.775 1.973h.066V3.033c0-1.456.838-2.36 2.194-2.36 1.388 0 2.227.904 2.227 2.36" mask="url(#9aecmaz1wd)"/>
                </g>
                <g transform="translate(-165 -3897) translate(165 3897)">
                    <mask id="5f1gxxfi5f" fill="#fff">
                        <use xlink:href="#d81956hmxe"/>
                    </mask>
                    <path fill="#6553C0" d="M6.698 3.356c0 1.854-1.499 3.357-3.35 3.357C1.498 6.713 0 5.21 0 3.356 0 1.503 1.5 0 3.348 0c1.851 0 3.35 1.503 3.35 3.356" mask="url(#5f1gxxfi5f)"/>
                </g>
            </g>
        </g>
    </g>
</svg>
