<?xml version="1.0" standalone="no"?>
<!DOCTYPE svg PUBLIC "-//W3C//DTD SVG 20010904//EN"
 "http://www.w3.org/TR/2001/REC-SVG-20010904/DTD/svg10.dtd">
<svg version="1.0" xmlns="http://www.w3.org/2000/svg"
 width="300.000000pt" height="300.000000pt" viewBox="0 0 300.000000 300.000000"
 preserveAspectRatio="xMidYMid meet">
<metadata>
Created by potrace 1.14, written by Peter Selinger 2001-2017
</metadata>
<g transform="translate(0.000000,300.000000) scale(0.100000,-0.100000)"
fill="#000000" stroke="none">
<path d="M1350 2791 c-97 -27 -158 -57 -225 -108 -114 -87 -197 -216 -231
-359 -14 -59 -16 -153 -16 -664 0 -538 2 -600 17 -645 21 -61 62 -121 109
-163 33 -28 53 -40 129 -71 15 -6 67 -11 116 -11 l87 0 -1 -212 c0 -117 4
-230 9 -252 26 -107 161 -151 246 -79 55 46 60 72 60 318 l0 223 108 4 c88 2
115 7 156 27 93 46 171 138 196 231 8 32 12 210 12 630 0 623 -3 667 -51 775
-30 67 -91 156 -104 148 -5 -3 -7 -1 -4 5 10 14 -71 89 -142 133 -93 56 -180
81 -301 85 -81 3 -120 0 -170 -15z"/>
</g>
</svg>
