<?xml version="1.0" standalone="no"?>
<!DOCTYPE svg PUBLIC "-//W3C//DTD SVG 20010904//EN"
 "http://www.w3.org/TR/2001/REC-SVG-20010904/DTD/svg10.dtd">
<svg version="1.0" xmlns="http://www.w3.org/2000/svg"
 width="192.000000pt" height="192.000000pt" viewBox="0 0 192.000000 192.000000"
 preserveAspectRatio="xMidYMid meet">
<metadata>
Created by potrace 1.14, written by Peter Selinger 2001-2017
</metadata>
<g transform="translate(0.000000,192.000000) scale(0.100000,-0.100000)"
fill="#000000" stroke="none">
<path d="M850 1872 c-81 -21 -150 -61 -207 -120 -44 -45 -95 -133 -110 -188
-4 -16 -9 -230 -10 -475 -3 -429 -3 -448 17 -494 24 -55 76 -109 127 -130 47
-20 66 -23 128 -24 l50 -1 0 -153 c-1 -83 3 -164 7 -178 21 -64 101 -94 159
-60 49 28 53 44 55 219 2 90 4 165 6 167 2 2 30 4 63 6 116 5 196 52 240 143
l26 53 -3 459 -3 459 -36 75 c-94 196 -302 295 -509 242z"/>
</g>
</svg>
